G04 #@! TF.GenerationSoftware,KiCad,Pcbnew,7.0.11+1*
G04 #@! TF.CreationDate,2024-04-14T01:38:43+00:00*
G04 #@! TF.ProjectId,mbed-ce-ci-shield-v2,6d626564-2d63-4652-9d63-692d73686965,0*
G04 #@! TF.SameCoordinates,Original*
G04 #@! TF.FileFunction,Soldermask,Top*
G04 #@! TF.FilePolarity,Negative*
%FSLAX46Y46*%
G04 Gerber Fmt 4.6, Leading zero omitted, Abs format (unit mm)*
G04 Created by KiCad (PCBNEW 7.0.11+1) date 2024-04-14 01:38:43*
%MOMM*%
%LPD*%
G01*
G04 APERTURE LIST*
%ADD10O,1.801600X1.801600*%
%ADD11C,1.701600*%
%ADD12C,0.751600*%
%ADD13O,1.101600X2.201600*%
%ADD14O,1.101600X1.901600*%
%ADD15C,1.601600*%
%ADD16C,3.601600*%
%ADD17C,0.901600*%
G04 APERTURE END LIST*
G36*
G01*
X131121287Y-31536859D02*
X132478713Y-31536859D01*
G75*
G02*
X132750800Y-31808946I0J-272087D01*
G01*
X132750800Y-32516372D01*
G75*
G02*
X132478713Y-32788459I-272087J0D01*
G01*
X131121287Y-32788459D01*
G75*
G02*
X130849200Y-32516372I0J272087D01*
G01*
X130849200Y-31808946D01*
G75*
G02*
X131121287Y-31536859I272087J0D01*
G01*
G37*
G36*
G01*
X131121287Y-34486859D02*
X132478713Y-34486859D01*
G75*
G02*
X132750800Y-34758946I0J-272087D01*
G01*
X132750800Y-35466372D01*
G75*
G02*
X132478713Y-35738459I-272087J0D01*
G01*
X131121287Y-35738459D01*
G75*
G02*
X130849200Y-35466372I0J272087D01*
G01*
X130849200Y-34758946D01*
G75*
G02*
X131121287Y-34486859I272087J0D01*
G01*
G37*
G36*
G01*
X117000800Y-33458946D02*
X117000800Y-34816372D01*
G75*
G02*
X116728713Y-35088459I-272087J0D01*
G01*
X116021287Y-35088459D01*
G75*
G02*
X115749200Y-34816372I0J272087D01*
G01*
X115749200Y-33458946D01*
G75*
G02*
X116021287Y-33186859I272087J0D01*
G01*
X116728713Y-33186859D01*
G75*
G02*
X117000800Y-33458946I0J-272087D01*
G01*
G37*
G36*
G01*
X114050800Y-33458946D02*
X114050800Y-34816372D01*
G75*
G02*
X113778713Y-35088459I-272087J0D01*
G01*
X113071287Y-35088459D01*
G75*
G02*
X112799200Y-34816372I0J272087D01*
G01*
X112799200Y-33458946D01*
G75*
G02*
X113071287Y-33186859I272087J0D01*
G01*
X113778713Y-33186859D01*
G75*
G02*
X114050800Y-33458946I0J-272087D01*
G01*
G37*
G36*
G01*
X120399200Y-93178713D02*
X120399200Y-91821287D01*
G75*
G02*
X120671287Y-91549200I272087J0D01*
G01*
X121378713Y-91549200D01*
G75*
G02*
X121650800Y-91821287I0J-272087D01*
G01*
X121650800Y-93178713D01*
G75*
G02*
X121378713Y-93450800I-272087J0D01*
G01*
X120671287Y-93450800D01*
G75*
G02*
X120399200Y-93178713I0J272087D01*
G01*
G37*
G36*
G01*
X123349200Y-93178713D02*
X123349200Y-91821287D01*
G75*
G02*
X123621287Y-91549200I272087J0D01*
G01*
X124328713Y-91549200D01*
G75*
G02*
X124600800Y-91821287I0J-272087D01*
G01*
X124600800Y-93178713D01*
G75*
G02*
X124328713Y-93450800I-272087J0D01*
G01*
X123621287Y-93450800D01*
G75*
G02*
X123349200Y-93178713I0J272087D01*
G01*
G37*
G36*
G01*
X128772500Y-37386859D02*
X129172500Y-37386859D01*
G75*
G02*
X129223300Y-37437659I0J-50800D01*
G01*
X129223300Y-38637659D01*
G75*
G02*
X129172500Y-38688459I-50800J0D01*
G01*
X128772500Y-38688459D01*
G75*
G02*
X128721700Y-38637659I0J50800D01*
G01*
X128721700Y-37437659D01*
G75*
G02*
X128772500Y-37386859I50800J0D01*
G01*
G37*
G36*
G01*
X128137500Y-37386859D02*
X128537500Y-37386859D01*
G75*
G02*
X128588300Y-37437659I0J-50800D01*
G01*
X128588300Y-38637659D01*
G75*
G02*
X128537500Y-38688459I-50800J0D01*
G01*
X128137500Y-38688459D01*
G75*
G02*
X128086700Y-38637659I0J50800D01*
G01*
X128086700Y-37437659D01*
G75*
G02*
X128137500Y-37386859I50800J0D01*
G01*
G37*
G36*
G01*
X127502500Y-37386859D02*
X127902500Y-37386859D01*
G75*
G02*
X127953300Y-37437659I0J-50800D01*
G01*
X127953300Y-38637659D01*
G75*
G02*
X127902500Y-38688459I-50800J0D01*
G01*
X127502500Y-38688459D01*
G75*
G02*
X127451700Y-38637659I0J50800D01*
G01*
X127451700Y-37437659D01*
G75*
G02*
X127502500Y-37386859I50800J0D01*
G01*
G37*
G36*
G01*
X126867500Y-37386859D02*
X127267500Y-37386859D01*
G75*
G02*
X127318300Y-37437659I0J-50800D01*
G01*
X127318300Y-38637659D01*
G75*
G02*
X127267500Y-38688459I-50800J0D01*
G01*
X126867500Y-38688459D01*
G75*
G02*
X126816700Y-38637659I0J50800D01*
G01*
X126816700Y-37437659D01*
G75*
G02*
X126867500Y-37386859I50800J0D01*
G01*
G37*
G36*
G01*
X126232500Y-37386859D02*
X126632500Y-37386859D01*
G75*
G02*
X126683300Y-37437659I0J-50800D01*
G01*
X126683300Y-38637659D01*
G75*
G02*
X126632500Y-38688459I-50800J0D01*
G01*
X126232500Y-38688459D01*
G75*
G02*
X126181700Y-38637659I0J50800D01*
G01*
X126181700Y-37437659D01*
G75*
G02*
X126232500Y-37386859I50800J0D01*
G01*
G37*
G36*
G01*
X125597500Y-37386859D02*
X125997500Y-37386859D01*
G75*
G02*
X126048300Y-37437659I0J-50800D01*
G01*
X126048300Y-38637659D01*
G75*
G02*
X125997500Y-38688459I-50800J0D01*
G01*
X125597500Y-38688459D01*
G75*
G02*
X125546700Y-38637659I0J50800D01*
G01*
X125546700Y-37437659D01*
G75*
G02*
X125597500Y-37386859I50800J0D01*
G01*
G37*
G36*
G01*
X124962500Y-37386859D02*
X125362500Y-37386859D01*
G75*
G02*
X125413300Y-37437659I0J-50800D01*
G01*
X125413300Y-38637659D01*
G75*
G02*
X125362500Y-38688459I-50800J0D01*
G01*
X124962500Y-38688459D01*
G75*
G02*
X124911700Y-38637659I0J50800D01*
G01*
X124911700Y-37437659D01*
G75*
G02*
X124962500Y-37386859I50800J0D01*
G01*
G37*
G36*
G01*
X124327500Y-37386859D02*
X124727500Y-37386859D01*
G75*
G02*
X124778300Y-37437659I0J-50800D01*
G01*
X124778300Y-38637659D01*
G75*
G02*
X124727500Y-38688459I-50800J0D01*
G01*
X124327500Y-38688459D01*
G75*
G02*
X124276700Y-38637659I0J50800D01*
G01*
X124276700Y-37437659D01*
G75*
G02*
X124327500Y-37386859I50800J0D01*
G01*
G37*
G36*
G01*
X123692500Y-37386859D02*
X124092500Y-37386859D01*
G75*
G02*
X124143300Y-37437659I0J-50800D01*
G01*
X124143300Y-38637659D01*
G75*
G02*
X124092500Y-38688459I-50800J0D01*
G01*
X123692500Y-38688459D01*
G75*
G02*
X123641700Y-38637659I0J50800D01*
G01*
X123641700Y-37437659D01*
G75*
G02*
X123692500Y-37386859I50800J0D01*
G01*
G37*
G36*
G01*
X123057500Y-37386859D02*
X123457500Y-37386859D01*
G75*
G02*
X123508300Y-37437659I0J-50800D01*
G01*
X123508300Y-38637659D01*
G75*
G02*
X123457500Y-38688459I-50800J0D01*
G01*
X123057500Y-38688459D01*
G75*
G02*
X123006700Y-38637659I0J50800D01*
G01*
X123006700Y-37437659D01*
G75*
G02*
X123057500Y-37386859I50800J0D01*
G01*
G37*
G36*
G01*
X122422500Y-37386859D02*
X122822500Y-37386859D01*
G75*
G02*
X122873300Y-37437659I0J-50800D01*
G01*
X122873300Y-38637659D01*
G75*
G02*
X122822500Y-38688459I-50800J0D01*
G01*
X122422500Y-38688459D01*
G75*
G02*
X122371700Y-38637659I0J50800D01*
G01*
X122371700Y-37437659D01*
G75*
G02*
X122422500Y-37386859I50800J0D01*
G01*
G37*
G36*
G01*
X121787500Y-37386859D02*
X122187500Y-37386859D01*
G75*
G02*
X122238300Y-37437659I0J-50800D01*
G01*
X122238300Y-38637659D01*
G75*
G02*
X122187500Y-38688459I-50800J0D01*
G01*
X121787500Y-38688459D01*
G75*
G02*
X121736700Y-38637659I0J50800D01*
G01*
X121736700Y-37437659D01*
G75*
G02*
X121787500Y-37386859I50800J0D01*
G01*
G37*
G36*
G01*
X121152500Y-37386859D02*
X121552500Y-37386859D01*
G75*
G02*
X121603300Y-37437659I0J-50800D01*
G01*
X121603300Y-38637659D01*
G75*
G02*
X121552500Y-38688459I-50800J0D01*
G01*
X121152500Y-38688459D01*
G75*
G02*
X121101700Y-38637659I0J50800D01*
G01*
X121101700Y-37437659D01*
G75*
G02*
X121152500Y-37386859I50800J0D01*
G01*
G37*
G36*
G01*
X120517500Y-37386859D02*
X120917500Y-37386859D01*
G75*
G02*
X120968300Y-37437659I0J-50800D01*
G01*
X120968300Y-38637659D01*
G75*
G02*
X120917500Y-38688459I-50800J0D01*
G01*
X120517500Y-38688459D01*
G75*
G02*
X120466700Y-38637659I0J50800D01*
G01*
X120466700Y-37437659D01*
G75*
G02*
X120517500Y-37386859I50800J0D01*
G01*
G37*
G36*
G01*
X119882500Y-37386859D02*
X120282500Y-37386859D01*
G75*
G02*
X120333300Y-37437659I0J-50800D01*
G01*
X120333300Y-38637659D01*
G75*
G02*
X120282500Y-38688459I-50800J0D01*
G01*
X119882500Y-38688459D01*
G75*
G02*
X119831700Y-38637659I0J50800D01*
G01*
X119831700Y-37437659D01*
G75*
G02*
X119882500Y-37386859I50800J0D01*
G01*
G37*
G36*
G01*
X119247500Y-37386859D02*
X119647500Y-37386859D01*
G75*
G02*
X119698300Y-37437659I0J-50800D01*
G01*
X119698300Y-38637659D01*
G75*
G02*
X119647500Y-38688459I-50800J0D01*
G01*
X119247500Y-38688459D01*
G75*
G02*
X119196700Y-38637659I0J50800D01*
G01*
X119196700Y-37437659D01*
G75*
G02*
X119247500Y-37386859I50800J0D01*
G01*
G37*
G36*
G01*
X118612500Y-37386859D02*
X119012500Y-37386859D01*
G75*
G02*
X119063300Y-37437659I0J-50800D01*
G01*
X119063300Y-38637659D01*
G75*
G02*
X119012500Y-38688459I-50800J0D01*
G01*
X118612500Y-38688459D01*
G75*
G02*
X118561700Y-38637659I0J50800D01*
G01*
X118561700Y-37437659D01*
G75*
G02*
X118612500Y-37386859I50800J0D01*
G01*
G37*
G36*
G01*
X117977500Y-37386859D02*
X118377500Y-37386859D01*
G75*
G02*
X118428300Y-37437659I0J-50800D01*
G01*
X118428300Y-38637659D01*
G75*
G02*
X118377500Y-38688459I-50800J0D01*
G01*
X117977500Y-38688459D01*
G75*
G02*
X117926700Y-38637659I0J50800D01*
G01*
X117926700Y-37437659D01*
G75*
G02*
X117977500Y-37386859I50800J0D01*
G01*
G37*
G36*
G01*
X117342500Y-37386859D02*
X117742500Y-37386859D01*
G75*
G02*
X117793300Y-37437659I0J-50800D01*
G01*
X117793300Y-38637659D01*
G75*
G02*
X117742500Y-38688459I-50800J0D01*
G01*
X117342500Y-38688459D01*
G75*
G02*
X117291700Y-38637659I0J50800D01*
G01*
X117291700Y-37437659D01*
G75*
G02*
X117342500Y-37386859I50800J0D01*
G01*
G37*
G36*
G01*
X116707500Y-37386859D02*
X117107500Y-37386859D01*
G75*
G02*
X117158300Y-37437659I0J-50800D01*
G01*
X117158300Y-38637659D01*
G75*
G02*
X117107500Y-38688459I-50800J0D01*
G01*
X116707500Y-38688459D01*
G75*
G02*
X116656700Y-38637659I0J50800D01*
G01*
X116656700Y-37437659D01*
G75*
G02*
X116707500Y-37386859I50800J0D01*
G01*
G37*
G36*
G01*
X116072500Y-37386859D02*
X116472500Y-37386859D01*
G75*
G02*
X116523300Y-37437659I0J-50800D01*
G01*
X116523300Y-38637659D01*
G75*
G02*
X116472500Y-38688459I-50800J0D01*
G01*
X116072500Y-38688459D01*
G75*
G02*
X116021700Y-38637659I0J50800D01*
G01*
X116021700Y-37437659D01*
G75*
G02*
X116072500Y-37386859I50800J0D01*
G01*
G37*
G36*
G01*
X115437500Y-37386859D02*
X115837500Y-37386859D01*
G75*
G02*
X115888300Y-37437659I0J-50800D01*
G01*
X115888300Y-38637659D01*
G75*
G02*
X115837500Y-38688459I-50800J0D01*
G01*
X115437500Y-38688459D01*
G75*
G02*
X115386700Y-38637659I0J50800D01*
G01*
X115386700Y-37437659D01*
G75*
G02*
X115437500Y-37386859I50800J0D01*
G01*
G37*
G36*
G01*
X114802500Y-37386859D02*
X115202500Y-37386859D01*
G75*
G02*
X115253300Y-37437659I0J-50800D01*
G01*
X115253300Y-38637659D01*
G75*
G02*
X115202500Y-38688459I-50800J0D01*
G01*
X114802500Y-38688459D01*
G75*
G02*
X114751700Y-38637659I0J50800D01*
G01*
X114751700Y-37437659D01*
G75*
G02*
X114802500Y-37386859I50800J0D01*
G01*
G37*
G36*
G01*
X114167500Y-37386859D02*
X114567500Y-37386859D01*
G75*
G02*
X114618300Y-37437659I0J-50800D01*
G01*
X114618300Y-38637659D01*
G75*
G02*
X114567500Y-38688459I-50800J0D01*
G01*
X114167500Y-38688459D01*
G75*
G02*
X114116700Y-38637659I0J50800D01*
G01*
X114116700Y-37437659D01*
G75*
G02*
X114167500Y-37386859I50800J0D01*
G01*
G37*
G36*
G01*
X113532500Y-37386859D02*
X113932500Y-37386859D01*
G75*
G02*
X113983300Y-37437659I0J-50800D01*
G01*
X113983300Y-38637659D01*
G75*
G02*
X113932500Y-38688459I-50800J0D01*
G01*
X113532500Y-38688459D01*
G75*
G02*
X113481700Y-38637659I0J50800D01*
G01*
X113481700Y-37437659D01*
G75*
G02*
X113532500Y-37386859I50800J0D01*
G01*
G37*
G36*
G01*
X112897500Y-37386859D02*
X113297500Y-37386859D01*
G75*
G02*
X113348300Y-37437659I0J-50800D01*
G01*
X113348300Y-38637659D01*
G75*
G02*
X113297500Y-38688459I-50800J0D01*
G01*
X112897500Y-38688459D01*
G75*
G02*
X112846700Y-38637659I0J50800D01*
G01*
X112846700Y-37437659D01*
G75*
G02*
X112897500Y-37386859I50800J0D01*
G01*
G37*
G36*
G01*
X112262500Y-37386859D02*
X112662500Y-37386859D01*
G75*
G02*
X112713300Y-37437659I0J-50800D01*
G01*
X112713300Y-38637659D01*
G75*
G02*
X112662500Y-38688459I-50800J0D01*
G01*
X112262500Y-38688459D01*
G75*
G02*
X112211700Y-38637659I0J50800D01*
G01*
X112211700Y-37437659D01*
G75*
G02*
X112262500Y-37386859I50800J0D01*
G01*
G37*
G36*
G01*
X111627500Y-37386859D02*
X112027500Y-37386859D01*
G75*
G02*
X112078300Y-37437659I0J-50800D01*
G01*
X112078300Y-38637659D01*
G75*
G02*
X112027500Y-38688459I-50800J0D01*
G01*
X111627500Y-38688459D01*
G75*
G02*
X111576700Y-38637659I0J50800D01*
G01*
X111576700Y-37437659D01*
G75*
G02*
X111627500Y-37386859I50800J0D01*
G01*
G37*
G36*
G01*
X111627500Y-46786859D02*
X112027500Y-46786859D01*
G75*
G02*
X112078300Y-46837659I0J-50800D01*
G01*
X112078300Y-48037659D01*
G75*
G02*
X112027500Y-48088459I-50800J0D01*
G01*
X111627500Y-48088459D01*
G75*
G02*
X111576700Y-48037659I0J50800D01*
G01*
X111576700Y-46837659D01*
G75*
G02*
X111627500Y-46786859I50800J0D01*
G01*
G37*
G36*
G01*
X112262500Y-46786859D02*
X112662500Y-46786859D01*
G75*
G02*
X112713300Y-46837659I0J-50800D01*
G01*
X112713300Y-48037659D01*
G75*
G02*
X112662500Y-48088459I-50800J0D01*
G01*
X112262500Y-48088459D01*
G75*
G02*
X112211700Y-48037659I0J50800D01*
G01*
X112211700Y-46837659D01*
G75*
G02*
X112262500Y-46786859I50800J0D01*
G01*
G37*
G36*
G01*
X112897500Y-46786859D02*
X113297500Y-46786859D01*
G75*
G02*
X113348300Y-46837659I0J-50800D01*
G01*
X113348300Y-48037659D01*
G75*
G02*
X113297500Y-48088459I-50800J0D01*
G01*
X112897500Y-48088459D01*
G75*
G02*
X112846700Y-48037659I0J50800D01*
G01*
X112846700Y-46837659D01*
G75*
G02*
X112897500Y-46786859I50800J0D01*
G01*
G37*
G36*
G01*
X113532500Y-46786859D02*
X113932500Y-46786859D01*
G75*
G02*
X113983300Y-46837659I0J-50800D01*
G01*
X113983300Y-48037659D01*
G75*
G02*
X113932500Y-48088459I-50800J0D01*
G01*
X113532500Y-48088459D01*
G75*
G02*
X113481700Y-48037659I0J50800D01*
G01*
X113481700Y-46837659D01*
G75*
G02*
X113532500Y-46786859I50800J0D01*
G01*
G37*
G36*
G01*
X114167500Y-46786859D02*
X114567500Y-46786859D01*
G75*
G02*
X114618300Y-46837659I0J-50800D01*
G01*
X114618300Y-48037659D01*
G75*
G02*
X114567500Y-48088459I-50800J0D01*
G01*
X114167500Y-48088459D01*
G75*
G02*
X114116700Y-48037659I0J50800D01*
G01*
X114116700Y-46837659D01*
G75*
G02*
X114167500Y-46786859I50800J0D01*
G01*
G37*
G36*
G01*
X114802500Y-46786859D02*
X115202500Y-46786859D01*
G75*
G02*
X115253300Y-46837659I0J-50800D01*
G01*
X115253300Y-48037659D01*
G75*
G02*
X115202500Y-48088459I-50800J0D01*
G01*
X114802500Y-48088459D01*
G75*
G02*
X114751700Y-48037659I0J50800D01*
G01*
X114751700Y-46837659D01*
G75*
G02*
X114802500Y-46786859I50800J0D01*
G01*
G37*
G36*
G01*
X115437500Y-46786859D02*
X115837500Y-46786859D01*
G75*
G02*
X115888300Y-46837659I0J-50800D01*
G01*
X115888300Y-48037659D01*
G75*
G02*
X115837500Y-48088459I-50800J0D01*
G01*
X115437500Y-48088459D01*
G75*
G02*
X115386700Y-48037659I0J50800D01*
G01*
X115386700Y-46837659D01*
G75*
G02*
X115437500Y-46786859I50800J0D01*
G01*
G37*
G36*
G01*
X116072500Y-46786859D02*
X116472500Y-46786859D01*
G75*
G02*
X116523300Y-46837659I0J-50800D01*
G01*
X116523300Y-48037659D01*
G75*
G02*
X116472500Y-48088459I-50800J0D01*
G01*
X116072500Y-48088459D01*
G75*
G02*
X116021700Y-48037659I0J50800D01*
G01*
X116021700Y-46837659D01*
G75*
G02*
X116072500Y-46786859I50800J0D01*
G01*
G37*
G36*
G01*
X116707500Y-46786859D02*
X117107500Y-46786859D01*
G75*
G02*
X117158300Y-46837659I0J-50800D01*
G01*
X117158300Y-48037659D01*
G75*
G02*
X117107500Y-48088459I-50800J0D01*
G01*
X116707500Y-48088459D01*
G75*
G02*
X116656700Y-48037659I0J50800D01*
G01*
X116656700Y-46837659D01*
G75*
G02*
X116707500Y-46786859I50800J0D01*
G01*
G37*
G36*
G01*
X117342500Y-46786859D02*
X117742500Y-46786859D01*
G75*
G02*
X117793300Y-46837659I0J-50800D01*
G01*
X117793300Y-48037659D01*
G75*
G02*
X117742500Y-48088459I-50800J0D01*
G01*
X117342500Y-48088459D01*
G75*
G02*
X117291700Y-48037659I0J50800D01*
G01*
X117291700Y-46837659D01*
G75*
G02*
X117342500Y-46786859I50800J0D01*
G01*
G37*
G36*
G01*
X117977500Y-46786859D02*
X118377500Y-46786859D01*
G75*
G02*
X118428300Y-46837659I0J-50800D01*
G01*
X118428300Y-48037659D01*
G75*
G02*
X118377500Y-48088459I-50800J0D01*
G01*
X117977500Y-48088459D01*
G75*
G02*
X117926700Y-48037659I0J50800D01*
G01*
X117926700Y-46837659D01*
G75*
G02*
X117977500Y-46786859I50800J0D01*
G01*
G37*
G36*
G01*
X118612500Y-46786859D02*
X119012500Y-46786859D01*
G75*
G02*
X119063300Y-46837659I0J-50800D01*
G01*
X119063300Y-48037659D01*
G75*
G02*
X119012500Y-48088459I-50800J0D01*
G01*
X118612500Y-48088459D01*
G75*
G02*
X118561700Y-48037659I0J50800D01*
G01*
X118561700Y-46837659D01*
G75*
G02*
X118612500Y-46786859I50800J0D01*
G01*
G37*
G36*
G01*
X119247500Y-46786859D02*
X119647500Y-46786859D01*
G75*
G02*
X119698300Y-46837659I0J-50800D01*
G01*
X119698300Y-48037659D01*
G75*
G02*
X119647500Y-48088459I-50800J0D01*
G01*
X119247500Y-48088459D01*
G75*
G02*
X119196700Y-48037659I0J50800D01*
G01*
X119196700Y-46837659D01*
G75*
G02*
X119247500Y-46786859I50800J0D01*
G01*
G37*
G36*
G01*
X119882500Y-46786859D02*
X120282500Y-46786859D01*
G75*
G02*
X120333300Y-46837659I0J-50800D01*
G01*
X120333300Y-48037659D01*
G75*
G02*
X120282500Y-48088459I-50800J0D01*
G01*
X119882500Y-48088459D01*
G75*
G02*
X119831700Y-48037659I0J50800D01*
G01*
X119831700Y-46837659D01*
G75*
G02*
X119882500Y-46786859I50800J0D01*
G01*
G37*
G36*
G01*
X120517500Y-46786859D02*
X120917500Y-46786859D01*
G75*
G02*
X120968300Y-46837659I0J-50800D01*
G01*
X120968300Y-48037659D01*
G75*
G02*
X120917500Y-48088459I-50800J0D01*
G01*
X120517500Y-48088459D01*
G75*
G02*
X120466700Y-48037659I0J50800D01*
G01*
X120466700Y-46837659D01*
G75*
G02*
X120517500Y-46786859I50800J0D01*
G01*
G37*
G36*
G01*
X121152500Y-46786859D02*
X121552500Y-46786859D01*
G75*
G02*
X121603300Y-46837659I0J-50800D01*
G01*
X121603300Y-48037659D01*
G75*
G02*
X121552500Y-48088459I-50800J0D01*
G01*
X121152500Y-48088459D01*
G75*
G02*
X121101700Y-48037659I0J50800D01*
G01*
X121101700Y-46837659D01*
G75*
G02*
X121152500Y-46786859I50800J0D01*
G01*
G37*
G36*
G01*
X121787500Y-46786859D02*
X122187500Y-46786859D01*
G75*
G02*
X122238300Y-46837659I0J-50800D01*
G01*
X122238300Y-48037659D01*
G75*
G02*
X122187500Y-48088459I-50800J0D01*
G01*
X121787500Y-48088459D01*
G75*
G02*
X121736700Y-48037659I0J50800D01*
G01*
X121736700Y-46837659D01*
G75*
G02*
X121787500Y-46786859I50800J0D01*
G01*
G37*
G36*
G01*
X122422500Y-46786859D02*
X122822500Y-46786859D01*
G75*
G02*
X122873300Y-46837659I0J-50800D01*
G01*
X122873300Y-48037659D01*
G75*
G02*
X122822500Y-48088459I-50800J0D01*
G01*
X122422500Y-48088459D01*
G75*
G02*
X122371700Y-48037659I0J50800D01*
G01*
X122371700Y-46837659D01*
G75*
G02*
X122422500Y-46786859I50800J0D01*
G01*
G37*
G36*
G01*
X123057500Y-46786859D02*
X123457500Y-46786859D01*
G75*
G02*
X123508300Y-46837659I0J-50800D01*
G01*
X123508300Y-48037659D01*
G75*
G02*
X123457500Y-48088459I-50800J0D01*
G01*
X123057500Y-48088459D01*
G75*
G02*
X123006700Y-48037659I0J50800D01*
G01*
X123006700Y-46837659D01*
G75*
G02*
X123057500Y-46786859I50800J0D01*
G01*
G37*
G36*
G01*
X123692500Y-46786859D02*
X124092500Y-46786859D01*
G75*
G02*
X124143300Y-46837659I0J-50800D01*
G01*
X124143300Y-48037659D01*
G75*
G02*
X124092500Y-48088459I-50800J0D01*
G01*
X123692500Y-48088459D01*
G75*
G02*
X123641700Y-48037659I0J50800D01*
G01*
X123641700Y-46837659D01*
G75*
G02*
X123692500Y-46786859I50800J0D01*
G01*
G37*
G36*
G01*
X124327500Y-46786859D02*
X124727500Y-46786859D01*
G75*
G02*
X124778300Y-46837659I0J-50800D01*
G01*
X124778300Y-48037659D01*
G75*
G02*
X124727500Y-48088459I-50800J0D01*
G01*
X124327500Y-48088459D01*
G75*
G02*
X124276700Y-48037659I0J50800D01*
G01*
X124276700Y-46837659D01*
G75*
G02*
X124327500Y-46786859I50800J0D01*
G01*
G37*
G36*
G01*
X124962500Y-46786859D02*
X125362500Y-46786859D01*
G75*
G02*
X125413300Y-46837659I0J-50800D01*
G01*
X125413300Y-48037659D01*
G75*
G02*
X125362500Y-48088459I-50800J0D01*
G01*
X124962500Y-48088459D01*
G75*
G02*
X124911700Y-48037659I0J50800D01*
G01*
X124911700Y-46837659D01*
G75*
G02*
X124962500Y-46786859I50800J0D01*
G01*
G37*
G36*
G01*
X125597500Y-46786859D02*
X125997500Y-46786859D01*
G75*
G02*
X126048300Y-46837659I0J-50800D01*
G01*
X126048300Y-48037659D01*
G75*
G02*
X125997500Y-48088459I-50800J0D01*
G01*
X125597500Y-48088459D01*
G75*
G02*
X125546700Y-48037659I0J50800D01*
G01*
X125546700Y-46837659D01*
G75*
G02*
X125597500Y-46786859I50800J0D01*
G01*
G37*
G36*
G01*
X126232500Y-46786859D02*
X126632500Y-46786859D01*
G75*
G02*
X126683300Y-46837659I0J-50800D01*
G01*
X126683300Y-48037659D01*
G75*
G02*
X126632500Y-48088459I-50800J0D01*
G01*
X126232500Y-48088459D01*
G75*
G02*
X126181700Y-48037659I0J50800D01*
G01*
X126181700Y-46837659D01*
G75*
G02*
X126232500Y-46786859I50800J0D01*
G01*
G37*
G36*
G01*
X126867500Y-46786859D02*
X127267500Y-46786859D01*
G75*
G02*
X127318300Y-46837659I0J-50800D01*
G01*
X127318300Y-48037659D01*
G75*
G02*
X127267500Y-48088459I-50800J0D01*
G01*
X126867500Y-48088459D01*
G75*
G02*
X126816700Y-48037659I0J50800D01*
G01*
X126816700Y-46837659D01*
G75*
G02*
X126867500Y-46786859I50800J0D01*
G01*
G37*
G36*
G01*
X127502500Y-46786859D02*
X127902500Y-46786859D01*
G75*
G02*
X127953300Y-46837659I0J-50800D01*
G01*
X127953300Y-48037659D01*
G75*
G02*
X127902500Y-48088459I-50800J0D01*
G01*
X127502500Y-48088459D01*
G75*
G02*
X127451700Y-48037659I0J50800D01*
G01*
X127451700Y-46837659D01*
G75*
G02*
X127502500Y-46786859I50800J0D01*
G01*
G37*
G36*
G01*
X128137500Y-46786859D02*
X128537500Y-46786859D01*
G75*
G02*
X128588300Y-46837659I0J-50800D01*
G01*
X128588300Y-48037659D01*
G75*
G02*
X128537500Y-48088459I-50800J0D01*
G01*
X128137500Y-48088459D01*
G75*
G02*
X128086700Y-48037659I0J50800D01*
G01*
X128086700Y-46837659D01*
G75*
G02*
X128137500Y-46786859I50800J0D01*
G01*
G37*
G36*
G01*
X128772500Y-46786859D02*
X129172500Y-46786859D01*
G75*
G02*
X129223300Y-46837659I0J-50800D01*
G01*
X129223300Y-48037659D01*
G75*
G02*
X129172500Y-48088459I-50800J0D01*
G01*
X128772500Y-48088459D01*
G75*
G02*
X128721700Y-48037659I0J50800D01*
G01*
X128721700Y-46837659D01*
G75*
G02*
X128772500Y-46786859I50800J0D01*
G01*
G37*
G36*
G01*
X120399200Y-95678713D02*
X120399200Y-94321287D01*
G75*
G02*
X120671287Y-94049200I272087J0D01*
G01*
X121378713Y-94049200D01*
G75*
G02*
X121650800Y-94321287I0J-272087D01*
G01*
X121650800Y-95678713D01*
G75*
G02*
X121378713Y-95950800I-272087J0D01*
G01*
X120671287Y-95950800D01*
G75*
G02*
X120399200Y-95678713I0J272087D01*
G01*
G37*
G36*
G01*
X123349200Y-95678713D02*
X123349200Y-94321287D01*
G75*
G02*
X123621287Y-94049200I272087J0D01*
G01*
X124328713Y-94049200D01*
G75*
G02*
X124600800Y-94321287I0J-272087D01*
G01*
X124600800Y-95678713D01*
G75*
G02*
X124328713Y-95950800I-272087J0D01*
G01*
X123621287Y-95950800D01*
G75*
G02*
X123349200Y-95678713I0J272087D01*
G01*
G37*
G36*
G01*
X81731287Y-30899200D02*
X83088713Y-30899200D01*
G75*
G02*
X83360800Y-31171287I0J-272087D01*
G01*
X83360800Y-31878713D01*
G75*
G02*
X83088713Y-32150800I-272087J0D01*
G01*
X81731287Y-32150800D01*
G75*
G02*
X81459200Y-31878713I0J272087D01*
G01*
X81459200Y-31171287D01*
G75*
G02*
X81731287Y-30899200I272087J0D01*
G01*
G37*
G36*
G01*
X81731287Y-33849200D02*
X83088713Y-33849200D01*
G75*
G02*
X83360800Y-34121287I0J-272087D01*
G01*
X83360800Y-34828713D01*
G75*
G02*
X83088713Y-35100800I-272087J0D01*
G01*
X81731287Y-35100800D01*
G75*
G02*
X81459200Y-34828713I0J272087D01*
G01*
X81459200Y-34121287D01*
G75*
G02*
X81731287Y-33849200I272087J0D01*
G01*
G37*
G36*
G01*
X144596778Y-76674200D02*
X145903222Y-76674200D01*
G75*
G02*
X146175800Y-76946778I0J-272578D01*
G01*
X146175800Y-77628222D01*
G75*
G02*
X145903222Y-77900800I-272578J0D01*
G01*
X144596778Y-77900800D01*
G75*
G02*
X144324200Y-77628222I0J272578D01*
G01*
X144324200Y-76946778D01*
G75*
G02*
X144596778Y-76674200I272578J0D01*
G01*
G37*
G36*
G01*
X144596778Y-79599200D02*
X145903222Y-79599200D01*
G75*
G02*
X146175800Y-79871778I0J-272578D01*
G01*
X146175800Y-80553222D01*
G75*
G02*
X145903222Y-80825800I-272578J0D01*
G01*
X144596778Y-80825800D01*
G75*
G02*
X144324200Y-80553222I0J272578D01*
G01*
X144324200Y-79871778D01*
G75*
G02*
X144596778Y-79599200I272578J0D01*
G01*
G37*
G36*
G01*
X138275800Y-41546778D02*
X138275800Y-42853222D01*
G75*
G02*
X138003222Y-43125800I-272578J0D01*
G01*
X137321778Y-43125800D01*
G75*
G02*
X137049200Y-42853222I0J272578D01*
G01*
X137049200Y-41546778D01*
G75*
G02*
X137321778Y-41274200I272578J0D01*
G01*
X138003222Y-41274200D01*
G75*
G02*
X138275800Y-41546778I0J-272578D01*
G01*
G37*
G36*
G01*
X135350800Y-41546778D02*
X135350800Y-42853222D01*
G75*
G02*
X135078222Y-43125800I-272578J0D01*
G01*
X134396778Y-43125800D01*
G75*
G02*
X134124200Y-42853222I0J272578D01*
G01*
X134124200Y-41546778D01*
G75*
G02*
X134396778Y-41274200I272578J0D01*
G01*
X135078222Y-41274200D01*
G75*
G02*
X135350800Y-41546778I0J-272578D01*
G01*
G37*
G36*
G01*
X143178713Y-80850800D02*
X141821287Y-80850800D01*
G75*
G02*
X141549200Y-80578713I0J272087D01*
G01*
X141549200Y-79871287D01*
G75*
G02*
X141821287Y-79599200I272087J0D01*
G01*
X143178713Y-79599200D01*
G75*
G02*
X143450800Y-79871287I0J-272087D01*
G01*
X143450800Y-80578713D01*
G75*
G02*
X143178713Y-80850800I-272087J0D01*
G01*
G37*
G36*
G01*
X143178713Y-77900800D02*
X141821287Y-77900800D01*
G75*
G02*
X141549200Y-77628713I0J272087D01*
G01*
X141549200Y-76921287D01*
G75*
G02*
X141821287Y-76649200I272087J0D01*
G01*
X143178713Y-76649200D01*
G75*
G02*
X143450800Y-76921287I0J-272087D01*
G01*
X143450800Y-77628713D01*
G75*
G02*
X143178713Y-77900800I-272087J0D01*
G01*
G37*
G36*
G01*
X145653222Y-105075800D02*
X144346778Y-105075800D01*
G75*
G02*
X144074200Y-104803222I0J272578D01*
G01*
X144074200Y-104121778D01*
G75*
G02*
X144346778Y-103849200I272578J0D01*
G01*
X145653222Y-103849200D01*
G75*
G02*
X145925800Y-104121778I0J-272578D01*
G01*
X145925800Y-104803222D01*
G75*
G02*
X145653222Y-105075800I-272578J0D01*
G01*
G37*
G36*
G01*
X145653222Y-102150800D02*
X144346778Y-102150800D01*
G75*
G02*
X144074200Y-101878222I0J272578D01*
G01*
X144074200Y-101196778D01*
G75*
G02*
X144346778Y-100924200I272578J0D01*
G01*
X145653222Y-100924200D01*
G75*
G02*
X145925800Y-101196778I0J-272578D01*
G01*
X145925800Y-101878222D01*
G75*
G02*
X145653222Y-102150800I-272578J0D01*
G01*
G37*
G36*
G01*
X113071287Y-102399200D02*
X114428713Y-102399200D01*
G75*
G02*
X114700800Y-102671287I0J-272087D01*
G01*
X114700800Y-103378713D01*
G75*
G02*
X114428713Y-103650800I-272087J0D01*
G01*
X113071287Y-103650800D01*
G75*
G02*
X112799200Y-103378713I0J272087D01*
G01*
X112799200Y-102671287D01*
G75*
G02*
X113071287Y-102399200I272087J0D01*
G01*
G37*
G36*
G01*
X113071287Y-105349200D02*
X114428713Y-105349200D01*
G75*
G02*
X114700800Y-105621287I0J-272087D01*
G01*
X114700800Y-106328713D01*
G75*
G02*
X114428713Y-106600800I-272087J0D01*
G01*
X113071287Y-106600800D01*
G75*
G02*
X112799200Y-106328713I0J272087D01*
G01*
X112799200Y-105621287D01*
G75*
G02*
X113071287Y-105349200I272087J0D01*
G01*
G37*
G36*
G01*
X103871287Y-26759200D02*
X105228713Y-26759200D01*
G75*
G02*
X105500800Y-27031287I0J-272087D01*
G01*
X105500800Y-27738713D01*
G75*
G02*
X105228713Y-28010800I-272087J0D01*
G01*
X103871287Y-28010800D01*
G75*
G02*
X103599200Y-27738713I0J272087D01*
G01*
X103599200Y-27031287D01*
G75*
G02*
X103871287Y-26759200I272087J0D01*
G01*
G37*
G36*
G01*
X103871287Y-29709200D02*
X105228713Y-29709200D01*
G75*
G02*
X105500800Y-29981287I0J-272087D01*
G01*
X105500800Y-30688713D01*
G75*
G02*
X105228713Y-30960800I-272087J0D01*
G01*
X103871287Y-30960800D01*
G75*
G02*
X103599200Y-30688713I0J272087D01*
G01*
X103599200Y-29981287D01*
G75*
G02*
X103871287Y-29709200I272087J0D01*
G01*
G37*
G36*
G01*
X95475800Y-60146778D02*
X95475800Y-61453222D01*
G75*
G02*
X95203222Y-61725800I-272578J0D01*
G01*
X94521778Y-61725800D01*
G75*
G02*
X94249200Y-61453222I0J272578D01*
G01*
X94249200Y-60146778D01*
G75*
G02*
X94521778Y-59874200I272578J0D01*
G01*
X95203222Y-59874200D01*
G75*
G02*
X95475800Y-60146778I0J-272578D01*
G01*
G37*
G36*
G01*
X92550800Y-60146778D02*
X92550800Y-61453222D01*
G75*
G02*
X92278222Y-61725800I-272578J0D01*
G01*
X91596778Y-61725800D01*
G75*
G02*
X91324200Y-61453222I0J272578D01*
G01*
X91324200Y-60146778D01*
G75*
G02*
X91596778Y-59874200I272578J0D01*
G01*
X92278222Y-59874200D01*
G75*
G02*
X92550800Y-60146778I0J-272578D01*
G01*
G37*
G36*
G01*
X105278713Y-71050800D02*
X103921287Y-71050800D01*
G75*
G02*
X103649200Y-70778713I0J272087D01*
G01*
X103649200Y-70071287D01*
G75*
G02*
X103921287Y-69799200I272087J0D01*
G01*
X105278713Y-69799200D01*
G75*
G02*
X105550800Y-70071287I0J-272087D01*
G01*
X105550800Y-70778713D01*
G75*
G02*
X105278713Y-71050800I-272087J0D01*
G01*
G37*
G36*
G01*
X105278713Y-68100800D02*
X103921287Y-68100800D01*
G75*
G02*
X103649200Y-67828713I0J272087D01*
G01*
X103649200Y-67121287D01*
G75*
G02*
X103921287Y-66849200I272087J0D01*
G01*
X105278713Y-66849200D01*
G75*
G02*
X105550800Y-67121287I0J-272087D01*
G01*
X105550800Y-67828713D01*
G75*
G02*
X105278713Y-68100800I-272087J0D01*
G01*
G37*
G36*
G01*
X80650800Y-72020000D02*
X80650800Y-73720000D01*
G75*
G02*
X80600000Y-73770800I-50800J0D01*
G01*
X78900000Y-73770800D01*
G75*
G02*
X78849200Y-73720000I0J50800D01*
G01*
X78849200Y-72020000D01*
G75*
G02*
X78900000Y-71969200I50800J0D01*
G01*
X80600000Y-71969200D01*
G75*
G02*
X80650800Y-72020000I0J-50800D01*
G01*
G37*
D10*
X79750000Y-70330000D03*
X79750000Y-67790000D03*
X79750000Y-65250000D03*
X79750000Y-62710000D03*
X79750000Y-60170000D03*
X79750000Y-57630000D03*
X79750000Y-55090000D03*
G36*
G01*
X153800000Y-77253451D02*
X152200000Y-77253451D01*
G75*
G02*
X152149200Y-77202651I0J50800D01*
G01*
X152149200Y-75602651D01*
G75*
G02*
X152200000Y-75551851I50800J0D01*
G01*
X153800000Y-75551851D01*
G75*
G02*
X153850800Y-75602651I0J-50800D01*
G01*
X153850800Y-77202651D01*
G75*
G02*
X153800000Y-77253451I-50800J0D01*
G01*
G37*
D11*
X153000000Y-72902651D03*
G36*
G01*
X84828713Y-100275800D02*
X83471287Y-100275800D01*
G75*
G02*
X83199200Y-100003713I0J272087D01*
G01*
X83199200Y-99296287D01*
G75*
G02*
X83471287Y-99024200I272087J0D01*
G01*
X84828713Y-99024200D01*
G75*
G02*
X85100800Y-99296287I0J-272087D01*
G01*
X85100800Y-100003713D01*
G75*
G02*
X84828713Y-100275800I-272087J0D01*
G01*
G37*
G36*
G01*
X84828713Y-97325800D02*
X83471287Y-97325800D01*
G75*
G02*
X83199200Y-97053713I0J272087D01*
G01*
X83199200Y-96346287D01*
G75*
G02*
X83471287Y-96074200I272087J0D01*
G01*
X84828713Y-96074200D01*
G75*
G02*
X85100800Y-96346287I0J-272087D01*
G01*
X85100800Y-97053713D01*
G75*
G02*
X84828713Y-97325800I-272087J0D01*
G01*
G37*
G36*
G01*
X107100800Y-61712100D02*
X107100800Y-61962900D01*
G75*
G02*
X106975400Y-62088300I-125400J0D01*
G01*
X105649600Y-62088300D01*
G75*
G02*
X105524200Y-61962900I0J125400D01*
G01*
X105524200Y-61712100D01*
G75*
G02*
X105649600Y-61586700I125400J0D01*
G01*
X106975400Y-61586700D01*
G75*
G02*
X107100800Y-61712100I0J-125400D01*
G01*
G37*
G36*
G01*
X107100800Y-61062100D02*
X107100800Y-61312900D01*
G75*
G02*
X106975400Y-61438300I-125400J0D01*
G01*
X105649600Y-61438300D01*
G75*
G02*
X105524200Y-61312900I0J125400D01*
G01*
X105524200Y-61062100D01*
G75*
G02*
X105649600Y-60936700I125400J0D01*
G01*
X106975400Y-60936700D01*
G75*
G02*
X107100800Y-61062100I0J-125400D01*
G01*
G37*
G36*
G01*
X107100800Y-60412100D02*
X107100800Y-60662900D01*
G75*
G02*
X106975400Y-60788300I-125400J0D01*
G01*
X105649600Y-60788300D01*
G75*
G02*
X105524200Y-60662900I0J125400D01*
G01*
X105524200Y-60412100D01*
G75*
G02*
X105649600Y-60286700I125400J0D01*
G01*
X106975400Y-60286700D01*
G75*
G02*
X107100800Y-60412100I0J-125400D01*
G01*
G37*
G36*
G01*
X107100800Y-59762100D02*
X107100800Y-60012900D01*
G75*
G02*
X106975400Y-60138300I-125400J0D01*
G01*
X105649600Y-60138300D01*
G75*
G02*
X105524200Y-60012900I0J125400D01*
G01*
X105524200Y-59762100D01*
G75*
G02*
X105649600Y-59636700I125400J0D01*
G01*
X106975400Y-59636700D01*
G75*
G02*
X107100800Y-59762100I0J-125400D01*
G01*
G37*
G36*
G01*
X107100800Y-59112100D02*
X107100800Y-59362900D01*
G75*
G02*
X106975400Y-59488300I-125400J0D01*
G01*
X105649600Y-59488300D01*
G75*
G02*
X105524200Y-59362900I0J125400D01*
G01*
X105524200Y-59112100D01*
G75*
G02*
X105649600Y-58986700I125400J0D01*
G01*
X106975400Y-58986700D01*
G75*
G02*
X107100800Y-59112100I0J-125400D01*
G01*
G37*
G36*
G01*
X107100800Y-58462100D02*
X107100800Y-58712900D01*
G75*
G02*
X106975400Y-58838300I-125400J0D01*
G01*
X105649600Y-58838300D01*
G75*
G02*
X105524200Y-58712900I0J125400D01*
G01*
X105524200Y-58462100D01*
G75*
G02*
X105649600Y-58336700I125400J0D01*
G01*
X106975400Y-58336700D01*
G75*
G02*
X107100800Y-58462100I0J-125400D01*
G01*
G37*
G36*
G01*
X107100800Y-57812100D02*
X107100800Y-58062900D01*
G75*
G02*
X106975400Y-58188300I-125400J0D01*
G01*
X105649600Y-58188300D01*
G75*
G02*
X105524200Y-58062900I0J125400D01*
G01*
X105524200Y-57812100D01*
G75*
G02*
X105649600Y-57686700I125400J0D01*
G01*
X106975400Y-57686700D01*
G75*
G02*
X107100800Y-57812100I0J-125400D01*
G01*
G37*
G36*
G01*
X107100800Y-57162100D02*
X107100800Y-57412900D01*
G75*
G02*
X106975400Y-57538300I-125400J0D01*
G01*
X105649600Y-57538300D01*
G75*
G02*
X105524200Y-57412900I0J125400D01*
G01*
X105524200Y-57162100D01*
G75*
G02*
X105649600Y-57036700I125400J0D01*
G01*
X106975400Y-57036700D01*
G75*
G02*
X107100800Y-57162100I0J-125400D01*
G01*
G37*
G36*
G01*
X101375800Y-57162100D02*
X101375800Y-57412900D01*
G75*
G02*
X101250400Y-57538300I-125400J0D01*
G01*
X99924600Y-57538300D01*
G75*
G02*
X99799200Y-57412900I0J125400D01*
G01*
X99799200Y-57162100D01*
G75*
G02*
X99924600Y-57036700I125400J0D01*
G01*
X101250400Y-57036700D01*
G75*
G02*
X101375800Y-57162100I0J-125400D01*
G01*
G37*
G36*
G01*
X101375800Y-57812100D02*
X101375800Y-58062900D01*
G75*
G02*
X101250400Y-58188300I-125400J0D01*
G01*
X99924600Y-58188300D01*
G75*
G02*
X99799200Y-58062900I0J125400D01*
G01*
X99799200Y-57812100D01*
G75*
G02*
X99924600Y-57686700I125400J0D01*
G01*
X101250400Y-57686700D01*
G75*
G02*
X101375800Y-57812100I0J-125400D01*
G01*
G37*
G36*
G01*
X101375800Y-58462100D02*
X101375800Y-58712900D01*
G75*
G02*
X101250400Y-58838300I-125400J0D01*
G01*
X99924600Y-58838300D01*
G75*
G02*
X99799200Y-58712900I0J125400D01*
G01*
X99799200Y-58462100D01*
G75*
G02*
X99924600Y-58336700I125400J0D01*
G01*
X101250400Y-58336700D01*
G75*
G02*
X101375800Y-58462100I0J-125400D01*
G01*
G37*
G36*
G01*
X101375800Y-59112100D02*
X101375800Y-59362900D01*
G75*
G02*
X101250400Y-59488300I-125400J0D01*
G01*
X99924600Y-59488300D01*
G75*
G02*
X99799200Y-59362900I0J125400D01*
G01*
X99799200Y-59112100D01*
G75*
G02*
X99924600Y-58986700I125400J0D01*
G01*
X101250400Y-58986700D01*
G75*
G02*
X101375800Y-59112100I0J-125400D01*
G01*
G37*
G36*
G01*
X101375800Y-59762100D02*
X101375800Y-60012900D01*
G75*
G02*
X101250400Y-60138300I-125400J0D01*
G01*
X99924600Y-60138300D01*
G75*
G02*
X99799200Y-60012900I0J125400D01*
G01*
X99799200Y-59762100D01*
G75*
G02*
X99924600Y-59636700I125400J0D01*
G01*
X101250400Y-59636700D01*
G75*
G02*
X101375800Y-59762100I0J-125400D01*
G01*
G37*
G36*
G01*
X101375800Y-60412100D02*
X101375800Y-60662900D01*
G75*
G02*
X101250400Y-60788300I-125400J0D01*
G01*
X99924600Y-60788300D01*
G75*
G02*
X99799200Y-60662900I0J125400D01*
G01*
X99799200Y-60412100D01*
G75*
G02*
X99924600Y-60286700I125400J0D01*
G01*
X101250400Y-60286700D01*
G75*
G02*
X101375800Y-60412100I0J-125400D01*
G01*
G37*
G36*
G01*
X101375800Y-61062100D02*
X101375800Y-61312900D01*
G75*
G02*
X101250400Y-61438300I-125400J0D01*
G01*
X99924600Y-61438300D01*
G75*
G02*
X99799200Y-61312900I0J125400D01*
G01*
X99799200Y-61062100D01*
G75*
G02*
X99924600Y-60936700I125400J0D01*
G01*
X101250400Y-60936700D01*
G75*
G02*
X101375800Y-61062100I0J-125400D01*
G01*
G37*
G36*
G01*
X101375800Y-61712100D02*
X101375800Y-61962900D01*
G75*
G02*
X101250400Y-62088300I-125400J0D01*
G01*
X99924600Y-62088300D01*
G75*
G02*
X99799200Y-61962900I0J125400D01*
G01*
X99799200Y-61712100D01*
G75*
G02*
X99924600Y-61586700I125400J0D01*
G01*
X101250400Y-61586700D01*
G75*
G02*
X101375800Y-61712100I0J-125400D01*
G01*
G37*
G36*
G01*
X136524600Y-95149200D02*
X136875400Y-95149200D01*
G75*
G02*
X137050800Y-95324600I0J-175400D01*
G01*
X137050800Y-96400400D01*
G75*
G02*
X136875400Y-96575800I-175400J0D01*
G01*
X136524600Y-96575800D01*
G75*
G02*
X136349200Y-96400400I0J175400D01*
G01*
X136349200Y-95324600D01*
G75*
G02*
X136524600Y-95149200I175400J0D01*
G01*
G37*
G36*
G01*
X135574600Y-95149200D02*
X135925400Y-95149200D01*
G75*
G02*
X136100800Y-95324600I0J-175400D01*
G01*
X136100800Y-96400400D01*
G75*
G02*
X135925400Y-96575800I-175400J0D01*
G01*
X135574600Y-96575800D01*
G75*
G02*
X135399200Y-96400400I0J175400D01*
G01*
X135399200Y-95324600D01*
G75*
G02*
X135574600Y-95149200I175400J0D01*
G01*
G37*
G36*
G01*
X134624600Y-95149200D02*
X134975400Y-95149200D01*
G75*
G02*
X135150800Y-95324600I0J-175400D01*
G01*
X135150800Y-96400400D01*
G75*
G02*
X134975400Y-96575800I-175400J0D01*
G01*
X134624600Y-96575800D01*
G75*
G02*
X134449200Y-96400400I0J175400D01*
G01*
X134449200Y-95324600D01*
G75*
G02*
X134624600Y-95149200I175400J0D01*
G01*
G37*
G36*
G01*
X134624600Y-97424200D02*
X134975400Y-97424200D01*
G75*
G02*
X135150800Y-97599600I0J-175400D01*
G01*
X135150800Y-98675400D01*
G75*
G02*
X134975400Y-98850800I-175400J0D01*
G01*
X134624600Y-98850800D01*
G75*
G02*
X134449200Y-98675400I0J175400D01*
G01*
X134449200Y-97599600D01*
G75*
G02*
X134624600Y-97424200I175400J0D01*
G01*
G37*
G36*
G01*
X135574600Y-97424200D02*
X135925400Y-97424200D01*
G75*
G02*
X136100800Y-97599600I0J-175400D01*
G01*
X136100800Y-98675400D01*
G75*
G02*
X135925400Y-98850800I-175400J0D01*
G01*
X135574600Y-98850800D01*
G75*
G02*
X135399200Y-98675400I0J175400D01*
G01*
X135399200Y-97599600D01*
G75*
G02*
X135574600Y-97424200I175400J0D01*
G01*
G37*
G36*
G01*
X136524600Y-97424200D02*
X136875400Y-97424200D01*
G75*
G02*
X137050800Y-97599600I0J-175400D01*
G01*
X137050800Y-98675400D01*
G75*
G02*
X136875400Y-98850800I-175400J0D01*
G01*
X136524600Y-98850800D01*
G75*
G02*
X136349200Y-98675400I0J175400D01*
G01*
X136349200Y-97599600D01*
G75*
G02*
X136524600Y-97424200I175400J0D01*
G01*
G37*
G36*
G01*
X126775800Y-26984437D02*
X126775800Y-28290881D01*
G75*
G02*
X126503222Y-28563459I-272578J0D01*
G01*
X125821778Y-28563459D01*
G75*
G02*
X125549200Y-28290881I0J272578D01*
G01*
X125549200Y-26984437D01*
G75*
G02*
X125821778Y-26711859I272578J0D01*
G01*
X126503222Y-26711859D01*
G75*
G02*
X126775800Y-26984437I0J-272578D01*
G01*
G37*
G36*
G01*
X123850800Y-26984437D02*
X123850800Y-28290881D01*
G75*
G02*
X123578222Y-28563459I-272578J0D01*
G01*
X122896778Y-28563459D01*
G75*
G02*
X122624200Y-28290881I0J272578D01*
G01*
X122624200Y-26984437D01*
G75*
G02*
X122896778Y-26711859I272578J0D01*
G01*
X123578222Y-26711859D01*
G75*
G02*
X123850800Y-26984437I0J-272578D01*
G01*
G37*
G36*
G01*
X120325800Y-114596778D02*
X120325800Y-115903222D01*
G75*
G02*
X120053222Y-116175800I-272578J0D01*
G01*
X119371778Y-116175800D01*
G75*
G02*
X119099200Y-115903222I0J272578D01*
G01*
X119099200Y-114596778D01*
G75*
G02*
X119371778Y-114324200I272578J0D01*
G01*
X120053222Y-114324200D01*
G75*
G02*
X120325800Y-114596778I0J-272578D01*
G01*
G37*
G36*
G01*
X117400800Y-114596778D02*
X117400800Y-115903222D01*
G75*
G02*
X117128222Y-116175800I-272578J0D01*
G01*
X116446778Y-116175800D01*
G75*
G02*
X116174200Y-115903222I0J272578D01*
G01*
X116174200Y-114596778D01*
G75*
G02*
X116446778Y-114324200I272578J0D01*
G01*
X117128222Y-114324200D01*
G75*
G02*
X117400800Y-114596778I0J-272578D01*
G01*
G37*
G36*
G01*
X126799200Y-52278713D02*
X126799200Y-50921287D01*
G75*
G02*
X127071287Y-50649200I272087J0D01*
G01*
X127778713Y-50649200D01*
G75*
G02*
X128050800Y-50921287I0J-272087D01*
G01*
X128050800Y-52278713D01*
G75*
G02*
X127778713Y-52550800I-272087J0D01*
G01*
X127071287Y-52550800D01*
G75*
G02*
X126799200Y-52278713I0J272087D01*
G01*
G37*
G36*
G01*
X129749200Y-52278713D02*
X129749200Y-50921287D01*
G75*
G02*
X130021287Y-50649200I272087J0D01*
G01*
X130728713Y-50649200D01*
G75*
G02*
X131000800Y-50921287I0J-272087D01*
G01*
X131000800Y-52278713D01*
G75*
G02*
X130728713Y-52550800I-272087J0D01*
G01*
X130021287Y-52550800D01*
G75*
G02*
X129749200Y-52278713I0J272087D01*
G01*
G37*
G36*
G01*
X130674200Y-113903222D02*
X130674200Y-112596778D01*
G75*
G02*
X130946778Y-112324200I272578J0D01*
G01*
X131628222Y-112324200D01*
G75*
G02*
X131900800Y-112596778I0J-272578D01*
G01*
X131900800Y-113903222D01*
G75*
G02*
X131628222Y-114175800I-272578J0D01*
G01*
X130946778Y-114175800D01*
G75*
G02*
X130674200Y-113903222I0J272578D01*
G01*
G37*
G36*
G01*
X133599200Y-113903222D02*
X133599200Y-112596778D01*
G75*
G02*
X133871778Y-112324200I272578J0D01*
G01*
X134553222Y-112324200D01*
G75*
G02*
X134825800Y-112596778I0J-272578D01*
G01*
X134825800Y-113903222D01*
G75*
G02*
X134553222Y-114175800I-272578J0D01*
G01*
X133871778Y-114175800D01*
G75*
G02*
X133599200Y-113903222I0J272578D01*
G01*
G37*
G36*
G01*
X84646778Y-69524200D02*
X85953222Y-69524200D01*
G75*
G02*
X86225800Y-69796778I0J-272578D01*
G01*
X86225800Y-70478222D01*
G75*
G02*
X85953222Y-70750800I-272578J0D01*
G01*
X84646778Y-70750800D01*
G75*
G02*
X84374200Y-70478222I0J272578D01*
G01*
X84374200Y-69796778D01*
G75*
G02*
X84646778Y-69524200I272578J0D01*
G01*
G37*
G36*
G01*
X84646778Y-72449200D02*
X85953222Y-72449200D01*
G75*
G02*
X86225800Y-72721778I0J-272578D01*
G01*
X86225800Y-73403222D01*
G75*
G02*
X85953222Y-73675800I-272578J0D01*
G01*
X84646778Y-73675800D01*
G75*
G02*
X84374200Y-73403222I0J272578D01*
G01*
X84374200Y-72721778D01*
G75*
G02*
X84646778Y-72449200I272578J0D01*
G01*
G37*
G36*
G01*
X89653222Y-81425800D02*
X88346778Y-81425800D01*
G75*
G02*
X88074200Y-81153222I0J272578D01*
G01*
X88074200Y-80471778D01*
G75*
G02*
X88346778Y-80199200I272578J0D01*
G01*
X89653222Y-80199200D01*
G75*
G02*
X89925800Y-80471778I0J-272578D01*
G01*
X89925800Y-81153222D01*
G75*
G02*
X89653222Y-81425800I-272578J0D01*
G01*
G37*
G36*
G01*
X89653222Y-78500800D02*
X88346778Y-78500800D01*
G75*
G02*
X88074200Y-78228222I0J272578D01*
G01*
X88074200Y-77546778D01*
G75*
G02*
X88346778Y-77274200I272578J0D01*
G01*
X89653222Y-77274200D01*
G75*
G02*
X89925800Y-77546778I0J-272578D01*
G01*
X89925800Y-78228222D01*
G75*
G02*
X89653222Y-78500800I-272578J0D01*
G01*
G37*
G36*
G01*
X126800800Y-29358946D02*
X126800800Y-30716372D01*
G75*
G02*
X126528713Y-30988459I-272087J0D01*
G01*
X125821287Y-30988459D01*
G75*
G02*
X125549200Y-30716372I0J272087D01*
G01*
X125549200Y-29358946D01*
G75*
G02*
X125821287Y-29086859I272087J0D01*
G01*
X126528713Y-29086859D01*
G75*
G02*
X126800800Y-29358946I0J-272087D01*
G01*
G37*
G36*
G01*
X123850800Y-29358946D02*
X123850800Y-30716372D01*
G75*
G02*
X123578713Y-30988459I-272087J0D01*
G01*
X122871287Y-30988459D01*
G75*
G02*
X122599200Y-30716372I0J272087D01*
G01*
X122599200Y-29358946D01*
G75*
G02*
X122871287Y-29086859I272087J0D01*
G01*
X123578713Y-29086859D01*
G75*
G02*
X123850800Y-29358946I0J-272087D01*
G01*
G37*
G36*
G01*
X80650800Y-98944000D02*
X80650800Y-100644000D01*
G75*
G02*
X80600000Y-100694800I-50800J0D01*
G01*
X78900000Y-100694800D01*
G75*
G02*
X78849200Y-100644000I0J50800D01*
G01*
X78849200Y-98944000D01*
G75*
G02*
X78900000Y-98893200I50800J0D01*
G01*
X80600000Y-98893200D01*
G75*
G02*
X80650800Y-98944000I0J-50800D01*
G01*
G37*
D10*
X79750000Y-97254000D03*
X79750000Y-94714000D03*
X79750000Y-92174000D03*
X79750000Y-89634000D03*
X79750000Y-87094000D03*
X79750000Y-84554000D03*
X79750000Y-82014000D03*
X79750000Y-79474000D03*
X79750000Y-76934000D03*
G36*
G01*
X114178713Y-111850800D02*
X112821287Y-111850800D01*
G75*
G02*
X112549200Y-111578713I0J272087D01*
G01*
X112549200Y-110871287D01*
G75*
G02*
X112821287Y-110599200I272087J0D01*
G01*
X114178713Y-110599200D01*
G75*
G02*
X114450800Y-110871287I0J-272087D01*
G01*
X114450800Y-111578713D01*
G75*
G02*
X114178713Y-111850800I-272087J0D01*
G01*
G37*
G36*
G01*
X114178713Y-108900800D02*
X112821287Y-108900800D01*
G75*
G02*
X112549200Y-108628713I0J272087D01*
G01*
X112549200Y-107921287D01*
G75*
G02*
X112821287Y-107649200I272087J0D01*
G01*
X114178713Y-107649200D01*
G75*
G02*
X114450800Y-107921287I0J-272087D01*
G01*
X114450800Y-108628713D01*
G75*
G02*
X114178713Y-108900800I-272087J0D01*
G01*
G37*
G36*
G01*
X110346778Y-102424200D02*
X111653222Y-102424200D01*
G75*
G02*
X111925800Y-102696778I0J-272578D01*
G01*
X111925800Y-103378222D01*
G75*
G02*
X111653222Y-103650800I-272578J0D01*
G01*
X110346778Y-103650800D01*
G75*
G02*
X110074200Y-103378222I0J272578D01*
G01*
X110074200Y-102696778D01*
G75*
G02*
X110346778Y-102424200I272578J0D01*
G01*
G37*
G36*
G01*
X110346778Y-105349200D02*
X111653222Y-105349200D01*
G75*
G02*
X111925800Y-105621778I0J-272578D01*
G01*
X111925800Y-106303222D01*
G75*
G02*
X111653222Y-106575800I-272578J0D01*
G01*
X110346778Y-106575800D01*
G75*
G02*
X110074200Y-106303222I0J272578D01*
G01*
X110074200Y-105621778D01*
G75*
G02*
X110346778Y-105349200I272578J0D01*
G01*
G37*
G36*
G01*
X154400800Y-53729600D02*
X154400800Y-54080400D01*
G75*
G02*
X154225400Y-54255800I-175400J0D01*
G01*
X152524600Y-54255800D01*
G75*
G02*
X152349200Y-54080400I0J175400D01*
G01*
X152349200Y-53729600D01*
G75*
G02*
X152524600Y-53554200I175400J0D01*
G01*
X154225400Y-53554200D01*
G75*
G02*
X154400800Y-53729600I0J-175400D01*
G01*
G37*
G36*
G01*
X154400800Y-52459600D02*
X154400800Y-52810400D01*
G75*
G02*
X154225400Y-52985800I-175400J0D01*
G01*
X152524600Y-52985800D01*
G75*
G02*
X152349200Y-52810400I0J175400D01*
G01*
X152349200Y-52459600D01*
G75*
G02*
X152524600Y-52284200I175400J0D01*
G01*
X154225400Y-52284200D01*
G75*
G02*
X154400800Y-52459600I0J-175400D01*
G01*
G37*
G36*
G01*
X154400800Y-51189600D02*
X154400800Y-51540400D01*
G75*
G02*
X154225400Y-51715800I-175400J0D01*
G01*
X152524600Y-51715800D01*
G75*
G02*
X152349200Y-51540400I0J175400D01*
G01*
X152349200Y-51189600D01*
G75*
G02*
X152524600Y-51014200I175400J0D01*
G01*
X154225400Y-51014200D01*
G75*
G02*
X154400800Y-51189600I0J-175400D01*
G01*
G37*
G36*
G01*
X154400800Y-49919600D02*
X154400800Y-50270400D01*
G75*
G02*
X154225400Y-50445800I-175400J0D01*
G01*
X152524600Y-50445800D01*
G75*
G02*
X152349200Y-50270400I0J175400D01*
G01*
X152349200Y-49919600D01*
G75*
G02*
X152524600Y-49744200I175400J0D01*
G01*
X154225400Y-49744200D01*
G75*
G02*
X154400800Y-49919600I0J-175400D01*
G01*
G37*
G36*
G01*
X149450800Y-49919600D02*
X149450800Y-50270400D01*
G75*
G02*
X149275400Y-50445800I-175400J0D01*
G01*
X147574600Y-50445800D01*
G75*
G02*
X147399200Y-50270400I0J175400D01*
G01*
X147399200Y-49919600D01*
G75*
G02*
X147574600Y-49744200I175400J0D01*
G01*
X149275400Y-49744200D01*
G75*
G02*
X149450800Y-49919600I0J-175400D01*
G01*
G37*
G36*
G01*
X149450800Y-51189600D02*
X149450800Y-51540400D01*
G75*
G02*
X149275400Y-51715800I-175400J0D01*
G01*
X147574600Y-51715800D01*
G75*
G02*
X147399200Y-51540400I0J175400D01*
G01*
X147399200Y-51189600D01*
G75*
G02*
X147574600Y-51014200I175400J0D01*
G01*
X149275400Y-51014200D01*
G75*
G02*
X149450800Y-51189600I0J-175400D01*
G01*
G37*
G36*
G01*
X149450800Y-52459600D02*
X149450800Y-52810400D01*
G75*
G02*
X149275400Y-52985800I-175400J0D01*
G01*
X147574600Y-52985800D01*
G75*
G02*
X147399200Y-52810400I0J175400D01*
G01*
X147399200Y-52459600D01*
G75*
G02*
X147574600Y-52284200I175400J0D01*
G01*
X149275400Y-52284200D01*
G75*
G02*
X149450800Y-52459600I0J-175400D01*
G01*
G37*
G36*
G01*
X149450800Y-53729600D02*
X149450800Y-54080400D01*
G75*
G02*
X149275400Y-54255800I-175400J0D01*
G01*
X147574600Y-54255800D01*
G75*
G02*
X147399200Y-54080400I0J175400D01*
G01*
X147399200Y-53729600D01*
G75*
G02*
X147574600Y-53554200I175400J0D01*
G01*
X149275400Y-53554200D01*
G75*
G02*
X149450800Y-53729600I0J-175400D01*
G01*
G37*
G36*
G01*
X143890800Y-31000000D02*
X143890800Y-33000000D01*
G75*
G02*
X143840000Y-33050800I-50800J0D01*
G01*
X142040000Y-33050800D01*
G75*
G02*
X141989200Y-33000000I0J50800D01*
G01*
X141989200Y-31000000D01*
G75*
G02*
X142040000Y-30949200I50800J0D01*
G01*
X143840000Y-30949200D01*
G75*
G02*
X143890800Y-31000000I0J-50800D01*
G01*
G37*
G36*
G01*
X138810800Y-31000000D02*
X138810800Y-33000000D01*
G75*
G02*
X138760000Y-33050800I-50800J0D01*
G01*
X136960000Y-33050800D01*
G75*
G02*
X136909200Y-33000000I0J50800D01*
G01*
X136909200Y-31000000D01*
G75*
G02*
X136960000Y-30949200I50800J0D01*
G01*
X138760000Y-30949200D01*
G75*
G02*
X138810800Y-31000000I0J-50800D01*
G01*
G37*
G36*
G01*
X138810800Y-35000000D02*
X138810800Y-37000000D01*
G75*
G02*
X138760000Y-37050800I-50800J0D01*
G01*
X136960000Y-37050800D01*
G75*
G02*
X136909200Y-37000000I0J50800D01*
G01*
X136909200Y-35000000D01*
G75*
G02*
X136960000Y-34949200I50800J0D01*
G01*
X138760000Y-34949200D01*
G75*
G02*
X138810800Y-35000000I0J-50800D01*
G01*
G37*
G36*
G01*
X143890800Y-35000000D02*
X143890800Y-37000000D01*
G75*
G02*
X143840000Y-37050800I-50800J0D01*
G01*
X142040000Y-37050800D01*
G75*
G02*
X141989200Y-37000000I0J50800D01*
G01*
X141989200Y-35000000D01*
G75*
G02*
X142040000Y-34949200I50800J0D01*
G01*
X143840000Y-34949200D01*
G75*
G02*
X143890800Y-35000000I0J-50800D01*
G01*
G37*
G36*
G01*
X143096778Y-63136700D02*
X144403222Y-63136700D01*
G75*
G02*
X144675800Y-63409278I0J-272578D01*
G01*
X144675800Y-64090722D01*
G75*
G02*
X144403222Y-64363300I-272578J0D01*
G01*
X143096778Y-64363300D01*
G75*
G02*
X142824200Y-64090722I0J272578D01*
G01*
X142824200Y-63409278D01*
G75*
G02*
X143096778Y-63136700I272578J0D01*
G01*
G37*
G36*
G01*
X143096778Y-66061700D02*
X144403222Y-66061700D01*
G75*
G02*
X144675800Y-66334278I0J-272578D01*
G01*
X144675800Y-67015722D01*
G75*
G02*
X144403222Y-67288300I-272578J0D01*
G01*
X143096778Y-67288300D01*
G75*
G02*
X142824200Y-67015722I0J272578D01*
G01*
X142824200Y-66334278D01*
G75*
G02*
X143096778Y-66061700I272578J0D01*
G01*
G37*
G36*
G01*
X87578713Y-100275800D02*
X86221287Y-100275800D01*
G75*
G02*
X85949200Y-100003713I0J272087D01*
G01*
X85949200Y-99296287D01*
G75*
G02*
X86221287Y-99024200I272087J0D01*
G01*
X87578713Y-99024200D01*
G75*
G02*
X87850800Y-99296287I0J-272087D01*
G01*
X87850800Y-100003713D01*
G75*
G02*
X87578713Y-100275800I-272087J0D01*
G01*
G37*
G36*
G01*
X87578713Y-97325800D02*
X86221287Y-97325800D01*
G75*
G02*
X85949200Y-97053713I0J272087D01*
G01*
X85949200Y-96346287D01*
G75*
G02*
X86221287Y-96074200I272087J0D01*
G01*
X87578713Y-96074200D01*
G75*
G02*
X87850800Y-96346287I0J-272087D01*
G01*
X87850800Y-97053713D01*
G75*
G02*
X87578713Y-97325800I-272087J0D01*
G01*
G37*
D12*
X95995051Y-110660000D03*
X101775051Y-110660000D03*
G36*
G01*
X95334251Y-110115000D02*
X95334251Y-109010000D01*
G75*
G02*
X95385051Y-108959200I50800J0D01*
G01*
X95985051Y-108959200D01*
G75*
G02*
X96035851Y-109010000I0J-50800D01*
G01*
X96035851Y-110115000D01*
G75*
G02*
X95985051Y-110165800I-50800J0D01*
G01*
X95385051Y-110165800D01*
G75*
G02*
X95334251Y-110115000I0J50800D01*
G01*
G37*
G36*
G01*
X96134251Y-110115000D02*
X96134251Y-109010000D01*
G75*
G02*
X96185051Y-108959200I50800J0D01*
G01*
X96785051Y-108959200D01*
G75*
G02*
X96835851Y-109010000I0J-50800D01*
G01*
X96835851Y-110115000D01*
G75*
G02*
X96785051Y-110165800I-50800J0D01*
G01*
X96185051Y-110165800D01*
G75*
G02*
X96134251Y-110115000I0J50800D01*
G01*
G37*
G36*
G01*
X97434251Y-110160000D02*
X97434251Y-109010000D01*
G75*
G02*
X97485051Y-108959200I50800J0D01*
G01*
X97785051Y-108959200D01*
G75*
G02*
X97835851Y-109010000I0J-50800D01*
G01*
X97835851Y-110160000D01*
G75*
G02*
X97785051Y-110210800I-50800J0D01*
G01*
X97485051Y-110210800D01*
G75*
G02*
X97434251Y-110160000I0J50800D01*
G01*
G37*
G36*
G01*
X98434251Y-110160000D02*
X98434251Y-109010000D01*
G75*
G02*
X98485051Y-108959200I50800J0D01*
G01*
X98785051Y-108959200D01*
G75*
G02*
X98835851Y-109010000I0J-50800D01*
G01*
X98835851Y-110160000D01*
G75*
G02*
X98785051Y-110210800I-50800J0D01*
G01*
X98485051Y-110210800D01*
G75*
G02*
X98434251Y-110160000I0J50800D01*
G01*
G37*
G36*
G01*
X98934251Y-110160000D02*
X98934251Y-109010000D01*
G75*
G02*
X98985051Y-108959200I50800J0D01*
G01*
X99285051Y-108959200D01*
G75*
G02*
X99335851Y-109010000I0J-50800D01*
G01*
X99335851Y-110160000D01*
G75*
G02*
X99285051Y-110210800I-50800J0D01*
G01*
X98985051Y-110210800D01*
G75*
G02*
X98934251Y-110160000I0J50800D01*
G01*
G37*
G36*
G01*
X99934251Y-110160000D02*
X99934251Y-109010000D01*
G75*
G02*
X99985051Y-108959200I50800J0D01*
G01*
X100285051Y-108959200D01*
G75*
G02*
X100335851Y-109010000I0J-50800D01*
G01*
X100335851Y-110160000D01*
G75*
G02*
X100285051Y-110210800I-50800J0D01*
G01*
X99985051Y-110210800D01*
G75*
G02*
X99934251Y-110160000I0J50800D01*
G01*
G37*
G36*
G01*
X100934251Y-110115000D02*
X100934251Y-109010000D01*
G75*
G02*
X100985051Y-108959200I50800J0D01*
G01*
X101585051Y-108959200D01*
G75*
G02*
X101635851Y-109010000I0J-50800D01*
G01*
X101635851Y-110115000D01*
G75*
G02*
X101585051Y-110165800I-50800J0D01*
G01*
X100985051Y-110165800D01*
G75*
G02*
X100934251Y-110115000I0J50800D01*
G01*
G37*
G36*
G01*
X101734251Y-110115000D02*
X101734251Y-109010000D01*
G75*
G02*
X101785051Y-108959200I50800J0D01*
G01*
X102385051Y-108959200D01*
G75*
G02*
X102435851Y-109010000I0J-50800D01*
G01*
X102435851Y-110115000D01*
G75*
G02*
X102385051Y-110165800I-50800J0D01*
G01*
X101785051Y-110165800D01*
G75*
G02*
X101734251Y-110115000I0J50800D01*
G01*
G37*
G36*
G01*
X101734251Y-110115000D02*
X101734251Y-109010000D01*
G75*
G02*
X101785051Y-108959200I50800J0D01*
G01*
X102385051Y-108959200D01*
G75*
G02*
X102435851Y-109010000I0J-50800D01*
G01*
X102435851Y-110115000D01*
G75*
G02*
X102385051Y-110165800I-50800J0D01*
G01*
X101785051Y-110165800D01*
G75*
G02*
X101734251Y-110115000I0J50800D01*
G01*
G37*
G36*
G01*
X100934251Y-110115000D02*
X100934251Y-109010000D01*
G75*
G02*
X100985051Y-108959200I50800J0D01*
G01*
X101585051Y-108959200D01*
G75*
G02*
X101635851Y-109010000I0J-50800D01*
G01*
X101635851Y-110115000D01*
G75*
G02*
X101585051Y-110165800I-50800J0D01*
G01*
X100985051Y-110165800D01*
G75*
G02*
X100934251Y-110115000I0J50800D01*
G01*
G37*
G36*
G01*
X100434251Y-110160000D02*
X100434251Y-109010000D01*
G75*
G02*
X100485051Y-108959200I50800J0D01*
G01*
X100785051Y-108959200D01*
G75*
G02*
X100835851Y-109010000I0J-50800D01*
G01*
X100835851Y-110160000D01*
G75*
G02*
X100785051Y-110210800I-50800J0D01*
G01*
X100485051Y-110210800D01*
G75*
G02*
X100434251Y-110160000I0J50800D01*
G01*
G37*
G36*
G01*
X99434251Y-110160000D02*
X99434251Y-109010000D01*
G75*
G02*
X99485051Y-108959200I50800J0D01*
G01*
X99785051Y-108959200D01*
G75*
G02*
X99835851Y-109010000I0J-50800D01*
G01*
X99835851Y-110160000D01*
G75*
G02*
X99785051Y-110210800I-50800J0D01*
G01*
X99485051Y-110210800D01*
G75*
G02*
X99434251Y-110160000I0J50800D01*
G01*
G37*
G36*
G01*
X97934251Y-110160000D02*
X97934251Y-109010000D01*
G75*
G02*
X97985051Y-108959200I50800J0D01*
G01*
X98285051Y-108959200D01*
G75*
G02*
X98335851Y-109010000I0J-50800D01*
G01*
X98335851Y-110160000D01*
G75*
G02*
X98285051Y-110210800I-50800J0D01*
G01*
X97985051Y-110210800D01*
G75*
G02*
X97934251Y-110160000I0J50800D01*
G01*
G37*
G36*
G01*
X96934251Y-110160000D02*
X96934251Y-109010000D01*
G75*
G02*
X96985051Y-108959200I50800J0D01*
G01*
X97285051Y-108959200D01*
G75*
G02*
X97335851Y-109010000I0J-50800D01*
G01*
X97335851Y-110160000D01*
G75*
G02*
X97285051Y-110210800I-50800J0D01*
G01*
X96985051Y-110210800D01*
G75*
G02*
X96934251Y-110160000I0J50800D01*
G01*
G37*
G36*
G01*
X96134251Y-110115000D02*
X96134251Y-109010000D01*
G75*
G02*
X96185051Y-108959200I50800J0D01*
G01*
X96785051Y-108959200D01*
G75*
G02*
X96835851Y-109010000I0J-50800D01*
G01*
X96835851Y-110115000D01*
G75*
G02*
X96785051Y-110165800I-50800J0D01*
G01*
X96185051Y-110165800D01*
G75*
G02*
X96134251Y-110115000I0J50800D01*
G01*
G37*
G36*
G01*
X95334251Y-110115000D02*
X95334251Y-109010000D01*
G75*
G02*
X95385051Y-108959200I50800J0D01*
G01*
X95985051Y-108959200D01*
G75*
G02*
X96035851Y-109010000I0J-50800D01*
G01*
X96035851Y-110115000D01*
G75*
G02*
X95985051Y-110165800I-50800J0D01*
G01*
X95385051Y-110165800D01*
G75*
G02*
X95334251Y-110115000I0J50800D01*
G01*
G37*
D13*
X94565051Y-110160000D03*
D14*
X94565051Y-114340000D03*
D13*
X103205051Y-110160000D03*
D14*
X103205051Y-114340000D03*
G36*
G01*
X92523351Y-105464600D02*
X92523351Y-105815400D01*
G75*
G02*
X92347951Y-105990800I-175400J0D01*
G01*
X91272151Y-105990800D01*
G75*
G02*
X91096751Y-105815400I0J175400D01*
G01*
X91096751Y-105464600D01*
G75*
G02*
X91272151Y-105289200I175400J0D01*
G01*
X92347951Y-105289200D01*
G75*
G02*
X92523351Y-105464600I0J-175400D01*
G01*
G37*
G36*
G01*
X92523351Y-104514600D02*
X92523351Y-104865400D01*
G75*
G02*
X92347951Y-105040800I-175400J0D01*
G01*
X91272151Y-105040800D01*
G75*
G02*
X91096751Y-104865400I0J175400D01*
G01*
X91096751Y-104514600D01*
G75*
G02*
X91272151Y-104339200I175400J0D01*
G01*
X92347951Y-104339200D01*
G75*
G02*
X92523351Y-104514600I0J-175400D01*
G01*
G37*
G36*
G01*
X92523351Y-103564600D02*
X92523351Y-103915400D01*
G75*
G02*
X92347951Y-104090800I-175400J0D01*
G01*
X91272151Y-104090800D01*
G75*
G02*
X91096751Y-103915400I0J175400D01*
G01*
X91096751Y-103564600D01*
G75*
G02*
X91272151Y-103389200I175400J0D01*
G01*
X92347951Y-103389200D01*
G75*
G02*
X92523351Y-103564600I0J-175400D01*
G01*
G37*
G36*
G01*
X90248351Y-103564600D02*
X90248351Y-103915400D01*
G75*
G02*
X90072951Y-104090800I-175400J0D01*
G01*
X88997151Y-104090800D01*
G75*
G02*
X88821751Y-103915400I0J175400D01*
G01*
X88821751Y-103564600D01*
G75*
G02*
X88997151Y-103389200I175400J0D01*
G01*
X90072951Y-103389200D01*
G75*
G02*
X90248351Y-103564600I0J-175400D01*
G01*
G37*
G36*
G01*
X90248351Y-104514600D02*
X90248351Y-104865400D01*
G75*
G02*
X90072951Y-105040800I-175400J0D01*
G01*
X88997151Y-105040800D01*
G75*
G02*
X88821751Y-104865400I0J175400D01*
G01*
X88821751Y-104514600D01*
G75*
G02*
X88997151Y-104339200I175400J0D01*
G01*
X90072951Y-104339200D01*
G75*
G02*
X90248351Y-104514600I0J-175400D01*
G01*
G37*
G36*
G01*
X90248351Y-105464600D02*
X90248351Y-105815400D01*
G75*
G02*
X90072951Y-105990800I-175400J0D01*
G01*
X88997151Y-105990800D01*
G75*
G02*
X88821751Y-105815400I0J175400D01*
G01*
X88821751Y-105464600D01*
G75*
G02*
X88997151Y-105289200I175400J0D01*
G01*
X90072951Y-105289200D01*
G75*
G02*
X90248351Y-105464600I0J-175400D01*
G01*
G37*
G36*
G01*
X117650800Y-78071287D02*
X117650800Y-79428713D01*
G75*
G02*
X117378713Y-79700800I-272087J0D01*
G01*
X116671287Y-79700800D01*
G75*
G02*
X116399200Y-79428713I0J272087D01*
G01*
X116399200Y-78071287D01*
G75*
G02*
X116671287Y-77799200I272087J0D01*
G01*
X117378713Y-77799200D01*
G75*
G02*
X117650800Y-78071287I0J-272087D01*
G01*
G37*
G36*
G01*
X114700800Y-78071287D02*
X114700800Y-79428713D01*
G75*
G02*
X114428713Y-79700800I-272087J0D01*
G01*
X113721287Y-79700800D01*
G75*
G02*
X113449200Y-79428713I0J272087D01*
G01*
X113449200Y-78071287D01*
G75*
G02*
X113721287Y-77799200I272087J0D01*
G01*
X114428713Y-77799200D01*
G75*
G02*
X114700800Y-78071287I0J-272087D01*
G01*
G37*
G36*
G01*
X100556778Y-35014200D02*
X101863222Y-35014200D01*
G75*
G02*
X102135800Y-35286778I0J-272578D01*
G01*
X102135800Y-35968222D01*
G75*
G02*
X101863222Y-36240800I-272578J0D01*
G01*
X100556778Y-36240800D01*
G75*
G02*
X100284200Y-35968222I0J272578D01*
G01*
X100284200Y-35286778D01*
G75*
G02*
X100556778Y-35014200I272578J0D01*
G01*
G37*
G36*
G01*
X100556778Y-37939200D02*
X101863222Y-37939200D01*
G75*
G02*
X102135800Y-38211778I0J-272578D01*
G01*
X102135800Y-38893222D01*
G75*
G02*
X101863222Y-39165800I-272578J0D01*
G01*
X100556778Y-39165800D01*
G75*
G02*
X100284200Y-38893222I0J272578D01*
G01*
X100284200Y-38211778D01*
G75*
G02*
X100556778Y-37939200I272578J0D01*
G01*
G37*
G36*
G01*
X143774600Y-71399200D02*
X144125400Y-71399200D01*
G75*
G02*
X144300800Y-71574600I0J-175400D01*
G01*
X144300800Y-72650400D01*
G75*
G02*
X144125400Y-72825800I-175400J0D01*
G01*
X143774600Y-72825800D01*
G75*
G02*
X143599200Y-72650400I0J175400D01*
G01*
X143599200Y-71574600D01*
G75*
G02*
X143774600Y-71399200I175400J0D01*
G01*
G37*
G36*
G01*
X142824600Y-71399200D02*
X143175400Y-71399200D01*
G75*
G02*
X143350800Y-71574600I0J-175400D01*
G01*
X143350800Y-72650400D01*
G75*
G02*
X143175400Y-72825800I-175400J0D01*
G01*
X142824600Y-72825800D01*
G75*
G02*
X142649200Y-72650400I0J175400D01*
G01*
X142649200Y-71574600D01*
G75*
G02*
X142824600Y-71399200I175400J0D01*
G01*
G37*
G36*
G01*
X141874600Y-71399200D02*
X142225400Y-71399200D01*
G75*
G02*
X142400800Y-71574600I0J-175400D01*
G01*
X142400800Y-72650400D01*
G75*
G02*
X142225400Y-72825800I-175400J0D01*
G01*
X141874600Y-72825800D01*
G75*
G02*
X141699200Y-72650400I0J175400D01*
G01*
X141699200Y-71574600D01*
G75*
G02*
X141874600Y-71399200I175400J0D01*
G01*
G37*
G36*
G01*
X141874600Y-73674200D02*
X142225400Y-73674200D01*
G75*
G02*
X142400800Y-73849600I0J-175400D01*
G01*
X142400800Y-74925400D01*
G75*
G02*
X142225400Y-75100800I-175400J0D01*
G01*
X141874600Y-75100800D01*
G75*
G02*
X141699200Y-74925400I0J175400D01*
G01*
X141699200Y-73849600D01*
G75*
G02*
X141874600Y-73674200I175400J0D01*
G01*
G37*
G36*
G01*
X143774600Y-73674200D02*
X144125400Y-73674200D01*
G75*
G02*
X144300800Y-73849600I0J-175400D01*
G01*
X144300800Y-74925400D01*
G75*
G02*
X144125400Y-75100800I-175400J0D01*
G01*
X143774600Y-75100800D01*
G75*
G02*
X143599200Y-74925400I0J175400D01*
G01*
X143599200Y-73849600D01*
G75*
G02*
X143774600Y-73674200I175400J0D01*
G01*
G37*
G36*
G01*
X88678713Y-73700800D02*
X87321287Y-73700800D01*
G75*
G02*
X87049200Y-73428713I0J272087D01*
G01*
X87049200Y-72721287D01*
G75*
G02*
X87321287Y-72449200I272087J0D01*
G01*
X88678713Y-72449200D01*
G75*
G02*
X88950800Y-72721287I0J-272087D01*
G01*
X88950800Y-73428713D01*
G75*
G02*
X88678713Y-73700800I-272087J0D01*
G01*
G37*
G36*
G01*
X88678713Y-70750800D02*
X87321287Y-70750800D01*
G75*
G02*
X87049200Y-70478713I0J272087D01*
G01*
X87049200Y-69771287D01*
G75*
G02*
X87321287Y-69499200I272087J0D01*
G01*
X88678713Y-69499200D01*
G75*
G02*
X88950800Y-69771287I0J-272087D01*
G01*
X88950800Y-70478713D01*
G75*
G02*
X88678713Y-70750800I-272087J0D01*
G01*
G37*
G36*
G01*
X99440800Y-45921287D02*
X99440800Y-47278713D01*
G75*
G02*
X99168713Y-47550800I-272087J0D01*
G01*
X98461287Y-47550800D01*
G75*
G02*
X98189200Y-47278713I0J272087D01*
G01*
X98189200Y-45921287D01*
G75*
G02*
X98461287Y-45649200I272087J0D01*
G01*
X99168713Y-45649200D01*
G75*
G02*
X99440800Y-45921287I0J-272087D01*
G01*
G37*
G36*
G01*
X96490800Y-45921287D02*
X96490800Y-47278713D01*
G75*
G02*
X96218713Y-47550800I-272087J0D01*
G01*
X95511287Y-47550800D01*
G75*
G02*
X95239200Y-47278713I0J272087D01*
G01*
X95239200Y-45921287D01*
G75*
G02*
X95511287Y-45649200I272087J0D01*
G01*
X96218713Y-45649200D01*
G75*
G02*
X96490800Y-45921287I0J-272087D01*
G01*
G37*
G36*
G01*
X126800800Y-31758946D02*
X126800800Y-33116372D01*
G75*
G02*
X126528713Y-33388459I-272087J0D01*
G01*
X125821287Y-33388459D01*
G75*
G02*
X125549200Y-33116372I0J272087D01*
G01*
X125549200Y-31758946D01*
G75*
G02*
X125821287Y-31486859I272087J0D01*
G01*
X126528713Y-31486859D01*
G75*
G02*
X126800800Y-31758946I0J-272087D01*
G01*
G37*
G36*
G01*
X123850800Y-31758946D02*
X123850800Y-33116372D01*
G75*
G02*
X123578713Y-33388459I-272087J0D01*
G01*
X122871287Y-33388459D01*
G75*
G02*
X122599200Y-33116372I0J272087D01*
G01*
X122599200Y-31758946D01*
G75*
G02*
X122871287Y-31486859I272087J0D01*
G01*
X123578713Y-31486859D01*
G75*
G02*
X123850800Y-31758946I0J-272087D01*
G01*
G37*
G36*
G01*
X124653222Y-58875800D02*
X123346778Y-58875800D01*
G75*
G02*
X123074200Y-58603222I0J272578D01*
G01*
X123074200Y-57921778D01*
G75*
G02*
X123346778Y-57649200I272578J0D01*
G01*
X124653222Y-57649200D01*
G75*
G02*
X124925800Y-57921778I0J-272578D01*
G01*
X124925800Y-58603222D01*
G75*
G02*
X124653222Y-58875800I-272578J0D01*
G01*
G37*
G36*
G01*
X124653222Y-55950800D02*
X123346778Y-55950800D01*
G75*
G02*
X123074200Y-55678222I0J272578D01*
G01*
X123074200Y-54996778D01*
G75*
G02*
X123346778Y-54724200I272578J0D01*
G01*
X124653222Y-54724200D01*
G75*
G02*
X124925800Y-54996778I0J-272578D01*
G01*
X124925800Y-55678222D01*
G75*
G02*
X124653222Y-55950800I-272578J0D01*
G01*
G37*
G36*
G01*
X115346778Y-91924200D02*
X116653222Y-91924200D01*
G75*
G02*
X116925800Y-92196778I0J-272578D01*
G01*
X116925800Y-92878222D01*
G75*
G02*
X116653222Y-93150800I-272578J0D01*
G01*
X115346778Y-93150800D01*
G75*
G02*
X115074200Y-92878222I0J272578D01*
G01*
X115074200Y-92196778D01*
G75*
G02*
X115346778Y-91924200I272578J0D01*
G01*
G37*
G36*
G01*
X115346778Y-94849200D02*
X116653222Y-94849200D01*
G75*
G02*
X116925800Y-95121778I0J-272578D01*
G01*
X116925800Y-95803222D01*
G75*
G02*
X116653222Y-96075800I-272578J0D01*
G01*
X115346778Y-96075800D01*
G75*
G02*
X115074200Y-95803222I0J272578D01*
G01*
X115074200Y-95121778D01*
G75*
G02*
X115346778Y-94849200I272578J0D01*
G01*
G37*
G36*
G01*
X138300800Y-43921287D02*
X138300800Y-45278713D01*
G75*
G02*
X138028713Y-45550800I-272087J0D01*
G01*
X137321287Y-45550800D01*
G75*
G02*
X137049200Y-45278713I0J272087D01*
G01*
X137049200Y-43921287D01*
G75*
G02*
X137321287Y-43649200I272087J0D01*
G01*
X138028713Y-43649200D01*
G75*
G02*
X138300800Y-43921287I0J-272087D01*
G01*
G37*
G36*
G01*
X135350800Y-43921287D02*
X135350800Y-45278713D01*
G75*
G02*
X135078713Y-45550800I-272087J0D01*
G01*
X134371287Y-45550800D01*
G75*
G02*
X134099200Y-45278713I0J272087D01*
G01*
X134099200Y-43921287D01*
G75*
G02*
X134371287Y-43649200I272087J0D01*
G01*
X135078713Y-43649200D01*
G75*
G02*
X135350800Y-43921287I0J-272087D01*
G01*
G37*
G36*
G01*
X87188273Y-106015800D02*
X85881829Y-106015800D01*
G75*
G02*
X85609251Y-105743222I0J272578D01*
G01*
X85609251Y-105061778D01*
G75*
G02*
X85881829Y-104789200I272578J0D01*
G01*
X87188273Y-104789200D01*
G75*
G02*
X87460851Y-105061778I0J-272578D01*
G01*
X87460851Y-105743222D01*
G75*
G02*
X87188273Y-106015800I-272578J0D01*
G01*
G37*
G36*
G01*
X87188273Y-103090800D02*
X85881829Y-103090800D01*
G75*
G02*
X85609251Y-102818222I0J272578D01*
G01*
X85609251Y-102136778D01*
G75*
G02*
X85881829Y-101864200I272578J0D01*
G01*
X87188273Y-101864200D01*
G75*
G02*
X87460851Y-102136778I0J-272578D01*
G01*
X87460851Y-102818222D01*
G75*
G02*
X87188273Y-103090800I-272578J0D01*
G01*
G37*
G36*
G01*
X138275800Y-46384437D02*
X138275800Y-47690881D01*
G75*
G02*
X138003222Y-47963459I-272578J0D01*
G01*
X137321778Y-47963459D01*
G75*
G02*
X137049200Y-47690881I0J272578D01*
G01*
X137049200Y-46384437D01*
G75*
G02*
X137321778Y-46111859I272578J0D01*
G01*
X138003222Y-46111859D01*
G75*
G02*
X138275800Y-46384437I0J-272578D01*
G01*
G37*
G36*
G01*
X135350800Y-46384437D02*
X135350800Y-47690881D01*
G75*
G02*
X135078222Y-47963459I-272578J0D01*
G01*
X134396778Y-47963459D01*
G75*
G02*
X134124200Y-47690881I0J272578D01*
G01*
X134124200Y-46384437D01*
G75*
G02*
X134396778Y-46111859I272578J0D01*
G01*
X135078222Y-46111859D01*
G75*
G02*
X135350800Y-46384437I0J-272578D01*
G01*
G37*
G36*
G01*
X104128713Y-88150800D02*
X102771287Y-88150800D01*
G75*
G02*
X102499200Y-87878713I0J272087D01*
G01*
X102499200Y-87171287D01*
G75*
G02*
X102771287Y-86899200I272087J0D01*
G01*
X104128713Y-86899200D01*
G75*
G02*
X104400800Y-87171287I0J-272087D01*
G01*
X104400800Y-87878713D01*
G75*
G02*
X104128713Y-88150800I-272087J0D01*
G01*
G37*
G36*
G01*
X104128713Y-85200800D02*
X102771287Y-85200800D01*
G75*
G02*
X102499200Y-84928713I0J272087D01*
G01*
X102499200Y-84221287D01*
G75*
G02*
X102771287Y-83949200I272087J0D01*
G01*
X104128713Y-83949200D01*
G75*
G02*
X104400800Y-84221287I0J-272087D01*
G01*
X104400800Y-84928713D01*
G75*
G02*
X104128713Y-85200800I-272087J0D01*
G01*
G37*
G36*
G01*
X130821287Y-92149200D02*
X132178713Y-92149200D01*
G75*
G02*
X132450800Y-92421287I0J-272087D01*
G01*
X132450800Y-93128713D01*
G75*
G02*
X132178713Y-93400800I-272087J0D01*
G01*
X130821287Y-93400800D01*
G75*
G02*
X130549200Y-93128713I0J272087D01*
G01*
X130549200Y-92421287D01*
G75*
G02*
X130821287Y-92149200I272087J0D01*
G01*
G37*
G36*
G01*
X130821287Y-95099200D02*
X132178713Y-95099200D01*
G75*
G02*
X132450800Y-95371287I0J-272087D01*
G01*
X132450800Y-96078713D01*
G75*
G02*
X132178713Y-96350800I-272087J0D01*
G01*
X130821287Y-96350800D01*
G75*
G02*
X130549200Y-96078713I0J272087D01*
G01*
X130549200Y-95371287D01*
G75*
G02*
X130821287Y-95099200I272087J0D01*
G01*
G37*
G36*
G01*
X154999200Y-65160560D02*
X154999200Y-63339440D01*
G75*
G02*
X155239440Y-63099200I240240J0D01*
G01*
X156360560Y-63099200D01*
G75*
G02*
X156600800Y-63339440I0J-240240D01*
G01*
X156600800Y-65160560D01*
G75*
G02*
X156360560Y-65400800I-240240J0D01*
G01*
X155239440Y-65400800D01*
G75*
G02*
X154999200Y-65160560I0J240240D01*
G01*
G37*
G36*
G01*
X151899200Y-65160560D02*
X151899200Y-63339440D01*
G75*
G02*
X152139440Y-63099200I240240J0D01*
G01*
X153260560Y-63099200D01*
G75*
G02*
X153500800Y-63339440I0J-240240D01*
G01*
X153500800Y-65160560D01*
G75*
G02*
X153260560Y-65400800I-240240J0D01*
G01*
X152139440Y-65400800D01*
G75*
G02*
X151899200Y-65160560I0J240240D01*
G01*
G37*
G36*
G01*
X105493222Y-36205800D02*
X104186778Y-36205800D01*
G75*
G02*
X103914200Y-35933222I0J272578D01*
G01*
X103914200Y-35251778D01*
G75*
G02*
X104186778Y-34979200I272578J0D01*
G01*
X105493222Y-34979200D01*
G75*
G02*
X105765800Y-35251778I0J-272578D01*
G01*
X105765800Y-35933222D01*
G75*
G02*
X105493222Y-36205800I-272578J0D01*
G01*
G37*
G36*
G01*
X105493222Y-33280800D02*
X104186778Y-33280800D01*
G75*
G02*
X103914200Y-33008222I0J272578D01*
G01*
X103914200Y-32326778D01*
G75*
G02*
X104186778Y-32054200I272578J0D01*
G01*
X105493222Y-32054200D01*
G75*
G02*
X105765800Y-32326778I0J-272578D01*
G01*
X105765800Y-33008222D01*
G75*
G02*
X105493222Y-33280800I-272578J0D01*
G01*
G37*
G36*
G01*
X145378713Y-58000800D02*
X144021287Y-58000800D01*
G75*
G02*
X143749200Y-57728713I0J272087D01*
G01*
X143749200Y-57021287D01*
G75*
G02*
X144021287Y-56749200I272087J0D01*
G01*
X145378713Y-56749200D01*
G75*
G02*
X145650800Y-57021287I0J-272087D01*
G01*
X145650800Y-57728713D01*
G75*
G02*
X145378713Y-58000800I-272087J0D01*
G01*
G37*
G36*
G01*
X145378713Y-55050800D02*
X144021287Y-55050800D01*
G75*
G02*
X143749200Y-54778713I0J272087D01*
G01*
X143749200Y-54071287D01*
G75*
G02*
X144021287Y-53799200I272087J0D01*
G01*
X145378713Y-53799200D01*
G75*
G02*
X145650800Y-54071287I0J-272087D01*
G01*
X145650800Y-54778713D01*
G75*
G02*
X145378713Y-55050800I-272087J0D01*
G01*
G37*
G36*
G01*
X116150800Y-61712100D02*
X116150800Y-61962900D01*
G75*
G02*
X116025400Y-62088300I-125400J0D01*
G01*
X114699600Y-62088300D01*
G75*
G02*
X114574200Y-61962900I0J125400D01*
G01*
X114574200Y-61712100D01*
G75*
G02*
X114699600Y-61586700I125400J0D01*
G01*
X116025400Y-61586700D01*
G75*
G02*
X116150800Y-61712100I0J-125400D01*
G01*
G37*
G36*
G01*
X116150800Y-61062100D02*
X116150800Y-61312900D01*
G75*
G02*
X116025400Y-61438300I-125400J0D01*
G01*
X114699600Y-61438300D01*
G75*
G02*
X114574200Y-61312900I0J125400D01*
G01*
X114574200Y-61062100D01*
G75*
G02*
X114699600Y-60936700I125400J0D01*
G01*
X116025400Y-60936700D01*
G75*
G02*
X116150800Y-61062100I0J-125400D01*
G01*
G37*
G36*
G01*
X116150800Y-60412100D02*
X116150800Y-60662900D01*
G75*
G02*
X116025400Y-60788300I-125400J0D01*
G01*
X114699600Y-60788300D01*
G75*
G02*
X114574200Y-60662900I0J125400D01*
G01*
X114574200Y-60412100D01*
G75*
G02*
X114699600Y-60286700I125400J0D01*
G01*
X116025400Y-60286700D01*
G75*
G02*
X116150800Y-60412100I0J-125400D01*
G01*
G37*
G36*
G01*
X116150800Y-59762100D02*
X116150800Y-60012900D01*
G75*
G02*
X116025400Y-60138300I-125400J0D01*
G01*
X114699600Y-60138300D01*
G75*
G02*
X114574200Y-60012900I0J125400D01*
G01*
X114574200Y-59762100D01*
G75*
G02*
X114699600Y-59636700I125400J0D01*
G01*
X116025400Y-59636700D01*
G75*
G02*
X116150800Y-59762100I0J-125400D01*
G01*
G37*
G36*
G01*
X116150800Y-59112100D02*
X116150800Y-59362900D01*
G75*
G02*
X116025400Y-59488300I-125400J0D01*
G01*
X114699600Y-59488300D01*
G75*
G02*
X114574200Y-59362900I0J125400D01*
G01*
X114574200Y-59112100D01*
G75*
G02*
X114699600Y-58986700I125400J0D01*
G01*
X116025400Y-58986700D01*
G75*
G02*
X116150800Y-59112100I0J-125400D01*
G01*
G37*
G36*
G01*
X116150800Y-58462100D02*
X116150800Y-58712900D01*
G75*
G02*
X116025400Y-58838300I-125400J0D01*
G01*
X114699600Y-58838300D01*
G75*
G02*
X114574200Y-58712900I0J125400D01*
G01*
X114574200Y-58462100D01*
G75*
G02*
X114699600Y-58336700I125400J0D01*
G01*
X116025400Y-58336700D01*
G75*
G02*
X116150800Y-58462100I0J-125400D01*
G01*
G37*
G36*
G01*
X116150800Y-57812100D02*
X116150800Y-58062900D01*
G75*
G02*
X116025400Y-58188300I-125400J0D01*
G01*
X114699600Y-58188300D01*
G75*
G02*
X114574200Y-58062900I0J125400D01*
G01*
X114574200Y-57812100D01*
G75*
G02*
X114699600Y-57686700I125400J0D01*
G01*
X116025400Y-57686700D01*
G75*
G02*
X116150800Y-57812100I0J-125400D01*
G01*
G37*
G36*
G01*
X116150800Y-57162100D02*
X116150800Y-57412900D01*
G75*
G02*
X116025400Y-57538300I-125400J0D01*
G01*
X114699600Y-57538300D01*
G75*
G02*
X114574200Y-57412900I0J125400D01*
G01*
X114574200Y-57162100D01*
G75*
G02*
X114699600Y-57036700I125400J0D01*
G01*
X116025400Y-57036700D01*
G75*
G02*
X116150800Y-57162100I0J-125400D01*
G01*
G37*
G36*
G01*
X110425800Y-57162100D02*
X110425800Y-57412900D01*
G75*
G02*
X110300400Y-57538300I-125400J0D01*
G01*
X108974600Y-57538300D01*
G75*
G02*
X108849200Y-57412900I0J125400D01*
G01*
X108849200Y-57162100D01*
G75*
G02*
X108974600Y-57036700I125400J0D01*
G01*
X110300400Y-57036700D01*
G75*
G02*
X110425800Y-57162100I0J-125400D01*
G01*
G37*
G36*
G01*
X110425800Y-57812100D02*
X110425800Y-58062900D01*
G75*
G02*
X110300400Y-58188300I-125400J0D01*
G01*
X108974600Y-58188300D01*
G75*
G02*
X108849200Y-58062900I0J125400D01*
G01*
X108849200Y-57812100D01*
G75*
G02*
X108974600Y-57686700I125400J0D01*
G01*
X110300400Y-57686700D01*
G75*
G02*
X110425800Y-57812100I0J-125400D01*
G01*
G37*
G36*
G01*
X110425800Y-58462100D02*
X110425800Y-58712900D01*
G75*
G02*
X110300400Y-58838300I-125400J0D01*
G01*
X108974600Y-58838300D01*
G75*
G02*
X108849200Y-58712900I0J125400D01*
G01*
X108849200Y-58462100D01*
G75*
G02*
X108974600Y-58336700I125400J0D01*
G01*
X110300400Y-58336700D01*
G75*
G02*
X110425800Y-58462100I0J-125400D01*
G01*
G37*
G36*
G01*
X110425800Y-59112100D02*
X110425800Y-59362900D01*
G75*
G02*
X110300400Y-59488300I-125400J0D01*
G01*
X108974600Y-59488300D01*
G75*
G02*
X108849200Y-59362900I0J125400D01*
G01*
X108849200Y-59112100D01*
G75*
G02*
X108974600Y-58986700I125400J0D01*
G01*
X110300400Y-58986700D01*
G75*
G02*
X110425800Y-59112100I0J-125400D01*
G01*
G37*
G36*
G01*
X110425800Y-59762100D02*
X110425800Y-60012900D01*
G75*
G02*
X110300400Y-60138300I-125400J0D01*
G01*
X108974600Y-60138300D01*
G75*
G02*
X108849200Y-60012900I0J125400D01*
G01*
X108849200Y-59762100D01*
G75*
G02*
X108974600Y-59636700I125400J0D01*
G01*
X110300400Y-59636700D01*
G75*
G02*
X110425800Y-59762100I0J-125400D01*
G01*
G37*
G36*
G01*
X110425800Y-60412100D02*
X110425800Y-60662900D01*
G75*
G02*
X110300400Y-60788300I-125400J0D01*
G01*
X108974600Y-60788300D01*
G75*
G02*
X108849200Y-60662900I0J125400D01*
G01*
X108849200Y-60412100D01*
G75*
G02*
X108974600Y-60286700I125400J0D01*
G01*
X110300400Y-60286700D01*
G75*
G02*
X110425800Y-60412100I0J-125400D01*
G01*
G37*
G36*
G01*
X110425800Y-61062100D02*
X110425800Y-61312900D01*
G75*
G02*
X110300400Y-61438300I-125400J0D01*
G01*
X108974600Y-61438300D01*
G75*
G02*
X108849200Y-61312900I0J125400D01*
G01*
X108849200Y-61062100D01*
G75*
G02*
X108974600Y-60936700I125400J0D01*
G01*
X110300400Y-60936700D01*
G75*
G02*
X110425800Y-61062100I0J-125400D01*
G01*
G37*
G36*
G01*
X110425800Y-61712100D02*
X110425800Y-61962900D01*
G75*
G02*
X110300400Y-62088300I-125400J0D01*
G01*
X108974600Y-62088300D01*
G75*
G02*
X108849200Y-61962900I0J125400D01*
G01*
X108849200Y-61712100D01*
G75*
G02*
X108974600Y-61586700I125400J0D01*
G01*
X110300400Y-61586700D01*
G75*
G02*
X110425800Y-61712100I0J-125400D01*
G01*
G37*
G36*
G01*
X106109200Y-88800000D02*
X106109200Y-86800000D01*
G75*
G02*
X106160000Y-86749200I50800J0D01*
G01*
X107960000Y-86749200D01*
G75*
G02*
X108010800Y-86800000I0J-50800D01*
G01*
X108010800Y-88800000D01*
G75*
G02*
X107960000Y-88850800I-50800J0D01*
G01*
X106160000Y-88850800D01*
G75*
G02*
X106109200Y-88800000I0J50800D01*
G01*
G37*
G36*
G01*
X111189200Y-88800000D02*
X111189200Y-86800000D01*
G75*
G02*
X111240000Y-86749200I50800J0D01*
G01*
X113040000Y-86749200D01*
G75*
G02*
X113090800Y-86800000I0J-50800D01*
G01*
X113090800Y-88800000D01*
G75*
G02*
X113040000Y-88850800I-50800J0D01*
G01*
X111240000Y-88850800D01*
G75*
G02*
X111189200Y-88800000I0J50800D01*
G01*
G37*
G36*
G01*
X111189200Y-84800000D02*
X111189200Y-82800000D01*
G75*
G02*
X111240000Y-82749200I50800J0D01*
G01*
X113040000Y-82749200D01*
G75*
G02*
X113090800Y-82800000I0J-50800D01*
G01*
X113090800Y-84800000D01*
G75*
G02*
X113040000Y-84850800I-50800J0D01*
G01*
X111240000Y-84850800D01*
G75*
G02*
X111189200Y-84800000I0J50800D01*
G01*
G37*
G36*
G01*
X106109200Y-84800000D02*
X106109200Y-82800000D01*
G75*
G02*
X106160000Y-82749200I50800J0D01*
G01*
X107960000Y-82749200D01*
G75*
G02*
X108010800Y-82800000I0J-50800D01*
G01*
X108010800Y-84800000D01*
G75*
G02*
X107960000Y-84850800I-50800J0D01*
G01*
X106160000Y-84850800D01*
G75*
G02*
X106109200Y-84800000I0J50800D01*
G01*
G37*
G36*
G01*
X84688273Y-106015800D02*
X83381829Y-106015800D01*
G75*
G02*
X83109251Y-105743222I0J272578D01*
G01*
X83109251Y-105061778D01*
G75*
G02*
X83381829Y-104789200I272578J0D01*
G01*
X84688273Y-104789200D01*
G75*
G02*
X84960851Y-105061778I0J-272578D01*
G01*
X84960851Y-105743222D01*
G75*
G02*
X84688273Y-106015800I-272578J0D01*
G01*
G37*
G36*
G01*
X84688273Y-103090800D02*
X83381829Y-103090800D01*
G75*
G02*
X83109251Y-102818222I0J272578D01*
G01*
X83109251Y-102136778D01*
G75*
G02*
X83381829Y-101864200I272578J0D01*
G01*
X84688273Y-101864200D01*
G75*
G02*
X84960851Y-102136778I0J-272578D01*
G01*
X84960851Y-102818222D01*
G75*
G02*
X84688273Y-103090800I-272578J0D01*
G01*
G37*
G36*
G01*
X138153222Y-110575800D02*
X136846778Y-110575800D01*
G75*
G02*
X136574200Y-110303222I0J272578D01*
G01*
X136574200Y-109621778D01*
G75*
G02*
X136846778Y-109349200I272578J0D01*
G01*
X138153222Y-109349200D01*
G75*
G02*
X138425800Y-109621778I0J-272578D01*
G01*
X138425800Y-110303222D01*
G75*
G02*
X138153222Y-110575800I-272578J0D01*
G01*
G37*
G36*
G01*
X138153222Y-107650800D02*
X136846778Y-107650800D01*
G75*
G02*
X136574200Y-107378222I0J272578D01*
G01*
X136574200Y-106696778D01*
G75*
G02*
X136846778Y-106424200I272578J0D01*
G01*
X138153222Y-106424200D01*
G75*
G02*
X138425800Y-106696778I0J-272578D01*
G01*
X138425800Y-107378222D01*
G75*
G02*
X138153222Y-107650800I-272578J0D01*
G01*
G37*
G36*
G01*
X133941287Y-100649200D02*
X135298713Y-100649200D01*
G75*
G02*
X135570800Y-100921287I0J-272087D01*
G01*
X135570800Y-101628713D01*
G75*
G02*
X135298713Y-101900800I-272087J0D01*
G01*
X133941287Y-101900800D01*
G75*
G02*
X133669200Y-101628713I0J272087D01*
G01*
X133669200Y-100921287D01*
G75*
G02*
X133941287Y-100649200I272087J0D01*
G01*
G37*
G36*
G01*
X133941287Y-103599200D02*
X135298713Y-103599200D01*
G75*
G02*
X135570800Y-103871287I0J-272087D01*
G01*
X135570800Y-104578713D01*
G75*
G02*
X135298713Y-104850800I-272087J0D01*
G01*
X133941287Y-104850800D01*
G75*
G02*
X133669200Y-104578713I0J272087D01*
G01*
X133669200Y-103871287D01*
G75*
G02*
X133941287Y-103599200I272087J0D01*
G01*
G37*
G36*
G01*
X128910800Y-89800000D02*
X128910800Y-91500000D01*
G75*
G02*
X128860000Y-91550800I-50800J0D01*
G01*
X127160000Y-91550800D01*
G75*
G02*
X127109200Y-91500000I0J50800D01*
G01*
X127109200Y-89800000D01*
G75*
G02*
X127160000Y-89749200I50800J0D01*
G01*
X128860000Y-89749200D01*
G75*
G02*
X128910800Y-89800000I0J-50800D01*
G01*
G37*
D10*
X128010000Y-88110000D03*
X128010000Y-85570000D03*
X128010000Y-83030000D03*
X128010000Y-80490000D03*
X128010000Y-77950000D03*
X128010000Y-75410000D03*
X128010000Y-72870000D03*
G36*
G01*
X129410800Y-106789600D02*
X129410800Y-106990400D01*
G75*
G02*
X129310400Y-107090800I-100400J0D01*
G01*
X127934600Y-107090800D01*
G75*
G02*
X127834200Y-106990400I0J100400D01*
G01*
X127834200Y-106789600D01*
G75*
G02*
X127934600Y-106689200I100400J0D01*
G01*
X129310400Y-106689200D01*
G75*
G02*
X129410800Y-106789600I0J-100400D01*
G01*
G37*
G36*
G01*
X129410800Y-106289600D02*
X129410800Y-106490400D01*
G75*
G02*
X129310400Y-106590800I-100400J0D01*
G01*
X127934600Y-106590800D01*
G75*
G02*
X127834200Y-106490400I0J100400D01*
G01*
X127834200Y-106289600D01*
G75*
G02*
X127934600Y-106189200I100400J0D01*
G01*
X129310400Y-106189200D01*
G75*
G02*
X129410800Y-106289600I0J-100400D01*
G01*
G37*
G36*
G01*
X129410800Y-105789600D02*
X129410800Y-105990400D01*
G75*
G02*
X129310400Y-106090800I-100400J0D01*
G01*
X127934600Y-106090800D01*
G75*
G02*
X127834200Y-105990400I0J100400D01*
G01*
X127834200Y-105789600D01*
G75*
G02*
X127934600Y-105689200I100400J0D01*
G01*
X129310400Y-105689200D01*
G75*
G02*
X129410800Y-105789600I0J-100400D01*
G01*
G37*
G36*
G01*
X129410800Y-105289600D02*
X129410800Y-105490400D01*
G75*
G02*
X129310400Y-105590800I-100400J0D01*
G01*
X127934600Y-105590800D01*
G75*
G02*
X127834200Y-105490400I0J100400D01*
G01*
X127834200Y-105289600D01*
G75*
G02*
X127934600Y-105189200I100400J0D01*
G01*
X129310400Y-105189200D01*
G75*
G02*
X129410800Y-105289600I0J-100400D01*
G01*
G37*
G36*
G01*
X129410800Y-104789600D02*
X129410800Y-104990400D01*
G75*
G02*
X129310400Y-105090800I-100400J0D01*
G01*
X127934600Y-105090800D01*
G75*
G02*
X127834200Y-104990400I0J100400D01*
G01*
X127834200Y-104789600D01*
G75*
G02*
X127934600Y-104689200I100400J0D01*
G01*
X129310400Y-104689200D01*
G75*
G02*
X129410800Y-104789600I0J-100400D01*
G01*
G37*
G36*
G01*
X129410800Y-104289600D02*
X129410800Y-104490400D01*
G75*
G02*
X129310400Y-104590800I-100400J0D01*
G01*
X127934600Y-104590800D01*
G75*
G02*
X127834200Y-104490400I0J100400D01*
G01*
X127834200Y-104289600D01*
G75*
G02*
X127934600Y-104189200I100400J0D01*
G01*
X129310400Y-104189200D01*
G75*
G02*
X129410800Y-104289600I0J-100400D01*
G01*
G37*
G36*
G01*
X129410800Y-103789600D02*
X129410800Y-103990400D01*
G75*
G02*
X129310400Y-104090800I-100400J0D01*
G01*
X127934600Y-104090800D01*
G75*
G02*
X127834200Y-103990400I0J100400D01*
G01*
X127834200Y-103789600D01*
G75*
G02*
X127934600Y-103689200I100400J0D01*
G01*
X129310400Y-103689200D01*
G75*
G02*
X129410800Y-103789600I0J-100400D01*
G01*
G37*
G36*
G01*
X129410800Y-103289600D02*
X129410800Y-103490400D01*
G75*
G02*
X129310400Y-103590800I-100400J0D01*
G01*
X127934600Y-103590800D01*
G75*
G02*
X127834200Y-103490400I0J100400D01*
G01*
X127834200Y-103289600D01*
G75*
G02*
X127934600Y-103189200I100400J0D01*
G01*
X129310400Y-103189200D01*
G75*
G02*
X129410800Y-103289600I0J-100400D01*
G01*
G37*
G36*
G01*
X129410800Y-102789600D02*
X129410800Y-102990400D01*
G75*
G02*
X129310400Y-103090800I-100400J0D01*
G01*
X127934600Y-103090800D01*
G75*
G02*
X127834200Y-102990400I0J100400D01*
G01*
X127834200Y-102789600D01*
G75*
G02*
X127934600Y-102689200I100400J0D01*
G01*
X129310400Y-102689200D01*
G75*
G02*
X129410800Y-102789600I0J-100400D01*
G01*
G37*
G36*
G01*
X129410800Y-102289600D02*
X129410800Y-102490400D01*
G75*
G02*
X129310400Y-102590800I-100400J0D01*
G01*
X127934600Y-102590800D01*
G75*
G02*
X127834200Y-102490400I0J100400D01*
G01*
X127834200Y-102289600D01*
G75*
G02*
X127934600Y-102189200I100400J0D01*
G01*
X129310400Y-102189200D01*
G75*
G02*
X129410800Y-102289600I0J-100400D01*
G01*
G37*
G36*
G01*
X129410800Y-101789600D02*
X129410800Y-101990400D01*
G75*
G02*
X129310400Y-102090800I-100400J0D01*
G01*
X127934600Y-102090800D01*
G75*
G02*
X127834200Y-101990400I0J100400D01*
G01*
X127834200Y-101789600D01*
G75*
G02*
X127934600Y-101689200I100400J0D01*
G01*
X129310400Y-101689200D01*
G75*
G02*
X129410800Y-101789600I0J-100400D01*
G01*
G37*
G36*
G01*
X129410800Y-101289600D02*
X129410800Y-101490400D01*
G75*
G02*
X129310400Y-101590800I-100400J0D01*
G01*
X127934600Y-101590800D01*
G75*
G02*
X127834200Y-101490400I0J100400D01*
G01*
X127834200Y-101289600D01*
G75*
G02*
X127934600Y-101189200I100400J0D01*
G01*
X129310400Y-101189200D01*
G75*
G02*
X129410800Y-101289600I0J-100400D01*
G01*
G37*
G36*
G01*
X127410800Y-99289600D02*
X127410800Y-100665400D01*
G75*
G02*
X127310400Y-100765800I-100400J0D01*
G01*
X127109600Y-100765800D01*
G75*
G02*
X127009200Y-100665400I0J100400D01*
G01*
X127009200Y-99289600D01*
G75*
G02*
X127109600Y-99189200I100400J0D01*
G01*
X127310400Y-99189200D01*
G75*
G02*
X127410800Y-99289600I0J-100400D01*
G01*
G37*
G36*
G01*
X126910800Y-99289600D02*
X126910800Y-100665400D01*
G75*
G02*
X126810400Y-100765800I-100400J0D01*
G01*
X126609600Y-100765800D01*
G75*
G02*
X126509200Y-100665400I0J100400D01*
G01*
X126509200Y-99289600D01*
G75*
G02*
X126609600Y-99189200I100400J0D01*
G01*
X126810400Y-99189200D01*
G75*
G02*
X126910800Y-99289600I0J-100400D01*
G01*
G37*
G36*
G01*
X126410800Y-99289600D02*
X126410800Y-100665400D01*
G75*
G02*
X126310400Y-100765800I-100400J0D01*
G01*
X126109600Y-100765800D01*
G75*
G02*
X126009200Y-100665400I0J100400D01*
G01*
X126009200Y-99289600D01*
G75*
G02*
X126109600Y-99189200I100400J0D01*
G01*
X126310400Y-99189200D01*
G75*
G02*
X126410800Y-99289600I0J-100400D01*
G01*
G37*
G36*
G01*
X125910800Y-99289600D02*
X125910800Y-100665400D01*
G75*
G02*
X125810400Y-100765800I-100400J0D01*
G01*
X125609600Y-100765800D01*
G75*
G02*
X125509200Y-100665400I0J100400D01*
G01*
X125509200Y-99289600D01*
G75*
G02*
X125609600Y-99189200I100400J0D01*
G01*
X125810400Y-99189200D01*
G75*
G02*
X125910800Y-99289600I0J-100400D01*
G01*
G37*
G36*
G01*
X125410800Y-99289600D02*
X125410800Y-100665400D01*
G75*
G02*
X125310400Y-100765800I-100400J0D01*
G01*
X125109600Y-100765800D01*
G75*
G02*
X125009200Y-100665400I0J100400D01*
G01*
X125009200Y-99289600D01*
G75*
G02*
X125109600Y-99189200I100400J0D01*
G01*
X125310400Y-99189200D01*
G75*
G02*
X125410800Y-99289600I0J-100400D01*
G01*
G37*
G36*
G01*
X124910800Y-99289600D02*
X124910800Y-100665400D01*
G75*
G02*
X124810400Y-100765800I-100400J0D01*
G01*
X124609600Y-100765800D01*
G75*
G02*
X124509200Y-100665400I0J100400D01*
G01*
X124509200Y-99289600D01*
G75*
G02*
X124609600Y-99189200I100400J0D01*
G01*
X124810400Y-99189200D01*
G75*
G02*
X124910800Y-99289600I0J-100400D01*
G01*
G37*
G36*
G01*
X124410800Y-99289600D02*
X124410800Y-100665400D01*
G75*
G02*
X124310400Y-100765800I-100400J0D01*
G01*
X124109600Y-100765800D01*
G75*
G02*
X124009200Y-100665400I0J100400D01*
G01*
X124009200Y-99289600D01*
G75*
G02*
X124109600Y-99189200I100400J0D01*
G01*
X124310400Y-99189200D01*
G75*
G02*
X124410800Y-99289600I0J-100400D01*
G01*
G37*
G36*
G01*
X123910800Y-99289600D02*
X123910800Y-100665400D01*
G75*
G02*
X123810400Y-100765800I-100400J0D01*
G01*
X123609600Y-100765800D01*
G75*
G02*
X123509200Y-100665400I0J100400D01*
G01*
X123509200Y-99289600D01*
G75*
G02*
X123609600Y-99189200I100400J0D01*
G01*
X123810400Y-99189200D01*
G75*
G02*
X123910800Y-99289600I0J-100400D01*
G01*
G37*
G36*
G01*
X123410800Y-99289600D02*
X123410800Y-100665400D01*
G75*
G02*
X123310400Y-100765800I-100400J0D01*
G01*
X123109600Y-100765800D01*
G75*
G02*
X123009200Y-100665400I0J100400D01*
G01*
X123009200Y-99289600D01*
G75*
G02*
X123109600Y-99189200I100400J0D01*
G01*
X123310400Y-99189200D01*
G75*
G02*
X123410800Y-99289600I0J-100400D01*
G01*
G37*
G36*
G01*
X122910800Y-99289600D02*
X122910800Y-100665400D01*
G75*
G02*
X122810400Y-100765800I-100400J0D01*
G01*
X122609600Y-100765800D01*
G75*
G02*
X122509200Y-100665400I0J100400D01*
G01*
X122509200Y-99289600D01*
G75*
G02*
X122609600Y-99189200I100400J0D01*
G01*
X122810400Y-99189200D01*
G75*
G02*
X122910800Y-99289600I0J-100400D01*
G01*
G37*
G36*
G01*
X122410800Y-99289600D02*
X122410800Y-100665400D01*
G75*
G02*
X122310400Y-100765800I-100400J0D01*
G01*
X122109600Y-100765800D01*
G75*
G02*
X122009200Y-100665400I0J100400D01*
G01*
X122009200Y-99289600D01*
G75*
G02*
X122109600Y-99189200I100400J0D01*
G01*
X122310400Y-99189200D01*
G75*
G02*
X122410800Y-99289600I0J-100400D01*
G01*
G37*
G36*
G01*
X121910800Y-99289600D02*
X121910800Y-100665400D01*
G75*
G02*
X121810400Y-100765800I-100400J0D01*
G01*
X121609600Y-100765800D01*
G75*
G02*
X121509200Y-100665400I0J100400D01*
G01*
X121509200Y-99289600D01*
G75*
G02*
X121609600Y-99189200I100400J0D01*
G01*
X121810400Y-99189200D01*
G75*
G02*
X121910800Y-99289600I0J-100400D01*
G01*
G37*
G36*
G01*
X121085800Y-101289600D02*
X121085800Y-101490400D01*
G75*
G02*
X120985400Y-101590800I-100400J0D01*
G01*
X119609600Y-101590800D01*
G75*
G02*
X119509200Y-101490400I0J100400D01*
G01*
X119509200Y-101289600D01*
G75*
G02*
X119609600Y-101189200I100400J0D01*
G01*
X120985400Y-101189200D01*
G75*
G02*
X121085800Y-101289600I0J-100400D01*
G01*
G37*
G36*
G01*
X121085800Y-101789600D02*
X121085800Y-101990400D01*
G75*
G02*
X120985400Y-102090800I-100400J0D01*
G01*
X119609600Y-102090800D01*
G75*
G02*
X119509200Y-101990400I0J100400D01*
G01*
X119509200Y-101789600D01*
G75*
G02*
X119609600Y-101689200I100400J0D01*
G01*
X120985400Y-101689200D01*
G75*
G02*
X121085800Y-101789600I0J-100400D01*
G01*
G37*
G36*
G01*
X121085800Y-102289600D02*
X121085800Y-102490400D01*
G75*
G02*
X120985400Y-102590800I-100400J0D01*
G01*
X119609600Y-102590800D01*
G75*
G02*
X119509200Y-102490400I0J100400D01*
G01*
X119509200Y-102289600D01*
G75*
G02*
X119609600Y-102189200I100400J0D01*
G01*
X120985400Y-102189200D01*
G75*
G02*
X121085800Y-102289600I0J-100400D01*
G01*
G37*
G36*
G01*
X121085800Y-102789600D02*
X121085800Y-102990400D01*
G75*
G02*
X120985400Y-103090800I-100400J0D01*
G01*
X119609600Y-103090800D01*
G75*
G02*
X119509200Y-102990400I0J100400D01*
G01*
X119509200Y-102789600D01*
G75*
G02*
X119609600Y-102689200I100400J0D01*
G01*
X120985400Y-102689200D01*
G75*
G02*
X121085800Y-102789600I0J-100400D01*
G01*
G37*
G36*
G01*
X121085800Y-103289600D02*
X121085800Y-103490400D01*
G75*
G02*
X120985400Y-103590800I-100400J0D01*
G01*
X119609600Y-103590800D01*
G75*
G02*
X119509200Y-103490400I0J100400D01*
G01*
X119509200Y-103289600D01*
G75*
G02*
X119609600Y-103189200I100400J0D01*
G01*
X120985400Y-103189200D01*
G75*
G02*
X121085800Y-103289600I0J-100400D01*
G01*
G37*
G36*
G01*
X121085800Y-103789600D02*
X121085800Y-103990400D01*
G75*
G02*
X120985400Y-104090800I-100400J0D01*
G01*
X119609600Y-104090800D01*
G75*
G02*
X119509200Y-103990400I0J100400D01*
G01*
X119509200Y-103789600D01*
G75*
G02*
X119609600Y-103689200I100400J0D01*
G01*
X120985400Y-103689200D01*
G75*
G02*
X121085800Y-103789600I0J-100400D01*
G01*
G37*
G36*
G01*
X121085800Y-104289600D02*
X121085800Y-104490400D01*
G75*
G02*
X120985400Y-104590800I-100400J0D01*
G01*
X119609600Y-104590800D01*
G75*
G02*
X119509200Y-104490400I0J100400D01*
G01*
X119509200Y-104289600D01*
G75*
G02*
X119609600Y-104189200I100400J0D01*
G01*
X120985400Y-104189200D01*
G75*
G02*
X121085800Y-104289600I0J-100400D01*
G01*
G37*
G36*
G01*
X121085800Y-104789600D02*
X121085800Y-104990400D01*
G75*
G02*
X120985400Y-105090800I-100400J0D01*
G01*
X119609600Y-105090800D01*
G75*
G02*
X119509200Y-104990400I0J100400D01*
G01*
X119509200Y-104789600D01*
G75*
G02*
X119609600Y-104689200I100400J0D01*
G01*
X120985400Y-104689200D01*
G75*
G02*
X121085800Y-104789600I0J-100400D01*
G01*
G37*
G36*
G01*
X121085800Y-105289600D02*
X121085800Y-105490400D01*
G75*
G02*
X120985400Y-105590800I-100400J0D01*
G01*
X119609600Y-105590800D01*
G75*
G02*
X119509200Y-105490400I0J100400D01*
G01*
X119509200Y-105289600D01*
G75*
G02*
X119609600Y-105189200I100400J0D01*
G01*
X120985400Y-105189200D01*
G75*
G02*
X121085800Y-105289600I0J-100400D01*
G01*
G37*
G36*
G01*
X121085800Y-105789600D02*
X121085800Y-105990400D01*
G75*
G02*
X120985400Y-106090800I-100400J0D01*
G01*
X119609600Y-106090800D01*
G75*
G02*
X119509200Y-105990400I0J100400D01*
G01*
X119509200Y-105789600D01*
G75*
G02*
X119609600Y-105689200I100400J0D01*
G01*
X120985400Y-105689200D01*
G75*
G02*
X121085800Y-105789600I0J-100400D01*
G01*
G37*
G36*
G01*
X121085800Y-106289600D02*
X121085800Y-106490400D01*
G75*
G02*
X120985400Y-106590800I-100400J0D01*
G01*
X119609600Y-106590800D01*
G75*
G02*
X119509200Y-106490400I0J100400D01*
G01*
X119509200Y-106289600D01*
G75*
G02*
X119609600Y-106189200I100400J0D01*
G01*
X120985400Y-106189200D01*
G75*
G02*
X121085800Y-106289600I0J-100400D01*
G01*
G37*
G36*
G01*
X121085800Y-106789600D02*
X121085800Y-106990400D01*
G75*
G02*
X120985400Y-107090800I-100400J0D01*
G01*
X119609600Y-107090800D01*
G75*
G02*
X119509200Y-106990400I0J100400D01*
G01*
X119509200Y-106789600D01*
G75*
G02*
X119609600Y-106689200I100400J0D01*
G01*
X120985400Y-106689200D01*
G75*
G02*
X121085800Y-106789600I0J-100400D01*
G01*
G37*
G36*
G01*
X121910800Y-107614600D02*
X121910800Y-108990400D01*
G75*
G02*
X121810400Y-109090800I-100400J0D01*
G01*
X121609600Y-109090800D01*
G75*
G02*
X121509200Y-108990400I0J100400D01*
G01*
X121509200Y-107614600D01*
G75*
G02*
X121609600Y-107514200I100400J0D01*
G01*
X121810400Y-107514200D01*
G75*
G02*
X121910800Y-107614600I0J-100400D01*
G01*
G37*
G36*
G01*
X122410800Y-107614600D02*
X122410800Y-108990400D01*
G75*
G02*
X122310400Y-109090800I-100400J0D01*
G01*
X122109600Y-109090800D01*
G75*
G02*
X122009200Y-108990400I0J100400D01*
G01*
X122009200Y-107614600D01*
G75*
G02*
X122109600Y-107514200I100400J0D01*
G01*
X122310400Y-107514200D01*
G75*
G02*
X122410800Y-107614600I0J-100400D01*
G01*
G37*
G36*
G01*
X122910800Y-107614600D02*
X122910800Y-108990400D01*
G75*
G02*
X122810400Y-109090800I-100400J0D01*
G01*
X122609600Y-109090800D01*
G75*
G02*
X122509200Y-108990400I0J100400D01*
G01*
X122509200Y-107614600D01*
G75*
G02*
X122609600Y-107514200I100400J0D01*
G01*
X122810400Y-107514200D01*
G75*
G02*
X122910800Y-107614600I0J-100400D01*
G01*
G37*
G36*
G01*
X123410800Y-107614600D02*
X123410800Y-108990400D01*
G75*
G02*
X123310400Y-109090800I-100400J0D01*
G01*
X123109600Y-109090800D01*
G75*
G02*
X123009200Y-108990400I0J100400D01*
G01*
X123009200Y-107614600D01*
G75*
G02*
X123109600Y-107514200I100400J0D01*
G01*
X123310400Y-107514200D01*
G75*
G02*
X123410800Y-107614600I0J-100400D01*
G01*
G37*
G36*
G01*
X123910800Y-107614600D02*
X123910800Y-108990400D01*
G75*
G02*
X123810400Y-109090800I-100400J0D01*
G01*
X123609600Y-109090800D01*
G75*
G02*
X123509200Y-108990400I0J100400D01*
G01*
X123509200Y-107614600D01*
G75*
G02*
X123609600Y-107514200I100400J0D01*
G01*
X123810400Y-107514200D01*
G75*
G02*
X123910800Y-107614600I0J-100400D01*
G01*
G37*
G36*
G01*
X124410800Y-107614600D02*
X124410800Y-108990400D01*
G75*
G02*
X124310400Y-109090800I-100400J0D01*
G01*
X124109600Y-109090800D01*
G75*
G02*
X124009200Y-108990400I0J100400D01*
G01*
X124009200Y-107614600D01*
G75*
G02*
X124109600Y-107514200I100400J0D01*
G01*
X124310400Y-107514200D01*
G75*
G02*
X124410800Y-107614600I0J-100400D01*
G01*
G37*
G36*
G01*
X124910800Y-107614600D02*
X124910800Y-108990400D01*
G75*
G02*
X124810400Y-109090800I-100400J0D01*
G01*
X124609600Y-109090800D01*
G75*
G02*
X124509200Y-108990400I0J100400D01*
G01*
X124509200Y-107614600D01*
G75*
G02*
X124609600Y-107514200I100400J0D01*
G01*
X124810400Y-107514200D01*
G75*
G02*
X124910800Y-107614600I0J-100400D01*
G01*
G37*
G36*
G01*
X125410800Y-107614600D02*
X125410800Y-108990400D01*
G75*
G02*
X125310400Y-109090800I-100400J0D01*
G01*
X125109600Y-109090800D01*
G75*
G02*
X125009200Y-108990400I0J100400D01*
G01*
X125009200Y-107614600D01*
G75*
G02*
X125109600Y-107514200I100400J0D01*
G01*
X125310400Y-107514200D01*
G75*
G02*
X125410800Y-107614600I0J-100400D01*
G01*
G37*
G36*
G01*
X125910800Y-107614600D02*
X125910800Y-108990400D01*
G75*
G02*
X125810400Y-109090800I-100400J0D01*
G01*
X125609600Y-109090800D01*
G75*
G02*
X125509200Y-108990400I0J100400D01*
G01*
X125509200Y-107614600D01*
G75*
G02*
X125609600Y-107514200I100400J0D01*
G01*
X125810400Y-107514200D01*
G75*
G02*
X125910800Y-107614600I0J-100400D01*
G01*
G37*
G36*
G01*
X126410800Y-107614600D02*
X126410800Y-108990400D01*
G75*
G02*
X126310400Y-109090800I-100400J0D01*
G01*
X126109600Y-109090800D01*
G75*
G02*
X126009200Y-108990400I0J100400D01*
G01*
X126009200Y-107614600D01*
G75*
G02*
X126109600Y-107514200I100400J0D01*
G01*
X126310400Y-107514200D01*
G75*
G02*
X126410800Y-107614600I0J-100400D01*
G01*
G37*
G36*
G01*
X126910800Y-107614600D02*
X126910800Y-108990400D01*
G75*
G02*
X126810400Y-109090800I-100400J0D01*
G01*
X126609600Y-109090800D01*
G75*
G02*
X126509200Y-108990400I0J100400D01*
G01*
X126509200Y-107614600D01*
G75*
G02*
X126609600Y-107514200I100400J0D01*
G01*
X126810400Y-107514200D01*
G75*
G02*
X126910800Y-107614600I0J-100400D01*
G01*
G37*
G36*
G01*
X127410800Y-107614600D02*
X127410800Y-108990400D01*
G75*
G02*
X127310400Y-109090800I-100400J0D01*
G01*
X127109600Y-109090800D01*
G75*
G02*
X127009200Y-108990400I0J100400D01*
G01*
X127009200Y-107614600D01*
G75*
G02*
X127109600Y-107514200I100400J0D01*
G01*
X127310400Y-107514200D01*
G75*
G02*
X127410800Y-107614600I0J-100400D01*
G01*
G37*
G36*
G01*
X140325800Y-112846778D02*
X140325800Y-114153222D01*
G75*
G02*
X140053222Y-114425800I-272578J0D01*
G01*
X139371778Y-114425800D01*
G75*
G02*
X139099200Y-114153222I0J272578D01*
G01*
X139099200Y-112846778D01*
G75*
G02*
X139371778Y-112574200I272578J0D01*
G01*
X140053222Y-112574200D01*
G75*
G02*
X140325800Y-112846778I0J-272578D01*
G01*
G37*
G36*
G01*
X137400800Y-112846778D02*
X137400800Y-114153222D01*
G75*
G02*
X137128222Y-114425800I-272578J0D01*
G01*
X136446778Y-114425800D01*
G75*
G02*
X136174200Y-114153222I0J272578D01*
G01*
X136174200Y-112846778D01*
G75*
G02*
X136446778Y-112574200I272578J0D01*
G01*
X137128222Y-112574200D01*
G75*
G02*
X137400800Y-112846778I0J-272578D01*
G01*
G37*
G36*
G01*
X95790800Y-35581287D02*
X95790800Y-36938713D01*
G75*
G02*
X95518713Y-37210800I-272087J0D01*
G01*
X94811287Y-37210800D01*
G75*
G02*
X94539200Y-36938713I0J272087D01*
G01*
X94539200Y-35581287D01*
G75*
G02*
X94811287Y-35309200I272087J0D01*
G01*
X95518713Y-35309200D01*
G75*
G02*
X95790800Y-35581287I0J-272087D01*
G01*
G37*
G36*
G01*
X92840800Y-35581287D02*
X92840800Y-36938713D01*
G75*
G02*
X92568713Y-37210800I-272087J0D01*
G01*
X91861287Y-37210800D01*
G75*
G02*
X91589200Y-36938713I0J272087D01*
G01*
X91589200Y-35581287D01*
G75*
G02*
X91861287Y-35309200I272087J0D01*
G01*
X92568713Y-35309200D01*
G75*
G02*
X92840800Y-35581287I0J-272087D01*
G01*
G37*
G36*
G01*
X94809200Y-29460400D02*
X94809200Y-29109600D01*
G75*
G02*
X94984600Y-28934200I175400J0D01*
G01*
X96685400Y-28934200D01*
G75*
G02*
X96860800Y-29109600I0J-175400D01*
G01*
X96860800Y-29460400D01*
G75*
G02*
X96685400Y-29635800I-175400J0D01*
G01*
X94984600Y-29635800D01*
G75*
G02*
X94809200Y-29460400I0J175400D01*
G01*
G37*
G36*
G01*
X94809200Y-30730400D02*
X94809200Y-30379600D01*
G75*
G02*
X94984600Y-30204200I175400J0D01*
G01*
X96685400Y-30204200D01*
G75*
G02*
X96860800Y-30379600I0J-175400D01*
G01*
X96860800Y-30730400D01*
G75*
G02*
X96685400Y-30905800I-175400J0D01*
G01*
X94984600Y-30905800D01*
G75*
G02*
X94809200Y-30730400I0J175400D01*
G01*
G37*
G36*
G01*
X94809200Y-32000400D02*
X94809200Y-31649600D01*
G75*
G02*
X94984600Y-31474200I175400J0D01*
G01*
X96685400Y-31474200D01*
G75*
G02*
X96860800Y-31649600I0J-175400D01*
G01*
X96860800Y-32000400D01*
G75*
G02*
X96685400Y-32175800I-175400J0D01*
G01*
X94984600Y-32175800D01*
G75*
G02*
X94809200Y-32000400I0J175400D01*
G01*
G37*
G36*
G01*
X94809200Y-33270400D02*
X94809200Y-32919600D01*
G75*
G02*
X94984600Y-32744200I175400J0D01*
G01*
X96685400Y-32744200D01*
G75*
G02*
X96860800Y-32919600I0J-175400D01*
G01*
X96860800Y-33270400D01*
G75*
G02*
X96685400Y-33445800I-175400J0D01*
G01*
X94984600Y-33445800D01*
G75*
G02*
X94809200Y-33270400I0J175400D01*
G01*
G37*
G36*
G01*
X99759200Y-33270400D02*
X99759200Y-32919600D01*
G75*
G02*
X99934600Y-32744200I175400J0D01*
G01*
X101635400Y-32744200D01*
G75*
G02*
X101810800Y-32919600I0J-175400D01*
G01*
X101810800Y-33270400D01*
G75*
G02*
X101635400Y-33445800I-175400J0D01*
G01*
X99934600Y-33445800D01*
G75*
G02*
X99759200Y-33270400I0J175400D01*
G01*
G37*
G36*
G01*
X99759200Y-32000400D02*
X99759200Y-31649600D01*
G75*
G02*
X99934600Y-31474200I175400J0D01*
G01*
X101635400Y-31474200D01*
G75*
G02*
X101810800Y-31649600I0J-175400D01*
G01*
X101810800Y-32000400D01*
G75*
G02*
X101635400Y-32175800I-175400J0D01*
G01*
X99934600Y-32175800D01*
G75*
G02*
X99759200Y-32000400I0J175400D01*
G01*
G37*
G36*
G01*
X99759200Y-30730400D02*
X99759200Y-30379600D01*
G75*
G02*
X99934600Y-30204200I175400J0D01*
G01*
X101635400Y-30204200D01*
G75*
G02*
X101810800Y-30379600I0J-175400D01*
G01*
X101810800Y-30730400D01*
G75*
G02*
X101635400Y-30905800I-175400J0D01*
G01*
X99934600Y-30905800D01*
G75*
G02*
X99759200Y-30730400I0J175400D01*
G01*
G37*
G36*
G01*
X99759200Y-29460400D02*
X99759200Y-29109600D01*
G75*
G02*
X99934600Y-28934200I175400J0D01*
G01*
X101635400Y-28934200D01*
G75*
G02*
X101810800Y-29109600I0J-175400D01*
G01*
X101810800Y-29460400D01*
G75*
G02*
X101635400Y-29635800I-175400J0D01*
G01*
X99934600Y-29635800D01*
G75*
G02*
X99759200Y-29460400I0J175400D01*
G01*
G37*
G36*
G01*
X107963222Y-35165800D02*
X106656778Y-35165800D01*
G75*
G02*
X106384200Y-34893222I0J272578D01*
G01*
X106384200Y-34211778D01*
G75*
G02*
X106656778Y-33939200I272578J0D01*
G01*
X107963222Y-33939200D01*
G75*
G02*
X108235800Y-34211778I0J-272578D01*
G01*
X108235800Y-34893222D01*
G75*
G02*
X107963222Y-35165800I-272578J0D01*
G01*
G37*
G36*
G01*
X107963222Y-32240800D02*
X106656778Y-32240800D01*
G75*
G02*
X106384200Y-31968222I0J272578D01*
G01*
X106384200Y-31286778D01*
G75*
G02*
X106656778Y-31014200I272578J0D01*
G01*
X107963222Y-31014200D01*
G75*
G02*
X108235800Y-31286778I0J-272578D01*
G01*
X108235800Y-31968222D01*
G75*
G02*
X107963222Y-32240800I-272578J0D01*
G01*
G37*
G36*
G01*
X84646778Y-59436700D02*
X85953222Y-59436700D01*
G75*
G02*
X86225800Y-59709278I0J-272578D01*
G01*
X86225800Y-60390722D01*
G75*
G02*
X85953222Y-60663300I-272578J0D01*
G01*
X84646778Y-60663300D01*
G75*
G02*
X84374200Y-60390722I0J272578D01*
G01*
X84374200Y-59709278D01*
G75*
G02*
X84646778Y-59436700I272578J0D01*
G01*
G37*
G36*
G01*
X84646778Y-62361700D02*
X85953222Y-62361700D01*
G75*
G02*
X86225800Y-62634278I0J-272578D01*
G01*
X86225800Y-63315722D01*
G75*
G02*
X85953222Y-63588300I-272578J0D01*
G01*
X84646778Y-63588300D01*
G75*
G02*
X84374200Y-63315722I0J272578D01*
G01*
X84374200Y-62634278D01*
G75*
G02*
X84646778Y-62361700I272578J0D01*
G01*
G37*
G36*
G01*
X112799200Y-30816372D02*
X112799200Y-29458946D01*
G75*
G02*
X113071287Y-29186859I272087J0D01*
G01*
X113778713Y-29186859D01*
G75*
G02*
X114050800Y-29458946I0J-272087D01*
G01*
X114050800Y-30816372D01*
G75*
G02*
X113778713Y-31088459I-272087J0D01*
G01*
X113071287Y-31088459D01*
G75*
G02*
X112799200Y-30816372I0J272087D01*
G01*
G37*
G36*
G01*
X115749200Y-30816372D02*
X115749200Y-29458946D01*
G75*
G02*
X116021287Y-29186859I272087J0D01*
G01*
X116728713Y-29186859D01*
G75*
G02*
X117000800Y-29458946I0J-272087D01*
G01*
X117000800Y-30816372D01*
G75*
G02*
X116728713Y-31088459I-272087J0D01*
G01*
X116021287Y-31088459D01*
G75*
G02*
X115749200Y-30816372I0J272087D01*
G01*
G37*
G36*
G01*
X136821287Y-100649200D02*
X138178713Y-100649200D01*
G75*
G02*
X138450800Y-100921287I0J-272087D01*
G01*
X138450800Y-101628713D01*
G75*
G02*
X138178713Y-101900800I-272087J0D01*
G01*
X136821287Y-101900800D01*
G75*
G02*
X136549200Y-101628713I0J272087D01*
G01*
X136549200Y-100921287D01*
G75*
G02*
X136821287Y-100649200I272087J0D01*
G01*
G37*
G36*
G01*
X136821287Y-103599200D02*
X138178713Y-103599200D01*
G75*
G02*
X138450800Y-103871287I0J-272087D01*
G01*
X138450800Y-104578713D01*
G75*
G02*
X138178713Y-104850800I-272087J0D01*
G01*
X136821287Y-104850800D01*
G75*
G02*
X136549200Y-104578713I0J272087D01*
G01*
X136549200Y-103871287D01*
G75*
G02*
X136821287Y-103599200I272087J0D01*
G01*
G37*
G36*
G01*
X128910800Y-66940000D02*
X128910800Y-68640000D01*
G75*
G02*
X128860000Y-68690800I-50800J0D01*
G01*
X127160000Y-68690800D01*
G75*
G02*
X127109200Y-68640000I0J50800D01*
G01*
X127109200Y-66940000D01*
G75*
G02*
X127160000Y-66889200I50800J0D01*
G01*
X128860000Y-66889200D01*
G75*
G02*
X128910800Y-66940000I0J-50800D01*
G01*
G37*
X128010000Y-65250000D03*
X128010000Y-62710000D03*
X128010000Y-60170000D03*
X128010000Y-57630000D03*
X128010000Y-55090000D03*
G36*
G01*
X106325800Y-97846778D02*
X106325800Y-99153222D01*
G75*
G02*
X106053222Y-99425800I-272578J0D01*
G01*
X105371778Y-99425800D01*
G75*
G02*
X105099200Y-99153222I0J272578D01*
G01*
X105099200Y-97846778D01*
G75*
G02*
X105371778Y-97574200I272578J0D01*
G01*
X106053222Y-97574200D01*
G75*
G02*
X106325800Y-97846778I0J-272578D01*
G01*
G37*
G36*
G01*
X103400800Y-97846778D02*
X103400800Y-99153222D01*
G75*
G02*
X103128222Y-99425800I-272578J0D01*
G01*
X102446778Y-99425800D01*
G75*
G02*
X102174200Y-99153222I0J272578D01*
G01*
X102174200Y-97846778D01*
G75*
G02*
X102446778Y-97574200I272578J0D01*
G01*
X103128222Y-97574200D01*
G75*
G02*
X103400800Y-97846778I0J-272578D01*
G01*
G37*
G36*
G01*
X84331287Y-30799200D02*
X85688713Y-30799200D01*
G75*
G02*
X85960800Y-31071287I0J-272087D01*
G01*
X85960800Y-31778713D01*
G75*
G02*
X85688713Y-32050800I-272087J0D01*
G01*
X84331287Y-32050800D01*
G75*
G02*
X84059200Y-31778713I0J272087D01*
G01*
X84059200Y-31071287D01*
G75*
G02*
X84331287Y-30799200I272087J0D01*
G01*
G37*
G36*
G01*
X84331287Y-33749200D02*
X85688713Y-33749200D01*
G75*
G02*
X85960800Y-34021287I0J-272087D01*
G01*
X85960800Y-34728713D01*
G75*
G02*
X85688713Y-35000800I-272087J0D01*
G01*
X84331287Y-35000800D01*
G75*
G02*
X84059200Y-34728713I0J272087D01*
G01*
X84059200Y-34021287D01*
G75*
G02*
X84331287Y-33749200I272087J0D01*
G01*
G37*
G36*
G01*
X92750800Y-98746287D02*
X92750800Y-100103713D01*
G75*
G02*
X92478713Y-100375800I-272087J0D01*
G01*
X91771287Y-100375800D01*
G75*
G02*
X91499200Y-100103713I0J272087D01*
G01*
X91499200Y-98746287D01*
G75*
G02*
X91771287Y-98474200I272087J0D01*
G01*
X92478713Y-98474200D01*
G75*
G02*
X92750800Y-98746287I0J-272087D01*
G01*
G37*
G36*
G01*
X89800800Y-98746287D02*
X89800800Y-100103713D01*
G75*
G02*
X89528713Y-100375800I-272087J0D01*
G01*
X88821287Y-100375800D01*
G75*
G02*
X88549200Y-100103713I0J272087D01*
G01*
X88549200Y-98746287D01*
G75*
G02*
X88821287Y-98474200I272087J0D01*
G01*
X89528713Y-98474200D01*
G75*
G02*
X89800800Y-98746287I0J-272087D01*
G01*
G37*
G36*
G01*
X145253222Y-52075800D02*
X143946778Y-52075800D01*
G75*
G02*
X143674200Y-51803222I0J272578D01*
G01*
X143674200Y-51121778D01*
G75*
G02*
X143946778Y-50849200I272578J0D01*
G01*
X145253222Y-50849200D01*
G75*
G02*
X145525800Y-51121778I0J-272578D01*
G01*
X145525800Y-51803222D01*
G75*
G02*
X145253222Y-52075800I-272578J0D01*
G01*
G37*
G36*
G01*
X145253222Y-49150800D02*
X143946778Y-49150800D01*
G75*
G02*
X143674200Y-48878222I0J272578D01*
G01*
X143674200Y-48196778D01*
G75*
G02*
X143946778Y-47924200I272578J0D01*
G01*
X145253222Y-47924200D01*
G75*
G02*
X145525800Y-48196778I0J-272578D01*
G01*
X145525800Y-48878222D01*
G75*
G02*
X145253222Y-49150800I-272578J0D01*
G01*
G37*
G36*
G01*
X103038273Y-107340800D02*
X101731829Y-107340800D01*
G75*
G02*
X101459251Y-107068222I0J272578D01*
G01*
X101459251Y-106386778D01*
G75*
G02*
X101731829Y-106114200I272578J0D01*
G01*
X103038273Y-106114200D01*
G75*
G02*
X103310851Y-106386778I0J-272578D01*
G01*
X103310851Y-107068222D01*
G75*
G02*
X103038273Y-107340800I-272578J0D01*
G01*
G37*
G36*
G01*
X103038273Y-104415800D02*
X101731829Y-104415800D01*
G75*
G02*
X101459251Y-104143222I0J272578D01*
G01*
X101459251Y-103461778D01*
G75*
G02*
X101731829Y-103189200I272578J0D01*
G01*
X103038273Y-103189200D01*
G75*
G02*
X103310851Y-103461778I0J-272578D01*
G01*
X103310851Y-104143222D01*
G75*
G02*
X103038273Y-104415800I-272578J0D01*
G01*
G37*
G36*
G01*
X91324200Y-63853222D02*
X91324200Y-62546778D01*
G75*
G02*
X91596778Y-62274200I272578J0D01*
G01*
X92278222Y-62274200D01*
G75*
G02*
X92550800Y-62546778I0J-272578D01*
G01*
X92550800Y-63853222D01*
G75*
G02*
X92278222Y-64125800I-272578J0D01*
G01*
X91596778Y-64125800D01*
G75*
G02*
X91324200Y-63853222I0J272578D01*
G01*
G37*
G36*
G01*
X94249200Y-63853222D02*
X94249200Y-62546778D01*
G75*
G02*
X94521778Y-62274200I272578J0D01*
G01*
X95203222Y-62274200D01*
G75*
G02*
X95475800Y-62546778I0J-272578D01*
G01*
X95475800Y-63853222D01*
G75*
G02*
X95203222Y-64125800I-272578J0D01*
G01*
X94521778Y-64125800D01*
G75*
G02*
X94249200Y-63853222I0J272578D01*
G01*
G37*
G36*
G01*
X123999200Y-115160560D02*
X123999200Y-113339440D01*
G75*
G02*
X124239440Y-113099200I240240J0D01*
G01*
X125360560Y-113099200D01*
G75*
G02*
X125600800Y-113339440I0J-240240D01*
G01*
X125600800Y-115160560D01*
G75*
G02*
X125360560Y-115400800I-240240J0D01*
G01*
X124239440Y-115400800D01*
G75*
G02*
X123999200Y-115160560I0J240240D01*
G01*
G37*
G36*
G01*
X120899200Y-115160560D02*
X120899200Y-113339440D01*
G75*
G02*
X121139440Y-113099200I240240J0D01*
G01*
X122260560Y-113099200D01*
G75*
G02*
X122500800Y-113339440I0J-240240D01*
G01*
X122500800Y-115160560D01*
G75*
G02*
X122260560Y-115400800I-240240J0D01*
G01*
X121139440Y-115400800D01*
G75*
G02*
X120899200Y-115160560I0J240240D01*
G01*
G37*
G36*
G01*
X150175800Y-43046778D02*
X150175800Y-44353222D01*
G75*
G02*
X149903222Y-44625800I-272578J0D01*
G01*
X149221778Y-44625800D01*
G75*
G02*
X148949200Y-44353222I0J272578D01*
G01*
X148949200Y-43046778D01*
G75*
G02*
X149221778Y-42774200I272578J0D01*
G01*
X149903222Y-42774200D01*
G75*
G02*
X150175800Y-43046778I0J-272578D01*
G01*
G37*
G36*
G01*
X147250800Y-43046778D02*
X147250800Y-44353222D01*
G75*
G02*
X146978222Y-44625800I-272578J0D01*
G01*
X146296778Y-44625800D01*
G75*
G02*
X146024200Y-44353222I0J272578D01*
G01*
X146024200Y-43046778D01*
G75*
G02*
X146296778Y-42774200I272578J0D01*
G01*
X146978222Y-42774200D01*
G75*
G02*
X147250800Y-43046778I0J-272578D01*
G01*
G37*
G36*
G01*
X141546778Y-49424200D02*
X142853222Y-49424200D01*
G75*
G02*
X143125800Y-49696778I0J-272578D01*
G01*
X143125800Y-50378222D01*
G75*
G02*
X142853222Y-50650800I-272578J0D01*
G01*
X141546778Y-50650800D01*
G75*
G02*
X141274200Y-50378222I0J272578D01*
G01*
X141274200Y-49696778D01*
G75*
G02*
X141546778Y-49424200I272578J0D01*
G01*
G37*
G36*
G01*
X141546778Y-52349200D02*
X142853222Y-52349200D01*
G75*
G02*
X143125800Y-52621778I0J-272578D01*
G01*
X143125800Y-53303222D01*
G75*
G02*
X142853222Y-53575800I-272578J0D01*
G01*
X141546778Y-53575800D01*
G75*
G02*
X141274200Y-53303222I0J272578D01*
G01*
X141274200Y-52621778D01*
G75*
G02*
X141546778Y-52349200I272578J0D01*
G01*
G37*
G36*
G01*
X120499200Y-52878713D02*
X120499200Y-51521287D01*
G75*
G02*
X120771287Y-51249200I272087J0D01*
G01*
X121478713Y-51249200D01*
G75*
G02*
X121750800Y-51521287I0J-272087D01*
G01*
X121750800Y-52878713D01*
G75*
G02*
X121478713Y-53150800I-272087J0D01*
G01*
X120771287Y-53150800D01*
G75*
G02*
X120499200Y-52878713I0J272087D01*
G01*
G37*
G36*
G01*
X123449200Y-52878713D02*
X123449200Y-51521287D01*
G75*
G02*
X123721287Y-51249200I272087J0D01*
G01*
X124428713Y-51249200D01*
G75*
G02*
X124700800Y-51521287I0J-272087D01*
G01*
X124700800Y-52878713D01*
G75*
G02*
X124428713Y-53150800I-272087J0D01*
G01*
X123721287Y-53150800D01*
G75*
G02*
X123449200Y-52878713I0J272087D01*
G01*
G37*
G36*
G01*
X156499200Y-111410560D02*
X156499200Y-109589440D01*
G75*
G02*
X156739440Y-109349200I240240J0D01*
G01*
X157860560Y-109349200D01*
G75*
G02*
X158100800Y-109589440I0J-240240D01*
G01*
X158100800Y-111410560D01*
G75*
G02*
X157860560Y-111650800I-240240J0D01*
G01*
X156739440Y-111650800D01*
G75*
G02*
X156499200Y-111410560I0J240240D01*
G01*
G37*
G36*
G01*
X153399200Y-111410560D02*
X153399200Y-109589440D01*
G75*
G02*
X153639440Y-109349200I240240J0D01*
G01*
X154760560Y-109349200D01*
G75*
G02*
X155000800Y-109589440I0J-240240D01*
G01*
X155000800Y-111410560D01*
G75*
G02*
X154760560Y-111650800I-240240J0D01*
G01*
X153639440Y-111650800D01*
G75*
G02*
X153399200Y-111410560I0J240240D01*
G01*
G37*
G36*
G01*
X106936700Y-72450400D02*
X106936700Y-72249600D01*
G75*
G02*
X107037100Y-72149200I100400J0D01*
G01*
X108212900Y-72149200D01*
G75*
G02*
X108313300Y-72249600I0J-100400D01*
G01*
X108313300Y-72450400D01*
G75*
G02*
X108212900Y-72550800I-100400J0D01*
G01*
X107037100Y-72550800D01*
G75*
G02*
X106936700Y-72450400I0J100400D01*
G01*
G37*
G36*
G01*
X106936700Y-72950400D02*
X106936700Y-72749600D01*
G75*
G02*
X107037100Y-72649200I100400J0D01*
G01*
X108212900Y-72649200D01*
G75*
G02*
X108313300Y-72749600I0J-100400D01*
G01*
X108313300Y-72950400D01*
G75*
G02*
X108212900Y-73050800I-100400J0D01*
G01*
X107037100Y-73050800D01*
G75*
G02*
X106936700Y-72950400I0J100400D01*
G01*
G37*
G36*
G01*
X106936700Y-73450400D02*
X106936700Y-73249600D01*
G75*
G02*
X107037100Y-73149200I100400J0D01*
G01*
X108212900Y-73149200D01*
G75*
G02*
X108313300Y-73249600I0J-100400D01*
G01*
X108313300Y-73450400D01*
G75*
G02*
X108212900Y-73550800I-100400J0D01*
G01*
X107037100Y-73550800D01*
G75*
G02*
X106936700Y-73450400I0J100400D01*
G01*
G37*
G36*
G01*
X106936700Y-73950400D02*
X106936700Y-73749600D01*
G75*
G02*
X107037100Y-73649200I100400J0D01*
G01*
X108212900Y-73649200D01*
G75*
G02*
X108313300Y-73749600I0J-100400D01*
G01*
X108313300Y-73950400D01*
G75*
G02*
X108212900Y-74050800I-100400J0D01*
G01*
X107037100Y-74050800D01*
G75*
G02*
X106936700Y-73950400I0J100400D01*
G01*
G37*
G36*
G01*
X106936700Y-74450400D02*
X106936700Y-74249600D01*
G75*
G02*
X107037100Y-74149200I100400J0D01*
G01*
X108212900Y-74149200D01*
G75*
G02*
X108313300Y-74249600I0J-100400D01*
G01*
X108313300Y-74450400D01*
G75*
G02*
X108212900Y-74550800I-100400J0D01*
G01*
X107037100Y-74550800D01*
G75*
G02*
X106936700Y-74450400I0J100400D01*
G01*
G37*
G36*
G01*
X106936700Y-74950400D02*
X106936700Y-74749600D01*
G75*
G02*
X107037100Y-74649200I100400J0D01*
G01*
X108212900Y-74649200D01*
G75*
G02*
X108313300Y-74749600I0J-100400D01*
G01*
X108313300Y-74950400D01*
G75*
G02*
X108212900Y-75050800I-100400J0D01*
G01*
X107037100Y-75050800D01*
G75*
G02*
X106936700Y-74950400I0J100400D01*
G01*
G37*
G36*
G01*
X108336700Y-76350400D02*
X108336700Y-75174600D01*
G75*
G02*
X108437100Y-75074200I100400J0D01*
G01*
X108637900Y-75074200D01*
G75*
G02*
X108738300Y-75174600I0J-100400D01*
G01*
X108738300Y-76350400D01*
G75*
G02*
X108637900Y-76450800I-100400J0D01*
G01*
X108437100Y-76450800D01*
G75*
G02*
X108336700Y-76350400I0J100400D01*
G01*
G37*
G36*
G01*
X108836700Y-76350400D02*
X108836700Y-75174600D01*
G75*
G02*
X108937100Y-75074200I100400J0D01*
G01*
X109137900Y-75074200D01*
G75*
G02*
X109238300Y-75174600I0J-100400D01*
G01*
X109238300Y-76350400D01*
G75*
G02*
X109137900Y-76450800I-100400J0D01*
G01*
X108937100Y-76450800D01*
G75*
G02*
X108836700Y-76350400I0J100400D01*
G01*
G37*
G36*
G01*
X109336700Y-76350400D02*
X109336700Y-75174600D01*
G75*
G02*
X109437100Y-75074200I100400J0D01*
G01*
X109637900Y-75074200D01*
G75*
G02*
X109738300Y-75174600I0J-100400D01*
G01*
X109738300Y-76350400D01*
G75*
G02*
X109637900Y-76450800I-100400J0D01*
G01*
X109437100Y-76450800D01*
G75*
G02*
X109336700Y-76350400I0J100400D01*
G01*
G37*
G36*
G01*
X109836700Y-76350400D02*
X109836700Y-75174600D01*
G75*
G02*
X109937100Y-75074200I100400J0D01*
G01*
X110137900Y-75074200D01*
G75*
G02*
X110238300Y-75174600I0J-100400D01*
G01*
X110238300Y-76350400D01*
G75*
G02*
X110137900Y-76450800I-100400J0D01*
G01*
X109937100Y-76450800D01*
G75*
G02*
X109836700Y-76350400I0J100400D01*
G01*
G37*
G36*
G01*
X110336700Y-76350400D02*
X110336700Y-75174600D01*
G75*
G02*
X110437100Y-75074200I100400J0D01*
G01*
X110637900Y-75074200D01*
G75*
G02*
X110738300Y-75174600I0J-100400D01*
G01*
X110738300Y-76350400D01*
G75*
G02*
X110637900Y-76450800I-100400J0D01*
G01*
X110437100Y-76450800D01*
G75*
G02*
X110336700Y-76350400I0J100400D01*
G01*
G37*
G36*
G01*
X110836700Y-76350400D02*
X110836700Y-75174600D01*
G75*
G02*
X110937100Y-75074200I100400J0D01*
G01*
X111137900Y-75074200D01*
G75*
G02*
X111238300Y-75174600I0J-100400D01*
G01*
X111238300Y-76350400D01*
G75*
G02*
X111137900Y-76450800I-100400J0D01*
G01*
X110937100Y-76450800D01*
G75*
G02*
X110836700Y-76350400I0J100400D01*
G01*
G37*
G36*
G01*
X111261700Y-74950400D02*
X111261700Y-74749600D01*
G75*
G02*
X111362100Y-74649200I100400J0D01*
G01*
X112537900Y-74649200D01*
G75*
G02*
X112638300Y-74749600I0J-100400D01*
G01*
X112638300Y-74950400D01*
G75*
G02*
X112537900Y-75050800I-100400J0D01*
G01*
X111362100Y-75050800D01*
G75*
G02*
X111261700Y-74950400I0J100400D01*
G01*
G37*
G36*
G01*
X111261700Y-74450400D02*
X111261700Y-74249600D01*
G75*
G02*
X111362100Y-74149200I100400J0D01*
G01*
X112537900Y-74149200D01*
G75*
G02*
X112638300Y-74249600I0J-100400D01*
G01*
X112638300Y-74450400D01*
G75*
G02*
X112537900Y-74550800I-100400J0D01*
G01*
X111362100Y-74550800D01*
G75*
G02*
X111261700Y-74450400I0J100400D01*
G01*
G37*
G36*
G01*
X111261700Y-73950400D02*
X111261700Y-73749600D01*
G75*
G02*
X111362100Y-73649200I100400J0D01*
G01*
X112537900Y-73649200D01*
G75*
G02*
X112638300Y-73749600I0J-100400D01*
G01*
X112638300Y-73950400D01*
G75*
G02*
X112537900Y-74050800I-100400J0D01*
G01*
X111362100Y-74050800D01*
G75*
G02*
X111261700Y-73950400I0J100400D01*
G01*
G37*
G36*
G01*
X111261700Y-73450400D02*
X111261700Y-73249600D01*
G75*
G02*
X111362100Y-73149200I100400J0D01*
G01*
X112537900Y-73149200D01*
G75*
G02*
X112638300Y-73249600I0J-100400D01*
G01*
X112638300Y-73450400D01*
G75*
G02*
X112537900Y-73550800I-100400J0D01*
G01*
X111362100Y-73550800D01*
G75*
G02*
X111261700Y-73450400I0J100400D01*
G01*
G37*
G36*
G01*
X111261700Y-72950400D02*
X111261700Y-72749600D01*
G75*
G02*
X111362100Y-72649200I100400J0D01*
G01*
X112537900Y-72649200D01*
G75*
G02*
X112638300Y-72749600I0J-100400D01*
G01*
X112638300Y-72950400D01*
G75*
G02*
X112537900Y-73050800I-100400J0D01*
G01*
X111362100Y-73050800D01*
G75*
G02*
X111261700Y-72950400I0J100400D01*
G01*
G37*
G36*
G01*
X111261700Y-72450400D02*
X111261700Y-72249600D01*
G75*
G02*
X111362100Y-72149200I100400J0D01*
G01*
X112537900Y-72149200D01*
G75*
G02*
X112638300Y-72249600I0J-100400D01*
G01*
X112638300Y-72450400D01*
G75*
G02*
X112537900Y-72550800I-100400J0D01*
G01*
X111362100Y-72550800D01*
G75*
G02*
X111261700Y-72450400I0J100400D01*
G01*
G37*
G36*
G01*
X110836700Y-72025400D02*
X110836700Y-70849600D01*
G75*
G02*
X110937100Y-70749200I100400J0D01*
G01*
X111137900Y-70749200D01*
G75*
G02*
X111238300Y-70849600I0J-100400D01*
G01*
X111238300Y-72025400D01*
G75*
G02*
X111137900Y-72125800I-100400J0D01*
G01*
X110937100Y-72125800D01*
G75*
G02*
X110836700Y-72025400I0J100400D01*
G01*
G37*
G36*
G01*
X110336700Y-72025400D02*
X110336700Y-70849600D01*
G75*
G02*
X110437100Y-70749200I100400J0D01*
G01*
X110637900Y-70749200D01*
G75*
G02*
X110738300Y-70849600I0J-100400D01*
G01*
X110738300Y-72025400D01*
G75*
G02*
X110637900Y-72125800I-100400J0D01*
G01*
X110437100Y-72125800D01*
G75*
G02*
X110336700Y-72025400I0J100400D01*
G01*
G37*
G36*
G01*
X109836700Y-72025400D02*
X109836700Y-70849600D01*
G75*
G02*
X109937100Y-70749200I100400J0D01*
G01*
X110137900Y-70749200D01*
G75*
G02*
X110238300Y-70849600I0J-100400D01*
G01*
X110238300Y-72025400D01*
G75*
G02*
X110137900Y-72125800I-100400J0D01*
G01*
X109937100Y-72125800D01*
G75*
G02*
X109836700Y-72025400I0J100400D01*
G01*
G37*
G36*
G01*
X109336700Y-72025400D02*
X109336700Y-70849600D01*
G75*
G02*
X109437100Y-70749200I100400J0D01*
G01*
X109637900Y-70749200D01*
G75*
G02*
X109738300Y-70849600I0J-100400D01*
G01*
X109738300Y-72025400D01*
G75*
G02*
X109637900Y-72125800I-100400J0D01*
G01*
X109437100Y-72125800D01*
G75*
G02*
X109336700Y-72025400I0J100400D01*
G01*
G37*
G36*
G01*
X108836700Y-72025400D02*
X108836700Y-70849600D01*
G75*
G02*
X108937100Y-70749200I100400J0D01*
G01*
X109137900Y-70749200D01*
G75*
G02*
X109238300Y-70849600I0J-100400D01*
G01*
X109238300Y-72025400D01*
G75*
G02*
X109137900Y-72125800I-100400J0D01*
G01*
X108937100Y-72125800D01*
G75*
G02*
X108836700Y-72025400I0J100400D01*
G01*
G37*
G36*
G01*
X108336700Y-72025400D02*
X108336700Y-70849600D01*
G75*
G02*
X108437100Y-70749200I100400J0D01*
G01*
X108637900Y-70749200D01*
G75*
G02*
X108738300Y-70849600I0J-100400D01*
G01*
X108738300Y-72025400D01*
G75*
G02*
X108637900Y-72125800I-100400J0D01*
G01*
X108437100Y-72125800D01*
G75*
G02*
X108336700Y-72025400I0J100400D01*
G01*
G37*
G36*
G01*
X108411700Y-74925000D02*
X108411700Y-72275000D01*
G75*
G02*
X108462500Y-72224200I50800J0D01*
G01*
X111112500Y-72224200D01*
G75*
G02*
X111163300Y-72275000I0J-50800D01*
G01*
X111163300Y-74925000D01*
G75*
G02*
X111112500Y-74975800I-50800J0D01*
G01*
X108462500Y-74975800D01*
G75*
G02*
X108411700Y-74925000I0J50800D01*
G01*
G37*
G36*
G01*
X139903222Y-75325800D02*
X138596778Y-75325800D01*
G75*
G02*
X138324200Y-75053222I0J272578D01*
G01*
X138324200Y-74371778D01*
G75*
G02*
X138596778Y-74099200I272578J0D01*
G01*
X139903222Y-74099200D01*
G75*
G02*
X140175800Y-74371778I0J-272578D01*
G01*
X140175800Y-75053222D01*
G75*
G02*
X139903222Y-75325800I-272578J0D01*
G01*
G37*
G36*
G01*
X139903222Y-72400800D02*
X138596778Y-72400800D01*
G75*
G02*
X138324200Y-72128222I0J272578D01*
G01*
X138324200Y-71446778D01*
G75*
G02*
X138596778Y-71174200I272578J0D01*
G01*
X139903222Y-71174200D01*
G75*
G02*
X140175800Y-71446778I0J-272578D01*
G01*
X140175800Y-72128222D01*
G75*
G02*
X139903222Y-72400800I-272578J0D01*
G01*
G37*
G36*
G01*
X87346778Y-64424200D02*
X88653222Y-64424200D01*
G75*
G02*
X88925800Y-64696778I0J-272578D01*
G01*
X88925800Y-65378222D01*
G75*
G02*
X88653222Y-65650800I-272578J0D01*
G01*
X87346778Y-65650800D01*
G75*
G02*
X87074200Y-65378222I0J272578D01*
G01*
X87074200Y-64696778D01*
G75*
G02*
X87346778Y-64424200I272578J0D01*
G01*
G37*
G36*
G01*
X87346778Y-67349200D02*
X88653222Y-67349200D01*
G75*
G02*
X88925800Y-67621778I0J-272578D01*
G01*
X88925800Y-68303222D01*
G75*
G02*
X88653222Y-68575800I-272578J0D01*
G01*
X87346778Y-68575800D01*
G75*
G02*
X87074200Y-68303222I0J272578D01*
G01*
X87074200Y-67621778D01*
G75*
G02*
X87346778Y-67349200I272578J0D01*
G01*
G37*
G36*
G01*
X143399200Y-107475400D02*
X143399200Y-107124600D01*
G75*
G02*
X143574600Y-106949200I175400J0D01*
G01*
X144650400Y-106949200D01*
G75*
G02*
X144825800Y-107124600I0J-175400D01*
G01*
X144825800Y-107475400D01*
G75*
G02*
X144650400Y-107650800I-175400J0D01*
G01*
X143574600Y-107650800D01*
G75*
G02*
X143399200Y-107475400I0J175400D01*
G01*
G37*
G36*
G01*
X143399200Y-108425400D02*
X143399200Y-108074600D01*
G75*
G02*
X143574600Y-107899200I175400J0D01*
G01*
X144650400Y-107899200D01*
G75*
G02*
X144825800Y-108074600I0J-175400D01*
G01*
X144825800Y-108425400D01*
G75*
G02*
X144650400Y-108600800I-175400J0D01*
G01*
X143574600Y-108600800D01*
G75*
G02*
X143399200Y-108425400I0J175400D01*
G01*
G37*
G36*
G01*
X143399200Y-109375400D02*
X143399200Y-109024600D01*
G75*
G02*
X143574600Y-108849200I175400J0D01*
G01*
X144650400Y-108849200D01*
G75*
G02*
X144825800Y-109024600I0J-175400D01*
G01*
X144825800Y-109375400D01*
G75*
G02*
X144650400Y-109550800I-175400J0D01*
G01*
X143574600Y-109550800D01*
G75*
G02*
X143399200Y-109375400I0J175400D01*
G01*
G37*
G36*
G01*
X145674200Y-109375400D02*
X145674200Y-109024600D01*
G75*
G02*
X145849600Y-108849200I175400J0D01*
G01*
X146925400Y-108849200D01*
G75*
G02*
X147100800Y-109024600I0J-175400D01*
G01*
X147100800Y-109375400D01*
G75*
G02*
X146925400Y-109550800I-175400J0D01*
G01*
X145849600Y-109550800D01*
G75*
G02*
X145674200Y-109375400I0J175400D01*
G01*
G37*
G36*
G01*
X145674200Y-107475400D02*
X145674200Y-107124600D01*
G75*
G02*
X145849600Y-106949200I175400J0D01*
G01*
X146925400Y-106949200D01*
G75*
G02*
X147100800Y-107124600I0J-175400D01*
G01*
X147100800Y-107475400D01*
G75*
G02*
X146925400Y-107650800I-175400J0D01*
G01*
X145849600Y-107650800D01*
G75*
G02*
X145674200Y-107475400I0J175400D01*
G01*
G37*
G36*
G01*
X141174200Y-114153222D02*
X141174200Y-112846778D01*
G75*
G02*
X141446778Y-112574200I272578J0D01*
G01*
X142128222Y-112574200D01*
G75*
G02*
X142400800Y-112846778I0J-272578D01*
G01*
X142400800Y-114153222D01*
G75*
G02*
X142128222Y-114425800I-272578J0D01*
G01*
X141446778Y-114425800D01*
G75*
G02*
X141174200Y-114153222I0J272578D01*
G01*
G37*
G36*
G01*
X144099200Y-114153222D02*
X144099200Y-112846778D01*
G75*
G02*
X144371778Y-112574200I272578J0D01*
G01*
X145053222Y-112574200D01*
G75*
G02*
X145325800Y-112846778I0J-272578D01*
G01*
X145325800Y-114153222D01*
G75*
G02*
X145053222Y-114425800I-272578J0D01*
G01*
X144371778Y-114425800D01*
G75*
G02*
X144099200Y-114153222I0J272578D01*
G01*
G37*
G36*
G01*
X116978713Y-76650800D02*
X115621287Y-76650800D01*
G75*
G02*
X115349200Y-76378713I0J272087D01*
G01*
X115349200Y-75671287D01*
G75*
G02*
X115621287Y-75399200I272087J0D01*
G01*
X116978713Y-75399200D01*
G75*
G02*
X117250800Y-75671287I0J-272087D01*
G01*
X117250800Y-76378713D01*
G75*
G02*
X116978713Y-76650800I-272087J0D01*
G01*
G37*
G36*
G01*
X116978713Y-73700800D02*
X115621287Y-73700800D01*
G75*
G02*
X115349200Y-73428713I0J272087D01*
G01*
X115349200Y-72721287D01*
G75*
G02*
X115621287Y-72449200I272087J0D01*
G01*
X116978713Y-72449200D01*
G75*
G02*
X117250800Y-72721287I0J-272087D01*
G01*
X117250800Y-73428713D01*
G75*
G02*
X116978713Y-73700800I-272087J0D01*
G01*
G37*
G36*
G01*
X95174200Y-99403222D02*
X95174200Y-98096778D01*
G75*
G02*
X95446778Y-97824200I272578J0D01*
G01*
X96128222Y-97824200D01*
G75*
G02*
X96400800Y-98096778I0J-272578D01*
G01*
X96400800Y-99403222D01*
G75*
G02*
X96128222Y-99675800I-272578J0D01*
G01*
X95446778Y-99675800D01*
G75*
G02*
X95174200Y-99403222I0J272578D01*
G01*
G37*
G36*
G01*
X98099200Y-99403222D02*
X98099200Y-98096778D01*
G75*
G02*
X98371778Y-97824200I272578J0D01*
G01*
X99053222Y-97824200D01*
G75*
G02*
X99325800Y-98096778I0J-272578D01*
G01*
X99325800Y-99403222D01*
G75*
G02*
X99053222Y-99675800I-272578J0D01*
G01*
X98371778Y-99675800D01*
G75*
G02*
X98099200Y-99403222I0J272578D01*
G01*
G37*
G36*
G01*
X93209600Y-40089200D02*
X93460400Y-40089200D01*
G75*
G02*
X93585800Y-40214600I0J-125400D01*
G01*
X93585800Y-41540400D01*
G75*
G02*
X93460400Y-41665800I-125400J0D01*
G01*
X93209600Y-41665800D01*
G75*
G02*
X93084200Y-41540400I0J125400D01*
G01*
X93084200Y-40214600D01*
G75*
G02*
X93209600Y-40089200I125400J0D01*
G01*
G37*
G36*
G01*
X92559600Y-40089200D02*
X92810400Y-40089200D01*
G75*
G02*
X92935800Y-40214600I0J-125400D01*
G01*
X92935800Y-41540400D01*
G75*
G02*
X92810400Y-41665800I-125400J0D01*
G01*
X92559600Y-41665800D01*
G75*
G02*
X92434200Y-41540400I0J125400D01*
G01*
X92434200Y-40214600D01*
G75*
G02*
X92559600Y-40089200I125400J0D01*
G01*
G37*
G36*
G01*
X91909600Y-40089200D02*
X92160400Y-40089200D01*
G75*
G02*
X92285800Y-40214600I0J-125400D01*
G01*
X92285800Y-41540400D01*
G75*
G02*
X92160400Y-41665800I-125400J0D01*
G01*
X91909600Y-41665800D01*
G75*
G02*
X91784200Y-41540400I0J125400D01*
G01*
X91784200Y-40214600D01*
G75*
G02*
X91909600Y-40089200I125400J0D01*
G01*
G37*
G36*
G01*
X91259600Y-40089200D02*
X91510400Y-40089200D01*
G75*
G02*
X91635800Y-40214600I0J-125400D01*
G01*
X91635800Y-41540400D01*
G75*
G02*
X91510400Y-41665800I-125400J0D01*
G01*
X91259600Y-41665800D01*
G75*
G02*
X91134200Y-41540400I0J125400D01*
G01*
X91134200Y-40214600D01*
G75*
G02*
X91259600Y-40089200I125400J0D01*
G01*
G37*
G36*
G01*
X90609600Y-40089200D02*
X90860400Y-40089200D01*
G75*
G02*
X90985800Y-40214600I0J-125400D01*
G01*
X90985800Y-41540400D01*
G75*
G02*
X90860400Y-41665800I-125400J0D01*
G01*
X90609600Y-41665800D01*
G75*
G02*
X90484200Y-41540400I0J125400D01*
G01*
X90484200Y-40214600D01*
G75*
G02*
X90609600Y-40089200I125400J0D01*
G01*
G37*
G36*
G01*
X89959600Y-40089200D02*
X90210400Y-40089200D01*
G75*
G02*
X90335800Y-40214600I0J-125400D01*
G01*
X90335800Y-41540400D01*
G75*
G02*
X90210400Y-41665800I-125400J0D01*
G01*
X89959600Y-41665800D01*
G75*
G02*
X89834200Y-41540400I0J125400D01*
G01*
X89834200Y-40214600D01*
G75*
G02*
X89959600Y-40089200I125400J0D01*
G01*
G37*
G36*
G01*
X89309600Y-40089200D02*
X89560400Y-40089200D01*
G75*
G02*
X89685800Y-40214600I0J-125400D01*
G01*
X89685800Y-41540400D01*
G75*
G02*
X89560400Y-41665800I-125400J0D01*
G01*
X89309600Y-41665800D01*
G75*
G02*
X89184200Y-41540400I0J125400D01*
G01*
X89184200Y-40214600D01*
G75*
G02*
X89309600Y-40089200I125400J0D01*
G01*
G37*
G36*
G01*
X88659600Y-40089200D02*
X88910400Y-40089200D01*
G75*
G02*
X89035800Y-40214600I0J-125400D01*
G01*
X89035800Y-41540400D01*
G75*
G02*
X88910400Y-41665800I-125400J0D01*
G01*
X88659600Y-41665800D01*
G75*
G02*
X88534200Y-41540400I0J125400D01*
G01*
X88534200Y-40214600D01*
G75*
G02*
X88659600Y-40089200I125400J0D01*
G01*
G37*
G36*
G01*
X88659600Y-45814200D02*
X88910400Y-45814200D01*
G75*
G02*
X89035800Y-45939600I0J-125400D01*
G01*
X89035800Y-47265400D01*
G75*
G02*
X88910400Y-47390800I-125400J0D01*
G01*
X88659600Y-47390800D01*
G75*
G02*
X88534200Y-47265400I0J125400D01*
G01*
X88534200Y-45939600D01*
G75*
G02*
X88659600Y-45814200I125400J0D01*
G01*
G37*
G36*
G01*
X89309600Y-45814200D02*
X89560400Y-45814200D01*
G75*
G02*
X89685800Y-45939600I0J-125400D01*
G01*
X89685800Y-47265400D01*
G75*
G02*
X89560400Y-47390800I-125400J0D01*
G01*
X89309600Y-47390800D01*
G75*
G02*
X89184200Y-47265400I0J125400D01*
G01*
X89184200Y-45939600D01*
G75*
G02*
X89309600Y-45814200I125400J0D01*
G01*
G37*
G36*
G01*
X89959600Y-45814200D02*
X90210400Y-45814200D01*
G75*
G02*
X90335800Y-45939600I0J-125400D01*
G01*
X90335800Y-47265400D01*
G75*
G02*
X90210400Y-47390800I-125400J0D01*
G01*
X89959600Y-47390800D01*
G75*
G02*
X89834200Y-47265400I0J125400D01*
G01*
X89834200Y-45939600D01*
G75*
G02*
X89959600Y-45814200I125400J0D01*
G01*
G37*
G36*
G01*
X90609600Y-45814200D02*
X90860400Y-45814200D01*
G75*
G02*
X90985800Y-45939600I0J-125400D01*
G01*
X90985800Y-47265400D01*
G75*
G02*
X90860400Y-47390800I-125400J0D01*
G01*
X90609600Y-47390800D01*
G75*
G02*
X90484200Y-47265400I0J125400D01*
G01*
X90484200Y-45939600D01*
G75*
G02*
X90609600Y-45814200I125400J0D01*
G01*
G37*
G36*
G01*
X91259600Y-45814200D02*
X91510400Y-45814200D01*
G75*
G02*
X91635800Y-45939600I0J-125400D01*
G01*
X91635800Y-47265400D01*
G75*
G02*
X91510400Y-47390800I-125400J0D01*
G01*
X91259600Y-47390800D01*
G75*
G02*
X91134200Y-47265400I0J125400D01*
G01*
X91134200Y-45939600D01*
G75*
G02*
X91259600Y-45814200I125400J0D01*
G01*
G37*
G36*
G01*
X91909600Y-45814200D02*
X92160400Y-45814200D01*
G75*
G02*
X92285800Y-45939600I0J-125400D01*
G01*
X92285800Y-47265400D01*
G75*
G02*
X92160400Y-47390800I-125400J0D01*
G01*
X91909600Y-47390800D01*
G75*
G02*
X91784200Y-47265400I0J125400D01*
G01*
X91784200Y-45939600D01*
G75*
G02*
X91909600Y-45814200I125400J0D01*
G01*
G37*
G36*
G01*
X92559600Y-45814200D02*
X92810400Y-45814200D01*
G75*
G02*
X92935800Y-45939600I0J-125400D01*
G01*
X92935800Y-47265400D01*
G75*
G02*
X92810400Y-47390800I-125400J0D01*
G01*
X92559600Y-47390800D01*
G75*
G02*
X92434200Y-47265400I0J125400D01*
G01*
X92434200Y-45939600D01*
G75*
G02*
X92559600Y-45814200I125400J0D01*
G01*
G37*
G36*
G01*
X93209600Y-45814200D02*
X93460400Y-45814200D01*
G75*
G02*
X93585800Y-45939600I0J-125400D01*
G01*
X93585800Y-47265400D01*
G75*
G02*
X93460400Y-47390800I-125400J0D01*
G01*
X93209600Y-47390800D01*
G75*
G02*
X93084200Y-47265400I0J125400D01*
G01*
X93084200Y-45939600D01*
G75*
G02*
X93209600Y-45814200I125400J0D01*
G01*
G37*
G36*
G01*
X135298713Y-110600800D02*
X133941287Y-110600800D01*
G75*
G02*
X133669200Y-110328713I0J272087D01*
G01*
X133669200Y-109621287D01*
G75*
G02*
X133941287Y-109349200I272087J0D01*
G01*
X135298713Y-109349200D01*
G75*
G02*
X135570800Y-109621287I0J-272087D01*
G01*
X135570800Y-110328713D01*
G75*
G02*
X135298713Y-110600800I-272087J0D01*
G01*
G37*
G36*
G01*
X135298713Y-107650800D02*
X133941287Y-107650800D01*
G75*
G02*
X133669200Y-107378713I0J272087D01*
G01*
X133669200Y-106671287D01*
G75*
G02*
X133941287Y-106399200I272087J0D01*
G01*
X135298713Y-106399200D01*
G75*
G02*
X135570800Y-106671287I0J-272087D01*
G01*
X135570800Y-107378713D01*
G75*
G02*
X135298713Y-107650800I-272087J0D01*
G01*
G37*
G36*
G01*
X102174200Y-94153222D02*
X102174200Y-92846778D01*
G75*
G02*
X102446778Y-92574200I272578J0D01*
G01*
X103128222Y-92574200D01*
G75*
G02*
X103400800Y-92846778I0J-272578D01*
G01*
X103400800Y-94153222D01*
G75*
G02*
X103128222Y-94425800I-272578J0D01*
G01*
X102446778Y-94425800D01*
G75*
G02*
X102174200Y-94153222I0J272578D01*
G01*
G37*
G36*
G01*
X105099200Y-94153222D02*
X105099200Y-92846778D01*
G75*
G02*
X105371778Y-92574200I272578J0D01*
G01*
X106053222Y-92574200D01*
G75*
G02*
X106325800Y-92846778I0J-272578D01*
G01*
X106325800Y-94153222D01*
G75*
G02*
X106053222Y-94425800I-272578J0D01*
G01*
X105371778Y-94425800D01*
G75*
G02*
X105099200Y-94153222I0J272578D01*
G01*
G37*
D12*
X81700000Y-110660000D03*
X87480000Y-110660000D03*
G36*
G01*
X81039200Y-110115000D02*
X81039200Y-109010000D01*
G75*
G02*
X81090000Y-108959200I50800J0D01*
G01*
X81690000Y-108959200D01*
G75*
G02*
X81740800Y-109010000I0J-50800D01*
G01*
X81740800Y-110115000D01*
G75*
G02*
X81690000Y-110165800I-50800J0D01*
G01*
X81090000Y-110165800D01*
G75*
G02*
X81039200Y-110115000I0J50800D01*
G01*
G37*
G36*
G01*
X81839200Y-110115000D02*
X81839200Y-109010000D01*
G75*
G02*
X81890000Y-108959200I50800J0D01*
G01*
X82490000Y-108959200D01*
G75*
G02*
X82540800Y-109010000I0J-50800D01*
G01*
X82540800Y-110115000D01*
G75*
G02*
X82490000Y-110165800I-50800J0D01*
G01*
X81890000Y-110165800D01*
G75*
G02*
X81839200Y-110115000I0J50800D01*
G01*
G37*
G36*
G01*
X83139200Y-110160000D02*
X83139200Y-109010000D01*
G75*
G02*
X83190000Y-108959200I50800J0D01*
G01*
X83490000Y-108959200D01*
G75*
G02*
X83540800Y-109010000I0J-50800D01*
G01*
X83540800Y-110160000D01*
G75*
G02*
X83490000Y-110210800I-50800J0D01*
G01*
X83190000Y-110210800D01*
G75*
G02*
X83139200Y-110160000I0J50800D01*
G01*
G37*
G36*
G01*
X84139200Y-110160000D02*
X84139200Y-109010000D01*
G75*
G02*
X84190000Y-108959200I50800J0D01*
G01*
X84490000Y-108959200D01*
G75*
G02*
X84540800Y-109010000I0J-50800D01*
G01*
X84540800Y-110160000D01*
G75*
G02*
X84490000Y-110210800I-50800J0D01*
G01*
X84190000Y-110210800D01*
G75*
G02*
X84139200Y-110160000I0J50800D01*
G01*
G37*
G36*
G01*
X84639200Y-110160000D02*
X84639200Y-109010000D01*
G75*
G02*
X84690000Y-108959200I50800J0D01*
G01*
X84990000Y-108959200D01*
G75*
G02*
X85040800Y-109010000I0J-50800D01*
G01*
X85040800Y-110160000D01*
G75*
G02*
X84990000Y-110210800I-50800J0D01*
G01*
X84690000Y-110210800D01*
G75*
G02*
X84639200Y-110160000I0J50800D01*
G01*
G37*
G36*
G01*
X85639200Y-110160000D02*
X85639200Y-109010000D01*
G75*
G02*
X85690000Y-108959200I50800J0D01*
G01*
X85990000Y-108959200D01*
G75*
G02*
X86040800Y-109010000I0J-50800D01*
G01*
X86040800Y-110160000D01*
G75*
G02*
X85990000Y-110210800I-50800J0D01*
G01*
X85690000Y-110210800D01*
G75*
G02*
X85639200Y-110160000I0J50800D01*
G01*
G37*
G36*
G01*
X86639200Y-110115000D02*
X86639200Y-109010000D01*
G75*
G02*
X86690000Y-108959200I50800J0D01*
G01*
X87290000Y-108959200D01*
G75*
G02*
X87340800Y-109010000I0J-50800D01*
G01*
X87340800Y-110115000D01*
G75*
G02*
X87290000Y-110165800I-50800J0D01*
G01*
X86690000Y-110165800D01*
G75*
G02*
X86639200Y-110115000I0J50800D01*
G01*
G37*
G36*
G01*
X87439200Y-110115000D02*
X87439200Y-109010000D01*
G75*
G02*
X87490000Y-108959200I50800J0D01*
G01*
X88090000Y-108959200D01*
G75*
G02*
X88140800Y-109010000I0J-50800D01*
G01*
X88140800Y-110115000D01*
G75*
G02*
X88090000Y-110165800I-50800J0D01*
G01*
X87490000Y-110165800D01*
G75*
G02*
X87439200Y-110115000I0J50800D01*
G01*
G37*
G36*
G01*
X87439200Y-110115000D02*
X87439200Y-109010000D01*
G75*
G02*
X87490000Y-108959200I50800J0D01*
G01*
X88090000Y-108959200D01*
G75*
G02*
X88140800Y-109010000I0J-50800D01*
G01*
X88140800Y-110115000D01*
G75*
G02*
X88090000Y-110165800I-50800J0D01*
G01*
X87490000Y-110165800D01*
G75*
G02*
X87439200Y-110115000I0J50800D01*
G01*
G37*
G36*
G01*
X86639200Y-110115000D02*
X86639200Y-109010000D01*
G75*
G02*
X86690000Y-108959200I50800J0D01*
G01*
X87290000Y-108959200D01*
G75*
G02*
X87340800Y-109010000I0J-50800D01*
G01*
X87340800Y-110115000D01*
G75*
G02*
X87290000Y-110165800I-50800J0D01*
G01*
X86690000Y-110165800D01*
G75*
G02*
X86639200Y-110115000I0J50800D01*
G01*
G37*
G36*
G01*
X86139200Y-110160000D02*
X86139200Y-109010000D01*
G75*
G02*
X86190000Y-108959200I50800J0D01*
G01*
X86490000Y-108959200D01*
G75*
G02*
X86540800Y-109010000I0J-50800D01*
G01*
X86540800Y-110160000D01*
G75*
G02*
X86490000Y-110210800I-50800J0D01*
G01*
X86190000Y-110210800D01*
G75*
G02*
X86139200Y-110160000I0J50800D01*
G01*
G37*
G36*
G01*
X85139200Y-110160000D02*
X85139200Y-109010000D01*
G75*
G02*
X85190000Y-108959200I50800J0D01*
G01*
X85490000Y-108959200D01*
G75*
G02*
X85540800Y-109010000I0J-50800D01*
G01*
X85540800Y-110160000D01*
G75*
G02*
X85490000Y-110210800I-50800J0D01*
G01*
X85190000Y-110210800D01*
G75*
G02*
X85139200Y-110160000I0J50800D01*
G01*
G37*
G36*
G01*
X83639200Y-110160000D02*
X83639200Y-109010000D01*
G75*
G02*
X83690000Y-108959200I50800J0D01*
G01*
X83990000Y-108959200D01*
G75*
G02*
X84040800Y-109010000I0J-50800D01*
G01*
X84040800Y-110160000D01*
G75*
G02*
X83990000Y-110210800I-50800J0D01*
G01*
X83690000Y-110210800D01*
G75*
G02*
X83639200Y-110160000I0J50800D01*
G01*
G37*
G36*
G01*
X82639200Y-110160000D02*
X82639200Y-109010000D01*
G75*
G02*
X82690000Y-108959200I50800J0D01*
G01*
X82990000Y-108959200D01*
G75*
G02*
X83040800Y-109010000I0J-50800D01*
G01*
X83040800Y-110160000D01*
G75*
G02*
X82990000Y-110210800I-50800J0D01*
G01*
X82690000Y-110210800D01*
G75*
G02*
X82639200Y-110160000I0J50800D01*
G01*
G37*
G36*
G01*
X81839200Y-110115000D02*
X81839200Y-109010000D01*
G75*
G02*
X81890000Y-108959200I50800J0D01*
G01*
X82490000Y-108959200D01*
G75*
G02*
X82540800Y-109010000I0J-50800D01*
G01*
X82540800Y-110115000D01*
G75*
G02*
X82490000Y-110165800I-50800J0D01*
G01*
X81890000Y-110165800D01*
G75*
G02*
X81839200Y-110115000I0J50800D01*
G01*
G37*
G36*
G01*
X81039200Y-110115000D02*
X81039200Y-109010000D01*
G75*
G02*
X81090000Y-108959200I50800J0D01*
G01*
X81690000Y-108959200D01*
G75*
G02*
X81740800Y-109010000I0J-50800D01*
G01*
X81740800Y-110115000D01*
G75*
G02*
X81690000Y-110165800I-50800J0D01*
G01*
X81090000Y-110165800D01*
G75*
G02*
X81039200Y-110115000I0J50800D01*
G01*
G37*
D13*
X80270000Y-110160000D03*
D14*
X80270000Y-114340000D03*
D13*
X88910000Y-110160000D03*
D14*
X88910000Y-114340000D03*
G36*
G01*
X82190000Y-46744200D02*
X83390000Y-46744200D01*
G75*
G02*
X83440800Y-46795000I0J-50800D01*
G01*
X83440800Y-47495000D01*
G75*
G02*
X83390000Y-47545800I-50800J0D01*
G01*
X82190000Y-47545800D01*
G75*
G02*
X82139200Y-47495000I0J50800D01*
G01*
X82139200Y-46795000D01*
G75*
G02*
X82190000Y-46744200I50800J0D01*
G01*
G37*
G36*
G01*
X82190000Y-45644200D02*
X83390000Y-45644200D01*
G75*
G02*
X83440800Y-45695000I0J-50800D01*
G01*
X83440800Y-46395000D01*
G75*
G02*
X83390000Y-46445800I-50800J0D01*
G01*
X82190000Y-46445800D01*
G75*
G02*
X82139200Y-46395000I0J50800D01*
G01*
X82139200Y-45695000D01*
G75*
G02*
X82190000Y-45644200I50800J0D01*
G01*
G37*
G36*
G01*
X82190000Y-44544200D02*
X83390000Y-44544200D01*
G75*
G02*
X83440800Y-44595000I0J-50800D01*
G01*
X83440800Y-45295000D01*
G75*
G02*
X83390000Y-45345800I-50800J0D01*
G01*
X82190000Y-45345800D01*
G75*
G02*
X82139200Y-45295000I0J50800D01*
G01*
X82139200Y-44595000D01*
G75*
G02*
X82190000Y-44544200I50800J0D01*
G01*
G37*
G36*
G01*
X82190000Y-43444200D02*
X83390000Y-43444200D01*
G75*
G02*
X83440800Y-43495000I0J-50800D01*
G01*
X83440800Y-44195000D01*
G75*
G02*
X83390000Y-44245800I-50800J0D01*
G01*
X82190000Y-44245800D01*
G75*
G02*
X82139200Y-44195000I0J50800D01*
G01*
X82139200Y-43495000D01*
G75*
G02*
X82190000Y-43444200I50800J0D01*
G01*
G37*
G36*
G01*
X82190000Y-42344200D02*
X83390000Y-42344200D01*
G75*
G02*
X83440800Y-42395000I0J-50800D01*
G01*
X83440800Y-43095000D01*
G75*
G02*
X83390000Y-43145800I-50800J0D01*
G01*
X82190000Y-43145800D01*
G75*
G02*
X82139200Y-43095000I0J50800D01*
G01*
X82139200Y-42395000D01*
G75*
G02*
X82190000Y-42344200I50800J0D01*
G01*
G37*
G36*
G01*
X82190000Y-41244200D02*
X83390000Y-41244200D01*
G75*
G02*
X83440800Y-41295000I0J-50800D01*
G01*
X83440800Y-41995000D01*
G75*
G02*
X83390000Y-42045800I-50800J0D01*
G01*
X82190000Y-42045800D01*
G75*
G02*
X82139200Y-41995000I0J50800D01*
G01*
X82139200Y-41295000D01*
G75*
G02*
X82190000Y-41244200I50800J0D01*
G01*
G37*
G36*
G01*
X82190000Y-40144200D02*
X83390000Y-40144200D01*
G75*
G02*
X83440800Y-40195000I0J-50800D01*
G01*
X83440800Y-40895000D01*
G75*
G02*
X83390000Y-40945800I-50800J0D01*
G01*
X82190000Y-40945800D01*
G75*
G02*
X82139200Y-40895000I0J50800D01*
G01*
X82139200Y-40195000D01*
G75*
G02*
X82190000Y-40144200I50800J0D01*
G01*
G37*
G36*
G01*
X82190000Y-39044200D02*
X83390000Y-39044200D01*
G75*
G02*
X83440800Y-39095000I0J-50800D01*
G01*
X83440800Y-39795000D01*
G75*
G02*
X83390000Y-39845800I-50800J0D01*
G01*
X82190000Y-39845800D01*
G75*
G02*
X82139200Y-39795000I0J50800D01*
G01*
X82139200Y-39095000D01*
G75*
G02*
X82190000Y-39044200I50800J0D01*
G01*
G37*
G36*
G01*
X82190000Y-38094200D02*
X83390000Y-38094200D01*
G75*
G02*
X83440800Y-38145000I0J-50800D01*
G01*
X83440800Y-38845000D01*
G75*
G02*
X83390000Y-38895800I-50800J0D01*
G01*
X82190000Y-38895800D01*
G75*
G02*
X82139200Y-38845000I0J50800D01*
G01*
X82139200Y-38145000D01*
G75*
G02*
X82190000Y-38094200I50800J0D01*
G01*
G37*
G36*
G01*
X71890000Y-36994200D02*
X72690000Y-36994200D01*
G75*
G02*
X72740800Y-37045000I0J-50800D01*
G01*
X72740800Y-38045000D01*
G75*
G02*
X72690000Y-38095800I-50800J0D01*
G01*
X71890000Y-38095800D01*
G75*
G02*
X71839200Y-38045000I0J50800D01*
G01*
X71839200Y-37045000D01*
G75*
G02*
X71890000Y-36994200I50800J0D01*
G01*
G37*
G36*
G01*
X77890000Y-36994200D02*
X79090000Y-36994200D01*
G75*
G02*
X79140800Y-37045000I0J-50800D01*
G01*
X79140800Y-38045000D01*
G75*
G02*
X79090000Y-38095800I-50800J0D01*
G01*
X77890000Y-38095800D01*
G75*
G02*
X77839200Y-38045000I0J50800D01*
G01*
X77839200Y-37045000D01*
G75*
G02*
X77890000Y-36994200I50800J0D01*
G01*
G37*
G36*
G01*
X66740000Y-36994200D02*
X69540000Y-36994200D01*
G75*
G02*
X69590800Y-37045000I0J-50800D01*
G01*
X69590800Y-38045000D01*
G75*
G02*
X69540000Y-38095800I-50800J0D01*
G01*
X66740000Y-38095800D01*
G75*
G02*
X66689200Y-38045000I0J50800D01*
G01*
X66689200Y-37045000D01*
G75*
G02*
X66740000Y-36994200I50800J0D01*
G01*
G37*
G36*
G01*
X82190000Y-48144200D02*
X83390000Y-48144200D01*
G75*
G02*
X83440800Y-48195000I0J-50800D01*
G01*
X83440800Y-49195000D01*
G75*
G02*
X83390000Y-49245800I-50800J0D01*
G01*
X82190000Y-49245800D01*
G75*
G02*
X82139200Y-49195000I0J50800D01*
G01*
X82139200Y-48195000D01*
G75*
G02*
X82190000Y-48144200I50800J0D01*
G01*
G37*
G36*
G01*
X66740000Y-50344200D02*
X68640000Y-50344200D01*
G75*
G02*
X68690800Y-50395000I0J-50800D01*
G01*
X68690800Y-51695000D01*
G75*
G02*
X68640000Y-51745800I-50800J0D01*
G01*
X66740000Y-51745800D01*
G75*
G02*
X66689200Y-51695000I0J50800D01*
G01*
X66689200Y-50395000D01*
G75*
G02*
X66740000Y-50344200I50800J0D01*
G01*
G37*
G36*
G01*
X92725800Y-96021778D02*
X92725800Y-97328222D01*
G75*
G02*
X92453222Y-97600800I-272578J0D01*
G01*
X91771778Y-97600800D01*
G75*
G02*
X91499200Y-97328222I0J272578D01*
G01*
X91499200Y-96021778D01*
G75*
G02*
X91771778Y-95749200I272578J0D01*
G01*
X92453222Y-95749200D01*
G75*
G02*
X92725800Y-96021778I0J-272578D01*
G01*
G37*
G36*
G01*
X89800800Y-96021778D02*
X89800800Y-97328222D01*
G75*
G02*
X89528222Y-97600800I-272578J0D01*
G01*
X88846778Y-97600800D01*
G75*
G02*
X88574200Y-97328222I0J272578D01*
G01*
X88574200Y-96021778D01*
G75*
G02*
X88846778Y-95749200I272578J0D01*
G01*
X89528222Y-95749200D01*
G75*
G02*
X89800800Y-96021778I0J-272578D01*
G01*
G37*
G36*
G01*
X120325800Y-112096778D02*
X120325800Y-113403222D01*
G75*
G02*
X120053222Y-113675800I-272578J0D01*
G01*
X119371778Y-113675800D01*
G75*
G02*
X119099200Y-113403222I0J272578D01*
G01*
X119099200Y-112096778D01*
G75*
G02*
X119371778Y-111824200I272578J0D01*
G01*
X120053222Y-111824200D01*
G75*
G02*
X120325800Y-112096778I0J-272578D01*
G01*
G37*
G36*
G01*
X117400800Y-112096778D02*
X117400800Y-113403222D01*
G75*
G02*
X117128222Y-113675800I-272578J0D01*
G01*
X116446778Y-113675800D01*
G75*
G02*
X116174200Y-113403222I0J272578D01*
G01*
X116174200Y-112096778D01*
G75*
G02*
X116446778Y-111824200I272578J0D01*
G01*
X117128222Y-111824200D01*
G75*
G02*
X117400800Y-112096778I0J-272578D01*
G01*
G37*
G36*
G01*
X95174200Y-96903222D02*
X95174200Y-95596778D01*
G75*
G02*
X95446778Y-95324200I272578J0D01*
G01*
X96128222Y-95324200D01*
G75*
G02*
X96400800Y-95596778I0J-272578D01*
G01*
X96400800Y-96903222D01*
G75*
G02*
X96128222Y-97175800I-272578J0D01*
G01*
X95446778Y-97175800D01*
G75*
G02*
X95174200Y-96903222I0J272578D01*
G01*
G37*
G36*
G01*
X98099200Y-96903222D02*
X98099200Y-95596778D01*
G75*
G02*
X98371778Y-95324200I272578J0D01*
G01*
X99053222Y-95324200D01*
G75*
G02*
X99325800Y-95596778I0J-272578D01*
G01*
X99325800Y-96903222D01*
G75*
G02*
X99053222Y-97175800I-272578J0D01*
G01*
X98371778Y-97175800D01*
G75*
G02*
X98099200Y-96903222I0J272578D01*
G01*
G37*
G36*
G01*
X83799200Y-85103713D02*
X83799200Y-83746287D01*
G75*
G02*
X84071287Y-83474200I272087J0D01*
G01*
X84778713Y-83474200D01*
G75*
G02*
X85050800Y-83746287I0J-272087D01*
G01*
X85050800Y-85103713D01*
G75*
G02*
X84778713Y-85375800I-272087J0D01*
G01*
X84071287Y-85375800D01*
G75*
G02*
X83799200Y-85103713I0J272087D01*
G01*
G37*
G36*
G01*
X86749200Y-85103713D02*
X86749200Y-83746287D01*
G75*
G02*
X87021287Y-83474200I272087J0D01*
G01*
X87728713Y-83474200D01*
G75*
G02*
X88000800Y-83746287I0J-272087D01*
G01*
X88000800Y-85103713D01*
G75*
G02*
X87728713Y-85375800I-272087J0D01*
G01*
X87021287Y-85375800D01*
G75*
G02*
X86749200Y-85103713I0J272087D01*
G01*
G37*
G36*
G01*
X114699200Y-52978713D02*
X114699200Y-51621287D01*
G75*
G02*
X114971287Y-51349200I272087J0D01*
G01*
X115678713Y-51349200D01*
G75*
G02*
X115950800Y-51621287I0J-272087D01*
G01*
X115950800Y-52978713D01*
G75*
G02*
X115678713Y-53250800I-272087J0D01*
G01*
X114971287Y-53250800D01*
G75*
G02*
X114699200Y-52978713I0J272087D01*
G01*
G37*
G36*
G01*
X117649200Y-52978713D02*
X117649200Y-51621287D01*
G75*
G02*
X117921287Y-51349200I272087J0D01*
G01*
X118628713Y-51349200D01*
G75*
G02*
X118900800Y-51621287I0J-272087D01*
G01*
X118900800Y-52978713D01*
G75*
G02*
X118628713Y-53250800I-272087J0D01*
G01*
X117921287Y-53250800D01*
G75*
G02*
X117649200Y-52978713I0J272087D01*
G01*
G37*
G36*
G01*
X140596778Y-63174200D02*
X141903222Y-63174200D01*
G75*
G02*
X142175800Y-63446778I0J-272578D01*
G01*
X142175800Y-64128222D01*
G75*
G02*
X141903222Y-64400800I-272578J0D01*
G01*
X140596778Y-64400800D01*
G75*
G02*
X140324200Y-64128222I0J272578D01*
G01*
X140324200Y-63446778D01*
G75*
G02*
X140596778Y-63174200I272578J0D01*
G01*
G37*
G36*
G01*
X140596778Y-66099200D02*
X141903222Y-66099200D01*
G75*
G02*
X142175800Y-66371778I0J-272578D01*
G01*
X142175800Y-67053222D01*
G75*
G02*
X141903222Y-67325800I-272578J0D01*
G01*
X140596778Y-67325800D01*
G75*
G02*
X140324200Y-67053222I0J272578D01*
G01*
X140324200Y-66371778D01*
G75*
G02*
X140596778Y-66099200I272578J0D01*
G01*
G37*
G36*
G01*
X136524600Y-88399200D02*
X136875400Y-88399200D01*
G75*
G02*
X137050800Y-88574600I0J-175400D01*
G01*
X137050800Y-89650400D01*
G75*
G02*
X136875400Y-89825800I-175400J0D01*
G01*
X136524600Y-89825800D01*
G75*
G02*
X136349200Y-89650400I0J175400D01*
G01*
X136349200Y-88574600D01*
G75*
G02*
X136524600Y-88399200I175400J0D01*
G01*
G37*
G36*
G01*
X135574600Y-88399200D02*
X135925400Y-88399200D01*
G75*
G02*
X136100800Y-88574600I0J-175400D01*
G01*
X136100800Y-89650400D01*
G75*
G02*
X135925400Y-89825800I-175400J0D01*
G01*
X135574600Y-89825800D01*
G75*
G02*
X135399200Y-89650400I0J175400D01*
G01*
X135399200Y-88574600D01*
G75*
G02*
X135574600Y-88399200I175400J0D01*
G01*
G37*
G36*
G01*
X134624600Y-88399200D02*
X134975400Y-88399200D01*
G75*
G02*
X135150800Y-88574600I0J-175400D01*
G01*
X135150800Y-89650400D01*
G75*
G02*
X134975400Y-89825800I-175400J0D01*
G01*
X134624600Y-89825800D01*
G75*
G02*
X134449200Y-89650400I0J175400D01*
G01*
X134449200Y-88574600D01*
G75*
G02*
X134624600Y-88399200I175400J0D01*
G01*
G37*
G36*
G01*
X134624600Y-90674200D02*
X134975400Y-90674200D01*
G75*
G02*
X135150800Y-90849600I0J-175400D01*
G01*
X135150800Y-91925400D01*
G75*
G02*
X134975400Y-92100800I-175400J0D01*
G01*
X134624600Y-92100800D01*
G75*
G02*
X134449200Y-91925400I0J175400D01*
G01*
X134449200Y-90849600D01*
G75*
G02*
X134624600Y-90674200I175400J0D01*
G01*
G37*
G36*
G01*
X135574600Y-90674200D02*
X135925400Y-90674200D01*
G75*
G02*
X136100800Y-90849600I0J-175400D01*
G01*
X136100800Y-91925400D01*
G75*
G02*
X135925400Y-92100800I-175400J0D01*
G01*
X135574600Y-92100800D01*
G75*
G02*
X135399200Y-91925400I0J175400D01*
G01*
X135399200Y-90849600D01*
G75*
G02*
X135574600Y-90674200I175400J0D01*
G01*
G37*
G36*
G01*
X136524600Y-90674200D02*
X136875400Y-90674200D01*
G75*
G02*
X137050800Y-90849600I0J-175400D01*
G01*
X137050800Y-91925400D01*
G75*
G02*
X136875400Y-92100800I-175400J0D01*
G01*
X136524600Y-92100800D01*
G75*
G02*
X136349200Y-91925400I0J175400D01*
G01*
X136349200Y-90849600D01*
G75*
G02*
X136524600Y-90674200I175400J0D01*
G01*
G37*
G36*
G01*
X151450000Y-101649200D02*
X153050000Y-101649200D01*
G75*
G02*
X153100800Y-101700000I0J-50800D01*
G01*
X153100800Y-103300000D01*
G75*
G02*
X153050000Y-103350800I-50800J0D01*
G01*
X151450000Y-103350800D01*
G75*
G02*
X151399200Y-103300000I0J50800D01*
G01*
X151399200Y-101700000D01*
G75*
G02*
X151450000Y-101649200I50800J0D01*
G01*
G37*
D11*
X152250000Y-106000000D03*
G36*
G01*
X142428713Y-110600800D02*
X141071287Y-110600800D01*
G75*
G02*
X140799200Y-110328713I0J272087D01*
G01*
X140799200Y-109621287D01*
G75*
G02*
X141071287Y-109349200I272087J0D01*
G01*
X142428713Y-109349200D01*
G75*
G02*
X142700800Y-109621287I0J-272087D01*
G01*
X142700800Y-110328713D01*
G75*
G02*
X142428713Y-110600800I-272087J0D01*
G01*
G37*
G36*
G01*
X142428713Y-107650800D02*
X141071287Y-107650800D01*
G75*
G02*
X140799200Y-107378713I0J272087D01*
G01*
X140799200Y-106671287D01*
G75*
G02*
X141071287Y-106399200I272087J0D01*
G01*
X142428713Y-106399200D01*
G75*
G02*
X142700800Y-106671287I0J-272087D01*
G01*
X142700800Y-107378713D01*
G75*
G02*
X142428713Y-107650800I-272087J0D01*
G01*
G37*
G36*
G01*
X147674200Y-110903222D02*
X147674200Y-109596778D01*
G75*
G02*
X147946778Y-109324200I272578J0D01*
G01*
X148628222Y-109324200D01*
G75*
G02*
X148900800Y-109596778I0J-272578D01*
G01*
X148900800Y-110903222D01*
G75*
G02*
X148628222Y-111175800I-272578J0D01*
G01*
X147946778Y-111175800D01*
G75*
G02*
X147674200Y-110903222I0J272578D01*
G01*
G37*
G36*
G01*
X150599200Y-110903222D02*
X150599200Y-109596778D01*
G75*
G02*
X150871778Y-109324200I272578J0D01*
G01*
X151553222Y-109324200D01*
G75*
G02*
X151825800Y-109596778I0J-272578D01*
G01*
X151825800Y-110903222D01*
G75*
G02*
X151553222Y-111175800I-272578J0D01*
G01*
X150871778Y-111175800D01*
G75*
G02*
X150599200Y-110903222I0J272578D01*
G01*
G37*
G36*
G01*
X141571287Y-100899200D02*
X142928713Y-100899200D01*
G75*
G02*
X143200800Y-101171287I0J-272087D01*
G01*
X143200800Y-101878713D01*
G75*
G02*
X142928713Y-102150800I-272087J0D01*
G01*
X141571287Y-102150800D01*
G75*
G02*
X141299200Y-101878713I0J272087D01*
G01*
X141299200Y-101171287D01*
G75*
G02*
X141571287Y-100899200I272087J0D01*
G01*
G37*
G36*
G01*
X141571287Y-103849200D02*
X142928713Y-103849200D01*
G75*
G02*
X143200800Y-104121287I0J-272087D01*
G01*
X143200800Y-104828713D01*
G75*
G02*
X142928713Y-105100800I-272087J0D01*
G01*
X141571287Y-105100800D01*
G75*
G02*
X141299200Y-104828713I0J272087D01*
G01*
X141299200Y-104121287D01*
G75*
G02*
X141571287Y-103849200I272087J0D01*
G01*
G37*
G36*
G01*
X130100800Y-94321287D02*
X130100800Y-95678713D01*
G75*
G02*
X129828713Y-95950800I-272087J0D01*
G01*
X129121287Y-95950800D01*
G75*
G02*
X128849200Y-95678713I0J272087D01*
G01*
X128849200Y-94321287D01*
G75*
G02*
X129121287Y-94049200I272087J0D01*
G01*
X129828713Y-94049200D01*
G75*
G02*
X130100800Y-94321287I0J-272087D01*
G01*
G37*
G36*
G01*
X127150800Y-94321287D02*
X127150800Y-95678713D01*
G75*
G02*
X126878713Y-95950800I-272087J0D01*
G01*
X126171287Y-95950800D01*
G75*
G02*
X125899200Y-95678713I0J272087D01*
G01*
X125899200Y-94321287D01*
G75*
G02*
X126171287Y-94049200I272087J0D01*
G01*
X126878713Y-94049200D01*
G75*
G02*
X127150800Y-94321287I0J-272087D01*
G01*
G37*
G36*
G01*
X109153222Y-106575800D02*
X107846778Y-106575800D01*
G75*
G02*
X107574200Y-106303222I0J272578D01*
G01*
X107574200Y-105621778D01*
G75*
G02*
X107846778Y-105349200I272578J0D01*
G01*
X109153222Y-105349200D01*
G75*
G02*
X109425800Y-105621778I0J-272578D01*
G01*
X109425800Y-106303222D01*
G75*
G02*
X109153222Y-106575800I-272578J0D01*
G01*
G37*
G36*
G01*
X109153222Y-103650800D02*
X107846778Y-103650800D01*
G75*
G02*
X107574200Y-103378222I0J272578D01*
G01*
X107574200Y-102696778D01*
G75*
G02*
X107846778Y-102424200I272578J0D01*
G01*
X109153222Y-102424200D01*
G75*
G02*
X109425800Y-102696778I0J-272578D01*
G01*
X109425800Y-103378222D01*
G75*
G02*
X109153222Y-103650800I-272578J0D01*
G01*
G37*
G36*
G01*
X113903222Y-96075800D02*
X112596778Y-96075800D01*
G75*
G02*
X112324200Y-95803222I0J272578D01*
G01*
X112324200Y-95121778D01*
G75*
G02*
X112596778Y-94849200I272578J0D01*
G01*
X113903222Y-94849200D01*
G75*
G02*
X114175800Y-95121778I0J-272578D01*
G01*
X114175800Y-95803222D01*
G75*
G02*
X113903222Y-96075800I-272578J0D01*
G01*
G37*
G36*
G01*
X113903222Y-93150800D02*
X112596778Y-93150800D01*
G75*
G02*
X112324200Y-92878222I0J272578D01*
G01*
X112324200Y-92196778D01*
G75*
G02*
X112596778Y-91924200I272578J0D01*
G01*
X113903222Y-91924200D01*
G75*
G02*
X114175800Y-92196778I0J-272578D01*
G01*
X114175800Y-92878222D01*
G75*
G02*
X113903222Y-93150800I-272578J0D01*
G01*
G37*
G36*
G01*
X95538273Y-107072050D02*
X94231829Y-107072050D01*
G75*
G02*
X93959251Y-106799472I0J272578D01*
G01*
X93959251Y-106118028D01*
G75*
G02*
X94231829Y-105845450I272578J0D01*
G01*
X95538273Y-105845450D01*
G75*
G02*
X95810851Y-106118028I0J-272578D01*
G01*
X95810851Y-106799472D01*
G75*
G02*
X95538273Y-107072050I-272578J0D01*
G01*
G37*
G36*
G01*
X95538273Y-104147050D02*
X94231829Y-104147050D01*
G75*
G02*
X93959251Y-103874472I0J272578D01*
G01*
X93959251Y-103193028D01*
G75*
G02*
X94231829Y-102920450I272578J0D01*
G01*
X95538273Y-102920450D01*
G75*
G02*
X95810851Y-103193028I0J-272578D01*
G01*
X95810851Y-103874472D01*
G75*
G02*
X95538273Y-104147050I-272578J0D01*
G01*
G37*
G36*
G01*
X147428713Y-75600800D02*
X146071287Y-75600800D01*
G75*
G02*
X145799200Y-75328713I0J272087D01*
G01*
X145799200Y-74621287D01*
G75*
G02*
X146071287Y-74349200I272087J0D01*
G01*
X147428713Y-74349200D01*
G75*
G02*
X147700800Y-74621287I0J-272087D01*
G01*
X147700800Y-75328713D01*
G75*
G02*
X147428713Y-75600800I-272087J0D01*
G01*
G37*
G36*
G01*
X147428713Y-72650800D02*
X146071287Y-72650800D01*
G75*
G02*
X145799200Y-72378713I0J272087D01*
G01*
X145799200Y-71671287D01*
G75*
G02*
X146071287Y-71399200I272087J0D01*
G01*
X147428713Y-71399200D01*
G75*
G02*
X147700800Y-71671287I0J-272087D01*
G01*
X147700800Y-72378713D01*
G75*
G02*
X147428713Y-72650800I-272087J0D01*
G01*
G37*
G36*
G01*
X150475800Y-57046778D02*
X150475800Y-58353222D01*
G75*
G02*
X150203222Y-58625800I-272578J0D01*
G01*
X149521778Y-58625800D01*
G75*
G02*
X149249200Y-58353222I0J272578D01*
G01*
X149249200Y-57046778D01*
G75*
G02*
X149521778Y-56774200I272578J0D01*
G01*
X150203222Y-56774200D01*
G75*
G02*
X150475800Y-57046778I0J-272578D01*
G01*
G37*
G36*
G01*
X147550800Y-57046778D02*
X147550800Y-58353222D01*
G75*
G02*
X147278222Y-58625800I-272578J0D01*
G01*
X146596778Y-58625800D01*
G75*
G02*
X146324200Y-58353222I0J272578D01*
G01*
X146324200Y-57046778D01*
G75*
G02*
X146596778Y-56774200I272578J0D01*
G01*
X147278222Y-56774200D01*
G75*
G02*
X147550800Y-57046778I0J-272578D01*
G01*
G37*
G36*
G01*
X98110451Y-106615800D02*
X97759651Y-106615800D01*
G75*
G02*
X97584251Y-106440400I0J175400D01*
G01*
X97584251Y-105364600D01*
G75*
G02*
X97759651Y-105189200I175400J0D01*
G01*
X98110451Y-105189200D01*
G75*
G02*
X98285851Y-105364600I0J-175400D01*
G01*
X98285851Y-106440400D01*
G75*
G02*
X98110451Y-106615800I-175400J0D01*
G01*
G37*
G36*
G01*
X99060451Y-106615800D02*
X98709651Y-106615800D01*
G75*
G02*
X98534251Y-106440400I0J175400D01*
G01*
X98534251Y-105364600D01*
G75*
G02*
X98709651Y-105189200I175400J0D01*
G01*
X99060451Y-105189200D01*
G75*
G02*
X99235851Y-105364600I0J-175400D01*
G01*
X99235851Y-106440400D01*
G75*
G02*
X99060451Y-106615800I-175400J0D01*
G01*
G37*
G36*
G01*
X100010451Y-106615800D02*
X99659651Y-106615800D01*
G75*
G02*
X99484251Y-106440400I0J175400D01*
G01*
X99484251Y-105364600D01*
G75*
G02*
X99659651Y-105189200I175400J0D01*
G01*
X100010451Y-105189200D01*
G75*
G02*
X100185851Y-105364600I0J-175400D01*
G01*
X100185851Y-106440400D01*
G75*
G02*
X100010451Y-106615800I-175400J0D01*
G01*
G37*
G36*
G01*
X100010451Y-104340800D02*
X99659651Y-104340800D01*
G75*
G02*
X99484251Y-104165400I0J175400D01*
G01*
X99484251Y-103089600D01*
G75*
G02*
X99659651Y-102914200I175400J0D01*
G01*
X100010451Y-102914200D01*
G75*
G02*
X100185851Y-103089600I0J-175400D01*
G01*
X100185851Y-104165400D01*
G75*
G02*
X100010451Y-104340800I-175400J0D01*
G01*
G37*
G36*
G01*
X99060451Y-104340800D02*
X98709651Y-104340800D01*
G75*
G02*
X98534251Y-104165400I0J175400D01*
G01*
X98534251Y-103089600D01*
G75*
G02*
X98709651Y-102914200I175400J0D01*
G01*
X99060451Y-102914200D01*
G75*
G02*
X99235851Y-103089600I0J-175400D01*
G01*
X99235851Y-104165400D01*
G75*
G02*
X99060451Y-104340800I-175400J0D01*
G01*
G37*
G36*
G01*
X98110451Y-104340800D02*
X97759651Y-104340800D01*
G75*
G02*
X97584251Y-104165400I0J175400D01*
G01*
X97584251Y-103089600D01*
G75*
G02*
X97759651Y-102914200I175400J0D01*
G01*
X98110451Y-102914200D01*
G75*
G02*
X98285851Y-103089600I0J-175400D01*
G01*
X98285851Y-104165400D01*
G75*
G02*
X98110451Y-104340800I-175400J0D01*
G01*
G37*
G36*
G01*
X84646778Y-64424200D02*
X85953222Y-64424200D01*
G75*
G02*
X86225800Y-64696778I0J-272578D01*
G01*
X86225800Y-65378222D01*
G75*
G02*
X85953222Y-65650800I-272578J0D01*
G01*
X84646778Y-65650800D01*
G75*
G02*
X84374200Y-65378222I0J272578D01*
G01*
X84374200Y-64696778D01*
G75*
G02*
X84646778Y-64424200I272578J0D01*
G01*
G37*
G36*
G01*
X84646778Y-67349200D02*
X85953222Y-67349200D01*
G75*
G02*
X86225800Y-67621778I0J-272578D01*
G01*
X86225800Y-68303222D01*
G75*
G02*
X85953222Y-68575800I-272578J0D01*
G01*
X84646778Y-68575800D01*
G75*
G02*
X84374200Y-68303222I0J272578D01*
G01*
X84374200Y-67621778D01*
G75*
G02*
X84646778Y-67349200I272578J0D01*
G01*
G37*
G36*
G01*
X148949200Y-41310560D02*
X148949200Y-39489440D01*
G75*
G02*
X149189440Y-39249200I240240J0D01*
G01*
X150310560Y-39249200D01*
G75*
G02*
X150550800Y-39489440I0J-240240D01*
G01*
X150550800Y-41310560D01*
G75*
G02*
X150310560Y-41550800I-240240J0D01*
G01*
X149189440Y-41550800D01*
G75*
G02*
X148949200Y-41310560I0J240240D01*
G01*
G37*
G36*
G01*
X145849200Y-41310560D02*
X145849200Y-39489440D01*
G75*
G02*
X146089440Y-39249200I240240J0D01*
G01*
X147210560Y-39249200D01*
G75*
G02*
X147450800Y-39489440I0J-240240D01*
G01*
X147450800Y-41310560D01*
G75*
G02*
X147210560Y-41550800I-240240J0D01*
G01*
X146089440Y-41550800D01*
G75*
G02*
X145849200Y-41310560I0J240240D01*
G01*
G37*
G36*
G01*
X104043222Y-48175800D02*
X102736778Y-48175800D01*
G75*
G02*
X102464200Y-47903222I0J272578D01*
G01*
X102464200Y-47221778D01*
G75*
G02*
X102736778Y-46949200I272578J0D01*
G01*
X104043222Y-46949200D01*
G75*
G02*
X104315800Y-47221778I0J-272578D01*
G01*
X104315800Y-47903222D01*
G75*
G02*
X104043222Y-48175800I-272578J0D01*
G01*
G37*
G36*
G01*
X104043222Y-45250800D02*
X102736778Y-45250800D01*
G75*
G02*
X102464200Y-44978222I0J272578D01*
G01*
X102464200Y-44296778D01*
G75*
G02*
X102736778Y-44024200I272578J0D01*
G01*
X104043222Y-44024200D01*
G75*
G02*
X104315800Y-44296778I0J-272578D01*
G01*
X104315800Y-44978222D01*
G75*
G02*
X104043222Y-45250800I-272578J0D01*
G01*
G37*
G36*
G01*
X83199200Y-88375000D02*
X83199200Y-86875000D01*
G75*
G02*
X83250000Y-86824200I50800J0D01*
G01*
X85250000Y-86824200D01*
G75*
G02*
X85300800Y-86875000I0J-50800D01*
G01*
X85300800Y-88375000D01*
G75*
G02*
X85250000Y-88425800I-50800J0D01*
G01*
X83250000Y-88425800D01*
G75*
G02*
X83199200Y-88375000I0J50800D01*
G01*
G37*
G36*
G01*
X83199200Y-90675000D02*
X83199200Y-89175000D01*
G75*
G02*
X83250000Y-89124200I50800J0D01*
G01*
X85250000Y-89124200D01*
G75*
G02*
X85300800Y-89175000I0J-50800D01*
G01*
X85300800Y-90675000D01*
G75*
G02*
X85250000Y-90725800I-50800J0D01*
G01*
X83250000Y-90725800D01*
G75*
G02*
X83199200Y-90675000I0J50800D01*
G01*
G37*
G36*
G01*
X89499200Y-91825000D02*
X89499200Y-88025000D01*
G75*
G02*
X89550000Y-87974200I50800J0D01*
G01*
X91550000Y-87974200D01*
G75*
G02*
X91600800Y-88025000I0J-50800D01*
G01*
X91600800Y-91825000D01*
G75*
G02*
X91550000Y-91875800I-50800J0D01*
G01*
X89550000Y-91875800D01*
G75*
G02*
X89499200Y-91825000I0J50800D01*
G01*
G37*
G36*
G01*
X83199200Y-92975000D02*
X83199200Y-91475000D01*
G75*
G02*
X83250000Y-91424200I50800J0D01*
G01*
X85250000Y-91424200D01*
G75*
G02*
X85300800Y-91475000I0J-50800D01*
G01*
X85300800Y-92975000D01*
G75*
G02*
X85250000Y-93025800I-50800J0D01*
G01*
X83250000Y-93025800D01*
G75*
G02*
X83199200Y-92975000I0J50800D01*
G01*
G37*
G36*
G01*
X90850800Y-34214600D02*
X90850800Y-34565400D01*
G75*
G02*
X90675400Y-34740800I-175400J0D01*
G01*
X89599600Y-34740800D01*
G75*
G02*
X89424200Y-34565400I0J175400D01*
G01*
X89424200Y-34214600D01*
G75*
G02*
X89599600Y-34039200I175400J0D01*
G01*
X90675400Y-34039200D01*
G75*
G02*
X90850800Y-34214600I0J-175400D01*
G01*
G37*
G36*
G01*
X90850800Y-33264600D02*
X90850800Y-33615400D01*
G75*
G02*
X90675400Y-33790800I-175400J0D01*
G01*
X89599600Y-33790800D01*
G75*
G02*
X89424200Y-33615400I0J175400D01*
G01*
X89424200Y-33264600D01*
G75*
G02*
X89599600Y-33089200I175400J0D01*
G01*
X90675400Y-33089200D01*
G75*
G02*
X90850800Y-33264600I0J-175400D01*
G01*
G37*
G36*
G01*
X90850800Y-32314600D02*
X90850800Y-32665400D01*
G75*
G02*
X90675400Y-32840800I-175400J0D01*
G01*
X89599600Y-32840800D01*
G75*
G02*
X89424200Y-32665400I0J175400D01*
G01*
X89424200Y-32314600D01*
G75*
G02*
X89599600Y-32139200I175400J0D01*
G01*
X90675400Y-32139200D01*
G75*
G02*
X90850800Y-32314600I0J-175400D01*
G01*
G37*
G36*
G01*
X88575800Y-32314600D02*
X88575800Y-32665400D01*
G75*
G02*
X88400400Y-32840800I-175400J0D01*
G01*
X87324600Y-32840800D01*
G75*
G02*
X87149200Y-32665400I0J175400D01*
G01*
X87149200Y-32314600D01*
G75*
G02*
X87324600Y-32139200I175400J0D01*
G01*
X88400400Y-32139200D01*
G75*
G02*
X88575800Y-32314600I0J-175400D01*
G01*
G37*
G36*
G01*
X88575800Y-34214600D02*
X88575800Y-34565400D01*
G75*
G02*
X88400400Y-34740800I-175400J0D01*
G01*
X87324600Y-34740800D01*
G75*
G02*
X87149200Y-34565400I0J175400D01*
G01*
X87149200Y-34214600D01*
G75*
G02*
X87324600Y-34039200I175400J0D01*
G01*
X88400400Y-34039200D01*
G75*
G02*
X88575800Y-34214600I0J-175400D01*
G01*
G37*
G36*
G01*
X102149200Y-96678713D02*
X102149200Y-95321287D01*
G75*
G02*
X102421287Y-95049200I272087J0D01*
G01*
X103128713Y-95049200D01*
G75*
G02*
X103400800Y-95321287I0J-272087D01*
G01*
X103400800Y-96678713D01*
G75*
G02*
X103128713Y-96950800I-272087J0D01*
G01*
X102421287Y-96950800D01*
G75*
G02*
X102149200Y-96678713I0J272087D01*
G01*
G37*
G36*
G01*
X105099200Y-96678713D02*
X105099200Y-95321287D01*
G75*
G02*
X105371287Y-95049200I272087J0D01*
G01*
X106078713Y-95049200D01*
G75*
G02*
X106350800Y-95321287I0J-272087D01*
G01*
X106350800Y-96678713D01*
G75*
G02*
X106078713Y-96950800I-272087J0D01*
G01*
X105371287Y-96950800D01*
G75*
G02*
X105099200Y-96678713I0J272087D01*
G01*
G37*
G36*
G01*
X117624200Y-33216372D02*
X117624200Y-31858946D01*
G75*
G02*
X117896287Y-31586859I272087J0D01*
G01*
X118603713Y-31586859D01*
G75*
G02*
X118875800Y-31858946I0J-272087D01*
G01*
X118875800Y-33216372D01*
G75*
G02*
X118603713Y-33488459I-272087J0D01*
G01*
X117896287Y-33488459D01*
G75*
G02*
X117624200Y-33216372I0J272087D01*
G01*
G37*
G36*
G01*
X120574200Y-33216372D02*
X120574200Y-31858946D01*
G75*
G02*
X120846287Y-31586859I272087J0D01*
G01*
X121553713Y-31586859D01*
G75*
G02*
X121825800Y-31858946I0J-272087D01*
G01*
X121825800Y-33216372D01*
G75*
G02*
X121553713Y-33488459I-272087J0D01*
G01*
X120846287Y-33488459D01*
G75*
G02*
X120574200Y-33216372I0J272087D01*
G01*
G37*
G36*
G01*
X105346778Y-102424200D02*
X106653222Y-102424200D01*
G75*
G02*
X106925800Y-102696778I0J-272578D01*
G01*
X106925800Y-103378222D01*
G75*
G02*
X106653222Y-103650800I-272578J0D01*
G01*
X105346778Y-103650800D01*
G75*
G02*
X105074200Y-103378222I0J272578D01*
G01*
X105074200Y-102696778D01*
G75*
G02*
X105346778Y-102424200I272578J0D01*
G01*
G37*
G36*
G01*
X105346778Y-105349200D02*
X106653222Y-105349200D01*
G75*
G02*
X106925800Y-105621778I0J-272578D01*
G01*
X106925800Y-106303222D01*
G75*
G02*
X106653222Y-106575800I-272578J0D01*
G01*
X105346778Y-106575800D01*
G75*
G02*
X105074200Y-106303222I0J272578D01*
G01*
X105074200Y-105621778D01*
G75*
G02*
X105346778Y-105349200I272578J0D01*
G01*
G37*
G36*
G01*
X156499200Y-115160560D02*
X156499200Y-113339440D01*
G75*
G02*
X156739440Y-113099200I240240J0D01*
G01*
X157860560Y-113099200D01*
G75*
G02*
X158100800Y-113339440I0J-240240D01*
G01*
X158100800Y-115160560D01*
G75*
G02*
X157860560Y-115400800I-240240J0D01*
G01*
X156739440Y-115400800D01*
G75*
G02*
X156499200Y-115160560I0J240240D01*
G01*
G37*
G36*
G01*
X153399200Y-115160560D02*
X153399200Y-113339440D01*
G75*
G02*
X153639440Y-113099200I240240J0D01*
G01*
X154760560Y-113099200D01*
G75*
G02*
X155000800Y-113339440I0J-240240D01*
G01*
X155000800Y-115160560D01*
G75*
G02*
X154760560Y-115400800I-240240J0D01*
G01*
X153639440Y-115400800D01*
G75*
G02*
X153399200Y-115160560I0J240240D01*
G01*
G37*
G36*
G01*
X143908485Y-93190000D02*
X143908485Y-94690000D01*
G75*
G02*
X143857685Y-94740800I-50800J0D01*
G01*
X142357685Y-94740800D01*
G75*
G02*
X142306885Y-94690000I0J50800D01*
G01*
X142306885Y-93190000D01*
G75*
G02*
X142357685Y-93139200I50800J0D01*
G01*
X143857685Y-93139200D01*
G75*
G02*
X143908485Y-93190000I0J-50800D01*
G01*
G37*
D15*
X143107685Y-91440000D03*
X143107685Y-89440000D03*
X143107685Y-86940000D03*
X140487685Y-93940000D03*
X140487685Y-91440000D03*
X140487685Y-89440000D03*
X140487685Y-86940000D03*
D16*
X145817685Y-97010000D03*
X145817685Y-83870000D03*
X140137685Y-97010000D03*
X140137685Y-83870000D03*
G36*
G01*
X154949200Y-69160560D02*
X154949200Y-67339440D01*
G75*
G02*
X155189440Y-67099200I240240J0D01*
G01*
X156310560Y-67099200D01*
G75*
G02*
X156550800Y-67339440I0J-240240D01*
G01*
X156550800Y-69160560D01*
G75*
G02*
X156310560Y-69400800I-240240J0D01*
G01*
X155189440Y-69400800D01*
G75*
G02*
X154949200Y-69160560I0J240240D01*
G01*
G37*
G36*
G01*
X151849200Y-69160560D02*
X151849200Y-67339440D01*
G75*
G02*
X152089440Y-67099200I240240J0D01*
G01*
X153210560Y-67099200D01*
G75*
G02*
X153450800Y-67339440I0J-240240D01*
G01*
X153450800Y-69160560D01*
G75*
G02*
X153210560Y-69400800I-240240J0D01*
G01*
X152089440Y-69400800D01*
G75*
G02*
X151849200Y-69160560I0J240240D01*
G01*
G37*
G36*
G01*
X137199200Y-29878713D02*
X137199200Y-28521287D01*
G75*
G02*
X137471287Y-28249200I272087J0D01*
G01*
X138178713Y-28249200D01*
G75*
G02*
X138450800Y-28521287I0J-272087D01*
G01*
X138450800Y-29878713D01*
G75*
G02*
X138178713Y-30150800I-272087J0D01*
G01*
X137471287Y-30150800D01*
G75*
G02*
X137199200Y-29878713I0J272087D01*
G01*
G37*
G36*
G01*
X140149200Y-29878713D02*
X140149200Y-28521287D01*
G75*
G02*
X140421287Y-28249200I272087J0D01*
G01*
X141128713Y-28249200D01*
G75*
G02*
X141400800Y-28521287I0J-272087D01*
G01*
X141400800Y-29878713D01*
G75*
G02*
X141128713Y-30150800I-272087J0D01*
G01*
X140421287Y-30150800D01*
G75*
G02*
X140149200Y-29878713I0J272087D01*
G01*
G37*
D17*
X93035051Y-104940000D03*
X106400000Y-56200000D03*
X88590000Y-108015000D03*
X90650000Y-99675000D03*
X86535051Y-103940000D03*
X101450000Y-70300000D03*
X86700000Y-74900000D03*
X116300000Y-32137659D03*
X133500000Y-90250000D03*
X116100000Y-40200000D03*
X114900000Y-30037659D03*
X134620000Y-108620000D03*
X84680000Y-47560000D03*
X143250000Y-113750000D03*
X115750000Y-102500000D03*
X131500000Y-94250000D03*
X128800000Y-51900000D03*
X109750000Y-73550000D03*
X93710000Y-31690000D03*
X136200000Y-44600000D03*
X115500000Y-112750000D03*
X89740000Y-44974500D03*
X78400000Y-36000000D03*
X118200000Y-75950000D03*
X116600000Y-52900000D03*
X113250000Y-90000000D03*
X91910000Y-38890000D03*
X115000000Y-56200000D03*
X104500000Y-98500000D03*
X103400000Y-89150000D03*
X122000000Y-34337659D03*
X93400000Y-60800000D03*
X122340000Y-55230000D03*
X147900000Y-43800000D03*
X98885051Y-105265000D03*
X131760000Y-106165500D03*
X100370000Y-45880000D03*
X142220000Y-103000000D03*
X124900000Y-30037659D03*
X129300000Y-35837159D03*
X133800000Y-32137659D03*
X153500000Y-56000000D03*
X69000000Y-36200000D03*
X79780000Y-31950000D03*
X119800000Y-52725500D03*
X117900000Y-29537659D03*
X84750000Y-41600000D03*
X137800000Y-27200000D03*
X67800000Y-52800000D03*
X102910000Y-38490000D03*
X142250000Y-108500000D03*
X102262500Y-27405000D03*
X122500000Y-92250000D03*
X82150000Y-88425000D03*
X134750000Y-102750000D03*
X80840000Y-108265000D03*
X102385051Y-105265000D03*
X144900000Y-56100000D03*
X110000000Y-78900000D03*
X143750000Y-65250000D03*
X146850000Y-70560000D03*
X86890000Y-98070000D03*
X140220000Y-107050000D03*
X124800000Y-27537659D03*
X116500000Y-28000000D03*
X133700000Y-35037659D03*
X135900000Y-42200000D03*
X91080000Y-37540000D03*
X132200000Y-51700000D03*
X88600000Y-82600000D03*
X101850000Y-44260000D03*
X116040000Y-91060000D03*
X125300000Y-52700000D03*
X125920000Y-112460000D03*
X107110000Y-29990000D03*
X150000000Y-110250000D03*
X95500000Y-45080000D03*
X101000000Y-84550000D03*
X93400000Y-63200000D03*
X140800000Y-27300000D03*
X137500000Y-108500000D03*
X139000000Y-70200000D03*
X108600000Y-62975402D03*
X146700000Y-47800000D03*
X142800000Y-54200000D03*
X136400000Y-47037659D03*
X112010000Y-103775500D03*
X102350000Y-66700000D03*
X117950000Y-72800000D03*
X94300000Y-99400000D03*
X112100000Y-34200000D03*
X105070000Y-38850000D03*
X100200000Y-62800000D03*
X116850000Y-99110000D03*
X117900000Y-51000000D03*
X117470000Y-108850000D03*
X140420000Y-105730000D03*
X133940000Y-99590000D03*
X132075500Y-99270000D03*
X139010000Y-104250000D03*
X97385051Y-107765000D03*
X94885051Y-107765000D03*
X130750000Y-108750000D03*
X131250000Y-101250000D03*
X123800000Y-104720000D03*
X137210000Y-77060000D03*
X123487701Y-110512299D03*
X144770000Y-110470000D03*
X108200000Y-52300000D03*
X113900000Y-52800000D03*
X107100000Y-51500000D03*
X112964137Y-52449051D03*
X111500000Y-54500000D03*
X103800000Y-50500000D03*
X109184623Y-54500500D03*
X111500000Y-51975500D03*
X119900000Y-60200000D03*
X97400000Y-60800000D03*
X108000000Y-60600000D03*
X108000000Y-61599503D03*
X113000000Y-61600000D03*
X125750000Y-106275000D03*
X98350000Y-102070000D03*
X125750000Y-105225000D03*
X99190000Y-101340000D03*
X120100000Y-58200000D03*
X117800000Y-62000000D03*
X108600000Y-64000000D03*
X103300000Y-62700000D03*
X106450000Y-70800000D03*
X112550000Y-69950000D03*
X149250000Y-68500000D03*
X126250000Y-102750000D03*
X143750000Y-110250000D03*
X124750000Y-110750000D03*
X124900000Y-104670000D03*
X140890000Y-70500000D03*
X126262299Y-103762299D03*
X151000000Y-70250000D03*
X136000000Y-93500000D03*
X138500000Y-91750000D03*
X135754214Y-98135042D03*
X135750219Y-91378280D03*
X145000000Y-99750000D03*
X122440000Y-102200000D03*
X115721278Y-84478722D03*
X91670000Y-30860000D03*
X117780000Y-64260000D03*
X87540000Y-46740000D03*
X111324500Y-49800000D03*
X99850497Y-55479503D03*
X104930126Y-58424008D03*
X96600000Y-52100000D03*
X113000000Y-58680000D03*
X92840000Y-54140000D03*
X98642299Y-58382299D03*
X87890000Y-66345500D03*
X87930000Y-71430000D03*
X88230000Y-63770000D03*
X119920000Y-64570000D03*
X116900000Y-55500000D03*
X107949695Y-55675000D03*
X87494161Y-50624500D03*
X86500000Y-49700000D03*
X112700000Y-54800000D03*
X107070000Y-54738153D03*
X94252299Y-51827701D03*
X102275500Y-58380000D03*
X88700000Y-51275500D03*
X108110000Y-59370000D03*
X90900000Y-52000000D03*
X95200000Y-53800000D03*
X84800000Y-48780000D03*
X104682299Y-59392299D03*
X84760000Y-53500000D03*
X111760000Y-63580000D03*
X96440000Y-59190000D03*
X89170000Y-48055500D03*
X103230000Y-48940000D03*
X73900000Y-74500000D03*
X120100000Y-41437659D03*
X123928768Y-88871232D03*
X119229163Y-40300000D03*
X124671232Y-88128768D03*
X116250000Y-74600000D03*
X111050000Y-91400000D03*
X82370000Y-35780000D03*
X80940000Y-42780000D03*
M02*
