G04 #@! TF.GenerationSoftware,KiCad,Pcbnew,7.0.11+1*
G04 #@! TF.CreationDate,2024-04-14T01:38:43+00:00*
G04 #@! TF.ProjectId,mbed-ce-ci-shield-v2,6d626564-2d63-4652-9d63-692d73686965,0*
G04 #@! TF.SameCoordinates,Original*
G04 #@! TF.FileFunction,Paste,Top*
G04 #@! TF.FilePolarity,Positive*
%FSLAX46Y46*%
G04 Gerber Fmt 4.6, Leading zero omitted, Abs format (unit mm)*
G04 Created by KiCad (PCBNEW 7.0.11+1) date 2024-04-14 01:38:43*
%MOMM*%
%LPD*%
G01*
G04 APERTURE LIST*
%ADD10R,0.400000X1.200000*%
%ADD11R,1.800000X2.000000*%
%ADD12R,0.600000X1.105000*%
%ADD13R,0.300000X1.150000*%
%ADD14O,1.000000X2.100000*%
%ADD15O,1.000000X1.800000*%
%ADD16R,1.200000X0.700000*%
%ADD17R,0.800000X1.000000*%
%ADD18R,1.200000X1.000000*%
%ADD19R,2.800000X1.000000*%
%ADD20R,1.900000X1.300000*%
%ADD21R,2.000000X1.500000*%
%ADD22R,2.000000X3.800000*%
G04 APERTURE END LIST*
G36*
G01*
X131150000Y-31587659D02*
X132450000Y-31587659D01*
G75*
G02*
X132700000Y-31837659I0J-250000D01*
G01*
X132700000Y-32487659D01*
G75*
G02*
X132450000Y-32737659I-250000J0D01*
G01*
X131150000Y-32737659D01*
G75*
G02*
X130900000Y-32487659I0J250000D01*
G01*
X130900000Y-31837659D01*
G75*
G02*
X131150000Y-31587659I250000J0D01*
G01*
G37*
G36*
G01*
X131150000Y-34537659D02*
X132450000Y-34537659D01*
G75*
G02*
X132700000Y-34787659I0J-250000D01*
G01*
X132700000Y-35437659D01*
G75*
G02*
X132450000Y-35687659I-250000J0D01*
G01*
X131150000Y-35687659D01*
G75*
G02*
X130900000Y-35437659I0J250000D01*
G01*
X130900000Y-34787659D01*
G75*
G02*
X131150000Y-34537659I250000J0D01*
G01*
G37*
G36*
G01*
X116950000Y-33487659D02*
X116950000Y-34787659D01*
G75*
G02*
X116700000Y-35037659I-250000J0D01*
G01*
X116050000Y-35037659D01*
G75*
G02*
X115800000Y-34787659I0J250000D01*
G01*
X115800000Y-33487659D01*
G75*
G02*
X116050000Y-33237659I250000J0D01*
G01*
X116700000Y-33237659D01*
G75*
G02*
X116950000Y-33487659I0J-250000D01*
G01*
G37*
G36*
G01*
X114000000Y-33487659D02*
X114000000Y-34787659D01*
G75*
G02*
X113750000Y-35037659I-250000J0D01*
G01*
X113100000Y-35037659D01*
G75*
G02*
X112850000Y-34787659I0J250000D01*
G01*
X112850000Y-33487659D01*
G75*
G02*
X113100000Y-33237659I250000J0D01*
G01*
X113750000Y-33237659D01*
G75*
G02*
X114000000Y-33487659I0J-250000D01*
G01*
G37*
G36*
G01*
X120450000Y-93150000D02*
X120450000Y-91850000D01*
G75*
G02*
X120700000Y-91600000I250000J0D01*
G01*
X121350000Y-91600000D01*
G75*
G02*
X121600000Y-91850000I0J-250000D01*
G01*
X121600000Y-93150000D01*
G75*
G02*
X121350000Y-93400000I-250000J0D01*
G01*
X120700000Y-93400000D01*
G75*
G02*
X120450000Y-93150000I0J250000D01*
G01*
G37*
G36*
G01*
X123400000Y-93150000D02*
X123400000Y-91850000D01*
G75*
G02*
X123650000Y-91600000I250000J0D01*
G01*
X124300000Y-91600000D01*
G75*
G02*
X124550000Y-91850000I0J-250000D01*
G01*
X124550000Y-93150000D01*
G75*
G02*
X124300000Y-93400000I-250000J0D01*
G01*
X123650000Y-93400000D01*
G75*
G02*
X123400000Y-93150000I0J250000D01*
G01*
G37*
D10*
X128972500Y-38037659D03*
X128337500Y-38037659D03*
X127702500Y-38037659D03*
X127067500Y-38037659D03*
X126432500Y-38037659D03*
X125797500Y-38037659D03*
X125162500Y-38037659D03*
X124527500Y-38037659D03*
X123892500Y-38037659D03*
X123257500Y-38037659D03*
X122622500Y-38037659D03*
X121987500Y-38037659D03*
X121352500Y-38037659D03*
X120717500Y-38037659D03*
X120082500Y-38037659D03*
X119447500Y-38037659D03*
X118812500Y-38037659D03*
X118177500Y-38037659D03*
X117542500Y-38037659D03*
X116907500Y-38037659D03*
X116272500Y-38037659D03*
X115637500Y-38037659D03*
X115002500Y-38037659D03*
X114367500Y-38037659D03*
X113732500Y-38037659D03*
X113097500Y-38037659D03*
X112462500Y-38037659D03*
X111827500Y-38037659D03*
X111827500Y-47437659D03*
X112462500Y-47437659D03*
X113097500Y-47437659D03*
X113732500Y-47437659D03*
X114367500Y-47437659D03*
X115002500Y-47437659D03*
X115637500Y-47437659D03*
X116272500Y-47437659D03*
X116907500Y-47437659D03*
X117542500Y-47437659D03*
X118177500Y-47437659D03*
X118812500Y-47437659D03*
X119447500Y-47437659D03*
X120082500Y-47437659D03*
X120717500Y-47437659D03*
X121352500Y-47437659D03*
X121987500Y-47437659D03*
X122622500Y-47437659D03*
X123257500Y-47437659D03*
X123892500Y-47437659D03*
X124527500Y-47437659D03*
X125162500Y-47437659D03*
X125797500Y-47437659D03*
X126432500Y-47437659D03*
X127067500Y-47437659D03*
X127702500Y-47437659D03*
X128337500Y-47437659D03*
X128972500Y-47437659D03*
G36*
G01*
X120450000Y-95650000D02*
X120450000Y-94350000D01*
G75*
G02*
X120700000Y-94100000I250000J0D01*
G01*
X121350000Y-94100000D01*
G75*
G02*
X121600000Y-94350000I0J-250000D01*
G01*
X121600000Y-95650000D01*
G75*
G02*
X121350000Y-95900000I-250000J0D01*
G01*
X120700000Y-95900000D01*
G75*
G02*
X120450000Y-95650000I0J250000D01*
G01*
G37*
G36*
G01*
X123400000Y-95650000D02*
X123400000Y-94350000D01*
G75*
G02*
X123650000Y-94100000I250000J0D01*
G01*
X124300000Y-94100000D01*
G75*
G02*
X124550000Y-94350000I0J-250000D01*
G01*
X124550000Y-95650000D01*
G75*
G02*
X124300000Y-95900000I-250000J0D01*
G01*
X123650000Y-95900000D01*
G75*
G02*
X123400000Y-95650000I0J250000D01*
G01*
G37*
G36*
G01*
X81760000Y-30950000D02*
X83060000Y-30950000D01*
G75*
G02*
X83310000Y-31200000I0J-250000D01*
G01*
X83310000Y-31850000D01*
G75*
G02*
X83060000Y-32100000I-250000J0D01*
G01*
X81760000Y-32100000D01*
G75*
G02*
X81510000Y-31850000I0J250000D01*
G01*
X81510000Y-31200000D01*
G75*
G02*
X81760000Y-30950000I250000J0D01*
G01*
G37*
G36*
G01*
X81760000Y-33900000D02*
X83060000Y-33900000D01*
G75*
G02*
X83310000Y-34150000I0J-250000D01*
G01*
X83310000Y-34800000D01*
G75*
G02*
X83060000Y-35050000I-250000J0D01*
G01*
X81760000Y-35050000D01*
G75*
G02*
X81510000Y-34800000I0J250000D01*
G01*
X81510000Y-34150000D01*
G75*
G02*
X81760000Y-33900000I250000J0D01*
G01*
G37*
G36*
G01*
X144625000Y-76725000D02*
X145875000Y-76725000D01*
G75*
G02*
X146125000Y-76975000I0J-250000D01*
G01*
X146125000Y-77600000D01*
G75*
G02*
X145875000Y-77850000I-250000J0D01*
G01*
X144625000Y-77850000D01*
G75*
G02*
X144375000Y-77600000I0J250000D01*
G01*
X144375000Y-76975000D01*
G75*
G02*
X144625000Y-76725000I250000J0D01*
G01*
G37*
G36*
G01*
X144625000Y-79650000D02*
X145875000Y-79650000D01*
G75*
G02*
X146125000Y-79900000I0J-250000D01*
G01*
X146125000Y-80525000D01*
G75*
G02*
X145875000Y-80775000I-250000J0D01*
G01*
X144625000Y-80775000D01*
G75*
G02*
X144375000Y-80525000I0J250000D01*
G01*
X144375000Y-79900000D01*
G75*
G02*
X144625000Y-79650000I250000J0D01*
G01*
G37*
G36*
G01*
X138225000Y-41575000D02*
X138225000Y-42825000D01*
G75*
G02*
X137975000Y-43075000I-250000J0D01*
G01*
X137350000Y-43075000D01*
G75*
G02*
X137100000Y-42825000I0J250000D01*
G01*
X137100000Y-41575000D01*
G75*
G02*
X137350000Y-41325000I250000J0D01*
G01*
X137975000Y-41325000D01*
G75*
G02*
X138225000Y-41575000I0J-250000D01*
G01*
G37*
G36*
G01*
X135300000Y-41575000D02*
X135300000Y-42825000D01*
G75*
G02*
X135050000Y-43075000I-250000J0D01*
G01*
X134425000Y-43075000D01*
G75*
G02*
X134175000Y-42825000I0J250000D01*
G01*
X134175000Y-41575000D01*
G75*
G02*
X134425000Y-41325000I250000J0D01*
G01*
X135050000Y-41325000D01*
G75*
G02*
X135300000Y-41575000I0J-250000D01*
G01*
G37*
G36*
G01*
X143150000Y-80800000D02*
X141850000Y-80800000D01*
G75*
G02*
X141600000Y-80550000I0J250000D01*
G01*
X141600000Y-79900000D01*
G75*
G02*
X141850000Y-79650000I250000J0D01*
G01*
X143150000Y-79650000D01*
G75*
G02*
X143400000Y-79900000I0J-250000D01*
G01*
X143400000Y-80550000D01*
G75*
G02*
X143150000Y-80800000I-250000J0D01*
G01*
G37*
G36*
G01*
X143150000Y-77850000D02*
X141850000Y-77850000D01*
G75*
G02*
X141600000Y-77600000I0J250000D01*
G01*
X141600000Y-76950000D01*
G75*
G02*
X141850000Y-76700000I250000J0D01*
G01*
X143150000Y-76700000D01*
G75*
G02*
X143400000Y-76950000I0J-250000D01*
G01*
X143400000Y-77600000D01*
G75*
G02*
X143150000Y-77850000I-250000J0D01*
G01*
G37*
G36*
G01*
X145625000Y-105025000D02*
X144375000Y-105025000D01*
G75*
G02*
X144125000Y-104775000I0J250000D01*
G01*
X144125000Y-104150000D01*
G75*
G02*
X144375000Y-103900000I250000J0D01*
G01*
X145625000Y-103900000D01*
G75*
G02*
X145875000Y-104150000I0J-250000D01*
G01*
X145875000Y-104775000D01*
G75*
G02*
X145625000Y-105025000I-250000J0D01*
G01*
G37*
G36*
G01*
X145625000Y-102100000D02*
X144375000Y-102100000D01*
G75*
G02*
X144125000Y-101850000I0J250000D01*
G01*
X144125000Y-101225000D01*
G75*
G02*
X144375000Y-100975000I250000J0D01*
G01*
X145625000Y-100975000D01*
G75*
G02*
X145875000Y-101225000I0J-250000D01*
G01*
X145875000Y-101850000D01*
G75*
G02*
X145625000Y-102100000I-250000J0D01*
G01*
G37*
G36*
G01*
X113100000Y-102450000D02*
X114400000Y-102450000D01*
G75*
G02*
X114650000Y-102700000I0J-250000D01*
G01*
X114650000Y-103350000D01*
G75*
G02*
X114400000Y-103600000I-250000J0D01*
G01*
X113100000Y-103600000D01*
G75*
G02*
X112850000Y-103350000I0J250000D01*
G01*
X112850000Y-102700000D01*
G75*
G02*
X113100000Y-102450000I250000J0D01*
G01*
G37*
G36*
G01*
X113100000Y-105400000D02*
X114400000Y-105400000D01*
G75*
G02*
X114650000Y-105650000I0J-250000D01*
G01*
X114650000Y-106300000D01*
G75*
G02*
X114400000Y-106550000I-250000J0D01*
G01*
X113100000Y-106550000D01*
G75*
G02*
X112850000Y-106300000I0J250000D01*
G01*
X112850000Y-105650000D01*
G75*
G02*
X113100000Y-105400000I250000J0D01*
G01*
G37*
G36*
G01*
X103900000Y-26810000D02*
X105200000Y-26810000D01*
G75*
G02*
X105450000Y-27060000I0J-250000D01*
G01*
X105450000Y-27710000D01*
G75*
G02*
X105200000Y-27960000I-250000J0D01*
G01*
X103900000Y-27960000D01*
G75*
G02*
X103650000Y-27710000I0J250000D01*
G01*
X103650000Y-27060000D01*
G75*
G02*
X103900000Y-26810000I250000J0D01*
G01*
G37*
G36*
G01*
X103900000Y-29760000D02*
X105200000Y-29760000D01*
G75*
G02*
X105450000Y-30010000I0J-250000D01*
G01*
X105450000Y-30660000D01*
G75*
G02*
X105200000Y-30910000I-250000J0D01*
G01*
X103900000Y-30910000D01*
G75*
G02*
X103650000Y-30660000I0J250000D01*
G01*
X103650000Y-30010000D01*
G75*
G02*
X103900000Y-29760000I250000J0D01*
G01*
G37*
G36*
G01*
X95425000Y-60175000D02*
X95425000Y-61425000D01*
G75*
G02*
X95175000Y-61675000I-250000J0D01*
G01*
X94550000Y-61675000D01*
G75*
G02*
X94300000Y-61425000I0J250000D01*
G01*
X94300000Y-60175000D01*
G75*
G02*
X94550000Y-59925000I250000J0D01*
G01*
X95175000Y-59925000D01*
G75*
G02*
X95425000Y-60175000I0J-250000D01*
G01*
G37*
G36*
G01*
X92500000Y-60175000D02*
X92500000Y-61425000D01*
G75*
G02*
X92250000Y-61675000I-250000J0D01*
G01*
X91625000Y-61675000D01*
G75*
G02*
X91375000Y-61425000I0J250000D01*
G01*
X91375000Y-60175000D01*
G75*
G02*
X91625000Y-59925000I250000J0D01*
G01*
X92250000Y-59925000D01*
G75*
G02*
X92500000Y-60175000I0J-250000D01*
G01*
G37*
G36*
G01*
X105250000Y-71000000D02*
X103950000Y-71000000D01*
G75*
G02*
X103700000Y-70750000I0J250000D01*
G01*
X103700000Y-70100000D01*
G75*
G02*
X103950000Y-69850000I250000J0D01*
G01*
X105250000Y-69850000D01*
G75*
G02*
X105500000Y-70100000I0J-250000D01*
G01*
X105500000Y-70750000D01*
G75*
G02*
X105250000Y-71000000I-250000J0D01*
G01*
G37*
G36*
G01*
X105250000Y-68050000D02*
X103950000Y-68050000D01*
G75*
G02*
X103700000Y-67800000I0J250000D01*
G01*
X103700000Y-67150000D01*
G75*
G02*
X103950000Y-66900000I250000J0D01*
G01*
X105250000Y-66900000D01*
G75*
G02*
X105500000Y-67150000I0J-250000D01*
G01*
X105500000Y-67800000D01*
G75*
G02*
X105250000Y-68050000I-250000J0D01*
G01*
G37*
G36*
G01*
X84800000Y-100225000D02*
X83500000Y-100225000D01*
G75*
G02*
X83250000Y-99975000I0J250000D01*
G01*
X83250000Y-99325000D01*
G75*
G02*
X83500000Y-99075000I250000J0D01*
G01*
X84800000Y-99075000D01*
G75*
G02*
X85050000Y-99325000I0J-250000D01*
G01*
X85050000Y-99975000D01*
G75*
G02*
X84800000Y-100225000I-250000J0D01*
G01*
G37*
G36*
G01*
X84800000Y-97275000D02*
X83500000Y-97275000D01*
G75*
G02*
X83250000Y-97025000I0J250000D01*
G01*
X83250000Y-96375000D01*
G75*
G02*
X83500000Y-96125000I250000J0D01*
G01*
X84800000Y-96125000D01*
G75*
G02*
X85050000Y-96375000I0J-250000D01*
G01*
X85050000Y-97025000D01*
G75*
G02*
X84800000Y-97275000I-250000J0D01*
G01*
G37*
G36*
G01*
X107050000Y-61737500D02*
X107050000Y-61937500D01*
G75*
G02*
X106950000Y-62037500I-100000J0D01*
G01*
X105675000Y-62037500D01*
G75*
G02*
X105575000Y-61937500I0J100000D01*
G01*
X105575000Y-61737500D01*
G75*
G02*
X105675000Y-61637500I100000J0D01*
G01*
X106950000Y-61637500D01*
G75*
G02*
X107050000Y-61737500I0J-100000D01*
G01*
G37*
G36*
G01*
X107050000Y-61087500D02*
X107050000Y-61287500D01*
G75*
G02*
X106950000Y-61387500I-100000J0D01*
G01*
X105675000Y-61387500D01*
G75*
G02*
X105575000Y-61287500I0J100000D01*
G01*
X105575000Y-61087500D01*
G75*
G02*
X105675000Y-60987500I100000J0D01*
G01*
X106950000Y-60987500D01*
G75*
G02*
X107050000Y-61087500I0J-100000D01*
G01*
G37*
G36*
G01*
X107050000Y-60437500D02*
X107050000Y-60637500D01*
G75*
G02*
X106950000Y-60737500I-100000J0D01*
G01*
X105675000Y-60737500D01*
G75*
G02*
X105575000Y-60637500I0J100000D01*
G01*
X105575000Y-60437500D01*
G75*
G02*
X105675000Y-60337500I100000J0D01*
G01*
X106950000Y-60337500D01*
G75*
G02*
X107050000Y-60437500I0J-100000D01*
G01*
G37*
G36*
G01*
X107050000Y-59787500D02*
X107050000Y-59987500D01*
G75*
G02*
X106950000Y-60087500I-100000J0D01*
G01*
X105675000Y-60087500D01*
G75*
G02*
X105575000Y-59987500I0J100000D01*
G01*
X105575000Y-59787500D01*
G75*
G02*
X105675000Y-59687500I100000J0D01*
G01*
X106950000Y-59687500D01*
G75*
G02*
X107050000Y-59787500I0J-100000D01*
G01*
G37*
G36*
G01*
X107050000Y-59137500D02*
X107050000Y-59337500D01*
G75*
G02*
X106950000Y-59437500I-100000J0D01*
G01*
X105675000Y-59437500D01*
G75*
G02*
X105575000Y-59337500I0J100000D01*
G01*
X105575000Y-59137500D01*
G75*
G02*
X105675000Y-59037500I100000J0D01*
G01*
X106950000Y-59037500D01*
G75*
G02*
X107050000Y-59137500I0J-100000D01*
G01*
G37*
G36*
G01*
X107050000Y-58487500D02*
X107050000Y-58687500D01*
G75*
G02*
X106950000Y-58787500I-100000J0D01*
G01*
X105675000Y-58787500D01*
G75*
G02*
X105575000Y-58687500I0J100000D01*
G01*
X105575000Y-58487500D01*
G75*
G02*
X105675000Y-58387500I100000J0D01*
G01*
X106950000Y-58387500D01*
G75*
G02*
X107050000Y-58487500I0J-100000D01*
G01*
G37*
G36*
G01*
X107050000Y-57837500D02*
X107050000Y-58037500D01*
G75*
G02*
X106950000Y-58137500I-100000J0D01*
G01*
X105675000Y-58137500D01*
G75*
G02*
X105575000Y-58037500I0J100000D01*
G01*
X105575000Y-57837500D01*
G75*
G02*
X105675000Y-57737500I100000J0D01*
G01*
X106950000Y-57737500D01*
G75*
G02*
X107050000Y-57837500I0J-100000D01*
G01*
G37*
G36*
G01*
X107050000Y-57187500D02*
X107050000Y-57387500D01*
G75*
G02*
X106950000Y-57487500I-100000J0D01*
G01*
X105675000Y-57487500D01*
G75*
G02*
X105575000Y-57387500I0J100000D01*
G01*
X105575000Y-57187500D01*
G75*
G02*
X105675000Y-57087500I100000J0D01*
G01*
X106950000Y-57087500D01*
G75*
G02*
X107050000Y-57187500I0J-100000D01*
G01*
G37*
G36*
G01*
X101325000Y-57187500D02*
X101325000Y-57387500D01*
G75*
G02*
X101225000Y-57487500I-100000J0D01*
G01*
X99950000Y-57487500D01*
G75*
G02*
X99850000Y-57387500I0J100000D01*
G01*
X99850000Y-57187500D01*
G75*
G02*
X99950000Y-57087500I100000J0D01*
G01*
X101225000Y-57087500D01*
G75*
G02*
X101325000Y-57187500I0J-100000D01*
G01*
G37*
G36*
G01*
X101325000Y-57837500D02*
X101325000Y-58037500D01*
G75*
G02*
X101225000Y-58137500I-100000J0D01*
G01*
X99950000Y-58137500D01*
G75*
G02*
X99850000Y-58037500I0J100000D01*
G01*
X99850000Y-57837500D01*
G75*
G02*
X99950000Y-57737500I100000J0D01*
G01*
X101225000Y-57737500D01*
G75*
G02*
X101325000Y-57837500I0J-100000D01*
G01*
G37*
G36*
G01*
X101325000Y-58487500D02*
X101325000Y-58687500D01*
G75*
G02*
X101225000Y-58787500I-100000J0D01*
G01*
X99950000Y-58787500D01*
G75*
G02*
X99850000Y-58687500I0J100000D01*
G01*
X99850000Y-58487500D01*
G75*
G02*
X99950000Y-58387500I100000J0D01*
G01*
X101225000Y-58387500D01*
G75*
G02*
X101325000Y-58487500I0J-100000D01*
G01*
G37*
G36*
G01*
X101325000Y-59137500D02*
X101325000Y-59337500D01*
G75*
G02*
X101225000Y-59437500I-100000J0D01*
G01*
X99950000Y-59437500D01*
G75*
G02*
X99850000Y-59337500I0J100000D01*
G01*
X99850000Y-59137500D01*
G75*
G02*
X99950000Y-59037500I100000J0D01*
G01*
X101225000Y-59037500D01*
G75*
G02*
X101325000Y-59137500I0J-100000D01*
G01*
G37*
G36*
G01*
X101325000Y-59787500D02*
X101325000Y-59987500D01*
G75*
G02*
X101225000Y-60087500I-100000J0D01*
G01*
X99950000Y-60087500D01*
G75*
G02*
X99850000Y-59987500I0J100000D01*
G01*
X99850000Y-59787500D01*
G75*
G02*
X99950000Y-59687500I100000J0D01*
G01*
X101225000Y-59687500D01*
G75*
G02*
X101325000Y-59787500I0J-100000D01*
G01*
G37*
G36*
G01*
X101325000Y-60437500D02*
X101325000Y-60637500D01*
G75*
G02*
X101225000Y-60737500I-100000J0D01*
G01*
X99950000Y-60737500D01*
G75*
G02*
X99850000Y-60637500I0J100000D01*
G01*
X99850000Y-60437500D01*
G75*
G02*
X99950000Y-60337500I100000J0D01*
G01*
X101225000Y-60337500D01*
G75*
G02*
X101325000Y-60437500I0J-100000D01*
G01*
G37*
G36*
G01*
X101325000Y-61087500D02*
X101325000Y-61287500D01*
G75*
G02*
X101225000Y-61387500I-100000J0D01*
G01*
X99950000Y-61387500D01*
G75*
G02*
X99850000Y-61287500I0J100000D01*
G01*
X99850000Y-61087500D01*
G75*
G02*
X99950000Y-60987500I100000J0D01*
G01*
X101225000Y-60987500D01*
G75*
G02*
X101325000Y-61087500I0J-100000D01*
G01*
G37*
G36*
G01*
X101325000Y-61737500D02*
X101325000Y-61937500D01*
G75*
G02*
X101225000Y-62037500I-100000J0D01*
G01*
X99950000Y-62037500D01*
G75*
G02*
X99850000Y-61937500I0J100000D01*
G01*
X99850000Y-61737500D01*
G75*
G02*
X99950000Y-61637500I100000J0D01*
G01*
X101225000Y-61637500D01*
G75*
G02*
X101325000Y-61737500I0J-100000D01*
G01*
G37*
G36*
G01*
X136550000Y-95200000D02*
X136850000Y-95200000D01*
G75*
G02*
X137000000Y-95350000I0J-150000D01*
G01*
X137000000Y-96375000D01*
G75*
G02*
X136850000Y-96525000I-150000J0D01*
G01*
X136550000Y-96525000D01*
G75*
G02*
X136400000Y-96375000I0J150000D01*
G01*
X136400000Y-95350000D01*
G75*
G02*
X136550000Y-95200000I150000J0D01*
G01*
G37*
G36*
G01*
X135600000Y-95200000D02*
X135900000Y-95200000D01*
G75*
G02*
X136050000Y-95350000I0J-150000D01*
G01*
X136050000Y-96375000D01*
G75*
G02*
X135900000Y-96525000I-150000J0D01*
G01*
X135600000Y-96525000D01*
G75*
G02*
X135450000Y-96375000I0J150000D01*
G01*
X135450000Y-95350000D01*
G75*
G02*
X135600000Y-95200000I150000J0D01*
G01*
G37*
G36*
G01*
X134650000Y-95200000D02*
X134950000Y-95200000D01*
G75*
G02*
X135100000Y-95350000I0J-150000D01*
G01*
X135100000Y-96375000D01*
G75*
G02*
X134950000Y-96525000I-150000J0D01*
G01*
X134650000Y-96525000D01*
G75*
G02*
X134500000Y-96375000I0J150000D01*
G01*
X134500000Y-95350000D01*
G75*
G02*
X134650000Y-95200000I150000J0D01*
G01*
G37*
G36*
G01*
X134650000Y-97475000D02*
X134950000Y-97475000D01*
G75*
G02*
X135100000Y-97625000I0J-150000D01*
G01*
X135100000Y-98650000D01*
G75*
G02*
X134950000Y-98800000I-150000J0D01*
G01*
X134650000Y-98800000D01*
G75*
G02*
X134500000Y-98650000I0J150000D01*
G01*
X134500000Y-97625000D01*
G75*
G02*
X134650000Y-97475000I150000J0D01*
G01*
G37*
G36*
G01*
X135600000Y-97475000D02*
X135900000Y-97475000D01*
G75*
G02*
X136050000Y-97625000I0J-150000D01*
G01*
X136050000Y-98650000D01*
G75*
G02*
X135900000Y-98800000I-150000J0D01*
G01*
X135600000Y-98800000D01*
G75*
G02*
X135450000Y-98650000I0J150000D01*
G01*
X135450000Y-97625000D01*
G75*
G02*
X135600000Y-97475000I150000J0D01*
G01*
G37*
G36*
G01*
X136550000Y-97475000D02*
X136850000Y-97475000D01*
G75*
G02*
X137000000Y-97625000I0J-150000D01*
G01*
X137000000Y-98650000D01*
G75*
G02*
X136850000Y-98800000I-150000J0D01*
G01*
X136550000Y-98800000D01*
G75*
G02*
X136400000Y-98650000I0J150000D01*
G01*
X136400000Y-97625000D01*
G75*
G02*
X136550000Y-97475000I150000J0D01*
G01*
G37*
G36*
G01*
X126725000Y-27012659D02*
X126725000Y-28262659D01*
G75*
G02*
X126475000Y-28512659I-250000J0D01*
G01*
X125850000Y-28512659D01*
G75*
G02*
X125600000Y-28262659I0J250000D01*
G01*
X125600000Y-27012659D01*
G75*
G02*
X125850000Y-26762659I250000J0D01*
G01*
X126475000Y-26762659D01*
G75*
G02*
X126725000Y-27012659I0J-250000D01*
G01*
G37*
G36*
G01*
X123800000Y-27012659D02*
X123800000Y-28262659D01*
G75*
G02*
X123550000Y-28512659I-250000J0D01*
G01*
X122925000Y-28512659D01*
G75*
G02*
X122675000Y-28262659I0J250000D01*
G01*
X122675000Y-27012659D01*
G75*
G02*
X122925000Y-26762659I250000J0D01*
G01*
X123550000Y-26762659D01*
G75*
G02*
X123800000Y-27012659I0J-250000D01*
G01*
G37*
G36*
G01*
X120275000Y-114625000D02*
X120275000Y-115875000D01*
G75*
G02*
X120025000Y-116125000I-250000J0D01*
G01*
X119400000Y-116125000D01*
G75*
G02*
X119150000Y-115875000I0J250000D01*
G01*
X119150000Y-114625000D01*
G75*
G02*
X119400000Y-114375000I250000J0D01*
G01*
X120025000Y-114375000D01*
G75*
G02*
X120275000Y-114625000I0J-250000D01*
G01*
G37*
G36*
G01*
X117350000Y-114625000D02*
X117350000Y-115875000D01*
G75*
G02*
X117100000Y-116125000I-250000J0D01*
G01*
X116475000Y-116125000D01*
G75*
G02*
X116225000Y-115875000I0J250000D01*
G01*
X116225000Y-114625000D01*
G75*
G02*
X116475000Y-114375000I250000J0D01*
G01*
X117100000Y-114375000D01*
G75*
G02*
X117350000Y-114625000I0J-250000D01*
G01*
G37*
G36*
G01*
X126850000Y-52250000D02*
X126850000Y-50950000D01*
G75*
G02*
X127100000Y-50700000I250000J0D01*
G01*
X127750000Y-50700000D01*
G75*
G02*
X128000000Y-50950000I0J-250000D01*
G01*
X128000000Y-52250000D01*
G75*
G02*
X127750000Y-52500000I-250000J0D01*
G01*
X127100000Y-52500000D01*
G75*
G02*
X126850000Y-52250000I0J250000D01*
G01*
G37*
G36*
G01*
X129800000Y-52250000D02*
X129800000Y-50950000D01*
G75*
G02*
X130050000Y-50700000I250000J0D01*
G01*
X130700000Y-50700000D01*
G75*
G02*
X130950000Y-50950000I0J-250000D01*
G01*
X130950000Y-52250000D01*
G75*
G02*
X130700000Y-52500000I-250000J0D01*
G01*
X130050000Y-52500000D01*
G75*
G02*
X129800000Y-52250000I0J250000D01*
G01*
G37*
G36*
G01*
X130725000Y-113875000D02*
X130725000Y-112625000D01*
G75*
G02*
X130975000Y-112375000I250000J0D01*
G01*
X131600000Y-112375000D01*
G75*
G02*
X131850000Y-112625000I0J-250000D01*
G01*
X131850000Y-113875000D01*
G75*
G02*
X131600000Y-114125000I-250000J0D01*
G01*
X130975000Y-114125000D01*
G75*
G02*
X130725000Y-113875000I0J250000D01*
G01*
G37*
G36*
G01*
X133650000Y-113875000D02*
X133650000Y-112625000D01*
G75*
G02*
X133900000Y-112375000I250000J0D01*
G01*
X134525000Y-112375000D01*
G75*
G02*
X134775000Y-112625000I0J-250000D01*
G01*
X134775000Y-113875000D01*
G75*
G02*
X134525000Y-114125000I-250000J0D01*
G01*
X133900000Y-114125000D01*
G75*
G02*
X133650000Y-113875000I0J250000D01*
G01*
G37*
G36*
G01*
X84675000Y-69575000D02*
X85925000Y-69575000D01*
G75*
G02*
X86175000Y-69825000I0J-250000D01*
G01*
X86175000Y-70450000D01*
G75*
G02*
X85925000Y-70700000I-250000J0D01*
G01*
X84675000Y-70700000D01*
G75*
G02*
X84425000Y-70450000I0J250000D01*
G01*
X84425000Y-69825000D01*
G75*
G02*
X84675000Y-69575000I250000J0D01*
G01*
G37*
G36*
G01*
X84675000Y-72500000D02*
X85925000Y-72500000D01*
G75*
G02*
X86175000Y-72750000I0J-250000D01*
G01*
X86175000Y-73375000D01*
G75*
G02*
X85925000Y-73625000I-250000J0D01*
G01*
X84675000Y-73625000D01*
G75*
G02*
X84425000Y-73375000I0J250000D01*
G01*
X84425000Y-72750000D01*
G75*
G02*
X84675000Y-72500000I250000J0D01*
G01*
G37*
G36*
G01*
X89625000Y-81375000D02*
X88375000Y-81375000D01*
G75*
G02*
X88125000Y-81125000I0J250000D01*
G01*
X88125000Y-80500000D01*
G75*
G02*
X88375000Y-80250000I250000J0D01*
G01*
X89625000Y-80250000D01*
G75*
G02*
X89875000Y-80500000I0J-250000D01*
G01*
X89875000Y-81125000D01*
G75*
G02*
X89625000Y-81375000I-250000J0D01*
G01*
G37*
G36*
G01*
X89625000Y-78450000D02*
X88375000Y-78450000D01*
G75*
G02*
X88125000Y-78200000I0J250000D01*
G01*
X88125000Y-77575000D01*
G75*
G02*
X88375000Y-77325000I250000J0D01*
G01*
X89625000Y-77325000D01*
G75*
G02*
X89875000Y-77575000I0J-250000D01*
G01*
X89875000Y-78200000D01*
G75*
G02*
X89625000Y-78450000I-250000J0D01*
G01*
G37*
G36*
G01*
X126750000Y-29387659D02*
X126750000Y-30687659D01*
G75*
G02*
X126500000Y-30937659I-250000J0D01*
G01*
X125850000Y-30937659D01*
G75*
G02*
X125600000Y-30687659I0J250000D01*
G01*
X125600000Y-29387659D01*
G75*
G02*
X125850000Y-29137659I250000J0D01*
G01*
X126500000Y-29137659D01*
G75*
G02*
X126750000Y-29387659I0J-250000D01*
G01*
G37*
G36*
G01*
X123800000Y-29387659D02*
X123800000Y-30687659D01*
G75*
G02*
X123550000Y-30937659I-250000J0D01*
G01*
X122900000Y-30937659D01*
G75*
G02*
X122650000Y-30687659I0J250000D01*
G01*
X122650000Y-29387659D01*
G75*
G02*
X122900000Y-29137659I250000J0D01*
G01*
X123550000Y-29137659D01*
G75*
G02*
X123800000Y-29387659I0J-250000D01*
G01*
G37*
G36*
G01*
X114150000Y-111800000D02*
X112850000Y-111800000D01*
G75*
G02*
X112600000Y-111550000I0J250000D01*
G01*
X112600000Y-110900000D01*
G75*
G02*
X112850000Y-110650000I250000J0D01*
G01*
X114150000Y-110650000D01*
G75*
G02*
X114400000Y-110900000I0J-250000D01*
G01*
X114400000Y-111550000D01*
G75*
G02*
X114150000Y-111800000I-250000J0D01*
G01*
G37*
G36*
G01*
X114150000Y-108850000D02*
X112850000Y-108850000D01*
G75*
G02*
X112600000Y-108600000I0J250000D01*
G01*
X112600000Y-107950000D01*
G75*
G02*
X112850000Y-107700000I250000J0D01*
G01*
X114150000Y-107700000D01*
G75*
G02*
X114400000Y-107950000I0J-250000D01*
G01*
X114400000Y-108600000D01*
G75*
G02*
X114150000Y-108850000I-250000J0D01*
G01*
G37*
G36*
G01*
X110375000Y-102475000D02*
X111625000Y-102475000D01*
G75*
G02*
X111875000Y-102725000I0J-250000D01*
G01*
X111875000Y-103350000D01*
G75*
G02*
X111625000Y-103600000I-250000J0D01*
G01*
X110375000Y-103600000D01*
G75*
G02*
X110125000Y-103350000I0J250000D01*
G01*
X110125000Y-102725000D01*
G75*
G02*
X110375000Y-102475000I250000J0D01*
G01*
G37*
G36*
G01*
X110375000Y-105400000D02*
X111625000Y-105400000D01*
G75*
G02*
X111875000Y-105650000I0J-250000D01*
G01*
X111875000Y-106275000D01*
G75*
G02*
X111625000Y-106525000I-250000J0D01*
G01*
X110375000Y-106525000D01*
G75*
G02*
X110125000Y-106275000I0J250000D01*
G01*
X110125000Y-105650000D01*
G75*
G02*
X110375000Y-105400000I250000J0D01*
G01*
G37*
G36*
G01*
X154350000Y-53755000D02*
X154350000Y-54055000D01*
G75*
G02*
X154200000Y-54205000I-150000J0D01*
G01*
X152550000Y-54205000D01*
G75*
G02*
X152400000Y-54055000I0J150000D01*
G01*
X152400000Y-53755000D01*
G75*
G02*
X152550000Y-53605000I150000J0D01*
G01*
X154200000Y-53605000D01*
G75*
G02*
X154350000Y-53755000I0J-150000D01*
G01*
G37*
G36*
G01*
X154350000Y-52485000D02*
X154350000Y-52785000D01*
G75*
G02*
X154200000Y-52935000I-150000J0D01*
G01*
X152550000Y-52935000D01*
G75*
G02*
X152400000Y-52785000I0J150000D01*
G01*
X152400000Y-52485000D01*
G75*
G02*
X152550000Y-52335000I150000J0D01*
G01*
X154200000Y-52335000D01*
G75*
G02*
X154350000Y-52485000I0J-150000D01*
G01*
G37*
G36*
G01*
X154350000Y-51215000D02*
X154350000Y-51515000D01*
G75*
G02*
X154200000Y-51665000I-150000J0D01*
G01*
X152550000Y-51665000D01*
G75*
G02*
X152400000Y-51515000I0J150000D01*
G01*
X152400000Y-51215000D01*
G75*
G02*
X152550000Y-51065000I150000J0D01*
G01*
X154200000Y-51065000D01*
G75*
G02*
X154350000Y-51215000I0J-150000D01*
G01*
G37*
G36*
G01*
X154350000Y-49945000D02*
X154350000Y-50245000D01*
G75*
G02*
X154200000Y-50395000I-150000J0D01*
G01*
X152550000Y-50395000D01*
G75*
G02*
X152400000Y-50245000I0J150000D01*
G01*
X152400000Y-49945000D01*
G75*
G02*
X152550000Y-49795000I150000J0D01*
G01*
X154200000Y-49795000D01*
G75*
G02*
X154350000Y-49945000I0J-150000D01*
G01*
G37*
G36*
G01*
X149400000Y-49945000D02*
X149400000Y-50245000D01*
G75*
G02*
X149250000Y-50395000I-150000J0D01*
G01*
X147600000Y-50395000D01*
G75*
G02*
X147450000Y-50245000I0J150000D01*
G01*
X147450000Y-49945000D01*
G75*
G02*
X147600000Y-49795000I150000J0D01*
G01*
X149250000Y-49795000D01*
G75*
G02*
X149400000Y-49945000I0J-150000D01*
G01*
G37*
G36*
G01*
X149400000Y-51215000D02*
X149400000Y-51515000D01*
G75*
G02*
X149250000Y-51665000I-150000J0D01*
G01*
X147600000Y-51665000D01*
G75*
G02*
X147450000Y-51515000I0J150000D01*
G01*
X147450000Y-51215000D01*
G75*
G02*
X147600000Y-51065000I150000J0D01*
G01*
X149250000Y-51065000D01*
G75*
G02*
X149400000Y-51215000I0J-150000D01*
G01*
G37*
G36*
G01*
X149400000Y-52485000D02*
X149400000Y-52785000D01*
G75*
G02*
X149250000Y-52935000I-150000J0D01*
G01*
X147600000Y-52935000D01*
G75*
G02*
X147450000Y-52785000I0J150000D01*
G01*
X147450000Y-52485000D01*
G75*
G02*
X147600000Y-52335000I150000J0D01*
G01*
X149250000Y-52335000D01*
G75*
G02*
X149400000Y-52485000I0J-150000D01*
G01*
G37*
G36*
G01*
X149400000Y-53755000D02*
X149400000Y-54055000D01*
G75*
G02*
X149250000Y-54205000I-150000J0D01*
G01*
X147600000Y-54205000D01*
G75*
G02*
X147450000Y-54055000I0J150000D01*
G01*
X147450000Y-53755000D01*
G75*
G02*
X147600000Y-53605000I150000J0D01*
G01*
X149250000Y-53605000D01*
G75*
G02*
X149400000Y-53755000I0J-150000D01*
G01*
G37*
D11*
X142940000Y-32000000D03*
X137860000Y-32000000D03*
X137860000Y-36000000D03*
X142940000Y-36000000D03*
G36*
G01*
X143125000Y-63187500D02*
X144375000Y-63187500D01*
G75*
G02*
X144625000Y-63437500I0J-250000D01*
G01*
X144625000Y-64062500D01*
G75*
G02*
X144375000Y-64312500I-250000J0D01*
G01*
X143125000Y-64312500D01*
G75*
G02*
X142875000Y-64062500I0J250000D01*
G01*
X142875000Y-63437500D01*
G75*
G02*
X143125000Y-63187500I250000J0D01*
G01*
G37*
G36*
G01*
X143125000Y-66112500D02*
X144375000Y-66112500D01*
G75*
G02*
X144625000Y-66362500I0J-250000D01*
G01*
X144625000Y-66987500D01*
G75*
G02*
X144375000Y-67237500I-250000J0D01*
G01*
X143125000Y-67237500D01*
G75*
G02*
X142875000Y-66987500I0J250000D01*
G01*
X142875000Y-66362500D01*
G75*
G02*
X143125000Y-66112500I250000J0D01*
G01*
G37*
G36*
G01*
X87550000Y-100225000D02*
X86250000Y-100225000D01*
G75*
G02*
X86000000Y-99975000I0J250000D01*
G01*
X86000000Y-99325000D01*
G75*
G02*
X86250000Y-99075000I250000J0D01*
G01*
X87550000Y-99075000D01*
G75*
G02*
X87800000Y-99325000I0J-250000D01*
G01*
X87800000Y-99975000D01*
G75*
G02*
X87550000Y-100225000I-250000J0D01*
G01*
G37*
G36*
G01*
X87550000Y-97275000D02*
X86250000Y-97275000D01*
G75*
G02*
X86000000Y-97025000I0J250000D01*
G01*
X86000000Y-96375000D01*
G75*
G02*
X86250000Y-96125000I250000J0D01*
G01*
X87550000Y-96125000D01*
G75*
G02*
X87800000Y-96375000I0J-250000D01*
G01*
X87800000Y-97025000D01*
G75*
G02*
X87550000Y-97275000I-250000J0D01*
G01*
G37*
D12*
X95685051Y-109562500D03*
X96485051Y-109562500D03*
D13*
X97635051Y-109585000D03*
X98635051Y-109585000D03*
X99135051Y-109585000D03*
X100135051Y-109585000D03*
D12*
X101285051Y-109562500D03*
X102085051Y-109562500D03*
X102085051Y-109562500D03*
X101285051Y-109562500D03*
D13*
X100635051Y-109585000D03*
X99635051Y-109585000D03*
X98135051Y-109585000D03*
X97135051Y-109585000D03*
D12*
X96485051Y-109562500D03*
X95685051Y-109562500D03*
D14*
X94565051Y-110160000D03*
D15*
X94565051Y-114340000D03*
D14*
X103205051Y-110160000D03*
D15*
X103205051Y-114340000D03*
G36*
G01*
X92472551Y-105490000D02*
X92472551Y-105790000D01*
G75*
G02*
X92322551Y-105940000I-150000J0D01*
G01*
X91297551Y-105940000D01*
G75*
G02*
X91147551Y-105790000I0J150000D01*
G01*
X91147551Y-105490000D01*
G75*
G02*
X91297551Y-105340000I150000J0D01*
G01*
X92322551Y-105340000D01*
G75*
G02*
X92472551Y-105490000I0J-150000D01*
G01*
G37*
G36*
G01*
X92472551Y-104540000D02*
X92472551Y-104840000D01*
G75*
G02*
X92322551Y-104990000I-150000J0D01*
G01*
X91297551Y-104990000D01*
G75*
G02*
X91147551Y-104840000I0J150000D01*
G01*
X91147551Y-104540000D01*
G75*
G02*
X91297551Y-104390000I150000J0D01*
G01*
X92322551Y-104390000D01*
G75*
G02*
X92472551Y-104540000I0J-150000D01*
G01*
G37*
G36*
G01*
X92472551Y-103590000D02*
X92472551Y-103890000D01*
G75*
G02*
X92322551Y-104040000I-150000J0D01*
G01*
X91297551Y-104040000D01*
G75*
G02*
X91147551Y-103890000I0J150000D01*
G01*
X91147551Y-103590000D01*
G75*
G02*
X91297551Y-103440000I150000J0D01*
G01*
X92322551Y-103440000D01*
G75*
G02*
X92472551Y-103590000I0J-150000D01*
G01*
G37*
G36*
G01*
X90197551Y-103590000D02*
X90197551Y-103890000D01*
G75*
G02*
X90047551Y-104040000I-150000J0D01*
G01*
X89022551Y-104040000D01*
G75*
G02*
X88872551Y-103890000I0J150000D01*
G01*
X88872551Y-103590000D01*
G75*
G02*
X89022551Y-103440000I150000J0D01*
G01*
X90047551Y-103440000D01*
G75*
G02*
X90197551Y-103590000I0J-150000D01*
G01*
G37*
G36*
G01*
X90197551Y-104540000D02*
X90197551Y-104840000D01*
G75*
G02*
X90047551Y-104990000I-150000J0D01*
G01*
X89022551Y-104990000D01*
G75*
G02*
X88872551Y-104840000I0J150000D01*
G01*
X88872551Y-104540000D01*
G75*
G02*
X89022551Y-104390000I150000J0D01*
G01*
X90047551Y-104390000D01*
G75*
G02*
X90197551Y-104540000I0J-150000D01*
G01*
G37*
G36*
G01*
X90197551Y-105490000D02*
X90197551Y-105790000D01*
G75*
G02*
X90047551Y-105940000I-150000J0D01*
G01*
X89022551Y-105940000D01*
G75*
G02*
X88872551Y-105790000I0J150000D01*
G01*
X88872551Y-105490000D01*
G75*
G02*
X89022551Y-105340000I150000J0D01*
G01*
X90047551Y-105340000D01*
G75*
G02*
X90197551Y-105490000I0J-150000D01*
G01*
G37*
G36*
G01*
X117600000Y-78100000D02*
X117600000Y-79400000D01*
G75*
G02*
X117350000Y-79650000I-250000J0D01*
G01*
X116700000Y-79650000D01*
G75*
G02*
X116450000Y-79400000I0J250000D01*
G01*
X116450000Y-78100000D01*
G75*
G02*
X116700000Y-77850000I250000J0D01*
G01*
X117350000Y-77850000D01*
G75*
G02*
X117600000Y-78100000I0J-250000D01*
G01*
G37*
G36*
G01*
X114650000Y-78100000D02*
X114650000Y-79400000D01*
G75*
G02*
X114400000Y-79650000I-250000J0D01*
G01*
X113750000Y-79650000D01*
G75*
G02*
X113500000Y-79400000I0J250000D01*
G01*
X113500000Y-78100000D01*
G75*
G02*
X113750000Y-77850000I250000J0D01*
G01*
X114400000Y-77850000D01*
G75*
G02*
X114650000Y-78100000I0J-250000D01*
G01*
G37*
G36*
G01*
X100585000Y-35065000D02*
X101835000Y-35065000D01*
G75*
G02*
X102085000Y-35315000I0J-250000D01*
G01*
X102085000Y-35940000D01*
G75*
G02*
X101835000Y-36190000I-250000J0D01*
G01*
X100585000Y-36190000D01*
G75*
G02*
X100335000Y-35940000I0J250000D01*
G01*
X100335000Y-35315000D01*
G75*
G02*
X100585000Y-35065000I250000J0D01*
G01*
G37*
G36*
G01*
X100585000Y-37990000D02*
X101835000Y-37990000D01*
G75*
G02*
X102085000Y-38240000I0J-250000D01*
G01*
X102085000Y-38865000D01*
G75*
G02*
X101835000Y-39115000I-250000J0D01*
G01*
X100585000Y-39115000D01*
G75*
G02*
X100335000Y-38865000I0J250000D01*
G01*
X100335000Y-38240000D01*
G75*
G02*
X100585000Y-37990000I250000J0D01*
G01*
G37*
G36*
G01*
X143800000Y-71450000D02*
X144100000Y-71450000D01*
G75*
G02*
X144250000Y-71600000I0J-150000D01*
G01*
X144250000Y-72625000D01*
G75*
G02*
X144100000Y-72775000I-150000J0D01*
G01*
X143800000Y-72775000D01*
G75*
G02*
X143650000Y-72625000I0J150000D01*
G01*
X143650000Y-71600000D01*
G75*
G02*
X143800000Y-71450000I150000J0D01*
G01*
G37*
G36*
G01*
X142850000Y-71450000D02*
X143150000Y-71450000D01*
G75*
G02*
X143300000Y-71600000I0J-150000D01*
G01*
X143300000Y-72625000D01*
G75*
G02*
X143150000Y-72775000I-150000J0D01*
G01*
X142850000Y-72775000D01*
G75*
G02*
X142700000Y-72625000I0J150000D01*
G01*
X142700000Y-71600000D01*
G75*
G02*
X142850000Y-71450000I150000J0D01*
G01*
G37*
G36*
G01*
X141900000Y-71450000D02*
X142200000Y-71450000D01*
G75*
G02*
X142350000Y-71600000I0J-150000D01*
G01*
X142350000Y-72625000D01*
G75*
G02*
X142200000Y-72775000I-150000J0D01*
G01*
X141900000Y-72775000D01*
G75*
G02*
X141750000Y-72625000I0J150000D01*
G01*
X141750000Y-71600000D01*
G75*
G02*
X141900000Y-71450000I150000J0D01*
G01*
G37*
G36*
G01*
X141900000Y-73725000D02*
X142200000Y-73725000D01*
G75*
G02*
X142350000Y-73875000I0J-150000D01*
G01*
X142350000Y-74900000D01*
G75*
G02*
X142200000Y-75050000I-150000J0D01*
G01*
X141900000Y-75050000D01*
G75*
G02*
X141750000Y-74900000I0J150000D01*
G01*
X141750000Y-73875000D01*
G75*
G02*
X141900000Y-73725000I150000J0D01*
G01*
G37*
G36*
G01*
X143800000Y-73725000D02*
X144100000Y-73725000D01*
G75*
G02*
X144250000Y-73875000I0J-150000D01*
G01*
X144250000Y-74900000D01*
G75*
G02*
X144100000Y-75050000I-150000J0D01*
G01*
X143800000Y-75050000D01*
G75*
G02*
X143650000Y-74900000I0J150000D01*
G01*
X143650000Y-73875000D01*
G75*
G02*
X143800000Y-73725000I150000J0D01*
G01*
G37*
G36*
G01*
X88650000Y-73650000D02*
X87350000Y-73650000D01*
G75*
G02*
X87100000Y-73400000I0J250000D01*
G01*
X87100000Y-72750000D01*
G75*
G02*
X87350000Y-72500000I250000J0D01*
G01*
X88650000Y-72500000D01*
G75*
G02*
X88900000Y-72750000I0J-250000D01*
G01*
X88900000Y-73400000D01*
G75*
G02*
X88650000Y-73650000I-250000J0D01*
G01*
G37*
G36*
G01*
X88650000Y-70700000D02*
X87350000Y-70700000D01*
G75*
G02*
X87100000Y-70450000I0J250000D01*
G01*
X87100000Y-69800000D01*
G75*
G02*
X87350000Y-69550000I250000J0D01*
G01*
X88650000Y-69550000D01*
G75*
G02*
X88900000Y-69800000I0J-250000D01*
G01*
X88900000Y-70450000D01*
G75*
G02*
X88650000Y-70700000I-250000J0D01*
G01*
G37*
G36*
G01*
X99390000Y-45950000D02*
X99390000Y-47250000D01*
G75*
G02*
X99140000Y-47500000I-250000J0D01*
G01*
X98490000Y-47500000D01*
G75*
G02*
X98240000Y-47250000I0J250000D01*
G01*
X98240000Y-45950000D01*
G75*
G02*
X98490000Y-45700000I250000J0D01*
G01*
X99140000Y-45700000D01*
G75*
G02*
X99390000Y-45950000I0J-250000D01*
G01*
G37*
G36*
G01*
X96440000Y-45950000D02*
X96440000Y-47250000D01*
G75*
G02*
X96190000Y-47500000I-250000J0D01*
G01*
X95540000Y-47500000D01*
G75*
G02*
X95290000Y-47250000I0J250000D01*
G01*
X95290000Y-45950000D01*
G75*
G02*
X95540000Y-45700000I250000J0D01*
G01*
X96190000Y-45700000D01*
G75*
G02*
X96440000Y-45950000I0J-250000D01*
G01*
G37*
G36*
G01*
X126750000Y-31787659D02*
X126750000Y-33087659D01*
G75*
G02*
X126500000Y-33337659I-250000J0D01*
G01*
X125850000Y-33337659D01*
G75*
G02*
X125600000Y-33087659I0J250000D01*
G01*
X125600000Y-31787659D01*
G75*
G02*
X125850000Y-31537659I250000J0D01*
G01*
X126500000Y-31537659D01*
G75*
G02*
X126750000Y-31787659I0J-250000D01*
G01*
G37*
G36*
G01*
X123800000Y-31787659D02*
X123800000Y-33087659D01*
G75*
G02*
X123550000Y-33337659I-250000J0D01*
G01*
X122900000Y-33337659D01*
G75*
G02*
X122650000Y-33087659I0J250000D01*
G01*
X122650000Y-31787659D01*
G75*
G02*
X122900000Y-31537659I250000J0D01*
G01*
X123550000Y-31537659D01*
G75*
G02*
X123800000Y-31787659I0J-250000D01*
G01*
G37*
G36*
G01*
X124625000Y-58825000D02*
X123375000Y-58825000D01*
G75*
G02*
X123125000Y-58575000I0J250000D01*
G01*
X123125000Y-57950000D01*
G75*
G02*
X123375000Y-57700000I250000J0D01*
G01*
X124625000Y-57700000D01*
G75*
G02*
X124875000Y-57950000I0J-250000D01*
G01*
X124875000Y-58575000D01*
G75*
G02*
X124625000Y-58825000I-250000J0D01*
G01*
G37*
G36*
G01*
X124625000Y-55900000D02*
X123375000Y-55900000D01*
G75*
G02*
X123125000Y-55650000I0J250000D01*
G01*
X123125000Y-55025000D01*
G75*
G02*
X123375000Y-54775000I250000J0D01*
G01*
X124625000Y-54775000D01*
G75*
G02*
X124875000Y-55025000I0J-250000D01*
G01*
X124875000Y-55650000D01*
G75*
G02*
X124625000Y-55900000I-250000J0D01*
G01*
G37*
G36*
G01*
X115375000Y-91975000D02*
X116625000Y-91975000D01*
G75*
G02*
X116875000Y-92225000I0J-250000D01*
G01*
X116875000Y-92850000D01*
G75*
G02*
X116625000Y-93100000I-250000J0D01*
G01*
X115375000Y-93100000D01*
G75*
G02*
X115125000Y-92850000I0J250000D01*
G01*
X115125000Y-92225000D01*
G75*
G02*
X115375000Y-91975000I250000J0D01*
G01*
G37*
G36*
G01*
X115375000Y-94900000D02*
X116625000Y-94900000D01*
G75*
G02*
X116875000Y-95150000I0J-250000D01*
G01*
X116875000Y-95775000D01*
G75*
G02*
X116625000Y-96025000I-250000J0D01*
G01*
X115375000Y-96025000D01*
G75*
G02*
X115125000Y-95775000I0J250000D01*
G01*
X115125000Y-95150000D01*
G75*
G02*
X115375000Y-94900000I250000J0D01*
G01*
G37*
G36*
G01*
X138250000Y-43950000D02*
X138250000Y-45250000D01*
G75*
G02*
X138000000Y-45500000I-250000J0D01*
G01*
X137350000Y-45500000D01*
G75*
G02*
X137100000Y-45250000I0J250000D01*
G01*
X137100000Y-43950000D01*
G75*
G02*
X137350000Y-43700000I250000J0D01*
G01*
X138000000Y-43700000D01*
G75*
G02*
X138250000Y-43950000I0J-250000D01*
G01*
G37*
G36*
G01*
X135300000Y-43950000D02*
X135300000Y-45250000D01*
G75*
G02*
X135050000Y-45500000I-250000J0D01*
G01*
X134400000Y-45500000D01*
G75*
G02*
X134150000Y-45250000I0J250000D01*
G01*
X134150000Y-43950000D01*
G75*
G02*
X134400000Y-43700000I250000J0D01*
G01*
X135050000Y-43700000D01*
G75*
G02*
X135300000Y-43950000I0J-250000D01*
G01*
G37*
G36*
G01*
X87160051Y-105965000D02*
X85910051Y-105965000D01*
G75*
G02*
X85660051Y-105715000I0J250000D01*
G01*
X85660051Y-105090000D01*
G75*
G02*
X85910051Y-104840000I250000J0D01*
G01*
X87160051Y-104840000D01*
G75*
G02*
X87410051Y-105090000I0J-250000D01*
G01*
X87410051Y-105715000D01*
G75*
G02*
X87160051Y-105965000I-250000J0D01*
G01*
G37*
G36*
G01*
X87160051Y-103040000D02*
X85910051Y-103040000D01*
G75*
G02*
X85660051Y-102790000I0J250000D01*
G01*
X85660051Y-102165000D01*
G75*
G02*
X85910051Y-101915000I250000J0D01*
G01*
X87160051Y-101915000D01*
G75*
G02*
X87410051Y-102165000I0J-250000D01*
G01*
X87410051Y-102790000D01*
G75*
G02*
X87160051Y-103040000I-250000J0D01*
G01*
G37*
G36*
G01*
X138225000Y-46412659D02*
X138225000Y-47662659D01*
G75*
G02*
X137975000Y-47912659I-250000J0D01*
G01*
X137350000Y-47912659D01*
G75*
G02*
X137100000Y-47662659I0J250000D01*
G01*
X137100000Y-46412659D01*
G75*
G02*
X137350000Y-46162659I250000J0D01*
G01*
X137975000Y-46162659D01*
G75*
G02*
X138225000Y-46412659I0J-250000D01*
G01*
G37*
G36*
G01*
X135300000Y-46412659D02*
X135300000Y-47662659D01*
G75*
G02*
X135050000Y-47912659I-250000J0D01*
G01*
X134425000Y-47912659D01*
G75*
G02*
X134175000Y-47662659I0J250000D01*
G01*
X134175000Y-46412659D01*
G75*
G02*
X134425000Y-46162659I250000J0D01*
G01*
X135050000Y-46162659D01*
G75*
G02*
X135300000Y-46412659I0J-250000D01*
G01*
G37*
G36*
G01*
X104100000Y-88100000D02*
X102800000Y-88100000D01*
G75*
G02*
X102550000Y-87850000I0J250000D01*
G01*
X102550000Y-87200000D01*
G75*
G02*
X102800000Y-86950000I250000J0D01*
G01*
X104100000Y-86950000D01*
G75*
G02*
X104350000Y-87200000I0J-250000D01*
G01*
X104350000Y-87850000D01*
G75*
G02*
X104100000Y-88100000I-250000J0D01*
G01*
G37*
G36*
G01*
X104100000Y-85150000D02*
X102800000Y-85150000D01*
G75*
G02*
X102550000Y-84900000I0J250000D01*
G01*
X102550000Y-84250000D01*
G75*
G02*
X102800000Y-84000000I250000J0D01*
G01*
X104100000Y-84000000D01*
G75*
G02*
X104350000Y-84250000I0J-250000D01*
G01*
X104350000Y-84900000D01*
G75*
G02*
X104100000Y-85150000I-250000J0D01*
G01*
G37*
G36*
G01*
X130850000Y-92200000D02*
X132150000Y-92200000D01*
G75*
G02*
X132400000Y-92450000I0J-250000D01*
G01*
X132400000Y-93100000D01*
G75*
G02*
X132150000Y-93350000I-250000J0D01*
G01*
X130850000Y-93350000D01*
G75*
G02*
X130600000Y-93100000I0J250000D01*
G01*
X130600000Y-92450000D01*
G75*
G02*
X130850000Y-92200000I250000J0D01*
G01*
G37*
G36*
G01*
X130850000Y-95150000D02*
X132150000Y-95150000D01*
G75*
G02*
X132400000Y-95400000I0J-250000D01*
G01*
X132400000Y-96050000D01*
G75*
G02*
X132150000Y-96300000I-250000J0D01*
G01*
X130850000Y-96300000D01*
G75*
G02*
X130600000Y-96050000I0J250000D01*
G01*
X130600000Y-95400000D01*
G75*
G02*
X130850000Y-95150000I250000J0D01*
G01*
G37*
G36*
G01*
X155050000Y-65125000D02*
X155050000Y-63375000D01*
G75*
G02*
X155275000Y-63150000I225000J0D01*
G01*
X156325000Y-63150000D01*
G75*
G02*
X156550000Y-63375000I0J-225000D01*
G01*
X156550000Y-65125000D01*
G75*
G02*
X156325000Y-65350000I-225000J0D01*
G01*
X155275000Y-65350000D01*
G75*
G02*
X155050000Y-65125000I0J225000D01*
G01*
G37*
G36*
G01*
X151950000Y-65125000D02*
X151950000Y-63375000D01*
G75*
G02*
X152175000Y-63150000I225000J0D01*
G01*
X153225000Y-63150000D01*
G75*
G02*
X153450000Y-63375000I0J-225000D01*
G01*
X153450000Y-65125000D01*
G75*
G02*
X153225000Y-65350000I-225000J0D01*
G01*
X152175000Y-65350000D01*
G75*
G02*
X151950000Y-65125000I0J225000D01*
G01*
G37*
G36*
G01*
X105465000Y-36155000D02*
X104215000Y-36155000D01*
G75*
G02*
X103965000Y-35905000I0J250000D01*
G01*
X103965000Y-35280000D01*
G75*
G02*
X104215000Y-35030000I250000J0D01*
G01*
X105465000Y-35030000D01*
G75*
G02*
X105715000Y-35280000I0J-250000D01*
G01*
X105715000Y-35905000D01*
G75*
G02*
X105465000Y-36155000I-250000J0D01*
G01*
G37*
G36*
G01*
X105465000Y-33230000D02*
X104215000Y-33230000D01*
G75*
G02*
X103965000Y-32980000I0J250000D01*
G01*
X103965000Y-32355000D01*
G75*
G02*
X104215000Y-32105000I250000J0D01*
G01*
X105465000Y-32105000D01*
G75*
G02*
X105715000Y-32355000I0J-250000D01*
G01*
X105715000Y-32980000D01*
G75*
G02*
X105465000Y-33230000I-250000J0D01*
G01*
G37*
G36*
G01*
X145350000Y-57950000D02*
X144050000Y-57950000D01*
G75*
G02*
X143800000Y-57700000I0J250000D01*
G01*
X143800000Y-57050000D01*
G75*
G02*
X144050000Y-56800000I250000J0D01*
G01*
X145350000Y-56800000D01*
G75*
G02*
X145600000Y-57050000I0J-250000D01*
G01*
X145600000Y-57700000D01*
G75*
G02*
X145350000Y-57950000I-250000J0D01*
G01*
G37*
G36*
G01*
X145350000Y-55000000D02*
X144050000Y-55000000D01*
G75*
G02*
X143800000Y-54750000I0J250000D01*
G01*
X143800000Y-54100000D01*
G75*
G02*
X144050000Y-53850000I250000J0D01*
G01*
X145350000Y-53850000D01*
G75*
G02*
X145600000Y-54100000I0J-250000D01*
G01*
X145600000Y-54750000D01*
G75*
G02*
X145350000Y-55000000I-250000J0D01*
G01*
G37*
G36*
G01*
X116100000Y-61737500D02*
X116100000Y-61937500D01*
G75*
G02*
X116000000Y-62037500I-100000J0D01*
G01*
X114725000Y-62037500D01*
G75*
G02*
X114625000Y-61937500I0J100000D01*
G01*
X114625000Y-61737500D01*
G75*
G02*
X114725000Y-61637500I100000J0D01*
G01*
X116000000Y-61637500D01*
G75*
G02*
X116100000Y-61737500I0J-100000D01*
G01*
G37*
G36*
G01*
X116100000Y-61087500D02*
X116100000Y-61287500D01*
G75*
G02*
X116000000Y-61387500I-100000J0D01*
G01*
X114725000Y-61387500D01*
G75*
G02*
X114625000Y-61287500I0J100000D01*
G01*
X114625000Y-61087500D01*
G75*
G02*
X114725000Y-60987500I100000J0D01*
G01*
X116000000Y-60987500D01*
G75*
G02*
X116100000Y-61087500I0J-100000D01*
G01*
G37*
G36*
G01*
X116100000Y-60437500D02*
X116100000Y-60637500D01*
G75*
G02*
X116000000Y-60737500I-100000J0D01*
G01*
X114725000Y-60737500D01*
G75*
G02*
X114625000Y-60637500I0J100000D01*
G01*
X114625000Y-60437500D01*
G75*
G02*
X114725000Y-60337500I100000J0D01*
G01*
X116000000Y-60337500D01*
G75*
G02*
X116100000Y-60437500I0J-100000D01*
G01*
G37*
G36*
G01*
X116100000Y-59787500D02*
X116100000Y-59987500D01*
G75*
G02*
X116000000Y-60087500I-100000J0D01*
G01*
X114725000Y-60087500D01*
G75*
G02*
X114625000Y-59987500I0J100000D01*
G01*
X114625000Y-59787500D01*
G75*
G02*
X114725000Y-59687500I100000J0D01*
G01*
X116000000Y-59687500D01*
G75*
G02*
X116100000Y-59787500I0J-100000D01*
G01*
G37*
G36*
G01*
X116100000Y-59137500D02*
X116100000Y-59337500D01*
G75*
G02*
X116000000Y-59437500I-100000J0D01*
G01*
X114725000Y-59437500D01*
G75*
G02*
X114625000Y-59337500I0J100000D01*
G01*
X114625000Y-59137500D01*
G75*
G02*
X114725000Y-59037500I100000J0D01*
G01*
X116000000Y-59037500D01*
G75*
G02*
X116100000Y-59137500I0J-100000D01*
G01*
G37*
G36*
G01*
X116100000Y-58487500D02*
X116100000Y-58687500D01*
G75*
G02*
X116000000Y-58787500I-100000J0D01*
G01*
X114725000Y-58787500D01*
G75*
G02*
X114625000Y-58687500I0J100000D01*
G01*
X114625000Y-58487500D01*
G75*
G02*
X114725000Y-58387500I100000J0D01*
G01*
X116000000Y-58387500D01*
G75*
G02*
X116100000Y-58487500I0J-100000D01*
G01*
G37*
G36*
G01*
X116100000Y-57837500D02*
X116100000Y-58037500D01*
G75*
G02*
X116000000Y-58137500I-100000J0D01*
G01*
X114725000Y-58137500D01*
G75*
G02*
X114625000Y-58037500I0J100000D01*
G01*
X114625000Y-57837500D01*
G75*
G02*
X114725000Y-57737500I100000J0D01*
G01*
X116000000Y-57737500D01*
G75*
G02*
X116100000Y-57837500I0J-100000D01*
G01*
G37*
G36*
G01*
X116100000Y-57187500D02*
X116100000Y-57387500D01*
G75*
G02*
X116000000Y-57487500I-100000J0D01*
G01*
X114725000Y-57487500D01*
G75*
G02*
X114625000Y-57387500I0J100000D01*
G01*
X114625000Y-57187500D01*
G75*
G02*
X114725000Y-57087500I100000J0D01*
G01*
X116000000Y-57087500D01*
G75*
G02*
X116100000Y-57187500I0J-100000D01*
G01*
G37*
G36*
G01*
X110375000Y-57187500D02*
X110375000Y-57387500D01*
G75*
G02*
X110275000Y-57487500I-100000J0D01*
G01*
X109000000Y-57487500D01*
G75*
G02*
X108900000Y-57387500I0J100000D01*
G01*
X108900000Y-57187500D01*
G75*
G02*
X109000000Y-57087500I100000J0D01*
G01*
X110275000Y-57087500D01*
G75*
G02*
X110375000Y-57187500I0J-100000D01*
G01*
G37*
G36*
G01*
X110375000Y-57837500D02*
X110375000Y-58037500D01*
G75*
G02*
X110275000Y-58137500I-100000J0D01*
G01*
X109000000Y-58137500D01*
G75*
G02*
X108900000Y-58037500I0J100000D01*
G01*
X108900000Y-57837500D01*
G75*
G02*
X109000000Y-57737500I100000J0D01*
G01*
X110275000Y-57737500D01*
G75*
G02*
X110375000Y-57837500I0J-100000D01*
G01*
G37*
G36*
G01*
X110375000Y-58487500D02*
X110375000Y-58687500D01*
G75*
G02*
X110275000Y-58787500I-100000J0D01*
G01*
X109000000Y-58787500D01*
G75*
G02*
X108900000Y-58687500I0J100000D01*
G01*
X108900000Y-58487500D01*
G75*
G02*
X109000000Y-58387500I100000J0D01*
G01*
X110275000Y-58387500D01*
G75*
G02*
X110375000Y-58487500I0J-100000D01*
G01*
G37*
G36*
G01*
X110375000Y-59137500D02*
X110375000Y-59337500D01*
G75*
G02*
X110275000Y-59437500I-100000J0D01*
G01*
X109000000Y-59437500D01*
G75*
G02*
X108900000Y-59337500I0J100000D01*
G01*
X108900000Y-59137500D01*
G75*
G02*
X109000000Y-59037500I100000J0D01*
G01*
X110275000Y-59037500D01*
G75*
G02*
X110375000Y-59137500I0J-100000D01*
G01*
G37*
G36*
G01*
X110375000Y-59787500D02*
X110375000Y-59987500D01*
G75*
G02*
X110275000Y-60087500I-100000J0D01*
G01*
X109000000Y-60087500D01*
G75*
G02*
X108900000Y-59987500I0J100000D01*
G01*
X108900000Y-59787500D01*
G75*
G02*
X109000000Y-59687500I100000J0D01*
G01*
X110275000Y-59687500D01*
G75*
G02*
X110375000Y-59787500I0J-100000D01*
G01*
G37*
G36*
G01*
X110375000Y-60437500D02*
X110375000Y-60637500D01*
G75*
G02*
X110275000Y-60737500I-100000J0D01*
G01*
X109000000Y-60737500D01*
G75*
G02*
X108900000Y-60637500I0J100000D01*
G01*
X108900000Y-60437500D01*
G75*
G02*
X109000000Y-60337500I100000J0D01*
G01*
X110275000Y-60337500D01*
G75*
G02*
X110375000Y-60437500I0J-100000D01*
G01*
G37*
G36*
G01*
X110375000Y-61087500D02*
X110375000Y-61287500D01*
G75*
G02*
X110275000Y-61387500I-100000J0D01*
G01*
X109000000Y-61387500D01*
G75*
G02*
X108900000Y-61287500I0J100000D01*
G01*
X108900000Y-61087500D01*
G75*
G02*
X109000000Y-60987500I100000J0D01*
G01*
X110275000Y-60987500D01*
G75*
G02*
X110375000Y-61087500I0J-100000D01*
G01*
G37*
G36*
G01*
X110375000Y-61737500D02*
X110375000Y-61937500D01*
G75*
G02*
X110275000Y-62037500I-100000J0D01*
G01*
X109000000Y-62037500D01*
G75*
G02*
X108900000Y-61937500I0J100000D01*
G01*
X108900000Y-61737500D01*
G75*
G02*
X109000000Y-61637500I100000J0D01*
G01*
X110275000Y-61637500D01*
G75*
G02*
X110375000Y-61737500I0J-100000D01*
G01*
G37*
D11*
X107060000Y-87800000D03*
X112140000Y-87800000D03*
X112140000Y-83800000D03*
X107060000Y-83800000D03*
G36*
G01*
X84660051Y-105965000D02*
X83410051Y-105965000D01*
G75*
G02*
X83160051Y-105715000I0J250000D01*
G01*
X83160051Y-105090000D01*
G75*
G02*
X83410051Y-104840000I250000J0D01*
G01*
X84660051Y-104840000D01*
G75*
G02*
X84910051Y-105090000I0J-250000D01*
G01*
X84910051Y-105715000D01*
G75*
G02*
X84660051Y-105965000I-250000J0D01*
G01*
G37*
G36*
G01*
X84660051Y-103040000D02*
X83410051Y-103040000D01*
G75*
G02*
X83160051Y-102790000I0J250000D01*
G01*
X83160051Y-102165000D01*
G75*
G02*
X83410051Y-101915000I250000J0D01*
G01*
X84660051Y-101915000D01*
G75*
G02*
X84910051Y-102165000I0J-250000D01*
G01*
X84910051Y-102790000D01*
G75*
G02*
X84660051Y-103040000I-250000J0D01*
G01*
G37*
G36*
G01*
X138125000Y-110525000D02*
X136875000Y-110525000D01*
G75*
G02*
X136625000Y-110275000I0J250000D01*
G01*
X136625000Y-109650000D01*
G75*
G02*
X136875000Y-109400000I250000J0D01*
G01*
X138125000Y-109400000D01*
G75*
G02*
X138375000Y-109650000I0J-250000D01*
G01*
X138375000Y-110275000D01*
G75*
G02*
X138125000Y-110525000I-250000J0D01*
G01*
G37*
G36*
G01*
X138125000Y-107600000D02*
X136875000Y-107600000D01*
G75*
G02*
X136625000Y-107350000I0J250000D01*
G01*
X136625000Y-106725000D01*
G75*
G02*
X136875000Y-106475000I250000J0D01*
G01*
X138125000Y-106475000D01*
G75*
G02*
X138375000Y-106725000I0J-250000D01*
G01*
X138375000Y-107350000D01*
G75*
G02*
X138125000Y-107600000I-250000J0D01*
G01*
G37*
G36*
G01*
X133970000Y-100700000D02*
X135270000Y-100700000D01*
G75*
G02*
X135520000Y-100950000I0J-250000D01*
G01*
X135520000Y-101600000D01*
G75*
G02*
X135270000Y-101850000I-250000J0D01*
G01*
X133970000Y-101850000D01*
G75*
G02*
X133720000Y-101600000I0J250000D01*
G01*
X133720000Y-100950000D01*
G75*
G02*
X133970000Y-100700000I250000J0D01*
G01*
G37*
G36*
G01*
X133970000Y-103650000D02*
X135270000Y-103650000D01*
G75*
G02*
X135520000Y-103900000I0J-250000D01*
G01*
X135520000Y-104550000D01*
G75*
G02*
X135270000Y-104800000I-250000J0D01*
G01*
X133970000Y-104800000D01*
G75*
G02*
X133720000Y-104550000I0J250000D01*
G01*
X133720000Y-103900000D01*
G75*
G02*
X133970000Y-103650000I250000J0D01*
G01*
G37*
G36*
G01*
X129360000Y-106815000D02*
X129360000Y-106965000D01*
G75*
G02*
X129285000Y-107040000I-75000J0D01*
G01*
X127960000Y-107040000D01*
G75*
G02*
X127885000Y-106965000I0J75000D01*
G01*
X127885000Y-106815000D01*
G75*
G02*
X127960000Y-106740000I75000J0D01*
G01*
X129285000Y-106740000D01*
G75*
G02*
X129360000Y-106815000I0J-75000D01*
G01*
G37*
G36*
G01*
X129360000Y-106315000D02*
X129360000Y-106465000D01*
G75*
G02*
X129285000Y-106540000I-75000J0D01*
G01*
X127960000Y-106540000D01*
G75*
G02*
X127885000Y-106465000I0J75000D01*
G01*
X127885000Y-106315000D01*
G75*
G02*
X127960000Y-106240000I75000J0D01*
G01*
X129285000Y-106240000D01*
G75*
G02*
X129360000Y-106315000I0J-75000D01*
G01*
G37*
G36*
G01*
X129360000Y-105815000D02*
X129360000Y-105965000D01*
G75*
G02*
X129285000Y-106040000I-75000J0D01*
G01*
X127960000Y-106040000D01*
G75*
G02*
X127885000Y-105965000I0J75000D01*
G01*
X127885000Y-105815000D01*
G75*
G02*
X127960000Y-105740000I75000J0D01*
G01*
X129285000Y-105740000D01*
G75*
G02*
X129360000Y-105815000I0J-75000D01*
G01*
G37*
G36*
G01*
X129360000Y-105315000D02*
X129360000Y-105465000D01*
G75*
G02*
X129285000Y-105540000I-75000J0D01*
G01*
X127960000Y-105540000D01*
G75*
G02*
X127885000Y-105465000I0J75000D01*
G01*
X127885000Y-105315000D01*
G75*
G02*
X127960000Y-105240000I75000J0D01*
G01*
X129285000Y-105240000D01*
G75*
G02*
X129360000Y-105315000I0J-75000D01*
G01*
G37*
G36*
G01*
X129360000Y-104815000D02*
X129360000Y-104965000D01*
G75*
G02*
X129285000Y-105040000I-75000J0D01*
G01*
X127960000Y-105040000D01*
G75*
G02*
X127885000Y-104965000I0J75000D01*
G01*
X127885000Y-104815000D01*
G75*
G02*
X127960000Y-104740000I75000J0D01*
G01*
X129285000Y-104740000D01*
G75*
G02*
X129360000Y-104815000I0J-75000D01*
G01*
G37*
G36*
G01*
X129360000Y-104315000D02*
X129360000Y-104465000D01*
G75*
G02*
X129285000Y-104540000I-75000J0D01*
G01*
X127960000Y-104540000D01*
G75*
G02*
X127885000Y-104465000I0J75000D01*
G01*
X127885000Y-104315000D01*
G75*
G02*
X127960000Y-104240000I75000J0D01*
G01*
X129285000Y-104240000D01*
G75*
G02*
X129360000Y-104315000I0J-75000D01*
G01*
G37*
G36*
G01*
X129360000Y-103815000D02*
X129360000Y-103965000D01*
G75*
G02*
X129285000Y-104040000I-75000J0D01*
G01*
X127960000Y-104040000D01*
G75*
G02*
X127885000Y-103965000I0J75000D01*
G01*
X127885000Y-103815000D01*
G75*
G02*
X127960000Y-103740000I75000J0D01*
G01*
X129285000Y-103740000D01*
G75*
G02*
X129360000Y-103815000I0J-75000D01*
G01*
G37*
G36*
G01*
X129360000Y-103315000D02*
X129360000Y-103465000D01*
G75*
G02*
X129285000Y-103540000I-75000J0D01*
G01*
X127960000Y-103540000D01*
G75*
G02*
X127885000Y-103465000I0J75000D01*
G01*
X127885000Y-103315000D01*
G75*
G02*
X127960000Y-103240000I75000J0D01*
G01*
X129285000Y-103240000D01*
G75*
G02*
X129360000Y-103315000I0J-75000D01*
G01*
G37*
G36*
G01*
X129360000Y-102815000D02*
X129360000Y-102965000D01*
G75*
G02*
X129285000Y-103040000I-75000J0D01*
G01*
X127960000Y-103040000D01*
G75*
G02*
X127885000Y-102965000I0J75000D01*
G01*
X127885000Y-102815000D01*
G75*
G02*
X127960000Y-102740000I75000J0D01*
G01*
X129285000Y-102740000D01*
G75*
G02*
X129360000Y-102815000I0J-75000D01*
G01*
G37*
G36*
G01*
X129360000Y-102315000D02*
X129360000Y-102465000D01*
G75*
G02*
X129285000Y-102540000I-75000J0D01*
G01*
X127960000Y-102540000D01*
G75*
G02*
X127885000Y-102465000I0J75000D01*
G01*
X127885000Y-102315000D01*
G75*
G02*
X127960000Y-102240000I75000J0D01*
G01*
X129285000Y-102240000D01*
G75*
G02*
X129360000Y-102315000I0J-75000D01*
G01*
G37*
G36*
G01*
X129360000Y-101815000D02*
X129360000Y-101965000D01*
G75*
G02*
X129285000Y-102040000I-75000J0D01*
G01*
X127960000Y-102040000D01*
G75*
G02*
X127885000Y-101965000I0J75000D01*
G01*
X127885000Y-101815000D01*
G75*
G02*
X127960000Y-101740000I75000J0D01*
G01*
X129285000Y-101740000D01*
G75*
G02*
X129360000Y-101815000I0J-75000D01*
G01*
G37*
G36*
G01*
X129360000Y-101315000D02*
X129360000Y-101465000D01*
G75*
G02*
X129285000Y-101540000I-75000J0D01*
G01*
X127960000Y-101540000D01*
G75*
G02*
X127885000Y-101465000I0J75000D01*
G01*
X127885000Y-101315000D01*
G75*
G02*
X127960000Y-101240000I75000J0D01*
G01*
X129285000Y-101240000D01*
G75*
G02*
X129360000Y-101315000I0J-75000D01*
G01*
G37*
G36*
G01*
X127360000Y-99315000D02*
X127360000Y-100640000D01*
G75*
G02*
X127285000Y-100715000I-75000J0D01*
G01*
X127135000Y-100715000D01*
G75*
G02*
X127060000Y-100640000I0J75000D01*
G01*
X127060000Y-99315000D01*
G75*
G02*
X127135000Y-99240000I75000J0D01*
G01*
X127285000Y-99240000D01*
G75*
G02*
X127360000Y-99315000I0J-75000D01*
G01*
G37*
G36*
G01*
X126860000Y-99315000D02*
X126860000Y-100640000D01*
G75*
G02*
X126785000Y-100715000I-75000J0D01*
G01*
X126635000Y-100715000D01*
G75*
G02*
X126560000Y-100640000I0J75000D01*
G01*
X126560000Y-99315000D01*
G75*
G02*
X126635000Y-99240000I75000J0D01*
G01*
X126785000Y-99240000D01*
G75*
G02*
X126860000Y-99315000I0J-75000D01*
G01*
G37*
G36*
G01*
X126360000Y-99315000D02*
X126360000Y-100640000D01*
G75*
G02*
X126285000Y-100715000I-75000J0D01*
G01*
X126135000Y-100715000D01*
G75*
G02*
X126060000Y-100640000I0J75000D01*
G01*
X126060000Y-99315000D01*
G75*
G02*
X126135000Y-99240000I75000J0D01*
G01*
X126285000Y-99240000D01*
G75*
G02*
X126360000Y-99315000I0J-75000D01*
G01*
G37*
G36*
G01*
X125860000Y-99315000D02*
X125860000Y-100640000D01*
G75*
G02*
X125785000Y-100715000I-75000J0D01*
G01*
X125635000Y-100715000D01*
G75*
G02*
X125560000Y-100640000I0J75000D01*
G01*
X125560000Y-99315000D01*
G75*
G02*
X125635000Y-99240000I75000J0D01*
G01*
X125785000Y-99240000D01*
G75*
G02*
X125860000Y-99315000I0J-75000D01*
G01*
G37*
G36*
G01*
X125360000Y-99315000D02*
X125360000Y-100640000D01*
G75*
G02*
X125285000Y-100715000I-75000J0D01*
G01*
X125135000Y-100715000D01*
G75*
G02*
X125060000Y-100640000I0J75000D01*
G01*
X125060000Y-99315000D01*
G75*
G02*
X125135000Y-99240000I75000J0D01*
G01*
X125285000Y-99240000D01*
G75*
G02*
X125360000Y-99315000I0J-75000D01*
G01*
G37*
G36*
G01*
X124860000Y-99315000D02*
X124860000Y-100640000D01*
G75*
G02*
X124785000Y-100715000I-75000J0D01*
G01*
X124635000Y-100715000D01*
G75*
G02*
X124560000Y-100640000I0J75000D01*
G01*
X124560000Y-99315000D01*
G75*
G02*
X124635000Y-99240000I75000J0D01*
G01*
X124785000Y-99240000D01*
G75*
G02*
X124860000Y-99315000I0J-75000D01*
G01*
G37*
G36*
G01*
X124360000Y-99315000D02*
X124360000Y-100640000D01*
G75*
G02*
X124285000Y-100715000I-75000J0D01*
G01*
X124135000Y-100715000D01*
G75*
G02*
X124060000Y-100640000I0J75000D01*
G01*
X124060000Y-99315000D01*
G75*
G02*
X124135000Y-99240000I75000J0D01*
G01*
X124285000Y-99240000D01*
G75*
G02*
X124360000Y-99315000I0J-75000D01*
G01*
G37*
G36*
G01*
X123860000Y-99315000D02*
X123860000Y-100640000D01*
G75*
G02*
X123785000Y-100715000I-75000J0D01*
G01*
X123635000Y-100715000D01*
G75*
G02*
X123560000Y-100640000I0J75000D01*
G01*
X123560000Y-99315000D01*
G75*
G02*
X123635000Y-99240000I75000J0D01*
G01*
X123785000Y-99240000D01*
G75*
G02*
X123860000Y-99315000I0J-75000D01*
G01*
G37*
G36*
G01*
X123360000Y-99315000D02*
X123360000Y-100640000D01*
G75*
G02*
X123285000Y-100715000I-75000J0D01*
G01*
X123135000Y-100715000D01*
G75*
G02*
X123060000Y-100640000I0J75000D01*
G01*
X123060000Y-99315000D01*
G75*
G02*
X123135000Y-99240000I75000J0D01*
G01*
X123285000Y-99240000D01*
G75*
G02*
X123360000Y-99315000I0J-75000D01*
G01*
G37*
G36*
G01*
X122860000Y-99315000D02*
X122860000Y-100640000D01*
G75*
G02*
X122785000Y-100715000I-75000J0D01*
G01*
X122635000Y-100715000D01*
G75*
G02*
X122560000Y-100640000I0J75000D01*
G01*
X122560000Y-99315000D01*
G75*
G02*
X122635000Y-99240000I75000J0D01*
G01*
X122785000Y-99240000D01*
G75*
G02*
X122860000Y-99315000I0J-75000D01*
G01*
G37*
G36*
G01*
X122360000Y-99315000D02*
X122360000Y-100640000D01*
G75*
G02*
X122285000Y-100715000I-75000J0D01*
G01*
X122135000Y-100715000D01*
G75*
G02*
X122060000Y-100640000I0J75000D01*
G01*
X122060000Y-99315000D01*
G75*
G02*
X122135000Y-99240000I75000J0D01*
G01*
X122285000Y-99240000D01*
G75*
G02*
X122360000Y-99315000I0J-75000D01*
G01*
G37*
G36*
G01*
X121860000Y-99315000D02*
X121860000Y-100640000D01*
G75*
G02*
X121785000Y-100715000I-75000J0D01*
G01*
X121635000Y-100715000D01*
G75*
G02*
X121560000Y-100640000I0J75000D01*
G01*
X121560000Y-99315000D01*
G75*
G02*
X121635000Y-99240000I75000J0D01*
G01*
X121785000Y-99240000D01*
G75*
G02*
X121860000Y-99315000I0J-75000D01*
G01*
G37*
G36*
G01*
X121035000Y-101315000D02*
X121035000Y-101465000D01*
G75*
G02*
X120960000Y-101540000I-75000J0D01*
G01*
X119635000Y-101540000D01*
G75*
G02*
X119560000Y-101465000I0J75000D01*
G01*
X119560000Y-101315000D01*
G75*
G02*
X119635000Y-101240000I75000J0D01*
G01*
X120960000Y-101240000D01*
G75*
G02*
X121035000Y-101315000I0J-75000D01*
G01*
G37*
G36*
G01*
X121035000Y-101815000D02*
X121035000Y-101965000D01*
G75*
G02*
X120960000Y-102040000I-75000J0D01*
G01*
X119635000Y-102040000D01*
G75*
G02*
X119560000Y-101965000I0J75000D01*
G01*
X119560000Y-101815000D01*
G75*
G02*
X119635000Y-101740000I75000J0D01*
G01*
X120960000Y-101740000D01*
G75*
G02*
X121035000Y-101815000I0J-75000D01*
G01*
G37*
G36*
G01*
X121035000Y-102315000D02*
X121035000Y-102465000D01*
G75*
G02*
X120960000Y-102540000I-75000J0D01*
G01*
X119635000Y-102540000D01*
G75*
G02*
X119560000Y-102465000I0J75000D01*
G01*
X119560000Y-102315000D01*
G75*
G02*
X119635000Y-102240000I75000J0D01*
G01*
X120960000Y-102240000D01*
G75*
G02*
X121035000Y-102315000I0J-75000D01*
G01*
G37*
G36*
G01*
X121035000Y-102815000D02*
X121035000Y-102965000D01*
G75*
G02*
X120960000Y-103040000I-75000J0D01*
G01*
X119635000Y-103040000D01*
G75*
G02*
X119560000Y-102965000I0J75000D01*
G01*
X119560000Y-102815000D01*
G75*
G02*
X119635000Y-102740000I75000J0D01*
G01*
X120960000Y-102740000D01*
G75*
G02*
X121035000Y-102815000I0J-75000D01*
G01*
G37*
G36*
G01*
X121035000Y-103315000D02*
X121035000Y-103465000D01*
G75*
G02*
X120960000Y-103540000I-75000J0D01*
G01*
X119635000Y-103540000D01*
G75*
G02*
X119560000Y-103465000I0J75000D01*
G01*
X119560000Y-103315000D01*
G75*
G02*
X119635000Y-103240000I75000J0D01*
G01*
X120960000Y-103240000D01*
G75*
G02*
X121035000Y-103315000I0J-75000D01*
G01*
G37*
G36*
G01*
X121035000Y-103815000D02*
X121035000Y-103965000D01*
G75*
G02*
X120960000Y-104040000I-75000J0D01*
G01*
X119635000Y-104040000D01*
G75*
G02*
X119560000Y-103965000I0J75000D01*
G01*
X119560000Y-103815000D01*
G75*
G02*
X119635000Y-103740000I75000J0D01*
G01*
X120960000Y-103740000D01*
G75*
G02*
X121035000Y-103815000I0J-75000D01*
G01*
G37*
G36*
G01*
X121035000Y-104315000D02*
X121035000Y-104465000D01*
G75*
G02*
X120960000Y-104540000I-75000J0D01*
G01*
X119635000Y-104540000D01*
G75*
G02*
X119560000Y-104465000I0J75000D01*
G01*
X119560000Y-104315000D01*
G75*
G02*
X119635000Y-104240000I75000J0D01*
G01*
X120960000Y-104240000D01*
G75*
G02*
X121035000Y-104315000I0J-75000D01*
G01*
G37*
G36*
G01*
X121035000Y-104815000D02*
X121035000Y-104965000D01*
G75*
G02*
X120960000Y-105040000I-75000J0D01*
G01*
X119635000Y-105040000D01*
G75*
G02*
X119560000Y-104965000I0J75000D01*
G01*
X119560000Y-104815000D01*
G75*
G02*
X119635000Y-104740000I75000J0D01*
G01*
X120960000Y-104740000D01*
G75*
G02*
X121035000Y-104815000I0J-75000D01*
G01*
G37*
G36*
G01*
X121035000Y-105315000D02*
X121035000Y-105465000D01*
G75*
G02*
X120960000Y-105540000I-75000J0D01*
G01*
X119635000Y-105540000D01*
G75*
G02*
X119560000Y-105465000I0J75000D01*
G01*
X119560000Y-105315000D01*
G75*
G02*
X119635000Y-105240000I75000J0D01*
G01*
X120960000Y-105240000D01*
G75*
G02*
X121035000Y-105315000I0J-75000D01*
G01*
G37*
G36*
G01*
X121035000Y-105815000D02*
X121035000Y-105965000D01*
G75*
G02*
X120960000Y-106040000I-75000J0D01*
G01*
X119635000Y-106040000D01*
G75*
G02*
X119560000Y-105965000I0J75000D01*
G01*
X119560000Y-105815000D01*
G75*
G02*
X119635000Y-105740000I75000J0D01*
G01*
X120960000Y-105740000D01*
G75*
G02*
X121035000Y-105815000I0J-75000D01*
G01*
G37*
G36*
G01*
X121035000Y-106315000D02*
X121035000Y-106465000D01*
G75*
G02*
X120960000Y-106540000I-75000J0D01*
G01*
X119635000Y-106540000D01*
G75*
G02*
X119560000Y-106465000I0J75000D01*
G01*
X119560000Y-106315000D01*
G75*
G02*
X119635000Y-106240000I75000J0D01*
G01*
X120960000Y-106240000D01*
G75*
G02*
X121035000Y-106315000I0J-75000D01*
G01*
G37*
G36*
G01*
X121035000Y-106815000D02*
X121035000Y-106965000D01*
G75*
G02*
X120960000Y-107040000I-75000J0D01*
G01*
X119635000Y-107040000D01*
G75*
G02*
X119560000Y-106965000I0J75000D01*
G01*
X119560000Y-106815000D01*
G75*
G02*
X119635000Y-106740000I75000J0D01*
G01*
X120960000Y-106740000D01*
G75*
G02*
X121035000Y-106815000I0J-75000D01*
G01*
G37*
G36*
G01*
X121860000Y-107640000D02*
X121860000Y-108965000D01*
G75*
G02*
X121785000Y-109040000I-75000J0D01*
G01*
X121635000Y-109040000D01*
G75*
G02*
X121560000Y-108965000I0J75000D01*
G01*
X121560000Y-107640000D01*
G75*
G02*
X121635000Y-107565000I75000J0D01*
G01*
X121785000Y-107565000D01*
G75*
G02*
X121860000Y-107640000I0J-75000D01*
G01*
G37*
G36*
G01*
X122360000Y-107640000D02*
X122360000Y-108965000D01*
G75*
G02*
X122285000Y-109040000I-75000J0D01*
G01*
X122135000Y-109040000D01*
G75*
G02*
X122060000Y-108965000I0J75000D01*
G01*
X122060000Y-107640000D01*
G75*
G02*
X122135000Y-107565000I75000J0D01*
G01*
X122285000Y-107565000D01*
G75*
G02*
X122360000Y-107640000I0J-75000D01*
G01*
G37*
G36*
G01*
X122860000Y-107640000D02*
X122860000Y-108965000D01*
G75*
G02*
X122785000Y-109040000I-75000J0D01*
G01*
X122635000Y-109040000D01*
G75*
G02*
X122560000Y-108965000I0J75000D01*
G01*
X122560000Y-107640000D01*
G75*
G02*
X122635000Y-107565000I75000J0D01*
G01*
X122785000Y-107565000D01*
G75*
G02*
X122860000Y-107640000I0J-75000D01*
G01*
G37*
G36*
G01*
X123360000Y-107640000D02*
X123360000Y-108965000D01*
G75*
G02*
X123285000Y-109040000I-75000J0D01*
G01*
X123135000Y-109040000D01*
G75*
G02*
X123060000Y-108965000I0J75000D01*
G01*
X123060000Y-107640000D01*
G75*
G02*
X123135000Y-107565000I75000J0D01*
G01*
X123285000Y-107565000D01*
G75*
G02*
X123360000Y-107640000I0J-75000D01*
G01*
G37*
G36*
G01*
X123860000Y-107640000D02*
X123860000Y-108965000D01*
G75*
G02*
X123785000Y-109040000I-75000J0D01*
G01*
X123635000Y-109040000D01*
G75*
G02*
X123560000Y-108965000I0J75000D01*
G01*
X123560000Y-107640000D01*
G75*
G02*
X123635000Y-107565000I75000J0D01*
G01*
X123785000Y-107565000D01*
G75*
G02*
X123860000Y-107640000I0J-75000D01*
G01*
G37*
G36*
G01*
X124360000Y-107640000D02*
X124360000Y-108965000D01*
G75*
G02*
X124285000Y-109040000I-75000J0D01*
G01*
X124135000Y-109040000D01*
G75*
G02*
X124060000Y-108965000I0J75000D01*
G01*
X124060000Y-107640000D01*
G75*
G02*
X124135000Y-107565000I75000J0D01*
G01*
X124285000Y-107565000D01*
G75*
G02*
X124360000Y-107640000I0J-75000D01*
G01*
G37*
G36*
G01*
X124860000Y-107640000D02*
X124860000Y-108965000D01*
G75*
G02*
X124785000Y-109040000I-75000J0D01*
G01*
X124635000Y-109040000D01*
G75*
G02*
X124560000Y-108965000I0J75000D01*
G01*
X124560000Y-107640000D01*
G75*
G02*
X124635000Y-107565000I75000J0D01*
G01*
X124785000Y-107565000D01*
G75*
G02*
X124860000Y-107640000I0J-75000D01*
G01*
G37*
G36*
G01*
X125360000Y-107640000D02*
X125360000Y-108965000D01*
G75*
G02*
X125285000Y-109040000I-75000J0D01*
G01*
X125135000Y-109040000D01*
G75*
G02*
X125060000Y-108965000I0J75000D01*
G01*
X125060000Y-107640000D01*
G75*
G02*
X125135000Y-107565000I75000J0D01*
G01*
X125285000Y-107565000D01*
G75*
G02*
X125360000Y-107640000I0J-75000D01*
G01*
G37*
G36*
G01*
X125860000Y-107640000D02*
X125860000Y-108965000D01*
G75*
G02*
X125785000Y-109040000I-75000J0D01*
G01*
X125635000Y-109040000D01*
G75*
G02*
X125560000Y-108965000I0J75000D01*
G01*
X125560000Y-107640000D01*
G75*
G02*
X125635000Y-107565000I75000J0D01*
G01*
X125785000Y-107565000D01*
G75*
G02*
X125860000Y-107640000I0J-75000D01*
G01*
G37*
G36*
G01*
X126360000Y-107640000D02*
X126360000Y-108965000D01*
G75*
G02*
X126285000Y-109040000I-75000J0D01*
G01*
X126135000Y-109040000D01*
G75*
G02*
X126060000Y-108965000I0J75000D01*
G01*
X126060000Y-107640000D01*
G75*
G02*
X126135000Y-107565000I75000J0D01*
G01*
X126285000Y-107565000D01*
G75*
G02*
X126360000Y-107640000I0J-75000D01*
G01*
G37*
G36*
G01*
X126860000Y-107640000D02*
X126860000Y-108965000D01*
G75*
G02*
X126785000Y-109040000I-75000J0D01*
G01*
X126635000Y-109040000D01*
G75*
G02*
X126560000Y-108965000I0J75000D01*
G01*
X126560000Y-107640000D01*
G75*
G02*
X126635000Y-107565000I75000J0D01*
G01*
X126785000Y-107565000D01*
G75*
G02*
X126860000Y-107640000I0J-75000D01*
G01*
G37*
G36*
G01*
X127360000Y-107640000D02*
X127360000Y-108965000D01*
G75*
G02*
X127285000Y-109040000I-75000J0D01*
G01*
X127135000Y-109040000D01*
G75*
G02*
X127060000Y-108965000I0J75000D01*
G01*
X127060000Y-107640000D01*
G75*
G02*
X127135000Y-107565000I75000J0D01*
G01*
X127285000Y-107565000D01*
G75*
G02*
X127360000Y-107640000I0J-75000D01*
G01*
G37*
G36*
G01*
X140275000Y-112875000D02*
X140275000Y-114125000D01*
G75*
G02*
X140025000Y-114375000I-250000J0D01*
G01*
X139400000Y-114375000D01*
G75*
G02*
X139150000Y-114125000I0J250000D01*
G01*
X139150000Y-112875000D01*
G75*
G02*
X139400000Y-112625000I250000J0D01*
G01*
X140025000Y-112625000D01*
G75*
G02*
X140275000Y-112875000I0J-250000D01*
G01*
G37*
G36*
G01*
X137350000Y-112875000D02*
X137350000Y-114125000D01*
G75*
G02*
X137100000Y-114375000I-250000J0D01*
G01*
X136475000Y-114375000D01*
G75*
G02*
X136225000Y-114125000I0J250000D01*
G01*
X136225000Y-112875000D01*
G75*
G02*
X136475000Y-112625000I250000J0D01*
G01*
X137100000Y-112625000D01*
G75*
G02*
X137350000Y-112875000I0J-250000D01*
G01*
G37*
G36*
G01*
X95740000Y-35610000D02*
X95740000Y-36910000D01*
G75*
G02*
X95490000Y-37160000I-250000J0D01*
G01*
X94840000Y-37160000D01*
G75*
G02*
X94590000Y-36910000I0J250000D01*
G01*
X94590000Y-35610000D01*
G75*
G02*
X94840000Y-35360000I250000J0D01*
G01*
X95490000Y-35360000D01*
G75*
G02*
X95740000Y-35610000I0J-250000D01*
G01*
G37*
G36*
G01*
X92790000Y-35610000D02*
X92790000Y-36910000D01*
G75*
G02*
X92540000Y-37160000I-250000J0D01*
G01*
X91890000Y-37160000D01*
G75*
G02*
X91640000Y-36910000I0J250000D01*
G01*
X91640000Y-35610000D01*
G75*
G02*
X91890000Y-35360000I250000J0D01*
G01*
X92540000Y-35360000D01*
G75*
G02*
X92790000Y-35610000I0J-250000D01*
G01*
G37*
G36*
G01*
X94860000Y-29435000D02*
X94860000Y-29135000D01*
G75*
G02*
X95010000Y-28985000I150000J0D01*
G01*
X96660000Y-28985000D01*
G75*
G02*
X96810000Y-29135000I0J-150000D01*
G01*
X96810000Y-29435000D01*
G75*
G02*
X96660000Y-29585000I-150000J0D01*
G01*
X95010000Y-29585000D01*
G75*
G02*
X94860000Y-29435000I0J150000D01*
G01*
G37*
G36*
G01*
X94860000Y-30705000D02*
X94860000Y-30405000D01*
G75*
G02*
X95010000Y-30255000I150000J0D01*
G01*
X96660000Y-30255000D01*
G75*
G02*
X96810000Y-30405000I0J-150000D01*
G01*
X96810000Y-30705000D01*
G75*
G02*
X96660000Y-30855000I-150000J0D01*
G01*
X95010000Y-30855000D01*
G75*
G02*
X94860000Y-30705000I0J150000D01*
G01*
G37*
G36*
G01*
X94860000Y-31975000D02*
X94860000Y-31675000D01*
G75*
G02*
X95010000Y-31525000I150000J0D01*
G01*
X96660000Y-31525000D01*
G75*
G02*
X96810000Y-31675000I0J-150000D01*
G01*
X96810000Y-31975000D01*
G75*
G02*
X96660000Y-32125000I-150000J0D01*
G01*
X95010000Y-32125000D01*
G75*
G02*
X94860000Y-31975000I0J150000D01*
G01*
G37*
G36*
G01*
X94860000Y-33245000D02*
X94860000Y-32945000D01*
G75*
G02*
X95010000Y-32795000I150000J0D01*
G01*
X96660000Y-32795000D01*
G75*
G02*
X96810000Y-32945000I0J-150000D01*
G01*
X96810000Y-33245000D01*
G75*
G02*
X96660000Y-33395000I-150000J0D01*
G01*
X95010000Y-33395000D01*
G75*
G02*
X94860000Y-33245000I0J150000D01*
G01*
G37*
G36*
G01*
X99810000Y-33245000D02*
X99810000Y-32945000D01*
G75*
G02*
X99960000Y-32795000I150000J0D01*
G01*
X101610000Y-32795000D01*
G75*
G02*
X101760000Y-32945000I0J-150000D01*
G01*
X101760000Y-33245000D01*
G75*
G02*
X101610000Y-33395000I-150000J0D01*
G01*
X99960000Y-33395000D01*
G75*
G02*
X99810000Y-33245000I0J150000D01*
G01*
G37*
G36*
G01*
X99810000Y-31975000D02*
X99810000Y-31675000D01*
G75*
G02*
X99960000Y-31525000I150000J0D01*
G01*
X101610000Y-31525000D01*
G75*
G02*
X101760000Y-31675000I0J-150000D01*
G01*
X101760000Y-31975000D01*
G75*
G02*
X101610000Y-32125000I-150000J0D01*
G01*
X99960000Y-32125000D01*
G75*
G02*
X99810000Y-31975000I0J150000D01*
G01*
G37*
G36*
G01*
X99810000Y-30705000D02*
X99810000Y-30405000D01*
G75*
G02*
X99960000Y-30255000I150000J0D01*
G01*
X101610000Y-30255000D01*
G75*
G02*
X101760000Y-30405000I0J-150000D01*
G01*
X101760000Y-30705000D01*
G75*
G02*
X101610000Y-30855000I-150000J0D01*
G01*
X99960000Y-30855000D01*
G75*
G02*
X99810000Y-30705000I0J150000D01*
G01*
G37*
G36*
G01*
X99810000Y-29435000D02*
X99810000Y-29135000D01*
G75*
G02*
X99960000Y-28985000I150000J0D01*
G01*
X101610000Y-28985000D01*
G75*
G02*
X101760000Y-29135000I0J-150000D01*
G01*
X101760000Y-29435000D01*
G75*
G02*
X101610000Y-29585000I-150000J0D01*
G01*
X99960000Y-29585000D01*
G75*
G02*
X99810000Y-29435000I0J150000D01*
G01*
G37*
G36*
G01*
X107935000Y-35115000D02*
X106685000Y-35115000D01*
G75*
G02*
X106435000Y-34865000I0J250000D01*
G01*
X106435000Y-34240000D01*
G75*
G02*
X106685000Y-33990000I250000J0D01*
G01*
X107935000Y-33990000D01*
G75*
G02*
X108185000Y-34240000I0J-250000D01*
G01*
X108185000Y-34865000D01*
G75*
G02*
X107935000Y-35115000I-250000J0D01*
G01*
G37*
G36*
G01*
X107935000Y-32190000D02*
X106685000Y-32190000D01*
G75*
G02*
X106435000Y-31940000I0J250000D01*
G01*
X106435000Y-31315000D01*
G75*
G02*
X106685000Y-31065000I250000J0D01*
G01*
X107935000Y-31065000D01*
G75*
G02*
X108185000Y-31315000I0J-250000D01*
G01*
X108185000Y-31940000D01*
G75*
G02*
X107935000Y-32190000I-250000J0D01*
G01*
G37*
G36*
G01*
X84675000Y-59487500D02*
X85925000Y-59487500D01*
G75*
G02*
X86175000Y-59737500I0J-250000D01*
G01*
X86175000Y-60362500D01*
G75*
G02*
X85925000Y-60612500I-250000J0D01*
G01*
X84675000Y-60612500D01*
G75*
G02*
X84425000Y-60362500I0J250000D01*
G01*
X84425000Y-59737500D01*
G75*
G02*
X84675000Y-59487500I250000J0D01*
G01*
G37*
G36*
G01*
X84675000Y-62412500D02*
X85925000Y-62412500D01*
G75*
G02*
X86175000Y-62662500I0J-250000D01*
G01*
X86175000Y-63287500D01*
G75*
G02*
X85925000Y-63537500I-250000J0D01*
G01*
X84675000Y-63537500D01*
G75*
G02*
X84425000Y-63287500I0J250000D01*
G01*
X84425000Y-62662500D01*
G75*
G02*
X84675000Y-62412500I250000J0D01*
G01*
G37*
G36*
G01*
X112850000Y-30787659D02*
X112850000Y-29487659D01*
G75*
G02*
X113100000Y-29237659I250000J0D01*
G01*
X113750000Y-29237659D01*
G75*
G02*
X114000000Y-29487659I0J-250000D01*
G01*
X114000000Y-30787659D01*
G75*
G02*
X113750000Y-31037659I-250000J0D01*
G01*
X113100000Y-31037659D01*
G75*
G02*
X112850000Y-30787659I0J250000D01*
G01*
G37*
G36*
G01*
X115800000Y-30787659D02*
X115800000Y-29487659D01*
G75*
G02*
X116050000Y-29237659I250000J0D01*
G01*
X116700000Y-29237659D01*
G75*
G02*
X116950000Y-29487659I0J-250000D01*
G01*
X116950000Y-30787659D01*
G75*
G02*
X116700000Y-31037659I-250000J0D01*
G01*
X116050000Y-31037659D01*
G75*
G02*
X115800000Y-30787659I0J250000D01*
G01*
G37*
G36*
G01*
X136850000Y-100700000D02*
X138150000Y-100700000D01*
G75*
G02*
X138400000Y-100950000I0J-250000D01*
G01*
X138400000Y-101600000D01*
G75*
G02*
X138150000Y-101850000I-250000J0D01*
G01*
X136850000Y-101850000D01*
G75*
G02*
X136600000Y-101600000I0J250000D01*
G01*
X136600000Y-100950000D01*
G75*
G02*
X136850000Y-100700000I250000J0D01*
G01*
G37*
G36*
G01*
X136850000Y-103650000D02*
X138150000Y-103650000D01*
G75*
G02*
X138400000Y-103900000I0J-250000D01*
G01*
X138400000Y-104550000D01*
G75*
G02*
X138150000Y-104800000I-250000J0D01*
G01*
X136850000Y-104800000D01*
G75*
G02*
X136600000Y-104550000I0J250000D01*
G01*
X136600000Y-103900000D01*
G75*
G02*
X136850000Y-103650000I250000J0D01*
G01*
G37*
G36*
G01*
X106275000Y-97875000D02*
X106275000Y-99125000D01*
G75*
G02*
X106025000Y-99375000I-250000J0D01*
G01*
X105400000Y-99375000D01*
G75*
G02*
X105150000Y-99125000I0J250000D01*
G01*
X105150000Y-97875000D01*
G75*
G02*
X105400000Y-97625000I250000J0D01*
G01*
X106025000Y-97625000D01*
G75*
G02*
X106275000Y-97875000I0J-250000D01*
G01*
G37*
G36*
G01*
X103350000Y-97875000D02*
X103350000Y-99125000D01*
G75*
G02*
X103100000Y-99375000I-250000J0D01*
G01*
X102475000Y-99375000D01*
G75*
G02*
X102225000Y-99125000I0J250000D01*
G01*
X102225000Y-97875000D01*
G75*
G02*
X102475000Y-97625000I250000J0D01*
G01*
X103100000Y-97625000D01*
G75*
G02*
X103350000Y-97875000I0J-250000D01*
G01*
G37*
G36*
G01*
X84360000Y-30850000D02*
X85660000Y-30850000D01*
G75*
G02*
X85910000Y-31100000I0J-250000D01*
G01*
X85910000Y-31750000D01*
G75*
G02*
X85660000Y-32000000I-250000J0D01*
G01*
X84360000Y-32000000D01*
G75*
G02*
X84110000Y-31750000I0J250000D01*
G01*
X84110000Y-31100000D01*
G75*
G02*
X84360000Y-30850000I250000J0D01*
G01*
G37*
G36*
G01*
X84360000Y-33800000D02*
X85660000Y-33800000D01*
G75*
G02*
X85910000Y-34050000I0J-250000D01*
G01*
X85910000Y-34700000D01*
G75*
G02*
X85660000Y-34950000I-250000J0D01*
G01*
X84360000Y-34950000D01*
G75*
G02*
X84110000Y-34700000I0J250000D01*
G01*
X84110000Y-34050000D01*
G75*
G02*
X84360000Y-33800000I250000J0D01*
G01*
G37*
G36*
G01*
X92700000Y-98775000D02*
X92700000Y-100075000D01*
G75*
G02*
X92450000Y-100325000I-250000J0D01*
G01*
X91800000Y-100325000D01*
G75*
G02*
X91550000Y-100075000I0J250000D01*
G01*
X91550000Y-98775000D01*
G75*
G02*
X91800000Y-98525000I250000J0D01*
G01*
X92450000Y-98525000D01*
G75*
G02*
X92700000Y-98775000I0J-250000D01*
G01*
G37*
G36*
G01*
X89750000Y-98775000D02*
X89750000Y-100075000D01*
G75*
G02*
X89500000Y-100325000I-250000J0D01*
G01*
X88850000Y-100325000D01*
G75*
G02*
X88600000Y-100075000I0J250000D01*
G01*
X88600000Y-98775000D01*
G75*
G02*
X88850000Y-98525000I250000J0D01*
G01*
X89500000Y-98525000D01*
G75*
G02*
X89750000Y-98775000I0J-250000D01*
G01*
G37*
G36*
G01*
X145225000Y-52025000D02*
X143975000Y-52025000D01*
G75*
G02*
X143725000Y-51775000I0J250000D01*
G01*
X143725000Y-51150000D01*
G75*
G02*
X143975000Y-50900000I250000J0D01*
G01*
X145225000Y-50900000D01*
G75*
G02*
X145475000Y-51150000I0J-250000D01*
G01*
X145475000Y-51775000D01*
G75*
G02*
X145225000Y-52025000I-250000J0D01*
G01*
G37*
G36*
G01*
X145225000Y-49100000D02*
X143975000Y-49100000D01*
G75*
G02*
X143725000Y-48850000I0J250000D01*
G01*
X143725000Y-48225000D01*
G75*
G02*
X143975000Y-47975000I250000J0D01*
G01*
X145225000Y-47975000D01*
G75*
G02*
X145475000Y-48225000I0J-250000D01*
G01*
X145475000Y-48850000D01*
G75*
G02*
X145225000Y-49100000I-250000J0D01*
G01*
G37*
G36*
G01*
X103010051Y-107290000D02*
X101760051Y-107290000D01*
G75*
G02*
X101510051Y-107040000I0J250000D01*
G01*
X101510051Y-106415000D01*
G75*
G02*
X101760051Y-106165000I250000J0D01*
G01*
X103010051Y-106165000D01*
G75*
G02*
X103260051Y-106415000I0J-250000D01*
G01*
X103260051Y-107040000D01*
G75*
G02*
X103010051Y-107290000I-250000J0D01*
G01*
G37*
G36*
G01*
X103010051Y-104365000D02*
X101760051Y-104365000D01*
G75*
G02*
X101510051Y-104115000I0J250000D01*
G01*
X101510051Y-103490000D01*
G75*
G02*
X101760051Y-103240000I250000J0D01*
G01*
X103010051Y-103240000D01*
G75*
G02*
X103260051Y-103490000I0J-250000D01*
G01*
X103260051Y-104115000D01*
G75*
G02*
X103010051Y-104365000I-250000J0D01*
G01*
G37*
G36*
G01*
X91375000Y-63825000D02*
X91375000Y-62575000D01*
G75*
G02*
X91625000Y-62325000I250000J0D01*
G01*
X92250000Y-62325000D01*
G75*
G02*
X92500000Y-62575000I0J-250000D01*
G01*
X92500000Y-63825000D01*
G75*
G02*
X92250000Y-64075000I-250000J0D01*
G01*
X91625000Y-64075000D01*
G75*
G02*
X91375000Y-63825000I0J250000D01*
G01*
G37*
G36*
G01*
X94300000Y-63825000D02*
X94300000Y-62575000D01*
G75*
G02*
X94550000Y-62325000I250000J0D01*
G01*
X95175000Y-62325000D01*
G75*
G02*
X95425000Y-62575000I0J-250000D01*
G01*
X95425000Y-63825000D01*
G75*
G02*
X95175000Y-64075000I-250000J0D01*
G01*
X94550000Y-64075000D01*
G75*
G02*
X94300000Y-63825000I0J250000D01*
G01*
G37*
G36*
G01*
X124050000Y-115125000D02*
X124050000Y-113375000D01*
G75*
G02*
X124275000Y-113150000I225000J0D01*
G01*
X125325000Y-113150000D01*
G75*
G02*
X125550000Y-113375000I0J-225000D01*
G01*
X125550000Y-115125000D01*
G75*
G02*
X125325000Y-115350000I-225000J0D01*
G01*
X124275000Y-115350000D01*
G75*
G02*
X124050000Y-115125000I0J225000D01*
G01*
G37*
G36*
G01*
X120950000Y-115125000D02*
X120950000Y-113375000D01*
G75*
G02*
X121175000Y-113150000I225000J0D01*
G01*
X122225000Y-113150000D01*
G75*
G02*
X122450000Y-113375000I0J-225000D01*
G01*
X122450000Y-115125000D01*
G75*
G02*
X122225000Y-115350000I-225000J0D01*
G01*
X121175000Y-115350000D01*
G75*
G02*
X120950000Y-115125000I0J225000D01*
G01*
G37*
G36*
G01*
X150125000Y-43075000D02*
X150125000Y-44325000D01*
G75*
G02*
X149875000Y-44575000I-250000J0D01*
G01*
X149250000Y-44575000D01*
G75*
G02*
X149000000Y-44325000I0J250000D01*
G01*
X149000000Y-43075000D01*
G75*
G02*
X149250000Y-42825000I250000J0D01*
G01*
X149875000Y-42825000D01*
G75*
G02*
X150125000Y-43075000I0J-250000D01*
G01*
G37*
G36*
G01*
X147200000Y-43075000D02*
X147200000Y-44325000D01*
G75*
G02*
X146950000Y-44575000I-250000J0D01*
G01*
X146325000Y-44575000D01*
G75*
G02*
X146075000Y-44325000I0J250000D01*
G01*
X146075000Y-43075000D01*
G75*
G02*
X146325000Y-42825000I250000J0D01*
G01*
X146950000Y-42825000D01*
G75*
G02*
X147200000Y-43075000I0J-250000D01*
G01*
G37*
G36*
G01*
X141575000Y-49475000D02*
X142825000Y-49475000D01*
G75*
G02*
X143075000Y-49725000I0J-250000D01*
G01*
X143075000Y-50350000D01*
G75*
G02*
X142825000Y-50600000I-250000J0D01*
G01*
X141575000Y-50600000D01*
G75*
G02*
X141325000Y-50350000I0J250000D01*
G01*
X141325000Y-49725000D01*
G75*
G02*
X141575000Y-49475000I250000J0D01*
G01*
G37*
G36*
G01*
X141575000Y-52400000D02*
X142825000Y-52400000D01*
G75*
G02*
X143075000Y-52650000I0J-250000D01*
G01*
X143075000Y-53275000D01*
G75*
G02*
X142825000Y-53525000I-250000J0D01*
G01*
X141575000Y-53525000D01*
G75*
G02*
X141325000Y-53275000I0J250000D01*
G01*
X141325000Y-52650000D01*
G75*
G02*
X141575000Y-52400000I250000J0D01*
G01*
G37*
G36*
G01*
X120550000Y-52850000D02*
X120550000Y-51550000D01*
G75*
G02*
X120800000Y-51300000I250000J0D01*
G01*
X121450000Y-51300000D01*
G75*
G02*
X121700000Y-51550000I0J-250000D01*
G01*
X121700000Y-52850000D01*
G75*
G02*
X121450000Y-53100000I-250000J0D01*
G01*
X120800000Y-53100000D01*
G75*
G02*
X120550000Y-52850000I0J250000D01*
G01*
G37*
G36*
G01*
X123500000Y-52850000D02*
X123500000Y-51550000D01*
G75*
G02*
X123750000Y-51300000I250000J0D01*
G01*
X124400000Y-51300000D01*
G75*
G02*
X124650000Y-51550000I0J-250000D01*
G01*
X124650000Y-52850000D01*
G75*
G02*
X124400000Y-53100000I-250000J0D01*
G01*
X123750000Y-53100000D01*
G75*
G02*
X123500000Y-52850000I0J250000D01*
G01*
G37*
G36*
G01*
X156550000Y-111375000D02*
X156550000Y-109625000D01*
G75*
G02*
X156775000Y-109400000I225000J0D01*
G01*
X157825000Y-109400000D01*
G75*
G02*
X158050000Y-109625000I0J-225000D01*
G01*
X158050000Y-111375000D01*
G75*
G02*
X157825000Y-111600000I-225000J0D01*
G01*
X156775000Y-111600000D01*
G75*
G02*
X156550000Y-111375000I0J225000D01*
G01*
G37*
G36*
G01*
X153450000Y-111375000D02*
X153450000Y-109625000D01*
G75*
G02*
X153675000Y-109400000I225000J0D01*
G01*
X154725000Y-109400000D01*
G75*
G02*
X154950000Y-109625000I0J-225000D01*
G01*
X154950000Y-111375000D01*
G75*
G02*
X154725000Y-111600000I-225000J0D01*
G01*
X153675000Y-111600000D01*
G75*
G02*
X153450000Y-111375000I0J225000D01*
G01*
G37*
G36*
G01*
X108592500Y-73225000D02*
X108592500Y-72655000D01*
G75*
G02*
X108842500Y-72405000I250000J0D01*
G01*
X109412500Y-72405000D01*
G75*
G02*
X109662500Y-72655000I0J-250000D01*
G01*
X109662500Y-73225000D01*
G75*
G02*
X109412500Y-73475000I-250000J0D01*
G01*
X108842500Y-73475000D01*
G75*
G02*
X108592500Y-73225000I0J250000D01*
G01*
G37*
G36*
G01*
X108592500Y-74545000D02*
X108592500Y-73975000D01*
G75*
G02*
X108842500Y-73725000I250000J0D01*
G01*
X109412500Y-73725000D01*
G75*
G02*
X109662500Y-73975000I0J-250000D01*
G01*
X109662500Y-74545000D01*
G75*
G02*
X109412500Y-74795000I-250000J0D01*
G01*
X108842500Y-74795000D01*
G75*
G02*
X108592500Y-74545000I0J250000D01*
G01*
G37*
G36*
G01*
X109912500Y-73225000D02*
X109912500Y-72655000D01*
G75*
G02*
X110162500Y-72405000I250000J0D01*
G01*
X110732500Y-72405000D01*
G75*
G02*
X110982500Y-72655000I0J-250000D01*
G01*
X110982500Y-73225000D01*
G75*
G02*
X110732500Y-73475000I-250000J0D01*
G01*
X110162500Y-73475000D01*
G75*
G02*
X109912500Y-73225000I0J250000D01*
G01*
G37*
G36*
G01*
X109912500Y-74545000D02*
X109912500Y-73975000D01*
G75*
G02*
X110162500Y-73725000I250000J0D01*
G01*
X110732500Y-73725000D01*
G75*
G02*
X110982500Y-73975000I0J-250000D01*
G01*
X110982500Y-74545000D01*
G75*
G02*
X110732500Y-74795000I-250000J0D01*
G01*
X110162500Y-74795000D01*
G75*
G02*
X109912500Y-74545000I0J250000D01*
G01*
G37*
G36*
G01*
X106987500Y-72425000D02*
X106987500Y-72275000D01*
G75*
G02*
X107062500Y-72200000I75000J0D01*
G01*
X108187500Y-72200000D01*
G75*
G02*
X108262500Y-72275000I0J-75000D01*
G01*
X108262500Y-72425000D01*
G75*
G02*
X108187500Y-72500000I-75000J0D01*
G01*
X107062500Y-72500000D01*
G75*
G02*
X106987500Y-72425000I0J75000D01*
G01*
G37*
G36*
G01*
X106987500Y-72925000D02*
X106987500Y-72775000D01*
G75*
G02*
X107062500Y-72700000I75000J0D01*
G01*
X108187500Y-72700000D01*
G75*
G02*
X108262500Y-72775000I0J-75000D01*
G01*
X108262500Y-72925000D01*
G75*
G02*
X108187500Y-73000000I-75000J0D01*
G01*
X107062500Y-73000000D01*
G75*
G02*
X106987500Y-72925000I0J75000D01*
G01*
G37*
G36*
G01*
X106987500Y-73425000D02*
X106987500Y-73275000D01*
G75*
G02*
X107062500Y-73200000I75000J0D01*
G01*
X108187500Y-73200000D01*
G75*
G02*
X108262500Y-73275000I0J-75000D01*
G01*
X108262500Y-73425000D01*
G75*
G02*
X108187500Y-73500000I-75000J0D01*
G01*
X107062500Y-73500000D01*
G75*
G02*
X106987500Y-73425000I0J75000D01*
G01*
G37*
G36*
G01*
X106987500Y-73925000D02*
X106987500Y-73775000D01*
G75*
G02*
X107062500Y-73700000I75000J0D01*
G01*
X108187500Y-73700000D01*
G75*
G02*
X108262500Y-73775000I0J-75000D01*
G01*
X108262500Y-73925000D01*
G75*
G02*
X108187500Y-74000000I-75000J0D01*
G01*
X107062500Y-74000000D01*
G75*
G02*
X106987500Y-73925000I0J75000D01*
G01*
G37*
G36*
G01*
X106987500Y-74425000D02*
X106987500Y-74275000D01*
G75*
G02*
X107062500Y-74200000I75000J0D01*
G01*
X108187500Y-74200000D01*
G75*
G02*
X108262500Y-74275000I0J-75000D01*
G01*
X108262500Y-74425000D01*
G75*
G02*
X108187500Y-74500000I-75000J0D01*
G01*
X107062500Y-74500000D01*
G75*
G02*
X106987500Y-74425000I0J75000D01*
G01*
G37*
G36*
G01*
X106987500Y-74925000D02*
X106987500Y-74775000D01*
G75*
G02*
X107062500Y-74700000I75000J0D01*
G01*
X108187500Y-74700000D01*
G75*
G02*
X108262500Y-74775000I0J-75000D01*
G01*
X108262500Y-74925000D01*
G75*
G02*
X108187500Y-75000000I-75000J0D01*
G01*
X107062500Y-75000000D01*
G75*
G02*
X106987500Y-74925000I0J75000D01*
G01*
G37*
G36*
G01*
X108387500Y-76325000D02*
X108387500Y-75200000D01*
G75*
G02*
X108462500Y-75125000I75000J0D01*
G01*
X108612500Y-75125000D01*
G75*
G02*
X108687500Y-75200000I0J-75000D01*
G01*
X108687500Y-76325000D01*
G75*
G02*
X108612500Y-76400000I-75000J0D01*
G01*
X108462500Y-76400000D01*
G75*
G02*
X108387500Y-76325000I0J75000D01*
G01*
G37*
G36*
G01*
X108887500Y-76325000D02*
X108887500Y-75200000D01*
G75*
G02*
X108962500Y-75125000I75000J0D01*
G01*
X109112500Y-75125000D01*
G75*
G02*
X109187500Y-75200000I0J-75000D01*
G01*
X109187500Y-76325000D01*
G75*
G02*
X109112500Y-76400000I-75000J0D01*
G01*
X108962500Y-76400000D01*
G75*
G02*
X108887500Y-76325000I0J75000D01*
G01*
G37*
G36*
G01*
X109387500Y-76325000D02*
X109387500Y-75200000D01*
G75*
G02*
X109462500Y-75125000I75000J0D01*
G01*
X109612500Y-75125000D01*
G75*
G02*
X109687500Y-75200000I0J-75000D01*
G01*
X109687500Y-76325000D01*
G75*
G02*
X109612500Y-76400000I-75000J0D01*
G01*
X109462500Y-76400000D01*
G75*
G02*
X109387500Y-76325000I0J75000D01*
G01*
G37*
G36*
G01*
X109887500Y-76325000D02*
X109887500Y-75200000D01*
G75*
G02*
X109962500Y-75125000I75000J0D01*
G01*
X110112500Y-75125000D01*
G75*
G02*
X110187500Y-75200000I0J-75000D01*
G01*
X110187500Y-76325000D01*
G75*
G02*
X110112500Y-76400000I-75000J0D01*
G01*
X109962500Y-76400000D01*
G75*
G02*
X109887500Y-76325000I0J75000D01*
G01*
G37*
G36*
G01*
X110387500Y-76325000D02*
X110387500Y-75200000D01*
G75*
G02*
X110462500Y-75125000I75000J0D01*
G01*
X110612500Y-75125000D01*
G75*
G02*
X110687500Y-75200000I0J-75000D01*
G01*
X110687500Y-76325000D01*
G75*
G02*
X110612500Y-76400000I-75000J0D01*
G01*
X110462500Y-76400000D01*
G75*
G02*
X110387500Y-76325000I0J75000D01*
G01*
G37*
G36*
G01*
X110887500Y-76325000D02*
X110887500Y-75200000D01*
G75*
G02*
X110962500Y-75125000I75000J0D01*
G01*
X111112500Y-75125000D01*
G75*
G02*
X111187500Y-75200000I0J-75000D01*
G01*
X111187500Y-76325000D01*
G75*
G02*
X111112500Y-76400000I-75000J0D01*
G01*
X110962500Y-76400000D01*
G75*
G02*
X110887500Y-76325000I0J75000D01*
G01*
G37*
G36*
G01*
X111312500Y-74925000D02*
X111312500Y-74775000D01*
G75*
G02*
X111387500Y-74700000I75000J0D01*
G01*
X112512500Y-74700000D01*
G75*
G02*
X112587500Y-74775000I0J-75000D01*
G01*
X112587500Y-74925000D01*
G75*
G02*
X112512500Y-75000000I-75000J0D01*
G01*
X111387500Y-75000000D01*
G75*
G02*
X111312500Y-74925000I0J75000D01*
G01*
G37*
G36*
G01*
X111312500Y-74425000D02*
X111312500Y-74275000D01*
G75*
G02*
X111387500Y-74200000I75000J0D01*
G01*
X112512500Y-74200000D01*
G75*
G02*
X112587500Y-74275000I0J-75000D01*
G01*
X112587500Y-74425000D01*
G75*
G02*
X112512500Y-74500000I-75000J0D01*
G01*
X111387500Y-74500000D01*
G75*
G02*
X111312500Y-74425000I0J75000D01*
G01*
G37*
G36*
G01*
X111312500Y-73925000D02*
X111312500Y-73775000D01*
G75*
G02*
X111387500Y-73700000I75000J0D01*
G01*
X112512500Y-73700000D01*
G75*
G02*
X112587500Y-73775000I0J-75000D01*
G01*
X112587500Y-73925000D01*
G75*
G02*
X112512500Y-74000000I-75000J0D01*
G01*
X111387500Y-74000000D01*
G75*
G02*
X111312500Y-73925000I0J75000D01*
G01*
G37*
G36*
G01*
X111312500Y-73425000D02*
X111312500Y-73275000D01*
G75*
G02*
X111387500Y-73200000I75000J0D01*
G01*
X112512500Y-73200000D01*
G75*
G02*
X112587500Y-73275000I0J-75000D01*
G01*
X112587500Y-73425000D01*
G75*
G02*
X112512500Y-73500000I-75000J0D01*
G01*
X111387500Y-73500000D01*
G75*
G02*
X111312500Y-73425000I0J75000D01*
G01*
G37*
G36*
G01*
X111312500Y-72925000D02*
X111312500Y-72775000D01*
G75*
G02*
X111387500Y-72700000I75000J0D01*
G01*
X112512500Y-72700000D01*
G75*
G02*
X112587500Y-72775000I0J-75000D01*
G01*
X112587500Y-72925000D01*
G75*
G02*
X112512500Y-73000000I-75000J0D01*
G01*
X111387500Y-73000000D01*
G75*
G02*
X111312500Y-72925000I0J75000D01*
G01*
G37*
G36*
G01*
X111312500Y-72425000D02*
X111312500Y-72275000D01*
G75*
G02*
X111387500Y-72200000I75000J0D01*
G01*
X112512500Y-72200000D01*
G75*
G02*
X112587500Y-72275000I0J-75000D01*
G01*
X112587500Y-72425000D01*
G75*
G02*
X112512500Y-72500000I-75000J0D01*
G01*
X111387500Y-72500000D01*
G75*
G02*
X111312500Y-72425000I0J75000D01*
G01*
G37*
G36*
G01*
X110887500Y-72000000D02*
X110887500Y-70875000D01*
G75*
G02*
X110962500Y-70800000I75000J0D01*
G01*
X111112500Y-70800000D01*
G75*
G02*
X111187500Y-70875000I0J-75000D01*
G01*
X111187500Y-72000000D01*
G75*
G02*
X111112500Y-72075000I-75000J0D01*
G01*
X110962500Y-72075000D01*
G75*
G02*
X110887500Y-72000000I0J75000D01*
G01*
G37*
G36*
G01*
X110387500Y-72000000D02*
X110387500Y-70875000D01*
G75*
G02*
X110462500Y-70800000I75000J0D01*
G01*
X110612500Y-70800000D01*
G75*
G02*
X110687500Y-70875000I0J-75000D01*
G01*
X110687500Y-72000000D01*
G75*
G02*
X110612500Y-72075000I-75000J0D01*
G01*
X110462500Y-72075000D01*
G75*
G02*
X110387500Y-72000000I0J75000D01*
G01*
G37*
G36*
G01*
X109887500Y-72000000D02*
X109887500Y-70875000D01*
G75*
G02*
X109962500Y-70800000I75000J0D01*
G01*
X110112500Y-70800000D01*
G75*
G02*
X110187500Y-70875000I0J-75000D01*
G01*
X110187500Y-72000000D01*
G75*
G02*
X110112500Y-72075000I-75000J0D01*
G01*
X109962500Y-72075000D01*
G75*
G02*
X109887500Y-72000000I0J75000D01*
G01*
G37*
G36*
G01*
X109387500Y-72000000D02*
X109387500Y-70875000D01*
G75*
G02*
X109462500Y-70800000I75000J0D01*
G01*
X109612500Y-70800000D01*
G75*
G02*
X109687500Y-70875000I0J-75000D01*
G01*
X109687500Y-72000000D01*
G75*
G02*
X109612500Y-72075000I-75000J0D01*
G01*
X109462500Y-72075000D01*
G75*
G02*
X109387500Y-72000000I0J75000D01*
G01*
G37*
G36*
G01*
X108887500Y-72000000D02*
X108887500Y-70875000D01*
G75*
G02*
X108962500Y-70800000I75000J0D01*
G01*
X109112500Y-70800000D01*
G75*
G02*
X109187500Y-70875000I0J-75000D01*
G01*
X109187500Y-72000000D01*
G75*
G02*
X109112500Y-72075000I-75000J0D01*
G01*
X108962500Y-72075000D01*
G75*
G02*
X108887500Y-72000000I0J75000D01*
G01*
G37*
G36*
G01*
X108387500Y-72000000D02*
X108387500Y-70875000D01*
G75*
G02*
X108462500Y-70800000I75000J0D01*
G01*
X108612500Y-70800000D01*
G75*
G02*
X108687500Y-70875000I0J-75000D01*
G01*
X108687500Y-72000000D01*
G75*
G02*
X108612500Y-72075000I-75000J0D01*
G01*
X108462500Y-72075000D01*
G75*
G02*
X108387500Y-72000000I0J75000D01*
G01*
G37*
G36*
G01*
X139875000Y-75275000D02*
X138625000Y-75275000D01*
G75*
G02*
X138375000Y-75025000I0J250000D01*
G01*
X138375000Y-74400000D01*
G75*
G02*
X138625000Y-74150000I250000J0D01*
G01*
X139875000Y-74150000D01*
G75*
G02*
X140125000Y-74400000I0J-250000D01*
G01*
X140125000Y-75025000D01*
G75*
G02*
X139875000Y-75275000I-250000J0D01*
G01*
G37*
G36*
G01*
X139875000Y-72350000D02*
X138625000Y-72350000D01*
G75*
G02*
X138375000Y-72100000I0J250000D01*
G01*
X138375000Y-71475000D01*
G75*
G02*
X138625000Y-71225000I250000J0D01*
G01*
X139875000Y-71225000D01*
G75*
G02*
X140125000Y-71475000I0J-250000D01*
G01*
X140125000Y-72100000D01*
G75*
G02*
X139875000Y-72350000I-250000J0D01*
G01*
G37*
G36*
G01*
X87375000Y-64475000D02*
X88625000Y-64475000D01*
G75*
G02*
X88875000Y-64725000I0J-250000D01*
G01*
X88875000Y-65350000D01*
G75*
G02*
X88625000Y-65600000I-250000J0D01*
G01*
X87375000Y-65600000D01*
G75*
G02*
X87125000Y-65350000I0J250000D01*
G01*
X87125000Y-64725000D01*
G75*
G02*
X87375000Y-64475000I250000J0D01*
G01*
G37*
G36*
G01*
X87375000Y-67400000D02*
X88625000Y-67400000D01*
G75*
G02*
X88875000Y-67650000I0J-250000D01*
G01*
X88875000Y-68275000D01*
G75*
G02*
X88625000Y-68525000I-250000J0D01*
G01*
X87375000Y-68525000D01*
G75*
G02*
X87125000Y-68275000I0J250000D01*
G01*
X87125000Y-67650000D01*
G75*
G02*
X87375000Y-67400000I250000J0D01*
G01*
G37*
G36*
G01*
X143450000Y-107450000D02*
X143450000Y-107150000D01*
G75*
G02*
X143600000Y-107000000I150000J0D01*
G01*
X144625000Y-107000000D01*
G75*
G02*
X144775000Y-107150000I0J-150000D01*
G01*
X144775000Y-107450000D01*
G75*
G02*
X144625000Y-107600000I-150000J0D01*
G01*
X143600000Y-107600000D01*
G75*
G02*
X143450000Y-107450000I0J150000D01*
G01*
G37*
G36*
G01*
X143450000Y-108400000D02*
X143450000Y-108100000D01*
G75*
G02*
X143600000Y-107950000I150000J0D01*
G01*
X144625000Y-107950000D01*
G75*
G02*
X144775000Y-108100000I0J-150000D01*
G01*
X144775000Y-108400000D01*
G75*
G02*
X144625000Y-108550000I-150000J0D01*
G01*
X143600000Y-108550000D01*
G75*
G02*
X143450000Y-108400000I0J150000D01*
G01*
G37*
G36*
G01*
X143450000Y-109350000D02*
X143450000Y-109050000D01*
G75*
G02*
X143600000Y-108900000I150000J0D01*
G01*
X144625000Y-108900000D01*
G75*
G02*
X144775000Y-109050000I0J-150000D01*
G01*
X144775000Y-109350000D01*
G75*
G02*
X144625000Y-109500000I-150000J0D01*
G01*
X143600000Y-109500000D01*
G75*
G02*
X143450000Y-109350000I0J150000D01*
G01*
G37*
G36*
G01*
X145725000Y-109350000D02*
X145725000Y-109050000D01*
G75*
G02*
X145875000Y-108900000I150000J0D01*
G01*
X146900000Y-108900000D01*
G75*
G02*
X147050000Y-109050000I0J-150000D01*
G01*
X147050000Y-109350000D01*
G75*
G02*
X146900000Y-109500000I-150000J0D01*
G01*
X145875000Y-109500000D01*
G75*
G02*
X145725000Y-109350000I0J150000D01*
G01*
G37*
G36*
G01*
X145725000Y-107450000D02*
X145725000Y-107150000D01*
G75*
G02*
X145875000Y-107000000I150000J0D01*
G01*
X146900000Y-107000000D01*
G75*
G02*
X147050000Y-107150000I0J-150000D01*
G01*
X147050000Y-107450000D01*
G75*
G02*
X146900000Y-107600000I-150000J0D01*
G01*
X145875000Y-107600000D01*
G75*
G02*
X145725000Y-107450000I0J150000D01*
G01*
G37*
G36*
G01*
X141225000Y-114125000D02*
X141225000Y-112875000D01*
G75*
G02*
X141475000Y-112625000I250000J0D01*
G01*
X142100000Y-112625000D01*
G75*
G02*
X142350000Y-112875000I0J-250000D01*
G01*
X142350000Y-114125000D01*
G75*
G02*
X142100000Y-114375000I-250000J0D01*
G01*
X141475000Y-114375000D01*
G75*
G02*
X141225000Y-114125000I0J250000D01*
G01*
G37*
G36*
G01*
X144150000Y-114125000D02*
X144150000Y-112875000D01*
G75*
G02*
X144400000Y-112625000I250000J0D01*
G01*
X145025000Y-112625000D01*
G75*
G02*
X145275000Y-112875000I0J-250000D01*
G01*
X145275000Y-114125000D01*
G75*
G02*
X145025000Y-114375000I-250000J0D01*
G01*
X144400000Y-114375000D01*
G75*
G02*
X144150000Y-114125000I0J250000D01*
G01*
G37*
G36*
G01*
X116950000Y-76600000D02*
X115650000Y-76600000D01*
G75*
G02*
X115400000Y-76350000I0J250000D01*
G01*
X115400000Y-75700000D01*
G75*
G02*
X115650000Y-75450000I250000J0D01*
G01*
X116950000Y-75450000D01*
G75*
G02*
X117200000Y-75700000I0J-250000D01*
G01*
X117200000Y-76350000D01*
G75*
G02*
X116950000Y-76600000I-250000J0D01*
G01*
G37*
G36*
G01*
X116950000Y-73650000D02*
X115650000Y-73650000D01*
G75*
G02*
X115400000Y-73400000I0J250000D01*
G01*
X115400000Y-72750000D01*
G75*
G02*
X115650000Y-72500000I250000J0D01*
G01*
X116950000Y-72500000D01*
G75*
G02*
X117200000Y-72750000I0J-250000D01*
G01*
X117200000Y-73400000D01*
G75*
G02*
X116950000Y-73650000I-250000J0D01*
G01*
G37*
G36*
G01*
X95225000Y-99375000D02*
X95225000Y-98125000D01*
G75*
G02*
X95475000Y-97875000I250000J0D01*
G01*
X96100000Y-97875000D01*
G75*
G02*
X96350000Y-98125000I0J-250000D01*
G01*
X96350000Y-99375000D01*
G75*
G02*
X96100000Y-99625000I-250000J0D01*
G01*
X95475000Y-99625000D01*
G75*
G02*
X95225000Y-99375000I0J250000D01*
G01*
G37*
G36*
G01*
X98150000Y-99375000D02*
X98150000Y-98125000D01*
G75*
G02*
X98400000Y-97875000I250000J0D01*
G01*
X99025000Y-97875000D01*
G75*
G02*
X99275000Y-98125000I0J-250000D01*
G01*
X99275000Y-99375000D01*
G75*
G02*
X99025000Y-99625000I-250000J0D01*
G01*
X98400000Y-99625000D01*
G75*
G02*
X98150000Y-99375000I0J250000D01*
G01*
G37*
G36*
G01*
X93235000Y-40140000D02*
X93435000Y-40140000D01*
G75*
G02*
X93535000Y-40240000I0J-100000D01*
G01*
X93535000Y-41515000D01*
G75*
G02*
X93435000Y-41615000I-100000J0D01*
G01*
X93235000Y-41615000D01*
G75*
G02*
X93135000Y-41515000I0J100000D01*
G01*
X93135000Y-40240000D01*
G75*
G02*
X93235000Y-40140000I100000J0D01*
G01*
G37*
G36*
G01*
X92585000Y-40140000D02*
X92785000Y-40140000D01*
G75*
G02*
X92885000Y-40240000I0J-100000D01*
G01*
X92885000Y-41515000D01*
G75*
G02*
X92785000Y-41615000I-100000J0D01*
G01*
X92585000Y-41615000D01*
G75*
G02*
X92485000Y-41515000I0J100000D01*
G01*
X92485000Y-40240000D01*
G75*
G02*
X92585000Y-40140000I100000J0D01*
G01*
G37*
G36*
G01*
X91935000Y-40140000D02*
X92135000Y-40140000D01*
G75*
G02*
X92235000Y-40240000I0J-100000D01*
G01*
X92235000Y-41515000D01*
G75*
G02*
X92135000Y-41615000I-100000J0D01*
G01*
X91935000Y-41615000D01*
G75*
G02*
X91835000Y-41515000I0J100000D01*
G01*
X91835000Y-40240000D01*
G75*
G02*
X91935000Y-40140000I100000J0D01*
G01*
G37*
G36*
G01*
X91285000Y-40140000D02*
X91485000Y-40140000D01*
G75*
G02*
X91585000Y-40240000I0J-100000D01*
G01*
X91585000Y-41515000D01*
G75*
G02*
X91485000Y-41615000I-100000J0D01*
G01*
X91285000Y-41615000D01*
G75*
G02*
X91185000Y-41515000I0J100000D01*
G01*
X91185000Y-40240000D01*
G75*
G02*
X91285000Y-40140000I100000J0D01*
G01*
G37*
G36*
G01*
X90635000Y-40140000D02*
X90835000Y-40140000D01*
G75*
G02*
X90935000Y-40240000I0J-100000D01*
G01*
X90935000Y-41515000D01*
G75*
G02*
X90835000Y-41615000I-100000J0D01*
G01*
X90635000Y-41615000D01*
G75*
G02*
X90535000Y-41515000I0J100000D01*
G01*
X90535000Y-40240000D01*
G75*
G02*
X90635000Y-40140000I100000J0D01*
G01*
G37*
G36*
G01*
X89985000Y-40140000D02*
X90185000Y-40140000D01*
G75*
G02*
X90285000Y-40240000I0J-100000D01*
G01*
X90285000Y-41515000D01*
G75*
G02*
X90185000Y-41615000I-100000J0D01*
G01*
X89985000Y-41615000D01*
G75*
G02*
X89885000Y-41515000I0J100000D01*
G01*
X89885000Y-40240000D01*
G75*
G02*
X89985000Y-40140000I100000J0D01*
G01*
G37*
G36*
G01*
X89335000Y-40140000D02*
X89535000Y-40140000D01*
G75*
G02*
X89635000Y-40240000I0J-100000D01*
G01*
X89635000Y-41515000D01*
G75*
G02*
X89535000Y-41615000I-100000J0D01*
G01*
X89335000Y-41615000D01*
G75*
G02*
X89235000Y-41515000I0J100000D01*
G01*
X89235000Y-40240000D01*
G75*
G02*
X89335000Y-40140000I100000J0D01*
G01*
G37*
G36*
G01*
X88685000Y-40140000D02*
X88885000Y-40140000D01*
G75*
G02*
X88985000Y-40240000I0J-100000D01*
G01*
X88985000Y-41515000D01*
G75*
G02*
X88885000Y-41615000I-100000J0D01*
G01*
X88685000Y-41615000D01*
G75*
G02*
X88585000Y-41515000I0J100000D01*
G01*
X88585000Y-40240000D01*
G75*
G02*
X88685000Y-40140000I100000J0D01*
G01*
G37*
G36*
G01*
X88685000Y-45865000D02*
X88885000Y-45865000D01*
G75*
G02*
X88985000Y-45965000I0J-100000D01*
G01*
X88985000Y-47240000D01*
G75*
G02*
X88885000Y-47340000I-100000J0D01*
G01*
X88685000Y-47340000D01*
G75*
G02*
X88585000Y-47240000I0J100000D01*
G01*
X88585000Y-45965000D01*
G75*
G02*
X88685000Y-45865000I100000J0D01*
G01*
G37*
G36*
G01*
X89335000Y-45865000D02*
X89535000Y-45865000D01*
G75*
G02*
X89635000Y-45965000I0J-100000D01*
G01*
X89635000Y-47240000D01*
G75*
G02*
X89535000Y-47340000I-100000J0D01*
G01*
X89335000Y-47340000D01*
G75*
G02*
X89235000Y-47240000I0J100000D01*
G01*
X89235000Y-45965000D01*
G75*
G02*
X89335000Y-45865000I100000J0D01*
G01*
G37*
G36*
G01*
X89985000Y-45865000D02*
X90185000Y-45865000D01*
G75*
G02*
X90285000Y-45965000I0J-100000D01*
G01*
X90285000Y-47240000D01*
G75*
G02*
X90185000Y-47340000I-100000J0D01*
G01*
X89985000Y-47340000D01*
G75*
G02*
X89885000Y-47240000I0J100000D01*
G01*
X89885000Y-45965000D01*
G75*
G02*
X89985000Y-45865000I100000J0D01*
G01*
G37*
G36*
G01*
X90635000Y-45865000D02*
X90835000Y-45865000D01*
G75*
G02*
X90935000Y-45965000I0J-100000D01*
G01*
X90935000Y-47240000D01*
G75*
G02*
X90835000Y-47340000I-100000J0D01*
G01*
X90635000Y-47340000D01*
G75*
G02*
X90535000Y-47240000I0J100000D01*
G01*
X90535000Y-45965000D01*
G75*
G02*
X90635000Y-45865000I100000J0D01*
G01*
G37*
G36*
G01*
X91285000Y-45865000D02*
X91485000Y-45865000D01*
G75*
G02*
X91585000Y-45965000I0J-100000D01*
G01*
X91585000Y-47240000D01*
G75*
G02*
X91485000Y-47340000I-100000J0D01*
G01*
X91285000Y-47340000D01*
G75*
G02*
X91185000Y-47240000I0J100000D01*
G01*
X91185000Y-45965000D01*
G75*
G02*
X91285000Y-45865000I100000J0D01*
G01*
G37*
G36*
G01*
X91935000Y-45865000D02*
X92135000Y-45865000D01*
G75*
G02*
X92235000Y-45965000I0J-100000D01*
G01*
X92235000Y-47240000D01*
G75*
G02*
X92135000Y-47340000I-100000J0D01*
G01*
X91935000Y-47340000D01*
G75*
G02*
X91835000Y-47240000I0J100000D01*
G01*
X91835000Y-45965000D01*
G75*
G02*
X91935000Y-45865000I100000J0D01*
G01*
G37*
G36*
G01*
X92585000Y-45865000D02*
X92785000Y-45865000D01*
G75*
G02*
X92885000Y-45965000I0J-100000D01*
G01*
X92885000Y-47240000D01*
G75*
G02*
X92785000Y-47340000I-100000J0D01*
G01*
X92585000Y-47340000D01*
G75*
G02*
X92485000Y-47240000I0J100000D01*
G01*
X92485000Y-45965000D01*
G75*
G02*
X92585000Y-45865000I100000J0D01*
G01*
G37*
G36*
G01*
X93235000Y-45865000D02*
X93435000Y-45865000D01*
G75*
G02*
X93535000Y-45965000I0J-100000D01*
G01*
X93535000Y-47240000D01*
G75*
G02*
X93435000Y-47340000I-100000J0D01*
G01*
X93235000Y-47340000D01*
G75*
G02*
X93135000Y-47240000I0J100000D01*
G01*
X93135000Y-45965000D01*
G75*
G02*
X93235000Y-45865000I100000J0D01*
G01*
G37*
G36*
G01*
X135270000Y-110550000D02*
X133970000Y-110550000D01*
G75*
G02*
X133720000Y-110300000I0J250000D01*
G01*
X133720000Y-109650000D01*
G75*
G02*
X133970000Y-109400000I250000J0D01*
G01*
X135270000Y-109400000D01*
G75*
G02*
X135520000Y-109650000I0J-250000D01*
G01*
X135520000Y-110300000D01*
G75*
G02*
X135270000Y-110550000I-250000J0D01*
G01*
G37*
G36*
G01*
X135270000Y-107600000D02*
X133970000Y-107600000D01*
G75*
G02*
X133720000Y-107350000I0J250000D01*
G01*
X133720000Y-106700000D01*
G75*
G02*
X133970000Y-106450000I250000J0D01*
G01*
X135270000Y-106450000D01*
G75*
G02*
X135520000Y-106700000I0J-250000D01*
G01*
X135520000Y-107350000D01*
G75*
G02*
X135270000Y-107600000I-250000J0D01*
G01*
G37*
G36*
G01*
X102225000Y-94125000D02*
X102225000Y-92875000D01*
G75*
G02*
X102475000Y-92625000I250000J0D01*
G01*
X103100000Y-92625000D01*
G75*
G02*
X103350000Y-92875000I0J-250000D01*
G01*
X103350000Y-94125000D01*
G75*
G02*
X103100000Y-94375000I-250000J0D01*
G01*
X102475000Y-94375000D01*
G75*
G02*
X102225000Y-94125000I0J250000D01*
G01*
G37*
G36*
G01*
X105150000Y-94125000D02*
X105150000Y-92875000D01*
G75*
G02*
X105400000Y-92625000I250000J0D01*
G01*
X106025000Y-92625000D01*
G75*
G02*
X106275000Y-92875000I0J-250000D01*
G01*
X106275000Y-94125000D01*
G75*
G02*
X106025000Y-94375000I-250000J0D01*
G01*
X105400000Y-94375000D01*
G75*
G02*
X105150000Y-94125000I0J250000D01*
G01*
G37*
D12*
X81390000Y-109562500D03*
X82190000Y-109562500D03*
D13*
X83340000Y-109585000D03*
X84340000Y-109585000D03*
X84840000Y-109585000D03*
X85840000Y-109585000D03*
D12*
X86990000Y-109562500D03*
X87790000Y-109562500D03*
X87790000Y-109562500D03*
X86990000Y-109562500D03*
D13*
X86340000Y-109585000D03*
X85340000Y-109585000D03*
X83840000Y-109585000D03*
X82840000Y-109585000D03*
D12*
X82190000Y-109562500D03*
X81390000Y-109562500D03*
D14*
X80270000Y-110160000D03*
D15*
X80270000Y-114340000D03*
D14*
X88910000Y-110160000D03*
D15*
X88910000Y-114340000D03*
D16*
X82790000Y-47145000D03*
X82790000Y-46045000D03*
X82790000Y-44945000D03*
X82790000Y-43845000D03*
X82790000Y-42745000D03*
X82790000Y-41645000D03*
X82790000Y-40545000D03*
X82790000Y-39445000D03*
X82790000Y-38495000D03*
D17*
X72290000Y-37545000D03*
D18*
X78490000Y-37545000D03*
D19*
X68140000Y-37545000D03*
D18*
X82790000Y-48695000D03*
D20*
X67690000Y-51045000D03*
G36*
G01*
X92675000Y-96050000D02*
X92675000Y-97300000D01*
G75*
G02*
X92425000Y-97550000I-250000J0D01*
G01*
X91800000Y-97550000D01*
G75*
G02*
X91550000Y-97300000I0J250000D01*
G01*
X91550000Y-96050000D01*
G75*
G02*
X91800000Y-95800000I250000J0D01*
G01*
X92425000Y-95800000D01*
G75*
G02*
X92675000Y-96050000I0J-250000D01*
G01*
G37*
G36*
G01*
X89750000Y-96050000D02*
X89750000Y-97300000D01*
G75*
G02*
X89500000Y-97550000I-250000J0D01*
G01*
X88875000Y-97550000D01*
G75*
G02*
X88625000Y-97300000I0J250000D01*
G01*
X88625000Y-96050000D01*
G75*
G02*
X88875000Y-95800000I250000J0D01*
G01*
X89500000Y-95800000D01*
G75*
G02*
X89750000Y-96050000I0J-250000D01*
G01*
G37*
G36*
G01*
X120275000Y-112125000D02*
X120275000Y-113375000D01*
G75*
G02*
X120025000Y-113625000I-250000J0D01*
G01*
X119400000Y-113625000D01*
G75*
G02*
X119150000Y-113375000I0J250000D01*
G01*
X119150000Y-112125000D01*
G75*
G02*
X119400000Y-111875000I250000J0D01*
G01*
X120025000Y-111875000D01*
G75*
G02*
X120275000Y-112125000I0J-250000D01*
G01*
G37*
G36*
G01*
X117350000Y-112125000D02*
X117350000Y-113375000D01*
G75*
G02*
X117100000Y-113625000I-250000J0D01*
G01*
X116475000Y-113625000D01*
G75*
G02*
X116225000Y-113375000I0J250000D01*
G01*
X116225000Y-112125000D01*
G75*
G02*
X116475000Y-111875000I250000J0D01*
G01*
X117100000Y-111875000D01*
G75*
G02*
X117350000Y-112125000I0J-250000D01*
G01*
G37*
G36*
G01*
X95225000Y-96875000D02*
X95225000Y-95625000D01*
G75*
G02*
X95475000Y-95375000I250000J0D01*
G01*
X96100000Y-95375000D01*
G75*
G02*
X96350000Y-95625000I0J-250000D01*
G01*
X96350000Y-96875000D01*
G75*
G02*
X96100000Y-97125000I-250000J0D01*
G01*
X95475000Y-97125000D01*
G75*
G02*
X95225000Y-96875000I0J250000D01*
G01*
G37*
G36*
G01*
X98150000Y-96875000D02*
X98150000Y-95625000D01*
G75*
G02*
X98400000Y-95375000I250000J0D01*
G01*
X99025000Y-95375000D01*
G75*
G02*
X99275000Y-95625000I0J-250000D01*
G01*
X99275000Y-96875000D01*
G75*
G02*
X99025000Y-97125000I-250000J0D01*
G01*
X98400000Y-97125000D01*
G75*
G02*
X98150000Y-96875000I0J250000D01*
G01*
G37*
G36*
G01*
X83850000Y-85075000D02*
X83850000Y-83775000D01*
G75*
G02*
X84100000Y-83525000I250000J0D01*
G01*
X84750000Y-83525000D01*
G75*
G02*
X85000000Y-83775000I0J-250000D01*
G01*
X85000000Y-85075000D01*
G75*
G02*
X84750000Y-85325000I-250000J0D01*
G01*
X84100000Y-85325000D01*
G75*
G02*
X83850000Y-85075000I0J250000D01*
G01*
G37*
G36*
G01*
X86800000Y-85075000D02*
X86800000Y-83775000D01*
G75*
G02*
X87050000Y-83525000I250000J0D01*
G01*
X87700000Y-83525000D01*
G75*
G02*
X87950000Y-83775000I0J-250000D01*
G01*
X87950000Y-85075000D01*
G75*
G02*
X87700000Y-85325000I-250000J0D01*
G01*
X87050000Y-85325000D01*
G75*
G02*
X86800000Y-85075000I0J250000D01*
G01*
G37*
G36*
G01*
X114750000Y-52950000D02*
X114750000Y-51650000D01*
G75*
G02*
X115000000Y-51400000I250000J0D01*
G01*
X115650000Y-51400000D01*
G75*
G02*
X115900000Y-51650000I0J-250000D01*
G01*
X115900000Y-52950000D01*
G75*
G02*
X115650000Y-53200000I-250000J0D01*
G01*
X115000000Y-53200000D01*
G75*
G02*
X114750000Y-52950000I0J250000D01*
G01*
G37*
G36*
G01*
X117700000Y-52950000D02*
X117700000Y-51650000D01*
G75*
G02*
X117950000Y-51400000I250000J0D01*
G01*
X118600000Y-51400000D01*
G75*
G02*
X118850000Y-51650000I0J-250000D01*
G01*
X118850000Y-52950000D01*
G75*
G02*
X118600000Y-53200000I-250000J0D01*
G01*
X117950000Y-53200000D01*
G75*
G02*
X117700000Y-52950000I0J250000D01*
G01*
G37*
G36*
G01*
X140625000Y-63225000D02*
X141875000Y-63225000D01*
G75*
G02*
X142125000Y-63475000I0J-250000D01*
G01*
X142125000Y-64100000D01*
G75*
G02*
X141875000Y-64350000I-250000J0D01*
G01*
X140625000Y-64350000D01*
G75*
G02*
X140375000Y-64100000I0J250000D01*
G01*
X140375000Y-63475000D01*
G75*
G02*
X140625000Y-63225000I250000J0D01*
G01*
G37*
G36*
G01*
X140625000Y-66150000D02*
X141875000Y-66150000D01*
G75*
G02*
X142125000Y-66400000I0J-250000D01*
G01*
X142125000Y-67025000D01*
G75*
G02*
X141875000Y-67275000I-250000J0D01*
G01*
X140625000Y-67275000D01*
G75*
G02*
X140375000Y-67025000I0J250000D01*
G01*
X140375000Y-66400000D01*
G75*
G02*
X140625000Y-66150000I250000J0D01*
G01*
G37*
G36*
G01*
X136550000Y-88450000D02*
X136850000Y-88450000D01*
G75*
G02*
X137000000Y-88600000I0J-150000D01*
G01*
X137000000Y-89625000D01*
G75*
G02*
X136850000Y-89775000I-150000J0D01*
G01*
X136550000Y-89775000D01*
G75*
G02*
X136400000Y-89625000I0J150000D01*
G01*
X136400000Y-88600000D01*
G75*
G02*
X136550000Y-88450000I150000J0D01*
G01*
G37*
G36*
G01*
X135600000Y-88450000D02*
X135900000Y-88450000D01*
G75*
G02*
X136050000Y-88600000I0J-150000D01*
G01*
X136050000Y-89625000D01*
G75*
G02*
X135900000Y-89775000I-150000J0D01*
G01*
X135600000Y-89775000D01*
G75*
G02*
X135450000Y-89625000I0J150000D01*
G01*
X135450000Y-88600000D01*
G75*
G02*
X135600000Y-88450000I150000J0D01*
G01*
G37*
G36*
G01*
X134650000Y-88450000D02*
X134950000Y-88450000D01*
G75*
G02*
X135100000Y-88600000I0J-150000D01*
G01*
X135100000Y-89625000D01*
G75*
G02*
X134950000Y-89775000I-150000J0D01*
G01*
X134650000Y-89775000D01*
G75*
G02*
X134500000Y-89625000I0J150000D01*
G01*
X134500000Y-88600000D01*
G75*
G02*
X134650000Y-88450000I150000J0D01*
G01*
G37*
G36*
G01*
X134650000Y-90725000D02*
X134950000Y-90725000D01*
G75*
G02*
X135100000Y-90875000I0J-150000D01*
G01*
X135100000Y-91900000D01*
G75*
G02*
X134950000Y-92050000I-150000J0D01*
G01*
X134650000Y-92050000D01*
G75*
G02*
X134500000Y-91900000I0J150000D01*
G01*
X134500000Y-90875000D01*
G75*
G02*
X134650000Y-90725000I150000J0D01*
G01*
G37*
G36*
G01*
X135600000Y-90725000D02*
X135900000Y-90725000D01*
G75*
G02*
X136050000Y-90875000I0J-150000D01*
G01*
X136050000Y-91900000D01*
G75*
G02*
X135900000Y-92050000I-150000J0D01*
G01*
X135600000Y-92050000D01*
G75*
G02*
X135450000Y-91900000I0J150000D01*
G01*
X135450000Y-90875000D01*
G75*
G02*
X135600000Y-90725000I150000J0D01*
G01*
G37*
G36*
G01*
X136550000Y-90725000D02*
X136850000Y-90725000D01*
G75*
G02*
X137000000Y-90875000I0J-150000D01*
G01*
X137000000Y-91900000D01*
G75*
G02*
X136850000Y-92050000I-150000J0D01*
G01*
X136550000Y-92050000D01*
G75*
G02*
X136400000Y-91900000I0J150000D01*
G01*
X136400000Y-90875000D01*
G75*
G02*
X136550000Y-90725000I150000J0D01*
G01*
G37*
G36*
G01*
X142400000Y-110550000D02*
X141100000Y-110550000D01*
G75*
G02*
X140850000Y-110300000I0J250000D01*
G01*
X140850000Y-109650000D01*
G75*
G02*
X141100000Y-109400000I250000J0D01*
G01*
X142400000Y-109400000D01*
G75*
G02*
X142650000Y-109650000I0J-250000D01*
G01*
X142650000Y-110300000D01*
G75*
G02*
X142400000Y-110550000I-250000J0D01*
G01*
G37*
G36*
G01*
X142400000Y-107600000D02*
X141100000Y-107600000D01*
G75*
G02*
X140850000Y-107350000I0J250000D01*
G01*
X140850000Y-106700000D01*
G75*
G02*
X141100000Y-106450000I250000J0D01*
G01*
X142400000Y-106450000D01*
G75*
G02*
X142650000Y-106700000I0J-250000D01*
G01*
X142650000Y-107350000D01*
G75*
G02*
X142400000Y-107600000I-250000J0D01*
G01*
G37*
G36*
G01*
X147725000Y-110875000D02*
X147725000Y-109625000D01*
G75*
G02*
X147975000Y-109375000I250000J0D01*
G01*
X148600000Y-109375000D01*
G75*
G02*
X148850000Y-109625000I0J-250000D01*
G01*
X148850000Y-110875000D01*
G75*
G02*
X148600000Y-111125000I-250000J0D01*
G01*
X147975000Y-111125000D01*
G75*
G02*
X147725000Y-110875000I0J250000D01*
G01*
G37*
G36*
G01*
X150650000Y-110875000D02*
X150650000Y-109625000D01*
G75*
G02*
X150900000Y-109375000I250000J0D01*
G01*
X151525000Y-109375000D01*
G75*
G02*
X151775000Y-109625000I0J-250000D01*
G01*
X151775000Y-110875000D01*
G75*
G02*
X151525000Y-111125000I-250000J0D01*
G01*
X150900000Y-111125000D01*
G75*
G02*
X150650000Y-110875000I0J250000D01*
G01*
G37*
G36*
G01*
X141600000Y-100950000D02*
X142900000Y-100950000D01*
G75*
G02*
X143150000Y-101200000I0J-250000D01*
G01*
X143150000Y-101850000D01*
G75*
G02*
X142900000Y-102100000I-250000J0D01*
G01*
X141600000Y-102100000D01*
G75*
G02*
X141350000Y-101850000I0J250000D01*
G01*
X141350000Y-101200000D01*
G75*
G02*
X141600000Y-100950000I250000J0D01*
G01*
G37*
G36*
G01*
X141600000Y-103900000D02*
X142900000Y-103900000D01*
G75*
G02*
X143150000Y-104150000I0J-250000D01*
G01*
X143150000Y-104800000D01*
G75*
G02*
X142900000Y-105050000I-250000J0D01*
G01*
X141600000Y-105050000D01*
G75*
G02*
X141350000Y-104800000I0J250000D01*
G01*
X141350000Y-104150000D01*
G75*
G02*
X141600000Y-103900000I250000J0D01*
G01*
G37*
G36*
G01*
X130050000Y-94350000D02*
X130050000Y-95650000D01*
G75*
G02*
X129800000Y-95900000I-250000J0D01*
G01*
X129150000Y-95900000D01*
G75*
G02*
X128900000Y-95650000I0J250000D01*
G01*
X128900000Y-94350000D01*
G75*
G02*
X129150000Y-94100000I250000J0D01*
G01*
X129800000Y-94100000D01*
G75*
G02*
X130050000Y-94350000I0J-250000D01*
G01*
G37*
G36*
G01*
X127100000Y-94350000D02*
X127100000Y-95650000D01*
G75*
G02*
X126850000Y-95900000I-250000J0D01*
G01*
X126200000Y-95900000D01*
G75*
G02*
X125950000Y-95650000I0J250000D01*
G01*
X125950000Y-94350000D01*
G75*
G02*
X126200000Y-94100000I250000J0D01*
G01*
X126850000Y-94100000D01*
G75*
G02*
X127100000Y-94350000I0J-250000D01*
G01*
G37*
G36*
G01*
X109125000Y-106525000D02*
X107875000Y-106525000D01*
G75*
G02*
X107625000Y-106275000I0J250000D01*
G01*
X107625000Y-105650000D01*
G75*
G02*
X107875000Y-105400000I250000J0D01*
G01*
X109125000Y-105400000D01*
G75*
G02*
X109375000Y-105650000I0J-250000D01*
G01*
X109375000Y-106275000D01*
G75*
G02*
X109125000Y-106525000I-250000J0D01*
G01*
G37*
G36*
G01*
X109125000Y-103600000D02*
X107875000Y-103600000D01*
G75*
G02*
X107625000Y-103350000I0J250000D01*
G01*
X107625000Y-102725000D01*
G75*
G02*
X107875000Y-102475000I250000J0D01*
G01*
X109125000Y-102475000D01*
G75*
G02*
X109375000Y-102725000I0J-250000D01*
G01*
X109375000Y-103350000D01*
G75*
G02*
X109125000Y-103600000I-250000J0D01*
G01*
G37*
G36*
G01*
X113875000Y-96025000D02*
X112625000Y-96025000D01*
G75*
G02*
X112375000Y-95775000I0J250000D01*
G01*
X112375000Y-95150000D01*
G75*
G02*
X112625000Y-94900000I250000J0D01*
G01*
X113875000Y-94900000D01*
G75*
G02*
X114125000Y-95150000I0J-250000D01*
G01*
X114125000Y-95775000D01*
G75*
G02*
X113875000Y-96025000I-250000J0D01*
G01*
G37*
G36*
G01*
X113875000Y-93100000D02*
X112625000Y-93100000D01*
G75*
G02*
X112375000Y-92850000I0J250000D01*
G01*
X112375000Y-92225000D01*
G75*
G02*
X112625000Y-91975000I250000J0D01*
G01*
X113875000Y-91975000D01*
G75*
G02*
X114125000Y-92225000I0J-250000D01*
G01*
X114125000Y-92850000D01*
G75*
G02*
X113875000Y-93100000I-250000J0D01*
G01*
G37*
G36*
G01*
X95510051Y-107021250D02*
X94260051Y-107021250D01*
G75*
G02*
X94010051Y-106771250I0J250000D01*
G01*
X94010051Y-106146250D01*
G75*
G02*
X94260051Y-105896250I250000J0D01*
G01*
X95510051Y-105896250D01*
G75*
G02*
X95760051Y-106146250I0J-250000D01*
G01*
X95760051Y-106771250D01*
G75*
G02*
X95510051Y-107021250I-250000J0D01*
G01*
G37*
G36*
G01*
X95510051Y-104096250D02*
X94260051Y-104096250D01*
G75*
G02*
X94010051Y-103846250I0J250000D01*
G01*
X94010051Y-103221250D01*
G75*
G02*
X94260051Y-102971250I250000J0D01*
G01*
X95510051Y-102971250D01*
G75*
G02*
X95760051Y-103221250I0J-250000D01*
G01*
X95760051Y-103846250D01*
G75*
G02*
X95510051Y-104096250I-250000J0D01*
G01*
G37*
G36*
G01*
X147400000Y-75550000D02*
X146100000Y-75550000D01*
G75*
G02*
X145850000Y-75300000I0J250000D01*
G01*
X145850000Y-74650000D01*
G75*
G02*
X146100000Y-74400000I250000J0D01*
G01*
X147400000Y-74400000D01*
G75*
G02*
X147650000Y-74650000I0J-250000D01*
G01*
X147650000Y-75300000D01*
G75*
G02*
X147400000Y-75550000I-250000J0D01*
G01*
G37*
G36*
G01*
X147400000Y-72600000D02*
X146100000Y-72600000D01*
G75*
G02*
X145850000Y-72350000I0J250000D01*
G01*
X145850000Y-71700000D01*
G75*
G02*
X146100000Y-71450000I250000J0D01*
G01*
X147400000Y-71450000D01*
G75*
G02*
X147650000Y-71700000I0J-250000D01*
G01*
X147650000Y-72350000D01*
G75*
G02*
X147400000Y-72600000I-250000J0D01*
G01*
G37*
G36*
G01*
X150425000Y-57075000D02*
X150425000Y-58325000D01*
G75*
G02*
X150175000Y-58575000I-250000J0D01*
G01*
X149550000Y-58575000D01*
G75*
G02*
X149300000Y-58325000I0J250000D01*
G01*
X149300000Y-57075000D01*
G75*
G02*
X149550000Y-56825000I250000J0D01*
G01*
X150175000Y-56825000D01*
G75*
G02*
X150425000Y-57075000I0J-250000D01*
G01*
G37*
G36*
G01*
X147500000Y-57075000D02*
X147500000Y-58325000D01*
G75*
G02*
X147250000Y-58575000I-250000J0D01*
G01*
X146625000Y-58575000D01*
G75*
G02*
X146375000Y-58325000I0J250000D01*
G01*
X146375000Y-57075000D01*
G75*
G02*
X146625000Y-56825000I250000J0D01*
G01*
X147250000Y-56825000D01*
G75*
G02*
X147500000Y-57075000I0J-250000D01*
G01*
G37*
G36*
G01*
X98085051Y-106565000D02*
X97785051Y-106565000D01*
G75*
G02*
X97635051Y-106415000I0J150000D01*
G01*
X97635051Y-105390000D01*
G75*
G02*
X97785051Y-105240000I150000J0D01*
G01*
X98085051Y-105240000D01*
G75*
G02*
X98235051Y-105390000I0J-150000D01*
G01*
X98235051Y-106415000D01*
G75*
G02*
X98085051Y-106565000I-150000J0D01*
G01*
G37*
G36*
G01*
X99035051Y-106565000D02*
X98735051Y-106565000D01*
G75*
G02*
X98585051Y-106415000I0J150000D01*
G01*
X98585051Y-105390000D01*
G75*
G02*
X98735051Y-105240000I150000J0D01*
G01*
X99035051Y-105240000D01*
G75*
G02*
X99185051Y-105390000I0J-150000D01*
G01*
X99185051Y-106415000D01*
G75*
G02*
X99035051Y-106565000I-150000J0D01*
G01*
G37*
G36*
G01*
X99985051Y-106565000D02*
X99685051Y-106565000D01*
G75*
G02*
X99535051Y-106415000I0J150000D01*
G01*
X99535051Y-105390000D01*
G75*
G02*
X99685051Y-105240000I150000J0D01*
G01*
X99985051Y-105240000D01*
G75*
G02*
X100135051Y-105390000I0J-150000D01*
G01*
X100135051Y-106415000D01*
G75*
G02*
X99985051Y-106565000I-150000J0D01*
G01*
G37*
G36*
G01*
X99985051Y-104290000D02*
X99685051Y-104290000D01*
G75*
G02*
X99535051Y-104140000I0J150000D01*
G01*
X99535051Y-103115000D01*
G75*
G02*
X99685051Y-102965000I150000J0D01*
G01*
X99985051Y-102965000D01*
G75*
G02*
X100135051Y-103115000I0J-150000D01*
G01*
X100135051Y-104140000D01*
G75*
G02*
X99985051Y-104290000I-150000J0D01*
G01*
G37*
G36*
G01*
X99035051Y-104290000D02*
X98735051Y-104290000D01*
G75*
G02*
X98585051Y-104140000I0J150000D01*
G01*
X98585051Y-103115000D01*
G75*
G02*
X98735051Y-102965000I150000J0D01*
G01*
X99035051Y-102965000D01*
G75*
G02*
X99185051Y-103115000I0J-150000D01*
G01*
X99185051Y-104140000D01*
G75*
G02*
X99035051Y-104290000I-150000J0D01*
G01*
G37*
G36*
G01*
X98085051Y-104290000D02*
X97785051Y-104290000D01*
G75*
G02*
X97635051Y-104140000I0J150000D01*
G01*
X97635051Y-103115000D01*
G75*
G02*
X97785051Y-102965000I150000J0D01*
G01*
X98085051Y-102965000D01*
G75*
G02*
X98235051Y-103115000I0J-150000D01*
G01*
X98235051Y-104140000D01*
G75*
G02*
X98085051Y-104290000I-150000J0D01*
G01*
G37*
G36*
G01*
X84675000Y-64475000D02*
X85925000Y-64475000D01*
G75*
G02*
X86175000Y-64725000I0J-250000D01*
G01*
X86175000Y-65350000D01*
G75*
G02*
X85925000Y-65600000I-250000J0D01*
G01*
X84675000Y-65600000D01*
G75*
G02*
X84425000Y-65350000I0J250000D01*
G01*
X84425000Y-64725000D01*
G75*
G02*
X84675000Y-64475000I250000J0D01*
G01*
G37*
G36*
G01*
X84675000Y-67400000D02*
X85925000Y-67400000D01*
G75*
G02*
X86175000Y-67650000I0J-250000D01*
G01*
X86175000Y-68275000D01*
G75*
G02*
X85925000Y-68525000I-250000J0D01*
G01*
X84675000Y-68525000D01*
G75*
G02*
X84425000Y-68275000I0J250000D01*
G01*
X84425000Y-67650000D01*
G75*
G02*
X84675000Y-67400000I250000J0D01*
G01*
G37*
G36*
G01*
X149000000Y-41275000D02*
X149000000Y-39525000D01*
G75*
G02*
X149225000Y-39300000I225000J0D01*
G01*
X150275000Y-39300000D01*
G75*
G02*
X150500000Y-39525000I0J-225000D01*
G01*
X150500000Y-41275000D01*
G75*
G02*
X150275000Y-41500000I-225000J0D01*
G01*
X149225000Y-41500000D01*
G75*
G02*
X149000000Y-41275000I0J225000D01*
G01*
G37*
G36*
G01*
X145900000Y-41275000D02*
X145900000Y-39525000D01*
G75*
G02*
X146125000Y-39300000I225000J0D01*
G01*
X147175000Y-39300000D01*
G75*
G02*
X147400000Y-39525000I0J-225000D01*
G01*
X147400000Y-41275000D01*
G75*
G02*
X147175000Y-41500000I-225000J0D01*
G01*
X146125000Y-41500000D01*
G75*
G02*
X145900000Y-41275000I0J225000D01*
G01*
G37*
G36*
G01*
X104015000Y-48125000D02*
X102765000Y-48125000D01*
G75*
G02*
X102515000Y-47875000I0J250000D01*
G01*
X102515000Y-47250000D01*
G75*
G02*
X102765000Y-47000000I250000J0D01*
G01*
X104015000Y-47000000D01*
G75*
G02*
X104265000Y-47250000I0J-250000D01*
G01*
X104265000Y-47875000D01*
G75*
G02*
X104015000Y-48125000I-250000J0D01*
G01*
G37*
G36*
G01*
X104015000Y-45200000D02*
X102765000Y-45200000D01*
G75*
G02*
X102515000Y-44950000I0J250000D01*
G01*
X102515000Y-44325000D01*
G75*
G02*
X102765000Y-44075000I250000J0D01*
G01*
X104015000Y-44075000D01*
G75*
G02*
X104265000Y-44325000I0J-250000D01*
G01*
X104265000Y-44950000D01*
G75*
G02*
X104015000Y-45200000I-250000J0D01*
G01*
G37*
D21*
X84250000Y-87625000D03*
X84250000Y-89925000D03*
D22*
X90550000Y-89925000D03*
D21*
X84250000Y-92225000D03*
G36*
G01*
X90800000Y-34240000D02*
X90800000Y-34540000D01*
G75*
G02*
X90650000Y-34690000I-150000J0D01*
G01*
X89625000Y-34690000D01*
G75*
G02*
X89475000Y-34540000I0J150000D01*
G01*
X89475000Y-34240000D01*
G75*
G02*
X89625000Y-34090000I150000J0D01*
G01*
X90650000Y-34090000D01*
G75*
G02*
X90800000Y-34240000I0J-150000D01*
G01*
G37*
G36*
G01*
X90800000Y-33290000D02*
X90800000Y-33590000D01*
G75*
G02*
X90650000Y-33740000I-150000J0D01*
G01*
X89625000Y-33740000D01*
G75*
G02*
X89475000Y-33590000I0J150000D01*
G01*
X89475000Y-33290000D01*
G75*
G02*
X89625000Y-33140000I150000J0D01*
G01*
X90650000Y-33140000D01*
G75*
G02*
X90800000Y-33290000I0J-150000D01*
G01*
G37*
G36*
G01*
X90800000Y-32340000D02*
X90800000Y-32640000D01*
G75*
G02*
X90650000Y-32790000I-150000J0D01*
G01*
X89625000Y-32790000D01*
G75*
G02*
X89475000Y-32640000I0J150000D01*
G01*
X89475000Y-32340000D01*
G75*
G02*
X89625000Y-32190000I150000J0D01*
G01*
X90650000Y-32190000D01*
G75*
G02*
X90800000Y-32340000I0J-150000D01*
G01*
G37*
G36*
G01*
X88525000Y-32340000D02*
X88525000Y-32640000D01*
G75*
G02*
X88375000Y-32790000I-150000J0D01*
G01*
X87350000Y-32790000D01*
G75*
G02*
X87200000Y-32640000I0J150000D01*
G01*
X87200000Y-32340000D01*
G75*
G02*
X87350000Y-32190000I150000J0D01*
G01*
X88375000Y-32190000D01*
G75*
G02*
X88525000Y-32340000I0J-150000D01*
G01*
G37*
G36*
G01*
X88525000Y-34240000D02*
X88525000Y-34540000D01*
G75*
G02*
X88375000Y-34690000I-150000J0D01*
G01*
X87350000Y-34690000D01*
G75*
G02*
X87200000Y-34540000I0J150000D01*
G01*
X87200000Y-34240000D01*
G75*
G02*
X87350000Y-34090000I150000J0D01*
G01*
X88375000Y-34090000D01*
G75*
G02*
X88525000Y-34240000I0J-150000D01*
G01*
G37*
G36*
G01*
X102200000Y-96650000D02*
X102200000Y-95350000D01*
G75*
G02*
X102450000Y-95100000I250000J0D01*
G01*
X103100000Y-95100000D01*
G75*
G02*
X103350000Y-95350000I0J-250000D01*
G01*
X103350000Y-96650000D01*
G75*
G02*
X103100000Y-96900000I-250000J0D01*
G01*
X102450000Y-96900000D01*
G75*
G02*
X102200000Y-96650000I0J250000D01*
G01*
G37*
G36*
G01*
X105150000Y-96650000D02*
X105150000Y-95350000D01*
G75*
G02*
X105400000Y-95100000I250000J0D01*
G01*
X106050000Y-95100000D01*
G75*
G02*
X106300000Y-95350000I0J-250000D01*
G01*
X106300000Y-96650000D01*
G75*
G02*
X106050000Y-96900000I-250000J0D01*
G01*
X105400000Y-96900000D01*
G75*
G02*
X105150000Y-96650000I0J250000D01*
G01*
G37*
G36*
G01*
X117675000Y-33187659D02*
X117675000Y-31887659D01*
G75*
G02*
X117925000Y-31637659I250000J0D01*
G01*
X118575000Y-31637659D01*
G75*
G02*
X118825000Y-31887659I0J-250000D01*
G01*
X118825000Y-33187659D01*
G75*
G02*
X118575000Y-33437659I-250000J0D01*
G01*
X117925000Y-33437659D01*
G75*
G02*
X117675000Y-33187659I0J250000D01*
G01*
G37*
G36*
G01*
X120625000Y-33187659D02*
X120625000Y-31887659D01*
G75*
G02*
X120875000Y-31637659I250000J0D01*
G01*
X121525000Y-31637659D01*
G75*
G02*
X121775000Y-31887659I0J-250000D01*
G01*
X121775000Y-33187659D01*
G75*
G02*
X121525000Y-33437659I-250000J0D01*
G01*
X120875000Y-33437659D01*
G75*
G02*
X120625000Y-33187659I0J250000D01*
G01*
G37*
G36*
G01*
X105375000Y-102475000D02*
X106625000Y-102475000D01*
G75*
G02*
X106875000Y-102725000I0J-250000D01*
G01*
X106875000Y-103350000D01*
G75*
G02*
X106625000Y-103600000I-250000J0D01*
G01*
X105375000Y-103600000D01*
G75*
G02*
X105125000Y-103350000I0J250000D01*
G01*
X105125000Y-102725000D01*
G75*
G02*
X105375000Y-102475000I250000J0D01*
G01*
G37*
G36*
G01*
X105375000Y-105400000D02*
X106625000Y-105400000D01*
G75*
G02*
X106875000Y-105650000I0J-250000D01*
G01*
X106875000Y-106275000D01*
G75*
G02*
X106625000Y-106525000I-250000J0D01*
G01*
X105375000Y-106525000D01*
G75*
G02*
X105125000Y-106275000I0J250000D01*
G01*
X105125000Y-105650000D01*
G75*
G02*
X105375000Y-105400000I250000J0D01*
G01*
G37*
G36*
G01*
X156550000Y-115125000D02*
X156550000Y-113375000D01*
G75*
G02*
X156775000Y-113150000I225000J0D01*
G01*
X157825000Y-113150000D01*
G75*
G02*
X158050000Y-113375000I0J-225000D01*
G01*
X158050000Y-115125000D01*
G75*
G02*
X157825000Y-115350000I-225000J0D01*
G01*
X156775000Y-115350000D01*
G75*
G02*
X156550000Y-115125000I0J225000D01*
G01*
G37*
G36*
G01*
X153450000Y-115125000D02*
X153450000Y-113375000D01*
G75*
G02*
X153675000Y-113150000I225000J0D01*
G01*
X154725000Y-113150000D01*
G75*
G02*
X154950000Y-113375000I0J-225000D01*
G01*
X154950000Y-115125000D01*
G75*
G02*
X154725000Y-115350000I-225000J0D01*
G01*
X153675000Y-115350000D01*
G75*
G02*
X153450000Y-115125000I0J225000D01*
G01*
G37*
G36*
G01*
X155000000Y-69125000D02*
X155000000Y-67375000D01*
G75*
G02*
X155225000Y-67150000I225000J0D01*
G01*
X156275000Y-67150000D01*
G75*
G02*
X156500000Y-67375000I0J-225000D01*
G01*
X156500000Y-69125000D01*
G75*
G02*
X156275000Y-69350000I-225000J0D01*
G01*
X155225000Y-69350000D01*
G75*
G02*
X155000000Y-69125000I0J225000D01*
G01*
G37*
G36*
G01*
X151900000Y-69125000D02*
X151900000Y-67375000D01*
G75*
G02*
X152125000Y-67150000I225000J0D01*
G01*
X153175000Y-67150000D01*
G75*
G02*
X153400000Y-67375000I0J-225000D01*
G01*
X153400000Y-69125000D01*
G75*
G02*
X153175000Y-69350000I-225000J0D01*
G01*
X152125000Y-69350000D01*
G75*
G02*
X151900000Y-69125000I0J225000D01*
G01*
G37*
G36*
G01*
X137250000Y-29850000D02*
X137250000Y-28550000D01*
G75*
G02*
X137500000Y-28300000I250000J0D01*
G01*
X138150000Y-28300000D01*
G75*
G02*
X138400000Y-28550000I0J-250000D01*
G01*
X138400000Y-29850000D01*
G75*
G02*
X138150000Y-30100000I-250000J0D01*
G01*
X137500000Y-30100000D01*
G75*
G02*
X137250000Y-29850000I0J250000D01*
G01*
G37*
G36*
G01*
X140200000Y-29850000D02*
X140200000Y-28550000D01*
G75*
G02*
X140450000Y-28300000I250000J0D01*
G01*
X141100000Y-28300000D01*
G75*
G02*
X141350000Y-28550000I0J-250000D01*
G01*
X141350000Y-29850000D01*
G75*
G02*
X141100000Y-30100000I-250000J0D01*
G01*
X140450000Y-30100000D01*
G75*
G02*
X140200000Y-29850000I0J250000D01*
G01*
G37*
M02*
