G04 #@! TF.GenerationSoftware,KiCad,Pcbnew,7.0.11+1*
G04 #@! TF.CreationDate,2024-04-14T01:38:43+00:00*
G04 #@! TF.ProjectId,mbed-ce-ci-shield-v2,6d626564-2d63-4652-9d63-692d73686965,0*
G04 #@! TF.SameCoordinates,Original*
G04 #@! TF.FileFunction,Copper,L4,Bot*
G04 #@! TF.FilePolarity,Positive*
%FSLAX46Y46*%
G04 Gerber Fmt 4.6, Leading zero omitted, Abs format (unit mm)*
G04 Created by KiCad (PCBNEW 7.0.11+1) date 2024-04-14 01:38:43*
%MOMM*%
%LPD*%
G01*
G04 APERTURE LIST*
G04 #@! TA.AperFunction,ComponentPad*
%ADD10R,1.700000X1.700000*%
G04 #@! TD*
G04 #@! TA.AperFunction,ComponentPad*
%ADD11O,1.700000X1.700000*%
G04 #@! TD*
G04 #@! TA.AperFunction,ComponentPad*
%ADD12R,1.600000X1.600000*%
G04 #@! TD*
G04 #@! TA.AperFunction,ComponentPad*
%ADD13C,1.600000*%
G04 #@! TD*
G04 #@! TA.AperFunction,ComponentPad*
%ADD14O,1.000000X2.100000*%
G04 #@! TD*
G04 #@! TA.AperFunction,ComponentPad*
%ADD15O,1.000000X1.800000*%
G04 #@! TD*
G04 #@! TA.AperFunction,ComponentPad*
%ADD16R,1.500000X1.500000*%
G04 #@! TD*
G04 #@! TA.AperFunction,ComponentPad*
%ADD17C,1.500000*%
G04 #@! TD*
G04 #@! TA.AperFunction,ComponentPad*
%ADD18C,3.500000*%
G04 #@! TD*
G04 #@! TA.AperFunction,SMDPad,CuDef*
%ADD19C,0.500000*%
G04 #@! TD*
G04 #@! TA.AperFunction,ViaPad*
%ADD20C,0.800000*%
G04 #@! TD*
G04 #@! TA.AperFunction,Conductor*
%ADD21C,0.750000*%
G04 #@! TD*
G04 #@! TA.AperFunction,Conductor*
%ADD22C,0.250000*%
G04 #@! TD*
G04 #@! TA.AperFunction,Conductor*
%ADD23C,0.200000*%
G04 #@! TD*
G04 APERTURE END LIST*
G04 #@! TA.AperFunction,EtchedComponent*
G36*
X106170000Y-49190000D02*
G01*
X105170000Y-49190000D01*
X105170000Y-48690000D01*
X106170000Y-48690000D01*
X106170000Y-49190000D01*
G37*
G04 #@! TD.AperFunction*
D10*
X79750000Y-72870000D03*
D11*
X79750000Y-70330000D03*
X79750000Y-67790000D03*
X79750000Y-65250000D03*
X79750000Y-62710000D03*
X79750000Y-60170000D03*
X79750000Y-57630000D03*
X79750000Y-55090000D03*
D12*
X153000000Y-76402651D03*
D13*
X153000000Y-72902651D03*
D10*
X79750000Y-99794000D03*
D11*
X79750000Y-97254000D03*
X79750000Y-94714000D03*
X79750000Y-92174000D03*
X79750000Y-89634000D03*
X79750000Y-87094000D03*
X79750000Y-84554000D03*
X79750000Y-82014000D03*
X79750000Y-79474000D03*
X79750000Y-76934000D03*
D14*
X94565051Y-110160000D03*
D15*
X94565051Y-114340000D03*
D14*
X103205051Y-110160000D03*
D15*
X103205051Y-114340000D03*
D10*
X128010000Y-90650000D03*
D11*
X128010000Y-88110000D03*
X128010000Y-85570000D03*
X128010000Y-83030000D03*
X128010000Y-80490000D03*
X128010000Y-77950000D03*
X128010000Y-75410000D03*
X128010000Y-72870000D03*
D10*
X128010000Y-67790000D03*
D11*
X128010000Y-65250000D03*
X128010000Y-62710000D03*
X128010000Y-60170000D03*
X128010000Y-57630000D03*
X128010000Y-55090000D03*
D14*
X80270000Y-110160000D03*
D15*
X80270000Y-114340000D03*
D14*
X88910000Y-110160000D03*
D15*
X88910000Y-114340000D03*
D12*
X152250000Y-102500000D03*
D13*
X152250000Y-106000000D03*
D16*
X143107685Y-93940000D03*
D17*
X143107685Y-91440000D03*
X143107685Y-89440000D03*
X143107685Y-86940000D03*
X140487685Y-93940000D03*
X140487685Y-91440000D03*
X140487685Y-89440000D03*
X140487685Y-86940000D03*
D18*
X145817685Y-97010000D03*
X145817685Y-83870000D03*
X140137685Y-97010000D03*
X140137685Y-83870000D03*
D19*
X105170000Y-48940000D03*
X106170000Y-48940000D03*
D20*
X93035051Y-104940000D03*
X106400000Y-56200000D03*
X88590000Y-108015000D03*
X90650000Y-99675000D03*
X86535051Y-103940000D03*
X101450000Y-70300000D03*
X86700000Y-74900000D03*
X116300000Y-32137659D03*
X133500000Y-90250000D03*
X116100000Y-40200000D03*
X114900000Y-30037659D03*
X134620000Y-108620000D03*
X84680000Y-47560000D03*
X143250000Y-113750000D03*
X115750000Y-102500000D03*
X131500000Y-94250000D03*
X128800000Y-51900000D03*
X109750000Y-73550000D03*
X93710000Y-31690000D03*
X136200000Y-44600000D03*
X115500000Y-112750000D03*
X89740000Y-44974500D03*
X78400000Y-36000000D03*
X118200000Y-75950000D03*
X116600000Y-52900000D03*
X113250000Y-90000000D03*
X91910000Y-38890000D03*
X115000000Y-56200000D03*
X104500000Y-98500000D03*
X103400000Y-89150000D03*
X122000000Y-34337659D03*
X93400000Y-60800000D03*
X122340000Y-55230000D03*
X147900000Y-43800000D03*
X98885051Y-105265000D03*
X131760000Y-106165500D03*
X100370000Y-45880000D03*
X142220000Y-103000000D03*
X124900000Y-30037659D03*
X129300000Y-35837159D03*
X133800000Y-32137659D03*
X153500000Y-56000000D03*
X69000000Y-36200000D03*
X79780000Y-31950000D03*
X119800000Y-52725500D03*
X117900000Y-29537659D03*
X84750000Y-41600000D03*
X137800000Y-27200000D03*
X67800000Y-52800000D03*
X102910000Y-38490000D03*
X142250000Y-108500000D03*
X102262500Y-27405000D03*
X122500000Y-92250000D03*
X82150000Y-88425000D03*
X134750000Y-102750000D03*
X80840000Y-108265000D03*
X102385051Y-105265000D03*
X144900000Y-56100000D03*
X110000000Y-78900000D03*
X143750000Y-65250000D03*
X146850000Y-70560000D03*
X86890000Y-98070000D03*
X140220000Y-107050000D03*
X124800000Y-27537659D03*
X116500000Y-28000000D03*
X133700000Y-35037659D03*
X135900000Y-42200000D03*
X91080000Y-37540000D03*
X132200000Y-51700000D03*
X88600000Y-82600000D03*
X101850000Y-44260000D03*
X116040000Y-91060000D03*
X125300000Y-52700000D03*
X125920000Y-112460000D03*
X107110000Y-29990000D03*
X150000000Y-110250000D03*
X95500000Y-45080000D03*
X101000000Y-84550000D03*
X93400000Y-63200000D03*
X140800000Y-27300000D03*
X137500000Y-108500000D03*
X139000000Y-70200000D03*
X108600000Y-62975402D03*
X146700000Y-47800000D03*
X142800000Y-54200000D03*
X136400000Y-47037659D03*
X112010000Y-103775500D03*
X102350000Y-66700000D03*
X117950000Y-72800000D03*
X94300000Y-99400000D03*
X112100000Y-34200000D03*
X105070000Y-38850000D03*
X100200000Y-62800000D03*
X116850000Y-99110000D03*
X117900000Y-51000000D03*
X117470000Y-108850000D03*
X140420000Y-105730000D03*
X133940000Y-99590000D03*
X132075500Y-99270000D03*
X139010000Y-104250000D03*
X97385051Y-107765000D03*
X94885051Y-107765000D03*
X130750000Y-108750000D03*
X131250000Y-101250000D03*
X123800000Y-104720000D03*
X137210000Y-77060000D03*
X123487701Y-110512299D03*
X144770000Y-110470000D03*
X108200000Y-52300000D03*
X113900000Y-52800000D03*
X107100000Y-51500000D03*
X112964137Y-52449051D03*
X111500000Y-54500000D03*
X103800000Y-50500000D03*
X109184623Y-54500500D03*
X111500000Y-51975500D03*
X119900000Y-60200000D03*
X97400000Y-60800000D03*
X108000000Y-60600000D03*
X108000000Y-61599503D03*
X113000000Y-61600000D03*
X125750000Y-106275000D03*
X98350000Y-102070000D03*
X125750000Y-105225000D03*
X99190000Y-101340000D03*
X120100000Y-58200000D03*
X117800000Y-62000000D03*
X108600000Y-64000000D03*
X103300000Y-62700000D03*
X106450000Y-70800000D03*
X112550000Y-69950000D03*
X149250000Y-68500000D03*
X126250000Y-102750000D03*
X143750000Y-110250000D03*
X124750000Y-110750000D03*
X124900000Y-104670000D03*
X140890000Y-70500000D03*
X126262299Y-103762299D03*
X151000000Y-70250000D03*
X136000000Y-93500000D03*
X138500000Y-91750000D03*
X135754214Y-98135042D03*
X135750219Y-91378280D03*
X145000000Y-99750000D03*
X122440000Y-102200000D03*
X115721278Y-84478722D03*
X91670000Y-30860000D03*
X117780000Y-64260000D03*
X87540000Y-46740000D03*
X111324500Y-49800000D03*
X99850497Y-55479503D03*
X104930126Y-58424008D03*
X96600000Y-52100000D03*
X113000000Y-58680000D03*
X92840000Y-54140000D03*
X98642299Y-58382299D03*
X87890000Y-66345500D03*
X87930000Y-71430000D03*
X88230000Y-63770000D03*
X119920000Y-64570000D03*
X116900000Y-55500000D03*
X107949695Y-55675000D03*
X87494161Y-50624500D03*
X86500000Y-49700000D03*
X112700000Y-54800000D03*
X107070000Y-54738153D03*
X94252299Y-51827701D03*
X102275500Y-58380000D03*
X88700000Y-51275500D03*
X108110000Y-59370000D03*
X90900000Y-52000000D03*
X95200000Y-53800000D03*
X84800000Y-48780000D03*
X104682299Y-59392299D03*
X84760000Y-53500000D03*
X111760000Y-63580000D03*
X96440000Y-59190000D03*
X89170000Y-48055500D03*
X103230000Y-48940000D03*
X73900000Y-74500000D03*
X120100000Y-41437659D03*
X123928768Y-88871232D03*
X119229163Y-40300000D03*
X124671232Y-88128768D03*
X116250000Y-74600000D03*
X111050000Y-91400000D03*
X82370000Y-35780000D03*
X80940000Y-42780000D03*
D21*
X140220000Y-107050000D02*
X140760000Y-107050000D01*
X155740000Y-70710000D02*
X150780000Y-65750000D01*
X150780000Y-65560000D02*
X148460000Y-65560000D01*
X110260000Y-107390000D02*
X127630000Y-107390000D01*
X134811141Y-107050000D02*
X140220000Y-107050000D01*
X86890000Y-100650051D02*
X86775051Y-100765000D01*
X147470000Y-66550000D02*
X146850000Y-67170000D01*
X106122299Y-103252299D02*
X110260000Y-107390000D01*
X155200000Y-92610000D02*
X155740000Y-92070000D01*
X155740000Y-92070000D02*
X155740000Y-70710000D01*
X131800000Y-110210000D02*
X131800000Y-110061141D01*
X86775051Y-100765000D02*
X89155051Y-103145000D01*
X148460000Y-65560000D02*
X147470000Y-66550000D01*
X89262350Y-103252299D02*
X105242350Y-103252299D01*
X150780000Y-65750000D02*
X150780000Y-65560000D01*
X86890000Y-98070000D02*
X86890000Y-100650051D01*
X131800000Y-110061141D02*
X134811141Y-107050000D01*
X146850000Y-67170000D02*
X146850000Y-70560000D01*
X105242350Y-103252299D02*
X106122299Y-103252299D01*
X140760000Y-107050000D02*
X155200000Y-92610000D01*
X89155051Y-103145000D02*
X89262350Y-103252299D01*
X130450000Y-110210000D02*
X131800000Y-110210000D01*
X127630000Y-107390000D02*
X130450000Y-110210000D01*
D22*
X140420000Y-105660000D02*
X139010000Y-104250000D01*
X140420000Y-105730000D02*
X140420000Y-105660000D01*
X132395500Y-99590000D02*
X132075500Y-99270000D01*
X133940000Y-99590000D02*
X132395500Y-99590000D01*
X94885051Y-107765000D02*
X97385051Y-107765000D01*
X130750000Y-101750000D02*
X131250000Y-101250000D01*
X130750000Y-108750000D02*
X130750000Y-101750000D01*
X129420000Y-90307208D02*
X135150000Y-84577208D01*
X135150000Y-79120000D02*
X137210000Y-77060000D01*
X123800000Y-102770000D02*
X129420000Y-97150000D01*
X123800000Y-104720000D02*
X123800000Y-102770000D01*
X135150000Y-84577208D02*
X135150000Y-79120000D01*
X129420000Y-97150000D02*
X129420000Y-90307208D01*
X144770000Y-110470000D02*
X144555305Y-110470000D01*
X124675402Y-111700000D02*
X123487701Y-110512299D01*
X144555305Y-110470000D02*
X143325305Y-111700000D01*
X143325305Y-111700000D02*
X124675402Y-111700000D01*
X109150000Y-53250000D02*
X111500000Y-53250000D01*
X113450000Y-53250000D02*
X113900000Y-52800000D01*
X111500000Y-53250000D02*
X113450000Y-53250000D01*
X108200000Y-52300000D02*
X109150000Y-53250000D01*
X109400000Y-52700000D02*
X112713188Y-52700000D01*
X107100000Y-51500000D02*
X108425305Y-51500000D01*
X108425305Y-51500000D02*
X109400000Y-52474695D01*
X109400000Y-52474695D02*
X109400000Y-52700000D01*
X112713188Y-52700000D02*
X112964137Y-52449051D01*
X103800000Y-50500000D02*
X104075000Y-50775000D01*
X110299500Y-50775000D02*
X111500000Y-51975500D01*
X111499500Y-54500500D02*
X111500000Y-54500000D01*
X104075000Y-50775000D02*
X110299500Y-50775000D01*
X109184623Y-54500500D02*
X111499500Y-54500500D01*
X108000000Y-60600000D02*
X107875000Y-60725000D01*
X97475000Y-60725000D02*
X97400000Y-60800000D01*
X119900000Y-60200000D02*
X119375000Y-60725000D01*
X108125000Y-60725000D02*
X108000000Y-60600000D01*
X119375000Y-60725000D02*
X108125000Y-60725000D01*
X107875000Y-60725000D02*
X97475000Y-60725000D01*
X108000000Y-61599503D02*
X108000497Y-61600000D01*
X108000497Y-61600000D02*
X113000000Y-61600000D01*
D23*
X106436800Y-102065000D02*
X99430000Y-102065000D01*
X125450001Y-105975001D02*
X110346801Y-105975001D01*
X125750000Y-106275000D02*
X125450001Y-105975001D01*
D22*
X98355000Y-102065000D02*
X98350000Y-102070000D01*
D23*
X110346801Y-105975001D02*
X106436800Y-102065000D01*
D22*
X99430000Y-102065000D02*
X98355000Y-102065000D01*
X99430000Y-101580000D02*
X99190000Y-101340000D01*
D23*
X110533199Y-105524999D02*
X106623200Y-101615000D01*
X125750000Y-105225000D02*
X125450001Y-105524999D01*
X125450001Y-105524999D02*
X110533199Y-105524999D01*
X106623200Y-101615000D02*
X99430000Y-101615000D01*
D22*
X99430000Y-101615000D02*
X99430000Y-101580000D01*
X108600000Y-64000000D02*
X107300000Y-62700000D01*
X120100000Y-58200000D02*
X120625000Y-58725000D01*
X108600000Y-64000000D02*
X110000000Y-62600000D01*
X119125305Y-62000000D02*
X117800000Y-62000000D01*
X107300000Y-62700000D02*
X103300000Y-62700000D01*
X120625000Y-60500305D02*
X119125305Y-62000000D01*
X120625000Y-58725000D02*
X120625000Y-60500305D01*
X117200000Y-62600000D02*
X117800000Y-62000000D01*
X110000000Y-62600000D02*
X117200000Y-62600000D01*
X106450000Y-70800000D02*
X111700000Y-70800000D01*
X111700000Y-70800000D02*
X112550000Y-69950000D01*
X137113604Y-79250000D02*
X149113604Y-79250000D01*
X136000000Y-85000000D02*
X136050000Y-85000000D01*
X136050000Y-80313604D02*
X137113604Y-79250000D01*
X150275000Y-69525000D02*
X149250000Y-68500000D01*
X149113604Y-79250000D02*
X150431802Y-77931802D01*
X150431802Y-77931802D02*
X150275000Y-77775000D01*
X130325000Y-98675000D02*
X130325000Y-90675000D01*
X126250000Y-102750000D02*
X130325000Y-98675000D01*
X150275000Y-77775000D02*
X150275000Y-69525000D01*
X136050000Y-85000000D02*
X136050000Y-80313604D01*
X130325000Y-90675000D02*
X136000000Y-85000000D01*
X125250000Y-111250000D02*
X124750000Y-110750000D01*
X143750000Y-110250000D02*
X142750000Y-111250000D01*
X126000000Y-111250000D02*
X125250000Y-111250000D01*
X142750000Y-111250000D02*
X126000000Y-111250000D01*
X140890000Y-74837208D02*
X140890000Y-70500000D01*
X129870000Y-98493604D02*
X129870000Y-90493604D01*
X124900000Y-104670000D02*
X124900000Y-103074695D01*
X135600000Y-84763604D02*
X135600000Y-80127208D01*
X124900000Y-103074695D02*
X127504695Y-100470000D01*
X127893604Y-100470000D02*
X129870000Y-98493604D01*
X129870000Y-90493604D02*
X135600000Y-84763604D01*
X135600000Y-80127208D02*
X140890000Y-74837208D01*
X127504695Y-100470000D02*
X127893604Y-100470000D01*
X136500000Y-80500000D02*
X136500000Y-85250000D01*
X151000000Y-78000000D02*
X149250000Y-79750000D01*
X130775000Y-99250305D02*
X126263006Y-103762299D01*
X126263006Y-103762299D02*
X126262299Y-103762299D01*
X151000000Y-70250000D02*
X151000000Y-78000000D01*
X137250000Y-79750000D02*
X136500000Y-80500000D01*
X130775000Y-90975000D02*
X130775000Y-99250305D01*
X136500000Y-85250000D02*
X130775000Y-90975000D01*
X149250000Y-79750000D02*
X137250000Y-79750000D01*
D21*
X135754214Y-93745786D02*
X136000000Y-93500000D01*
X135754214Y-98135042D02*
X135754214Y-93745786D01*
X136954172Y-99335000D02*
X135754214Y-98135042D01*
X152455000Y-81545000D02*
X153000000Y-81000000D01*
X153000000Y-81000000D02*
X153000000Y-76402651D01*
X143107685Y-97392315D02*
X141165000Y-99335000D01*
X138500000Y-91750000D02*
X138500000Y-86500000D01*
X143107685Y-93940000D02*
X143107685Y-97392315D01*
X141165000Y-99335000D02*
X136954172Y-99335000D01*
X137955000Y-81545000D02*
X152455000Y-81545000D01*
X138500000Y-86500000D02*
X137500000Y-85500000D01*
X137500000Y-82000000D02*
X137955000Y-81545000D01*
X137500000Y-85500000D02*
X137500000Y-82000000D01*
X135621720Y-91378280D02*
X134804214Y-92195786D01*
X135120000Y-100285000D02*
X144465000Y-100285000D01*
X144465000Y-100285000D02*
X145000000Y-99750000D01*
X134779214Y-97731183D02*
X134779214Y-98538901D01*
X135120000Y-98879687D02*
X135120000Y-100285000D01*
X138311939Y-93940000D02*
X135750219Y-91378280D01*
X134779214Y-98538901D02*
X135120000Y-98879687D01*
X134804214Y-97706183D02*
X134779214Y-97731183D01*
X134804214Y-92195786D02*
X134804214Y-97706183D01*
X140487685Y-93940000D02*
X138311939Y-93940000D01*
X135750219Y-91378280D02*
X135621720Y-91378280D01*
D22*
X122440000Y-100340000D02*
X117300000Y-95200000D01*
X117300000Y-86057444D02*
X115721278Y-84478722D01*
X117300000Y-95200000D02*
X117300000Y-86057444D01*
X122440000Y-102200000D02*
X122440000Y-100340000D01*
X87540000Y-46740000D02*
X87540000Y-34290000D01*
X87540000Y-46740000D02*
X85775000Y-48505000D01*
X109013604Y-68690000D02*
X113443604Y-64260000D01*
X85775000Y-48505000D02*
X85775000Y-62765000D01*
X85775000Y-62765000D02*
X91700000Y-68690000D01*
X90970000Y-30860000D02*
X91670000Y-30860000D01*
X113443604Y-64260000D02*
X117780000Y-64260000D01*
X91700000Y-68690000D02*
X109013604Y-68690000D01*
X87540000Y-34290000D02*
X90970000Y-30860000D01*
X106170000Y-48940000D02*
X110464500Y-48940000D01*
X110464500Y-48940000D02*
X111324500Y-49800000D01*
X103344813Y-58424008D02*
X100020402Y-55099598D01*
X99850497Y-55479503D02*
X99850497Y-55269503D01*
X104930126Y-58424008D02*
X103344813Y-58424008D01*
X99850497Y-55269503D02*
X100020402Y-55099598D01*
X97827208Y-52100000D02*
X103247208Y-57520000D01*
X111840000Y-57520000D02*
X113000000Y-58680000D01*
X103247208Y-57520000D02*
X111840000Y-57520000D01*
X96600000Y-52100000D02*
X97827208Y-52100000D01*
X92840000Y-54140000D02*
X93880000Y-55180000D01*
X95880000Y-55180000D02*
X98642299Y-57942299D01*
X98642299Y-57942299D02*
X98642299Y-58382299D01*
X93880000Y-55180000D02*
X95880000Y-55180000D01*
X87890000Y-66345500D02*
X87890000Y-71390000D01*
X87890000Y-71390000D02*
X87930000Y-71430000D01*
X118885000Y-63535000D02*
X113532208Y-63535000D01*
X108827208Y-68240000D02*
X92700000Y-68240000D01*
X113532208Y-63535000D02*
X108827208Y-68240000D01*
X119920000Y-64570000D02*
X118885000Y-63535000D01*
X92700000Y-68240000D02*
X88230000Y-63770000D01*
X101826257Y-55462653D02*
X107737348Y-55462653D01*
X109625305Y-56000000D02*
X112525305Y-56000000D01*
X109300305Y-55675000D02*
X109625305Y-56000000D01*
X96914104Y-50550500D02*
X101826257Y-55462653D01*
X112525305Y-56000000D02*
X113125305Y-55400000D01*
X87568161Y-50550500D02*
X96914104Y-50550500D01*
X116800000Y-55400000D02*
X116900000Y-55500000D01*
X107737348Y-55462653D02*
X107949695Y-55675000D01*
X87494161Y-50624500D02*
X87568161Y-50550500D01*
X107949695Y-55675000D02*
X109300305Y-55675000D01*
X113125305Y-55400000D02*
X116800000Y-55400000D01*
X86500000Y-49700000D02*
X86700000Y-49900000D01*
X87699695Y-49925000D02*
X88300305Y-49925000D01*
X107070000Y-54800000D02*
X108100000Y-54800000D01*
X86700000Y-49900000D02*
X87674695Y-49900000D01*
X101800000Y-54800000D02*
X107070000Y-54800000D01*
X96900000Y-49900000D02*
X101800000Y-54800000D01*
X88325305Y-49900000D02*
X96900000Y-49900000D01*
X111950000Y-55550000D02*
X109811701Y-55550000D01*
X108525000Y-55225000D02*
X108100000Y-54800000D01*
X109811701Y-55550000D02*
X109486701Y-55225000D01*
X109486701Y-55225000D02*
X108525000Y-55225000D01*
X87674695Y-49900000D02*
X87699695Y-49925000D01*
X112700000Y-54800000D02*
X111950000Y-55550000D01*
X107070000Y-54800000D02*
X107070000Y-54738153D01*
X88300305Y-49925000D02*
X88325305Y-49900000D01*
X93400500Y-51275500D02*
X95200000Y-53075000D01*
X88700000Y-51275500D02*
X93400500Y-51275500D01*
X95200000Y-53075000D02*
X96421396Y-53075000D01*
X96421396Y-53075000D02*
X101726396Y-58380000D01*
X101726396Y-58380000D02*
X102275500Y-58380000D01*
X94900000Y-54600000D02*
X92300000Y-52000000D01*
X101510000Y-59600000D02*
X102027299Y-60117299D01*
X102027299Y-60117299D02*
X107362701Y-60117299D01*
X92300000Y-52000000D02*
X90900000Y-52000000D01*
X107362701Y-60117299D02*
X108110000Y-59370000D01*
X101510000Y-59600000D02*
X96510000Y-54600000D01*
X96510000Y-54600000D02*
X94900000Y-54600000D01*
X96510000Y-53800000D02*
X101910000Y-59200000D01*
X102102299Y-59392299D02*
X104682299Y-59392299D01*
X101910000Y-59200000D02*
X102102299Y-59392299D01*
X84800000Y-53460000D02*
X84760000Y-53500000D01*
X95200000Y-53800000D02*
X96510000Y-53800000D01*
X84800000Y-48780000D02*
X84800000Y-53460000D01*
X109295000Y-64725000D02*
X109690000Y-64330000D01*
X108015000Y-64725000D02*
X109295000Y-64725000D01*
X109690000Y-64330000D02*
X110440000Y-63580000D01*
X107180000Y-63890000D02*
X108015000Y-64725000D01*
X96440000Y-59190000D02*
X96440000Y-60865305D01*
X110440000Y-63580000D02*
X111760000Y-63580000D01*
X107090000Y-63800000D02*
X107180000Y-63890000D01*
X104530000Y-63800000D02*
X107090000Y-63800000D01*
X99374695Y-63800000D02*
X104530000Y-63800000D01*
X96440000Y-60865305D02*
X99374695Y-63800000D01*
X90054500Y-48940000D02*
X103230000Y-48940000D01*
X105170000Y-48940000D02*
X103230000Y-48940000D01*
X76334000Y-76934000D02*
X73900000Y-74500000D01*
X89170000Y-48055500D02*
X90054500Y-48940000D01*
X79750000Y-76934000D02*
X76334000Y-76934000D01*
D23*
X120100000Y-41437659D02*
X121175000Y-42512659D01*
X121175000Y-85693199D02*
X123928768Y-88446967D01*
X121175000Y-42512659D02*
X121175000Y-85693199D01*
X123928768Y-88446967D02*
X123928768Y-88871232D01*
X121625000Y-41972709D02*
X121625000Y-85506801D01*
X124246967Y-88128768D02*
X124671232Y-88128768D01*
X119229163Y-40300000D02*
X119952291Y-40300000D01*
X119500000Y-40300000D02*
X119500000Y-40247709D01*
X119952291Y-40300000D02*
X121625000Y-41972709D01*
X121625000Y-85506801D02*
X124246967Y-88128768D01*
X119229163Y-40300000D02*
X119500000Y-40300000D01*
D22*
X111050000Y-91174695D02*
X114550000Y-87674695D01*
X114550000Y-76300000D02*
X116250000Y-74600000D01*
X114550000Y-87674695D02*
X114550000Y-85450000D01*
X111050000Y-91400000D02*
X111050000Y-91174695D01*
X114550000Y-85450000D02*
X114550000Y-76300000D01*
X80940000Y-42780000D02*
X80960000Y-42760000D01*
X80960000Y-42760000D02*
X80960000Y-37190000D01*
X80960000Y-37190000D02*
X82370000Y-35780000D01*
M02*
