M48
INCH,TZ
T1C0.0157
T2C0.0236
T3C0.0315
T4C0.0362
T5C0.0394
T6C0.0906
%
G90
G05
T1
X26693Y-20787
X27165Y-14252
X29094Y-29331
X30866Y-14173
X31409Y-12579
X31827Y-42624
X31866Y-16843
X32343Y-34813
X32429Y-14087
X33339Y-18724
X33366Y-16378
X33370Y-21063
X33386Y-19205
X34055Y-19567
X34069Y-40921
X34134Y-29488
X34209Y-38610
X34447Y-19931
X34465Y-18402
X34602Y-26120
X34618Y-28122
X34736Y-25106
X34878Y-42526
X34882Y-32520
X34921Y-20187
X35106Y-18919
X35331Y-17706
X35689Y-39242
X35787Y-20472
X35858Y-14780
X36091Y-12150
X36185Y-15311
X36551Y-21315
X36628Y-41315
X36772Y-23937
X36772Y-24882
X36894Y-12476
X37107Y-20405
X37126Y-39134
X37356Y-42427
X37480Y-21181
X37598Y-17748
X37969Y-23303
X38031Y-20512
X38341Y-42427
X38346Y-23937
X38720Y-40185
X38836Y-22985
X38931Y-41443
X39051Y-39898
X39311Y-21842
X39449Y-24724
X39516Y-18063
X39764Y-33287
X39941Y-27677
X40098Y-17425
X40261Y-10789
X40266Y-22984
X40295Y-26260
X40309Y-41443
X40516Y-15154
X40642Y-19268
X40669Y-24685
X40709Y-35098
X40866Y-19882
X41142Y-38780
X41214Y-23383
X41311Y-23002
X41366Y-15295
X41890Y-22126
X41909Y-27874
X42154Y-21550
X42165Y-20276
X42169Y-11807
X42500Y-21919
X42520Y-23858
X42520Y-24252
X42563Y-23374
X42598Y-20591
X42756Y-24793
X42756Y-25197
X42986Y-21457
X43209Y-28957
X43307Y-31063
X43720Y-35984
X43829Y-19606
X43898Y-20463
X43898Y-21457
X44000Y-25031
X44098Y-40856
X44134Y-13465
X44311Y-27539
X44370Y-21575
X44474Y-20649
X44488Y-23102
X44488Y-24252
X44587Y-35433
X44843Y-20787
X45236Y-11826
X45276Y-22126
X45472Y-44390
X45560Y-33259
X45571Y-40354
X45685Y-35850
X45709Y-15827
X45768Y-29370
X45787Y-12653
X45866Y-11024
X45906Y-20827
X46004Y-39020
X46024Y-21850
X46248Y-42854
X46370Y-25299
X46378Y-24409
X46417Y-11629
X46417Y-20079
X46437Y-28661
X46535Y-29902
X46941Y-15866
X47165Y-20758
X47205Y-23701
X47213Y-25421
X47283Y-16314
X47283Y-22913
X48031Y-13519
X48165Y-21744
X48205Y-40236
X48228Y-36319
X48617Y-43509
X48740Y-41228
X48791Y-34989
X49083Y-34696
X49114Y-43602
X49134Y-10842
X49173Y-11826
X49173Y-41209
X49331Y-20748
X49508Y-41427
X49508Y-41841
X49575Y-44276
X49705Y-40453
X49710Y-40851
X50709Y-20433
X50906Y-14109
X51476Y-42815
X51673Y-39862
X51772Y-37106
X51874Y-41797
X51998Y-39083
X52047Y-20354
X52559Y-35531
X52638Y-13794
X52677Y-12653
X52732Y-39209
X53000Y-42764
X53051Y-40453
X53445Y-35976
X53447Y-38636
X53504Y-16614
X53543Y-36811
X53622Y-17559
X53701Y-18519
X54020Y-30339
X54134Y-42717
X54252Y-10709
X54528Y-36122
X54724Y-27638
X54728Y-41043
X55205Y-42146
X55283Y-41626
X55433Y-10748
X55469Y-27756
X55992Y-40551
X56004Y-42717
X56220Y-21339
X56398Y-44783
X56594Y-25689
X56594Y-43406
X56996Y-43492
X57047Y-22087
X57087Y-39272
X57756Y-18819
X57815Y-27780
X58228Y-17244
X58760Y-26969
X59055Y-43406
X59449Y-27657
X60433Y-22047
T3
X59941Y-40354
X59941Y-41732
X60236Y-28702
X60236Y-30080
T4
X55310Y-34228
X55310Y-35213
X55310Y-36000
X55310Y-36984
X56342Y-34228
X56342Y-35213
X56342Y-36000
X56342Y-36984
T5
X31398Y-21689
X31398Y-22689
X31398Y-23689
X31398Y-24689
X31398Y-25689
X31398Y-26689
X31398Y-27689
X31398Y-28689
X31398Y-30289
X31398Y-31289
X31398Y-32289
X31398Y-33289
X31398Y-34289
X31398Y-35289
X31398Y-36289
X31398Y-37289
X31398Y-38289
X31398Y-39289
X50398Y-21689
X50398Y-22689
X50398Y-23689
X50398Y-24689
X50398Y-25689
X50398Y-26689
X50398Y-28689
X50398Y-29689
X50398Y-30689
X50398Y-31689
X50398Y-32689
X50398Y-33689
X50398Y-34689
X50398Y-35689
T6
X55172Y-33020
X55172Y-38193
X57409Y-33020
X57409Y-38193
T2
G00X31602Y-43154
M15
G01X31602Y-43587
M16
G05
G00X31602Y-44858
M15
G01X31602Y-45173
M16
G05
G00X35004Y-43154
M15
G01X35004Y-43587
M16
G05
G00X35004Y-44858
M15
G01X35004Y-45173
M16
G05
G00X37230Y-43154
M15
G01X37230Y-43587
M16
G05
G00X37230Y-44858
M15
G01X37230Y-45173
M16
G05
G00X40632Y-43154
M15
G01X40632Y-43587
M16
G05
G00X40632Y-44858
M15
G01X40632Y-45173
M16
G05
M30
