G04 #@! TF.GenerationSoftware,KiCad,Pcbnew,7.0.7-7.0.7~ubuntu23.04.1*
G04 #@! TF.CreationDate,2023-09-22T06:11:18+00:00*
G04 #@! TF.ProjectId,mbed-ce-ci-shield-v2,6d626564-2d63-4652-9d63-692d73686965,0*
G04 #@! TF.SameCoordinates,Original*
G04 #@! TF.FileFunction,Soldermask,Bot*
G04 #@! TF.FilePolarity,Negative*
%FSLAX46Y46*%
G04 Gerber Fmt 4.6, Leading zero omitted, Abs format (unit mm)*
G04 Created by KiCad (PCBNEW 7.0.7-7.0.7~ubuntu23.04.1) date 2023-09-22 06:11:18*
%MOMM*%
%LPD*%
G01*
G04 APERTURE LIST*
%ADD10O,1.801600X1.801600*%
%ADD11C,1.701600*%
%ADD12C,0.751600*%
%ADD13O,1.101600X2.201600*%
%ADD14O,1.101600X1.901600*%
%ADD15C,1.601600*%
%ADD16C,3.601600*%
%ADD17C,0.901600*%
G04 APERTURE END LIST*
G36*
G01*
X80650800Y-72020000D02*
X80650800Y-73720000D01*
G75*
G02*
X80600000Y-73770800I-50800J0D01*
G01*
X78900000Y-73770800D01*
G75*
G02*
X78849200Y-73720000I0J50800D01*
G01*
X78849200Y-72020000D01*
G75*
G02*
X78900000Y-71969200I50800J0D01*
G01*
X80600000Y-71969200D01*
G75*
G02*
X80650800Y-72020000I0J-50800D01*
G01*
G37*
D10*
X79750000Y-70330000D03*
X79750000Y-67790000D03*
X79750000Y-65250000D03*
X79750000Y-62710000D03*
X79750000Y-60170000D03*
X79750000Y-57630000D03*
X79750000Y-55090000D03*
G36*
G01*
X153800000Y-77253451D02*
X152200000Y-77253451D01*
G75*
G02*
X152149200Y-77202651I0J50800D01*
G01*
X152149200Y-75602651D01*
G75*
G02*
X152200000Y-75551851I50800J0D01*
G01*
X153800000Y-75551851D01*
G75*
G02*
X153850800Y-75602651I0J-50800D01*
G01*
X153850800Y-77202651D01*
G75*
G02*
X153800000Y-77253451I-50800J0D01*
G01*
G37*
D11*
X153000000Y-72902651D03*
G36*
G01*
X80650800Y-98944000D02*
X80650800Y-100644000D01*
G75*
G02*
X80600000Y-100694800I-50800J0D01*
G01*
X78900000Y-100694800D01*
G75*
G02*
X78849200Y-100644000I0J50800D01*
G01*
X78849200Y-98944000D01*
G75*
G02*
X78900000Y-98893200I50800J0D01*
G01*
X80600000Y-98893200D01*
G75*
G02*
X80650800Y-98944000I0J-50800D01*
G01*
G37*
D10*
X79750000Y-97254000D03*
X79750000Y-94714000D03*
X79750000Y-92174000D03*
X79750000Y-89634000D03*
X79750000Y-87094000D03*
X79750000Y-84554000D03*
X79750000Y-82014000D03*
X79750000Y-79474000D03*
X79750000Y-76934000D03*
D12*
X95995051Y-110660000D03*
X101775051Y-110660000D03*
D13*
X94565051Y-110160000D03*
D14*
X94565051Y-114340000D03*
D13*
X103205051Y-110160000D03*
D14*
X103205051Y-114340000D03*
G36*
G01*
X128910800Y-89800000D02*
X128910800Y-91500000D01*
G75*
G02*
X128860000Y-91550800I-50800J0D01*
G01*
X127160000Y-91550800D01*
G75*
G02*
X127109200Y-91500000I0J50800D01*
G01*
X127109200Y-89800000D01*
G75*
G02*
X127160000Y-89749200I50800J0D01*
G01*
X128860000Y-89749200D01*
G75*
G02*
X128910800Y-89800000I0J-50800D01*
G01*
G37*
D10*
X128010000Y-88110000D03*
X128010000Y-85570000D03*
X128010000Y-83030000D03*
X128010000Y-80490000D03*
X128010000Y-77950000D03*
X128010000Y-75410000D03*
X128010000Y-72870000D03*
G36*
G01*
X128910800Y-66940000D02*
X128910800Y-68640000D01*
G75*
G02*
X128860000Y-68690800I-50800J0D01*
G01*
X127160000Y-68690800D01*
G75*
G02*
X127109200Y-68640000I0J50800D01*
G01*
X127109200Y-66940000D01*
G75*
G02*
X127160000Y-66889200I50800J0D01*
G01*
X128860000Y-66889200D01*
G75*
G02*
X128910800Y-66940000I0J-50800D01*
G01*
G37*
X128010000Y-65250000D03*
X128010000Y-62710000D03*
X128010000Y-60170000D03*
X128010000Y-57630000D03*
X128010000Y-55090000D03*
D12*
X81700000Y-110660000D03*
X87480000Y-110660000D03*
D13*
X80270000Y-110160000D03*
D14*
X80270000Y-114340000D03*
D13*
X88910000Y-110160000D03*
D14*
X88910000Y-114340000D03*
G36*
G01*
X151450000Y-101649200D02*
X153050000Y-101649200D01*
G75*
G02*
X153100800Y-101700000I0J-50800D01*
G01*
X153100800Y-103300000D01*
G75*
G02*
X153050000Y-103350800I-50800J0D01*
G01*
X151450000Y-103350800D01*
G75*
G02*
X151399200Y-103300000I0J50800D01*
G01*
X151399200Y-101700000D01*
G75*
G02*
X151450000Y-101649200I50800J0D01*
G01*
G37*
D11*
X152250000Y-106000000D03*
G36*
G01*
X143908485Y-93190000D02*
X143908485Y-94690000D01*
G75*
G02*
X143857685Y-94740800I-50800J0D01*
G01*
X142357685Y-94740800D01*
G75*
G02*
X142306885Y-94690000I0J50800D01*
G01*
X142306885Y-93190000D01*
G75*
G02*
X142357685Y-93139200I50800J0D01*
G01*
X143857685Y-93139200D01*
G75*
G02*
X143908485Y-93190000I0J-50800D01*
G01*
G37*
D15*
X143107685Y-91440000D03*
X143107685Y-89440000D03*
X143107685Y-86940000D03*
X140487685Y-93940000D03*
X140487685Y-91440000D03*
X140487685Y-89440000D03*
X140487685Y-86940000D03*
D16*
X145817685Y-97010000D03*
X145817685Y-83870000D03*
X140137685Y-97010000D03*
X140137685Y-83870000D03*
D17*
X93035051Y-104940000D03*
X106400000Y-56200000D03*
X88590000Y-108015000D03*
X90650000Y-99675000D03*
X86535051Y-103940000D03*
X116320000Y-70040000D03*
X86700000Y-74900000D03*
X116300000Y-32137659D03*
X133500000Y-90250000D03*
X116100000Y-40200000D03*
X114900000Y-30037659D03*
X134620000Y-108620000D03*
X84600000Y-48800000D03*
X89400000Y-35700000D03*
X143250000Y-113750000D03*
X115750000Y-102500000D03*
X131500000Y-94250000D03*
X128800000Y-51900000D03*
X105700000Y-64900000D03*
X87800000Y-31800000D03*
X136200000Y-44600000D03*
X115500000Y-112750000D03*
X78400000Y-36000000D03*
X116600000Y-52900000D03*
X84800000Y-42700000D03*
X93700000Y-82600000D03*
X115000000Y-56200000D03*
X104500000Y-98500000D03*
X118450000Y-77762500D03*
X96500000Y-78300000D03*
X122000000Y-34337659D03*
X93400000Y-60800000D03*
X122340000Y-55230000D03*
X147900000Y-43800000D03*
X98885051Y-105265000D03*
X131760000Y-106165500D03*
X142220000Y-103000000D03*
X124900000Y-30037659D03*
X129300000Y-35837159D03*
X111050000Y-87362500D03*
X133800000Y-32137659D03*
X153500000Y-56000000D03*
X69000000Y-36200000D03*
X90025500Y-44700000D03*
X102050000Y-87162500D03*
X119800000Y-52725500D03*
X111020000Y-82040000D03*
X117900000Y-29537659D03*
X86300000Y-44000000D03*
X137800000Y-27200000D03*
X67800000Y-52800000D03*
X97000000Y-38600000D03*
X142250000Y-108500000D03*
X96700000Y-27200000D03*
X122500000Y-92250000D03*
X82150000Y-88425000D03*
X134750000Y-102750000D03*
X80840000Y-108265000D03*
X102385051Y-105265000D03*
X144900000Y-56100000D03*
X100850000Y-79990000D03*
X143750000Y-65250000D03*
X146850000Y-70560000D03*
X86890000Y-98070000D03*
X140220000Y-107050000D03*
X124800000Y-27537659D03*
X116500000Y-28000000D03*
X133700000Y-35037659D03*
X135900000Y-42200000D03*
X88000000Y-49200000D03*
X132200000Y-51700000D03*
X88600000Y-82600000D03*
X125300000Y-52700000D03*
X106650000Y-90762500D03*
X125920000Y-112460000D03*
X101200000Y-30100000D03*
X150000000Y-110250000D03*
X93000000Y-77500000D03*
X93400000Y-63200000D03*
X140800000Y-27300000D03*
X137500000Y-108500000D03*
X98100000Y-39500000D03*
X139000000Y-70200000D03*
X108600000Y-62975402D03*
X146700000Y-47800000D03*
X102900000Y-64700000D03*
X142800000Y-54200000D03*
X136400000Y-47037659D03*
X112010000Y-103775500D03*
X124150000Y-77570000D03*
X86600000Y-34600000D03*
X89800000Y-40100000D03*
X94300000Y-99400000D03*
X96200000Y-82600000D03*
X112100000Y-34200000D03*
X116320000Y-86670000D03*
X100200000Y-62800000D03*
X116850000Y-99110000D03*
X117900000Y-51000000D03*
X118050000Y-68350000D03*
X117470000Y-108850000D03*
X140420000Y-105730000D03*
X133940000Y-99590000D03*
X132075500Y-99270000D03*
X139010000Y-104250000D03*
X97385051Y-107765000D03*
X94885051Y-107765000D03*
X130750000Y-108750000D03*
X131250000Y-101250000D03*
X123800000Y-104720000D03*
X137210000Y-77060000D03*
X123487701Y-110512299D03*
X144770000Y-110470000D03*
X108200000Y-52300000D03*
X113900000Y-52800000D03*
X107100000Y-51500000D03*
X112964137Y-52449051D03*
X111500000Y-54500000D03*
X103800000Y-50500000D03*
X109184623Y-54500500D03*
X111500000Y-51975500D03*
X119900000Y-60200000D03*
X97400000Y-60800000D03*
X108000000Y-60600000D03*
X108000000Y-61599503D03*
X113000000Y-61600000D03*
X125750000Y-106275000D03*
X98350000Y-102070000D03*
X125750000Y-105225000D03*
X99190000Y-101340000D03*
X149250000Y-68500000D03*
X126250000Y-102750000D03*
X143750000Y-110250000D03*
X124750000Y-110750000D03*
X124900000Y-104670000D03*
X140890000Y-70500000D03*
X126262299Y-103762299D03*
X151000000Y-70250000D03*
X136000000Y-93500000D03*
X138500000Y-91750000D03*
X135754214Y-98135042D03*
X135750219Y-91378280D03*
X145000000Y-99750000D03*
X117975000Y-88100000D03*
X113900000Y-74713000D03*
X109100000Y-77600000D03*
X122440000Y-102200000D03*
X98500000Y-69300000D03*
X111324500Y-49800000D03*
X97900000Y-49100000D03*
X115003372Y-75762395D03*
X119025000Y-88100000D03*
X96600000Y-52100000D03*
X109000000Y-56400000D03*
X98800000Y-50500000D03*
X117600000Y-58300000D03*
X88230000Y-63770000D03*
X119920000Y-64570000D03*
X86524500Y-42400000D03*
X84900000Y-41300000D03*
X116900000Y-55500000D03*
X106900000Y-69200000D03*
X122700000Y-61900000D03*
X122324500Y-56300000D03*
X87494161Y-50624500D03*
X119800000Y-63300000D03*
X86500000Y-49700000D03*
X108100000Y-54800000D03*
X112700000Y-54800000D03*
X80400000Y-51275500D03*
X80400000Y-46600000D03*
X112800000Y-60000000D03*
X88700000Y-51275500D03*
X104600000Y-60000000D03*
X90900000Y-52000000D03*
X95200000Y-53800000D03*
X108000000Y-59200000D03*
X73900000Y-74500000D03*
X120100000Y-58200000D03*
X117800000Y-62000000D03*
X108600000Y-64000000D03*
X103300000Y-62700000D03*
X120100000Y-41437659D03*
X123928768Y-88871232D03*
X119229163Y-40300000D03*
X124671232Y-88128768D03*
M02*
