G04 #@! TF.GenerationSoftware,KiCad,Pcbnew,8.0.8+1*
G04 #@! TF.CreationDate,2025-04-26T20:07:53+00:00*
G04 #@! TF.ProjectId,mbed-ce-ci-shield-v2,6d626564-2d63-4652-9d63-692d73686965,0*
G04 #@! TF.SameCoordinates,Original*
G04 #@! TF.FileFunction,Soldermask,Bot*
G04 #@! TF.FilePolarity,Negative*
%FSLAX46Y46*%
G04 Gerber Fmt 4.6, Leading zero omitted, Abs format (unit mm)*
G04 Created by KiCad (PCBNEW 8.0.8+1) date 2025-04-26 20:07:53*
%MOMM*%
%LPD*%
G01*
G04 APERTURE LIST*
%ADD10O,1.801600X1.801600*%
%ADD11C,1.701600*%
%ADD12C,0.751600*%
%ADD13O,1.101600X2.201600*%
%ADD14O,1.101600X1.901600*%
%ADD15C,1.601600*%
%ADD16C,3.601600*%
G04 APERTURE END LIST*
G36*
G01*
X80650800Y-72020000D02*
X80650800Y-73720000D01*
G75*
G02*
X80600000Y-73770800I-50800J0D01*
G01*
X78900000Y-73770800D01*
G75*
G02*
X78849200Y-73720000I0J50800D01*
G01*
X78849200Y-72020000D01*
G75*
G02*
X78900000Y-71969200I50800J0D01*
G01*
X80600000Y-71969200D01*
G75*
G02*
X80650800Y-72020000I0J-50800D01*
G01*
G37*
D10*
X79750000Y-70330000D03*
X79750000Y-67790000D03*
X79750000Y-65250000D03*
X79750000Y-62710000D03*
X79750000Y-60170000D03*
X79750000Y-57630000D03*
X79750000Y-55090000D03*
G36*
G01*
X153800000Y-77253451D02*
X152200000Y-77253451D01*
G75*
G02*
X152149200Y-77202651I0J50800D01*
G01*
X152149200Y-75602651D01*
G75*
G02*
X152200000Y-75551851I50800J0D01*
G01*
X153800000Y-75551851D01*
G75*
G02*
X153850800Y-75602651I0J-50800D01*
G01*
X153850800Y-77202651D01*
G75*
G02*
X153800000Y-77253451I-50800J0D01*
G01*
G37*
D11*
X153000000Y-72902651D03*
G36*
G01*
X80650800Y-98944000D02*
X80650800Y-100644000D01*
G75*
G02*
X80600000Y-100694800I-50800J0D01*
G01*
X78900000Y-100694800D01*
G75*
G02*
X78849200Y-100644000I0J50800D01*
G01*
X78849200Y-98944000D01*
G75*
G02*
X78900000Y-98893200I50800J0D01*
G01*
X80600000Y-98893200D01*
G75*
G02*
X80650800Y-98944000I0J-50800D01*
G01*
G37*
D10*
X79750000Y-97254000D03*
X79750000Y-94714000D03*
X79750000Y-92174000D03*
X79750000Y-89634000D03*
X79750000Y-87094000D03*
X79750000Y-84554000D03*
X79750000Y-82014000D03*
X79750000Y-79474000D03*
X79750000Y-76934000D03*
D12*
X95995051Y-110660000D03*
X101775051Y-110660000D03*
D13*
X94565051Y-110160000D03*
D14*
X94565051Y-114340000D03*
D13*
X103205051Y-110160000D03*
D14*
X103205051Y-114340000D03*
G36*
G01*
X128910800Y-89800000D02*
X128910800Y-91500000D01*
G75*
G02*
X128860000Y-91550800I-50800J0D01*
G01*
X127160000Y-91550800D01*
G75*
G02*
X127109200Y-91500000I0J50800D01*
G01*
X127109200Y-89800000D01*
G75*
G02*
X127160000Y-89749200I50800J0D01*
G01*
X128860000Y-89749200D01*
G75*
G02*
X128910800Y-89800000I0J-50800D01*
G01*
G37*
D10*
X128010000Y-88110000D03*
X128010000Y-85570000D03*
X128010000Y-83030000D03*
X128010000Y-80490000D03*
X128010000Y-77950000D03*
X128010000Y-75410000D03*
X128010000Y-72870000D03*
G36*
G01*
X128910800Y-66940000D02*
X128910800Y-68640000D01*
G75*
G02*
X128860000Y-68690800I-50800J0D01*
G01*
X127160000Y-68690800D01*
G75*
G02*
X127109200Y-68640000I0J50800D01*
G01*
X127109200Y-66940000D01*
G75*
G02*
X127160000Y-66889200I50800J0D01*
G01*
X128860000Y-66889200D01*
G75*
G02*
X128910800Y-66940000I0J-50800D01*
G01*
G37*
X128010000Y-65250000D03*
X128010000Y-62710000D03*
X128010000Y-60170000D03*
X128010000Y-57630000D03*
X128010000Y-55090000D03*
G36*
G01*
X67400800Y-96425000D02*
X67400800Y-98125000D01*
G75*
G02*
X67350000Y-98175800I-50800J0D01*
G01*
X65650000Y-98175800D01*
G75*
G02*
X65599200Y-98125000I0J50800D01*
G01*
X65599200Y-96425000D01*
G75*
G02*
X65650000Y-96374200I50800J0D01*
G01*
X67350000Y-96374200D01*
G75*
G02*
X67400800Y-96425000I0J-50800D01*
G01*
G37*
X66500000Y-94735000D03*
G36*
G01*
X57099200Y-112575000D02*
X57099200Y-110875000D01*
G75*
G02*
X57150000Y-110824200I50800J0D01*
G01*
X58850000Y-110824200D01*
G75*
G02*
X58900800Y-110875000I0J-50800D01*
G01*
X58900800Y-112575000D01*
G75*
G02*
X58850000Y-112625800I-50800J0D01*
G01*
X57150000Y-112625800D01*
G75*
G02*
X57099200Y-112575000I0J50800D01*
G01*
G37*
X58000000Y-114265000D03*
G36*
G01*
X61099200Y-95575000D02*
X61099200Y-93875000D01*
G75*
G02*
X61150000Y-93824200I50800J0D01*
G01*
X62850000Y-93824200D01*
G75*
G02*
X62900800Y-93875000I0J-50800D01*
G01*
X62900800Y-95575000D01*
G75*
G02*
X62850000Y-95625800I-50800J0D01*
G01*
X61150000Y-95625800D01*
G75*
G02*
X61099200Y-95575000I0J50800D01*
G01*
G37*
X62000000Y-97265000D03*
D12*
X81700000Y-110660000D03*
X87480000Y-110660000D03*
D13*
X80270000Y-110160000D03*
D14*
X80270000Y-114340000D03*
D13*
X88910000Y-110160000D03*
D14*
X88910000Y-114340000D03*
G36*
G01*
X151450000Y-101649200D02*
X153050000Y-101649200D01*
G75*
G02*
X153100800Y-101700000I0J-50800D01*
G01*
X153100800Y-103300000D01*
G75*
G02*
X153050000Y-103350800I-50800J0D01*
G01*
X151450000Y-103350800D01*
G75*
G02*
X151399200Y-103300000I0J50800D01*
G01*
X151399200Y-101700000D01*
G75*
G02*
X151450000Y-101649200I50800J0D01*
G01*
G37*
D11*
X152250000Y-106000000D03*
G36*
G01*
X143908485Y-93190000D02*
X143908485Y-94690000D01*
G75*
G02*
X143857685Y-94740800I-50800J0D01*
G01*
X142357685Y-94740800D01*
G75*
G02*
X142306885Y-94690000I0J50800D01*
G01*
X142306885Y-93190000D01*
G75*
G02*
X142357685Y-93139200I50800J0D01*
G01*
X143857685Y-93139200D01*
G75*
G02*
X143908485Y-93190000I0J-50800D01*
G01*
G37*
D15*
X143107685Y-91440000D03*
X143107685Y-89440000D03*
X143107685Y-86940000D03*
X140487685Y-93940000D03*
X140487685Y-91440000D03*
X140487685Y-89440000D03*
X140487685Y-86940000D03*
D16*
X145817685Y-97010000D03*
X145817685Y-83870000D03*
X140137685Y-97010000D03*
X140137685Y-83870000D03*
M02*
